%TF.GenerationSoftware,KiCad,Pcbnew,(6.0.4)*%
%TF.CreationDate,2022-12-06T21:14:27+05:00*%
%TF.ProjectId,max,6d61782e-6b69-4636-9164-5f7063625858,rev?*%
%TF.SameCoordinates,Original*%
%TF.FileFunction,Copper,L2,Bot*%
%TF.FilePolarity,Positive*%
%FSLAX46Y46*%
G04 Gerber Fmt 4.6, Leading zero omitted, Abs format (unit mm)*
G04 Created by KiCad (PCBNEW (6.0.4)) date 2022-12-06 21:14:27*
%MOMM*%
%LPD*%
G01*
G04 APERTURE LIST*
G04 Aperture macros list*
%AMRoundRect*
0 Rectangle with rounded corners*
0 $1 Rounding radius*
0 $2 $3 $4 $5 $6 $7 $8 $9 X,Y pos of 4 corners*
0 Add a 4 corners polygon primitive as box body*
4,1,4,$2,$3,$4,$5,$6,$7,$8,$9,$2,$3,0*
0 Add four circle primitives for the rounded corners*
1,1,$1+$1,$2,$3*
1,1,$1+$1,$4,$5*
1,1,$1+$1,$6,$7*
1,1,$1+$1,$8,$9*
0 Add four rect primitives between the rounded corners*
20,1,$1+$1,$2,$3,$4,$5,0*
20,1,$1+$1,$4,$5,$6,$7,0*
20,1,$1+$1,$6,$7,$8,$9,0*
20,1,$1+$1,$8,$9,$2,$3,0*%
G04 Aperture macros list end*
%TA.AperFunction,ComponentPad*%
%ADD10R,1.560000X1.560000*%
%TD*%
%TA.AperFunction,ComponentPad*%
%ADD11C,1.560000*%
%TD*%
%TA.AperFunction,ComponentPad*%
%ADD12R,2.100000X2.100000*%
%TD*%
%TA.AperFunction,ComponentPad*%
%ADD13C,2.100000*%
%TD*%
%TA.AperFunction,ComponentPad*%
%ADD14R,1.650000X1.650000*%
%TD*%
%TA.AperFunction,ComponentPad*%
%ADD15C,1.650000*%
%TD*%
%TA.AperFunction,ComponentPad*%
%ADD16O,1.600000X1.600000*%
%TD*%
%TA.AperFunction,ComponentPad*%
%ADD17R,1.600000X1.600000*%
%TD*%
%TA.AperFunction,ComponentPad*%
%ADD18C,1.600000*%
%TD*%
%TA.AperFunction,ComponentPad*%
%ADD19R,1.700000X1.700000*%
%TD*%
%TA.AperFunction,ComponentPad*%
%ADD20O,1.700000X1.700000*%
%TD*%
%TA.AperFunction,ComponentPad*%
%ADD21RoundRect,0.250000X0.725000X-0.600000X0.725000X0.600000X-0.725000X0.600000X-0.725000X-0.600000X0*%
%TD*%
%TA.AperFunction,ComponentPad*%
%ADD22O,1.950000X1.700000*%
%TD*%
%TA.AperFunction,ComponentPad*%
%ADD23RoundRect,0.250000X0.600000X0.725000X-0.600000X0.725000X-0.600000X-0.725000X0.600000X-0.725000X0*%
%TD*%
%TA.AperFunction,ComponentPad*%
%ADD24O,1.700000X1.950000*%
%TD*%
%TA.AperFunction,ComponentPad*%
%ADD25R,1.800000X1.800000*%
%TD*%
%TA.AperFunction,ComponentPad*%
%ADD26C,1.800000*%
%TD*%
G04 APERTURE END LIST*
D10*
%TO.P,U101,1,3V3*%
%TO.N,+3V3*%
X125157500Y-62730000D03*
D11*
%TO.P,U101,2,EN*%
%TO.N,unconnected-(U101-Pad2)*%
X125157500Y-65270000D03*
%TO.P,U101,19,EXT_5V*%
%TO.N,Net-(J102-Pad1)*%
X125157500Y-108450000D03*
%TO.P,U101,3,SENSOR_VP*%
%TO.N,unconnected-(U101-Pad3)*%
X125157500Y-67810000D03*
%TO.P,U101,4,SENSOR_VN*%
%TO.N,Net-(SW101-Pad6)*%
X125157500Y-70350000D03*
%TO.P,U101,5,IO34*%
%TO.N,Net-(SW101-Pad5)*%
X125157500Y-72890000D03*
%TO.P,U101,6,IO35*%
%TO.N,Net-(SW101-Pad4)*%
X125157500Y-75430000D03*
%TO.P,U101,7,IO32*%
%TO.N,Net-(J103-Pad5)*%
X125157500Y-77970000D03*
%TO.P,U101,8,IO33*%
%TO.N,Net-(J101-Pad1)*%
X125157500Y-80510000D03*
%TO.P,U101,9,IO25*%
%TO.N,Net-(J101-Pad2)*%
X125157500Y-83050000D03*
%TO.P,U101,10,IO26*%
%TO.N,Net-(J101-Pad3)*%
X125157500Y-85590000D03*
%TO.P,U101,11,IO27*%
%TO.N,Net-(J101-Pad4)*%
X125157500Y-88130000D03*
%TO.P,U101,12,IO14*%
%TO.N,Net-(J101-Pad5)*%
X125157500Y-90670000D03*
%TO.P,U101,13,IO12*%
%TO.N,Net-(J101-Pad6)*%
X125157500Y-93210000D03*
%TO.P,U101,14,GND1*%
%TO.N,unconnected-(U101-Pad14)*%
X125157500Y-95750000D03*
%TO.P,U101,15,IO13*%
%TO.N,Net-(J102-Pad3)*%
X125157500Y-98290000D03*
%TO.P,U101,16,SD2*%
%TO.N,unconnected-(U101-Pad16)*%
X125157500Y-100830000D03*
%TO.P,U101,17,SD3*%
%TO.N,unconnected-(U101-Pad17)*%
X125157500Y-103370000D03*
%TO.P,U101,18,CMD*%
%TO.N,unconnected-(U101-Pad18)*%
X125157500Y-105910000D03*
%TO.P,U101,20,GND3*%
%TO.N,unconnected-(U101-Pad20)*%
X150557500Y-62730000D03*
%TO.P,U101,21,IO23*%
%TO.N,unconnected-(U101-Pad21)*%
X150557500Y-65270000D03*
%TO.P,U101,22,IO22*%
%TO.N,LCD_SCL*%
X150557500Y-67810000D03*
%TO.P,U101,23,TXD0*%
%TO.N,Net-(J106-Pad1)*%
X150557500Y-70350000D03*
%TO.P,U101,24,RXD0*%
%TO.N,Net-(J106-Pad2)*%
X150557500Y-72890000D03*
%TO.P,U101,25,IO21*%
%TO.N,LCD_SDA*%
X150557500Y-75430000D03*
%TO.P,U101,26,GND2*%
%TO.N,unconnected-(U101-Pad26)*%
X150557500Y-77970000D03*
%TO.P,U101,27,IO19*%
%TO.N,Net-(J107-Pad3)*%
X150557500Y-80510000D03*
%TO.P,U101,28,IO18*%
%TO.N,Net-(J107-Pad4)*%
X150557500Y-83050000D03*
%TO.P,U101,29,IO5*%
%TO.N,Net-(J107-Pad5)*%
X150557500Y-85590000D03*
%TO.P,U101,30,IO17*%
%TO.N,Net-(J107-Pad6)*%
X150557500Y-88130000D03*
%TO.P,U101,31,IO16*%
%TO.N,Net-(J107-Pad7)*%
X150557500Y-90670000D03*
%TO.P,U101,32,IO4*%
%TO.N,Net-(J107-Pad8)*%
X150557500Y-93210000D03*
%TO.P,U101,33,IO0*%
%TO.N,Net-(J107-Pad9)*%
X150557500Y-95750000D03*
%TO.P,U101,34,IO2*%
%TO.N,Net-(J107-Pad10)*%
X150557500Y-98290000D03*
%TO.P,U101,35,IO15*%
%TO.N,Net-(D101-Pad2)*%
X150557500Y-100830000D03*
%TO.P,U101,36,SD1*%
%TO.N,unconnected-(U101-Pad36)*%
X150557500Y-103370000D03*
%TO.P,U101,37,SD0*%
%TO.N,unconnected-(U101-Pad37)*%
X150557500Y-105910000D03*
%TO.P,U101,38,CLK*%
%TO.N,unconnected-(U101-Pad38)*%
X150557500Y-108450000D03*
%TD*%
D12*
%TO.P,J101,1,Pin_1*%
%TO.N,Net-(J101-Pad1)*%
X99777500Y-70640000D03*
D13*
%TO.P,J101,2,Pin_2*%
%TO.N,Net-(J101-Pad2)*%
X99777500Y-75720000D03*
%TO.P,J101,3,Pin_3*%
%TO.N,Net-(J101-Pad3)*%
X99777500Y-80800000D03*
%TO.P,J101,4,Pin_4*%
%TO.N,Net-(J101-Pad4)*%
X99777500Y-85880000D03*
%TO.P,J101,5,Pin_5*%
%TO.N,Net-(J101-Pad5)*%
X99777500Y-90960000D03*
%TO.P,J101,6,Pin_6*%
%TO.N,Net-(J101-Pad6)*%
X99777500Y-96040000D03*
%TO.P,J101,7,Pin_7*%
%TO.N,GND*%
X99777500Y-101120000D03*
%TD*%
D14*
%TO.P,J107,1,Pin_1*%
%TO.N,Net-(J103-Pad1)*%
X174977500Y-69285000D03*
D15*
%TO.P,J107,2,Pin_2*%
%TO.N,GND*%
X174977500Y-73095000D03*
%TO.P,J107,3,Pin_3*%
%TO.N,Net-(J107-Pad3)*%
X174977500Y-76905000D03*
%TO.P,J107,4,Pin_4*%
%TO.N,Net-(J107-Pad4)*%
X174977500Y-80715000D03*
%TO.P,J107,5,Pin_5*%
%TO.N,Net-(J107-Pad5)*%
X174977500Y-84525000D03*
%TO.P,J107,6,Pin_6*%
%TO.N,Net-(J107-Pad6)*%
X174977500Y-88335000D03*
%TO.P,J107,7,Pin_7*%
%TO.N,Net-(J107-Pad7)*%
X174977500Y-92145000D03*
%TO.P,J107,8,Pin_8*%
%TO.N,Net-(J107-Pad8)*%
X174977500Y-95955000D03*
%TO.P,J107,9,Pin_9*%
%TO.N,Net-(J107-Pad9)*%
X174977500Y-99765000D03*
%TO.P,J107,10,Pin_10*%
%TO.N,Net-(J107-Pad10)*%
X174977500Y-103575000D03*
%TD*%
D13*
%TO.P,J104,8,Pin_8*%
%TO.N,GND*%
X164650000Y-42482500D03*
%TO.P,J104,7,Pin_7*%
%TO.N,Net-(J102-Pad1)*%
X159570000Y-42482500D03*
%TO.P,J104,6,Pin_6*%
%TO.N,GND*%
X154490000Y-42482500D03*
%TO.P,J104,5,Pin_5*%
%TO.N,Net-(J102-Pad1)*%
X149410000Y-42482500D03*
%TO.P,J104,4,Pin_4*%
%TO.N,GND*%
X144330000Y-42482500D03*
%TO.P,J104,3,Pin_3*%
%TO.N,Net-(J103-Pad1)*%
X139250000Y-42482500D03*
%TO.P,J104,2,Pin_2*%
%TO.N,GND*%
X134170000Y-42482500D03*
D12*
%TO.P,J104,1,Pin_1*%
%TO.N,Net-(J103-Pad1)*%
X129090000Y-42482500D03*
%TD*%
%TO.P,J103,1,Pin_1*%
%TO.N,Net-(J103-Pad1)*%
X97370000Y-42482500D03*
D13*
%TO.P,J103,2,Pin_2*%
%TO.N,GND*%
X102450000Y-42482500D03*
%TO.P,J103,3,Pin_3*%
%TO.N,Net-(J103-Pad1)*%
X107530000Y-42482500D03*
%TO.P,J103,4,Pin_4*%
%TO.N,GND*%
X112610000Y-42482500D03*
%TO.P,J103,5,Pin_5*%
%TO.N,Net-(J103-Pad5)*%
X117690000Y-42482500D03*
%TO.P,J103,6,Pin_6*%
X122770000Y-42482500D03*
%TD*%
D16*
%TO.P,SW101,6*%
%TO.N,Net-(SW101-Pad6)*%
X103300000Y-59765000D03*
%TO.P,SW101,5*%
%TO.N,Net-(SW101-Pad5)*%
X103300000Y-62305000D03*
%TO.P,SW101,4*%
%TO.N,Net-(SW101-Pad4)*%
X103300000Y-64845000D03*
%TO.P,SW101,3*%
%TO.N,+3V3*%
X95680000Y-64845000D03*
%TO.P,SW101,2*%
X95680000Y-62305000D03*
D17*
%TO.P,SW101,1*%
X95680000Y-59765000D03*
%TD*%
D18*
%TO.P,R102,1*%
%TO.N,GND*%
X173950000Y-108040000D03*
D16*
%TO.P,R102,2*%
%TO.N,Net-(D101-Pad1)*%
X163790000Y-108040000D03*
%TD*%
D18*
%TO.P,R101,1*%
%TO.N,Net-(J103-Pad5)*%
X113420000Y-51500000D03*
D16*
%TO.P,R101,2*%
%TO.N,Net-(J102-Pad1)*%
X123580000Y-51500000D03*
%TD*%
D19*
%TO.P,J106,1,Pin_1*%
%TO.N,Net-(J106-Pad1)*%
X174910000Y-60720000D03*
D20*
%TO.P,J106,2,Pin_2*%
%TO.N,Net-(J106-Pad2)*%
X174910000Y-63260000D03*
%TD*%
D21*
%TO.P,J105,1,Pin_1*%
%TO.N,LCD_SCL*%
X174740000Y-47207500D03*
D22*
%TO.P,J105,2,Pin_2*%
%TO.N,LCD_SDA*%
X174740000Y-44707500D03*
%TO.P,J105,3,Pin_3*%
%TO.N,Net-(J102-Pad1)*%
X174740000Y-42207500D03*
%TO.P,J105,4,Pin_4*%
%TO.N,GND*%
X174740000Y-39707500D03*
%TD*%
D23*
%TO.P,J102,1,Pin_1*%
%TO.N,Net-(J102-Pad1)*%
X102310000Y-109220000D03*
D24*
%TO.P,J102,2,Pin_2*%
%TO.N,GND*%
X99810000Y-109220000D03*
%TO.P,J102,3,Pin_3*%
%TO.N,Net-(J102-Pad3)*%
X97310000Y-109220000D03*
%TD*%
D25*
%TO.P,D101,1,K*%
%TO.N,Net-(D101-Pad1)*%
X158080000Y-108463000D03*
D26*
%TO.P,D101,2,A*%
%TO.N,Net-(D101-Pad2)*%
X158080000Y-105923000D03*
%TD*%
%TA.AperFunction,Conductor*%
%TO.N,GND*%
G36*
X179773621Y-36088502D02*
G01*
X179820114Y-36142158D01*
X179831500Y-36194500D01*
X179831500Y-111125500D01*
X179811498Y-111193621D01*
X179757842Y-111240114D01*
X179705500Y-111251500D01*
X92074500Y-111251500D01*
X92006379Y-111231498D01*
X91959886Y-111177842D01*
X91948500Y-111125500D01*
X91948500Y-109402890D01*
X95951500Y-109402890D01*
X95966080Y-109574720D01*
X95967418Y-109579875D01*
X95967419Y-109579881D01*
X96022657Y-109792703D01*
X96023999Y-109797872D01*
X96026191Y-109802738D01*
X96026192Y-109802741D01*
X96057166Y-109871500D01*
X96118688Y-110008075D01*
X96247441Y-110199319D01*
X96251120Y-110203176D01*
X96251122Y-110203178D01*
X96312710Y-110267738D01*
X96406576Y-110366135D01*
X96591542Y-110503754D01*
X96596293Y-110506170D01*
X96596297Y-110506172D01*
X96659481Y-110538296D01*
X96797051Y-110608240D01*
X96802145Y-110609822D01*
X96802148Y-110609823D01*
X96967583Y-110661192D01*
X97017227Y-110676607D01*
X97022516Y-110677308D01*
X97240489Y-110706198D01*
X97240494Y-110706198D01*
X97245774Y-110706898D01*
X97251103Y-110706698D01*
X97251105Y-110706698D01*
X97360966Y-110702574D01*
X97476158Y-110698249D01*
X97498802Y-110693498D01*
X97696572Y-110652002D01*
X97701791Y-110650907D01*
X97706750Y-110648949D01*
X97706752Y-110648948D01*
X97911256Y-110568185D01*
X97911258Y-110568184D01*
X97916221Y-110566224D01*
X97921525Y-110563006D01*
X98108757Y-110449390D01*
X98108756Y-110449390D01*
X98113317Y-110446623D01*
X98153134Y-110412072D01*
X98283412Y-110299023D01*
X98283414Y-110299021D01*
X98287445Y-110295523D01*
X98351417Y-110217504D01*
X98430240Y-110121373D01*
X98430244Y-110121367D01*
X98433624Y-110117245D01*
X98447413Y-110093022D01*
X98451829Y-110085265D01*
X98502912Y-110035959D01*
X98572542Y-110022098D01*
X98638613Y-110048082D01*
X98665851Y-110077232D01*
X98744852Y-110194578D01*
X98751519Y-110202870D01*
X98903228Y-110361900D01*
X98911186Y-110368941D01*
X99087525Y-110500141D01*
X99096562Y-110505745D01*
X99292484Y-110605357D01*
X99302335Y-110609357D01*
X99512240Y-110674534D01*
X99522624Y-110676817D01*
X99538043Y-110678861D01*
X99552207Y-110676665D01*
X99556000Y-110663478D01*
X99556000Y-110661192D01*
X100064000Y-110661192D01*
X100067973Y-110674723D01*
X100078580Y-110676248D01*
X100196421Y-110651523D01*
X100206617Y-110648463D01*
X100411029Y-110567737D01*
X100420561Y-110563006D01*
X100608462Y-110448984D01*
X100617052Y-110442720D01*
X100783052Y-110298673D01*
X100790470Y-110291044D01*
X100816391Y-110259431D01*
X100875051Y-110219436D01*
X100946021Y-110217504D01*
X101006770Y-110254248D01*
X101020969Y-110273017D01*
X101111522Y-110419348D01*
X101236697Y-110544305D01*
X101242927Y-110548145D01*
X101242928Y-110548146D01*
X101380090Y-110632694D01*
X101387262Y-110637115D01*
X101422938Y-110648948D01*
X101548611Y-110690632D01*
X101548613Y-110690632D01*
X101555139Y-110692797D01*
X101561975Y-110693497D01*
X101561978Y-110693498D01*
X101597663Y-110697154D01*
X101659600Y-110703500D01*
X102960400Y-110703500D01*
X102963646Y-110703163D01*
X102963650Y-110703163D01*
X103059308Y-110693238D01*
X103059312Y-110693237D01*
X103066166Y-110692526D01*
X103072702Y-110690345D01*
X103072704Y-110690345D01*
X103204806Y-110646272D01*
X103233946Y-110636550D01*
X103384348Y-110543478D01*
X103509305Y-110418303D01*
X103541462Y-110366135D01*
X103598275Y-110273968D01*
X103598276Y-110273966D01*
X103602115Y-110267738D01*
X103657797Y-110099861D01*
X103659293Y-110085265D01*
X103664344Y-110035959D01*
X103668500Y-109995400D01*
X103668500Y-108450000D01*
X123864078Y-108450000D01*
X123883728Y-108674600D01*
X123885152Y-108679913D01*
X123885152Y-108679915D01*
X123934821Y-108865280D01*
X123942081Y-108892376D01*
X123944403Y-108897357D01*
X123944404Y-108897358D01*
X124009572Y-109037110D01*
X124037364Y-109096711D01*
X124166681Y-109281396D01*
X124326104Y-109440819D01*
X124510789Y-109570136D01*
X124515767Y-109572457D01*
X124515770Y-109572459D01*
X124611055Y-109616891D01*
X124715124Y-109665419D01*
X124720432Y-109666841D01*
X124720434Y-109666842D01*
X124927585Y-109722348D01*
X124927587Y-109722348D01*
X124932900Y-109723772D01*
X125157500Y-109743422D01*
X125382100Y-109723772D01*
X125387413Y-109722348D01*
X125387415Y-109722348D01*
X125594566Y-109666842D01*
X125594568Y-109666841D01*
X125599876Y-109665419D01*
X125703945Y-109616891D01*
X125799230Y-109572459D01*
X125799233Y-109572457D01*
X125804211Y-109570136D01*
X125988896Y-109440819D01*
X126148319Y-109281396D01*
X126277636Y-109096711D01*
X126305429Y-109037110D01*
X126370596Y-108897358D01*
X126370597Y-108897357D01*
X126372919Y-108892376D01*
X126380180Y-108865280D01*
X126429848Y-108679915D01*
X126429848Y-108679913D01*
X126431272Y-108674600D01*
X126450922Y-108450000D01*
X149264078Y-108450000D01*
X149283728Y-108674600D01*
X149285152Y-108679913D01*
X149285152Y-108679915D01*
X149334821Y-108865280D01*
X149342081Y-108892376D01*
X149344403Y-108897357D01*
X149344404Y-108897358D01*
X149409572Y-109037110D01*
X149437364Y-109096711D01*
X149566681Y-109281396D01*
X149726104Y-109440819D01*
X149910789Y-109570136D01*
X149915767Y-109572457D01*
X149915770Y-109572459D01*
X150011055Y-109616891D01*
X150115124Y-109665419D01*
X150120432Y-109666841D01*
X150120434Y-109666842D01*
X150327585Y-109722348D01*
X150327587Y-109722348D01*
X150332900Y-109723772D01*
X150557500Y-109743422D01*
X150782100Y-109723772D01*
X150787413Y-109722348D01*
X150787415Y-109722348D01*
X150994566Y-109666842D01*
X150994568Y-109666841D01*
X150999876Y-109665419D01*
X151103945Y-109616891D01*
X151199230Y-109572459D01*
X151199233Y-109572457D01*
X151204211Y-109570136D01*
X151388896Y-109440819D01*
X151548319Y-109281396D01*
X151677636Y-109096711D01*
X151705429Y-109037110D01*
X151770596Y-108897358D01*
X151770597Y-108897357D01*
X151772919Y-108892376D01*
X151780180Y-108865280D01*
X151829848Y-108679915D01*
X151829848Y-108679913D01*
X151831272Y-108674600D01*
X151850922Y-108450000D01*
X151831272Y-108225400D01*
X151829848Y-108220085D01*
X151774342Y-108012934D01*
X151774341Y-108012932D01*
X151772919Y-108007624D01*
X151739635Y-107936246D01*
X151679959Y-107808270D01*
X151679957Y-107808267D01*
X151677636Y-107803289D01*
X151548319Y-107618604D01*
X151388896Y-107459181D01*
X151204211Y-107329864D01*
X151199233Y-107327543D01*
X151199230Y-107327541D01*
X151127719Y-107294195D01*
X151074434Y-107247277D01*
X151054973Y-107179000D01*
X151075515Y-107111040D01*
X151127719Y-107065805D01*
X151199230Y-107032459D01*
X151199233Y-107032457D01*
X151204211Y-107030136D01*
X151388896Y-106900819D01*
X151548319Y-106741396D01*
X151677636Y-106556711D01*
X151732839Y-106438329D01*
X151770596Y-106357358D01*
X151770597Y-106357357D01*
X151772919Y-106352376D01*
X151774724Y-106345642D01*
X151829848Y-106139915D01*
X151829848Y-106139913D01*
X151831272Y-106134600D01*
X151850922Y-105910000D01*
X151849038Y-105888469D01*
X156667095Y-105888469D01*
X156667392Y-105893622D01*
X156667392Y-105893625D01*
X156673067Y-105992041D01*
X156680427Y-106119697D01*
X156681564Y-106124743D01*
X156681565Y-106124749D01*
X156713741Y-106267523D01*
X156731346Y-106345642D01*
X156733288Y-106350424D01*
X156733289Y-106350428D01*
X156816540Y-106555450D01*
X156818484Y-106560237D01*
X156939501Y-106757719D01*
X156942882Y-106761622D01*
X157051304Y-106886788D01*
X157080786Y-106951373D01*
X157070671Y-107021646D01*
X157024170Y-107075294D01*
X157000296Y-107087267D01*
X156944515Y-107108179D01*
X156933295Y-107112385D01*
X156816739Y-107199739D01*
X156729385Y-107316295D01*
X156678255Y-107452684D01*
X156671500Y-107514866D01*
X156671500Y-109411134D01*
X156678255Y-109473316D01*
X156729385Y-109609705D01*
X156816739Y-109726261D01*
X156933295Y-109813615D01*
X157069684Y-109864745D01*
X157131866Y-109871500D01*
X159028134Y-109871500D01*
X159090316Y-109864745D01*
X159226705Y-109813615D01*
X159343261Y-109726261D01*
X159430615Y-109609705D01*
X159481745Y-109473316D01*
X159488500Y-109411134D01*
X159488500Y-108040000D01*
X162476502Y-108040000D01*
X162496457Y-108268087D01*
X162497881Y-108273400D01*
X162497881Y-108273402D01*
X162540358Y-108431925D01*
X162555716Y-108489243D01*
X162558039Y-108494224D01*
X162558039Y-108494225D01*
X162650151Y-108691762D01*
X162650154Y-108691767D01*
X162652477Y-108696749D01*
X162783802Y-108884300D01*
X162945700Y-109046198D01*
X162950208Y-109049355D01*
X162950211Y-109049357D01*
X163010726Y-109091730D01*
X163133251Y-109177523D01*
X163138233Y-109179846D01*
X163138238Y-109179849D01*
X163334765Y-109271490D01*
X163340757Y-109274284D01*
X163346065Y-109275706D01*
X163346067Y-109275707D01*
X163556598Y-109332119D01*
X163556600Y-109332119D01*
X163561913Y-109333543D01*
X163790000Y-109353498D01*
X164018087Y-109333543D01*
X164023400Y-109332119D01*
X164023402Y-109332119D01*
X164233933Y-109275707D01*
X164233935Y-109275706D01*
X164239243Y-109274284D01*
X164245235Y-109271490D01*
X164441762Y-109179849D01*
X164441767Y-109179846D01*
X164446749Y-109177523D01*
X164520243Y-109126062D01*
X173228493Y-109126062D01*
X173237789Y-109138077D01*
X173288994Y-109173931D01*
X173298489Y-109179414D01*
X173495947Y-109271490D01*
X173506239Y-109275236D01*
X173716688Y-109331625D01*
X173727481Y-109333528D01*
X173944525Y-109352517D01*
X173955475Y-109352517D01*
X174172519Y-109333528D01*
X174183312Y-109331625D01*
X174393761Y-109275236D01*
X174404053Y-109271490D01*
X174601511Y-109179414D01*
X174611006Y-109173931D01*
X174663048Y-109137491D01*
X174671424Y-109127012D01*
X174664356Y-109113566D01*
X173962812Y-108412022D01*
X173948868Y-108404408D01*
X173947035Y-108404539D01*
X173940420Y-108408790D01*
X173234923Y-109114287D01*
X173228493Y-109126062D01*
X164520243Y-109126062D01*
X164569274Y-109091730D01*
X164629789Y-109049357D01*
X164629792Y-109049355D01*
X164634300Y-109046198D01*
X164796198Y-108884300D01*
X164927523Y-108696749D01*
X164929846Y-108691767D01*
X164929849Y-108691762D01*
X165021961Y-108494225D01*
X165021961Y-108494224D01*
X165024284Y-108489243D01*
X165039643Y-108431925D01*
X165082119Y-108273402D01*
X165082119Y-108273400D01*
X165083543Y-108268087D01*
X165103019Y-108045475D01*
X172637483Y-108045475D01*
X172656472Y-108262519D01*
X172658375Y-108273312D01*
X172714764Y-108483761D01*
X172718510Y-108494053D01*
X172810586Y-108691511D01*
X172816069Y-108701006D01*
X172852509Y-108753048D01*
X172862988Y-108761424D01*
X172876434Y-108754356D01*
X173577978Y-108052812D01*
X173584356Y-108041132D01*
X174314408Y-108041132D01*
X174314539Y-108042965D01*
X174318790Y-108049580D01*
X175024287Y-108755077D01*
X175036062Y-108761507D01*
X175048077Y-108752211D01*
X175083931Y-108701006D01*
X175089414Y-108691511D01*
X175181490Y-108494053D01*
X175185236Y-108483761D01*
X175241625Y-108273312D01*
X175243528Y-108262519D01*
X175262517Y-108045475D01*
X175262517Y-108034525D01*
X175243528Y-107817481D01*
X175241625Y-107806688D01*
X175185236Y-107596239D01*
X175181490Y-107585947D01*
X175089414Y-107388489D01*
X175083931Y-107378994D01*
X175047491Y-107326952D01*
X175037012Y-107318576D01*
X175023566Y-107325644D01*
X174322022Y-108027188D01*
X174314408Y-108041132D01*
X173584356Y-108041132D01*
X173585592Y-108038868D01*
X173585461Y-108037035D01*
X173581210Y-108030420D01*
X172875713Y-107324923D01*
X172863938Y-107318493D01*
X172851923Y-107327789D01*
X172816069Y-107378994D01*
X172810586Y-107388489D01*
X172718510Y-107585947D01*
X172714764Y-107596239D01*
X172658375Y-107806688D01*
X172656472Y-107817481D01*
X172637483Y-108034525D01*
X172637483Y-108045475D01*
X165103019Y-108045475D01*
X165103498Y-108040000D01*
X165083543Y-107811913D01*
X165077953Y-107791052D01*
X165025707Y-107596067D01*
X165025706Y-107596065D01*
X165024284Y-107590757D01*
X164964746Y-107463076D01*
X164929849Y-107388238D01*
X164929846Y-107388233D01*
X164927523Y-107383251D01*
X164796198Y-107195700D01*
X164634300Y-107033802D01*
X164629792Y-107030645D01*
X164629789Y-107030643D01*
X164518886Y-106952988D01*
X173228576Y-106952988D01*
X173235644Y-106966434D01*
X173937188Y-107667978D01*
X173951132Y-107675592D01*
X173952965Y-107675461D01*
X173959580Y-107671210D01*
X174665077Y-106965713D01*
X174671507Y-106953938D01*
X174662211Y-106941923D01*
X174611006Y-106906069D01*
X174601511Y-106900586D01*
X174404053Y-106808510D01*
X174393761Y-106804764D01*
X174183312Y-106748375D01*
X174172519Y-106746472D01*
X173955475Y-106727483D01*
X173944525Y-106727483D01*
X173727481Y-106746472D01*
X173716688Y-106748375D01*
X173506239Y-106804764D01*
X173495947Y-106808510D01*
X173298489Y-106900586D01*
X173288994Y-106906069D01*
X173236952Y-106942509D01*
X173228576Y-106952988D01*
X164518886Y-106952988D01*
X164446749Y-106902477D01*
X164441767Y-106900154D01*
X164441762Y-106900151D01*
X164244225Y-106808039D01*
X164244224Y-106808039D01*
X164239243Y-106805716D01*
X164233935Y-106804294D01*
X164233933Y-106804293D01*
X164023402Y-106747881D01*
X164023400Y-106747881D01*
X164018087Y-106746457D01*
X163790000Y-106726502D01*
X163561913Y-106746457D01*
X163556600Y-106747881D01*
X163556598Y-106747881D01*
X163346067Y-106804293D01*
X163346065Y-106804294D01*
X163340757Y-106805716D01*
X163335776Y-106808039D01*
X163335775Y-106808039D01*
X163138238Y-106900151D01*
X163138233Y-106900154D01*
X163133251Y-106902477D01*
X163061114Y-106952988D01*
X162950211Y-107030643D01*
X162950208Y-107030645D01*
X162945700Y-107033802D01*
X162783802Y-107195700D01*
X162652477Y-107383251D01*
X162650154Y-107388233D01*
X162650151Y-107388238D01*
X162615254Y-107463076D01*
X162555716Y-107590757D01*
X162554294Y-107596065D01*
X162554293Y-107596067D01*
X162502047Y-107791052D01*
X162496457Y-107811913D01*
X162476502Y-108040000D01*
X159488500Y-108040000D01*
X159488500Y-107514866D01*
X159481745Y-107452684D01*
X159430615Y-107316295D01*
X159343261Y-107199739D01*
X159226705Y-107112385D01*
X159218296Y-107109233D01*
X159218295Y-107109232D01*
X159159804Y-107087305D01*
X159103039Y-107044664D01*
X159078339Y-106978103D01*
X159093546Y-106908754D01*
X159115093Y-106880073D01*
X159152636Y-106842660D01*
X159152640Y-106842655D01*
X159156303Y-106839005D01*
X159291458Y-106650917D01*
X159338641Y-106555450D01*
X159391784Y-106447922D01*
X159391785Y-106447920D01*
X159394078Y-106443280D01*
X159461408Y-106221671D01*
X159491640Y-105992041D01*
X159493327Y-105923000D01*
X159487032Y-105846434D01*
X159474773Y-105697318D01*
X159474772Y-105697312D01*
X159474349Y-105692167D01*
X159417925Y-105467533D01*
X159415866Y-105462797D01*
X159327630Y-105259868D01*
X159327628Y-105259865D01*
X159325570Y-105255131D01*
X159199764Y-105060665D01*
X159043887Y-104889358D01*
X159039836Y-104886159D01*
X159039832Y-104886155D01*
X158866177Y-104749011D01*
X158866172Y-104749008D01*
X158862123Y-104745810D01*
X158857607Y-104743317D01*
X158857604Y-104743315D01*
X158663879Y-104636373D01*
X158663875Y-104636371D01*
X158659355Y-104633876D01*
X158654486Y-104632152D01*
X158654482Y-104632150D01*
X158445903Y-104558288D01*
X158445899Y-104558287D01*
X158441028Y-104556562D01*
X158435935Y-104555655D01*
X158435932Y-104555654D01*
X158218095Y-104516851D01*
X158218089Y-104516850D01*
X158213006Y-104515945D01*
X158140096Y-104515054D01*
X157986581Y-104513179D01*
X157986579Y-104513179D01*
X157981411Y-104513116D01*
X157752464Y-104548150D01*
X157532314Y-104620106D01*
X157527726Y-104622494D01*
X157527722Y-104622496D01*
X157331461Y-104724663D01*
X157326872Y-104727052D01*
X157322739Y-104730155D01*
X157322736Y-104730157D01*
X157145790Y-104863012D01*
X157141655Y-104866117D01*
X156981639Y-105033564D01*
X156978725Y-105037836D01*
X156978724Y-105037837D01*
X156963152Y-105060665D01*
X156851119Y-105224899D01*
X156753602Y-105434981D01*
X156691707Y-105658169D01*
X156667095Y-105888469D01*
X151849038Y-105888469D01*
X151831272Y-105685400D01*
X151825351Y-105663301D01*
X151774342Y-105472934D01*
X151774341Y-105472932D01*
X151772919Y-105467624D01*
X151677636Y-105263289D01*
X151548319Y-105078604D01*
X151388896Y-104919181D01*
X151204211Y-104789864D01*
X151199233Y-104787543D01*
X151199230Y-104787541D01*
X151127719Y-104754195D01*
X151074434Y-104707277D01*
X151054973Y-104639000D01*
X151075515Y-104571040D01*
X151127719Y-104525805D01*
X151199230Y-104492459D01*
X151199233Y-104492457D01*
X151204211Y-104490136D01*
X151388896Y-104360819D01*
X151548319Y-104201396D01*
X151677636Y-104016711D01*
X151772919Y-103812376D01*
X151831272Y-103594600D01*
X151832987Y-103575000D01*
X173638906Y-103575000D01*
X173659242Y-103807444D01*
X173719633Y-104032826D01*
X173721955Y-104037806D01*
X173721956Y-104037808D01*
X173815918Y-104239310D01*
X173815921Y-104239315D01*
X173818244Y-104244297D01*
X173952078Y-104435432D01*
X174117068Y-104600422D01*
X174121576Y-104603579D01*
X174121579Y-104603581D01*
X174302349Y-104730157D01*
X174308203Y-104734256D01*
X174313185Y-104736579D01*
X174313190Y-104736582D01*
X174514692Y-104830544D01*
X174519674Y-104832867D01*
X174524982Y-104834289D01*
X174524984Y-104834290D01*
X174739741Y-104891834D01*
X174739743Y-104891834D01*
X174745056Y-104893258D01*
X174977500Y-104913594D01*
X175209944Y-104893258D01*
X175215257Y-104891834D01*
X175215259Y-104891834D01*
X175430016Y-104834290D01*
X175430018Y-104834289D01*
X175435326Y-104832867D01*
X175440308Y-104830544D01*
X175641810Y-104736582D01*
X175641815Y-104736579D01*
X175646797Y-104734256D01*
X175652651Y-104730157D01*
X175833421Y-104603581D01*
X175833424Y-104603579D01*
X175837932Y-104600422D01*
X176002922Y-104435432D01*
X176136756Y-104244297D01*
X176139079Y-104239315D01*
X176139082Y-104239310D01*
X176233044Y-104037808D01*
X176233045Y-104037806D01*
X176235367Y-104032826D01*
X176295758Y-103807444D01*
X176316094Y-103575000D01*
X176295758Y-103342556D01*
X176235367Y-103117174D01*
X176233044Y-103112192D01*
X176139082Y-102910690D01*
X176139079Y-102910685D01*
X176136756Y-102905703D01*
X176133599Y-102901194D01*
X176006081Y-102719079D01*
X176006079Y-102719076D01*
X176002922Y-102714568D01*
X175837932Y-102549578D01*
X175833424Y-102546421D01*
X175833421Y-102546419D01*
X175651306Y-102418901D01*
X175651304Y-102418900D01*
X175646797Y-102415744D01*
X175641815Y-102413421D01*
X175641810Y-102413418D01*
X175440308Y-102319456D01*
X175440306Y-102319455D01*
X175435326Y-102317133D01*
X175430018Y-102315711D01*
X175430016Y-102315710D01*
X175215259Y-102258166D01*
X175215257Y-102258166D01*
X175209944Y-102256742D01*
X174977500Y-102236406D01*
X174745056Y-102256742D01*
X174739743Y-102258166D01*
X174739741Y-102258166D01*
X174524984Y-102315710D01*
X174524982Y-102315711D01*
X174519674Y-102317133D01*
X174514694Y-102319455D01*
X174514692Y-102319456D01*
X174313190Y-102413418D01*
X174313185Y-102413421D01*
X174308203Y-102415744D01*
X174303696Y-102418900D01*
X174303694Y-102418901D01*
X174121579Y-102546419D01*
X174121576Y-102546421D01*
X174117068Y-102549578D01*
X173952078Y-102714568D01*
X173948921Y-102719076D01*
X173948919Y-102719079D01*
X173821401Y-102901194D01*
X173818244Y-102905703D01*
X173815921Y-102910685D01*
X173815918Y-102910690D01*
X173721956Y-103112192D01*
X173719633Y-103117174D01*
X173659242Y-103342556D01*
X173638906Y-103575000D01*
X151832987Y-103575000D01*
X151850922Y-103370000D01*
X151831272Y-103145400D01*
X151772919Y-102927624D01*
X151762697Y-102905703D01*
X151679959Y-102728270D01*
X151679957Y-102728267D01*
X151677636Y-102723289D01*
X151548319Y-102538604D01*
X151388896Y-102379181D01*
X151204211Y-102249864D01*
X151199233Y-102247543D01*
X151199230Y-102247541D01*
X151127719Y-102214195D01*
X151074434Y-102167277D01*
X151054973Y-102099000D01*
X151075515Y-102031040D01*
X151127719Y-101985805D01*
X151199230Y-101952459D01*
X151199233Y-101952457D01*
X151204211Y-101950136D01*
X151388896Y-101820819D01*
X151548319Y-101661396D01*
X151677636Y-101476711D01*
X151727727Y-101369292D01*
X151770596Y-101277358D01*
X151770597Y-101277357D01*
X151772919Y-101272376D01*
X151814052Y-101118868D01*
X151829848Y-101059915D01*
X151829848Y-101059913D01*
X151831272Y-101054600D01*
X151850922Y-100830000D01*
X151831272Y-100605400D01*
X151784089Y-100429310D01*
X151774342Y-100392934D01*
X151774341Y-100392932D01*
X151772919Y-100387624D01*
X151697177Y-100225195D01*
X151679959Y-100188270D01*
X151679957Y-100188267D01*
X151677636Y-100183289D01*
X151548319Y-99998604D01*
X151388896Y-99839181D01*
X151282954Y-99765000D01*
X173638906Y-99765000D01*
X173659242Y-99997444D01*
X173719633Y-100222826D01*
X173721955Y-100227806D01*
X173721956Y-100227808D01*
X173815918Y-100429310D01*
X173815921Y-100429315D01*
X173818244Y-100434297D01*
X173821400Y-100438804D01*
X173821401Y-100438806D01*
X173941889Y-100610880D01*
X173952078Y-100625432D01*
X174117068Y-100790422D01*
X174121576Y-100793579D01*
X174121579Y-100793581D01*
X174303694Y-100921099D01*
X174308203Y-100924256D01*
X174313185Y-100926579D01*
X174313190Y-100926582D01*
X174514692Y-101020544D01*
X174519674Y-101022867D01*
X174524982Y-101024289D01*
X174524984Y-101024290D01*
X174739741Y-101081834D01*
X174739743Y-101081834D01*
X174745056Y-101083258D01*
X174977500Y-101103594D01*
X175209944Y-101083258D01*
X175215257Y-101081834D01*
X175215259Y-101081834D01*
X175430016Y-101024290D01*
X175430018Y-101024289D01*
X175435326Y-101022867D01*
X175440308Y-101020544D01*
X175641810Y-100926582D01*
X175641815Y-100926579D01*
X175646797Y-100924256D01*
X175651306Y-100921099D01*
X175833421Y-100793581D01*
X175833424Y-100793579D01*
X175837932Y-100790422D01*
X176002922Y-100625432D01*
X176013112Y-100610880D01*
X176133599Y-100438806D01*
X176133600Y-100438804D01*
X176136756Y-100434297D01*
X176139079Y-100429315D01*
X176139082Y-100429310D01*
X176233044Y-100227808D01*
X176233045Y-100227806D01*
X176235367Y-100222826D01*
X176295758Y-99997444D01*
X176316094Y-99765000D01*
X176295758Y-99532556D01*
X176235367Y-99307174D01*
X176233044Y-99302192D01*
X176139082Y-99100690D01*
X176139079Y-99100685D01*
X176136756Y-99095703D01*
X176133599Y-99091194D01*
X176006081Y-98909079D01*
X176006079Y-98909076D01*
X176002922Y-98904568D01*
X175837932Y-98739578D01*
X175833424Y-98736421D01*
X175833421Y-98736419D01*
X175651306Y-98608901D01*
X175651304Y-98608900D01*
X175646797Y-98605744D01*
X175641815Y-98603421D01*
X175641810Y-98603418D01*
X175440308Y-98509456D01*
X175440306Y-98509455D01*
X175435326Y-98507133D01*
X175430018Y-98505711D01*
X175430016Y-98505710D01*
X175215259Y-98448166D01*
X175215257Y-98448166D01*
X175209944Y-98446742D01*
X174977500Y-98426406D01*
X174745056Y-98446742D01*
X174739743Y-98448166D01*
X174739741Y-98448166D01*
X174524984Y-98505710D01*
X174524982Y-98505711D01*
X174519674Y-98507133D01*
X174514694Y-98509455D01*
X174514692Y-98509456D01*
X174313190Y-98603418D01*
X174313185Y-98603421D01*
X174308203Y-98605744D01*
X174303696Y-98608900D01*
X174303694Y-98608901D01*
X174121579Y-98736419D01*
X174121576Y-98736421D01*
X174117068Y-98739578D01*
X173952078Y-98904568D01*
X173948921Y-98909076D01*
X173948919Y-98909079D01*
X173821401Y-99091194D01*
X173818244Y-99095703D01*
X173815921Y-99100685D01*
X173815918Y-99100690D01*
X173721956Y-99302192D01*
X173719633Y-99307174D01*
X173659242Y-99532556D01*
X173638906Y-99765000D01*
X151282954Y-99765000D01*
X151204211Y-99709864D01*
X151199233Y-99707543D01*
X151199230Y-99707541D01*
X151127719Y-99674195D01*
X151074434Y-99627277D01*
X151054973Y-99559000D01*
X151075515Y-99491040D01*
X151127719Y-99445805D01*
X151199230Y-99412459D01*
X151199233Y-99412457D01*
X151204211Y-99410136D01*
X151388896Y-99280819D01*
X151548319Y-99121396D01*
X151677636Y-98936711D01*
X151767744Y-98743475D01*
X151770596Y-98737358D01*
X151770597Y-98737357D01*
X151772919Y-98732376D01*
X151831272Y-98514600D01*
X151850922Y-98290000D01*
X151831272Y-98065400D01*
X151772919Y-97847624D01*
X151677636Y-97643289D01*
X151548319Y-97458604D01*
X151388896Y-97299181D01*
X151204211Y-97169864D01*
X151199233Y-97167543D01*
X151199230Y-97167541D01*
X151127719Y-97134195D01*
X151074434Y-97087277D01*
X151054973Y-97019000D01*
X151075515Y-96951040D01*
X151127719Y-96905805D01*
X151199230Y-96872459D01*
X151199233Y-96872457D01*
X151204211Y-96870136D01*
X151388896Y-96740819D01*
X151548319Y-96581396D01*
X151677636Y-96396711D01*
X151729935Y-96284557D01*
X151770596Y-96197358D01*
X151770597Y-96197357D01*
X151772919Y-96192376D01*
X151831272Y-95974600D01*
X151832987Y-95955000D01*
X173638906Y-95955000D01*
X173659242Y-96187444D01*
X173719633Y-96412826D01*
X173721955Y-96417806D01*
X173721956Y-96417808D01*
X173815918Y-96619310D01*
X173815921Y-96619315D01*
X173818244Y-96624297D01*
X173821400Y-96628804D01*
X173821401Y-96628806D01*
X173909029Y-96753951D01*
X173952078Y-96815432D01*
X174117068Y-96980422D01*
X174121576Y-96983579D01*
X174121579Y-96983581D01*
X174303694Y-97111099D01*
X174308203Y-97114256D01*
X174313185Y-97116579D01*
X174313190Y-97116582D01*
X174514692Y-97210544D01*
X174519674Y-97212867D01*
X174524982Y-97214289D01*
X174524984Y-97214290D01*
X174739741Y-97271834D01*
X174739743Y-97271834D01*
X174745056Y-97273258D01*
X174977500Y-97293594D01*
X175209944Y-97273258D01*
X175215257Y-97271834D01*
X175215259Y-97271834D01*
X175430016Y-97214290D01*
X175430018Y-97214289D01*
X175435326Y-97212867D01*
X175440308Y-97210544D01*
X175641810Y-97116582D01*
X175641815Y-97116579D01*
X175646797Y-97114256D01*
X175651306Y-97111099D01*
X175833421Y-96983581D01*
X175833424Y-96983579D01*
X175837932Y-96980422D01*
X176002922Y-96815432D01*
X176045972Y-96753951D01*
X176133599Y-96628806D01*
X176133600Y-96628804D01*
X176136756Y-96624297D01*
X176139079Y-96619315D01*
X176139082Y-96619310D01*
X176233044Y-96417808D01*
X176233045Y-96417806D01*
X176235367Y-96412826D01*
X176295758Y-96187444D01*
X176316094Y-95955000D01*
X176295758Y-95722556D01*
X176251373Y-95556908D01*
X176236790Y-95502484D01*
X176236789Y-95502482D01*
X176235367Y-95497174D01*
X176159669Y-95334839D01*
X176139082Y-95290690D01*
X176139079Y-95290685D01*
X176136756Y-95285703D01*
X176018865Y-95117337D01*
X176006081Y-95099079D01*
X176006079Y-95099076D01*
X176002922Y-95094568D01*
X175837932Y-94929578D01*
X175833424Y-94926421D01*
X175833421Y-94926419D01*
X175651306Y-94798901D01*
X175651304Y-94798900D01*
X175646797Y-94795744D01*
X175641815Y-94793421D01*
X175641810Y-94793418D01*
X175440308Y-94699456D01*
X175440306Y-94699455D01*
X175435326Y-94697133D01*
X175430018Y-94695711D01*
X175430016Y-94695710D01*
X175215259Y-94638166D01*
X175215257Y-94638166D01*
X175209944Y-94636742D01*
X174977500Y-94616406D01*
X174745056Y-94636742D01*
X174739743Y-94638166D01*
X174739741Y-94638166D01*
X174524984Y-94695710D01*
X174524982Y-94695711D01*
X174519674Y-94697133D01*
X174514694Y-94699455D01*
X174514692Y-94699456D01*
X174313190Y-94793418D01*
X174313185Y-94793421D01*
X174308203Y-94795744D01*
X174303696Y-94798900D01*
X174303694Y-94798901D01*
X174121579Y-94926419D01*
X174121576Y-94926421D01*
X174117068Y-94929578D01*
X173952078Y-95094568D01*
X173948921Y-95099076D01*
X173948919Y-95099079D01*
X173936135Y-95117337D01*
X173818244Y-95285703D01*
X173815921Y-95290685D01*
X173815918Y-95290690D01*
X173795331Y-95334839D01*
X173719633Y-95497174D01*
X173718211Y-95502482D01*
X173718210Y-95502484D01*
X173703627Y-95556908D01*
X173659242Y-95722556D01*
X173638906Y-95955000D01*
X151832987Y-95955000D01*
X151850922Y-95750000D01*
X151831272Y-95525400D01*
X151780211Y-95334839D01*
X151774342Y-95312934D01*
X151774341Y-95312932D01*
X151772919Y-95307624D01*
X151762697Y-95285703D01*
X151679959Y-95108270D01*
X151679957Y-95108267D01*
X151677636Y-95103289D01*
X151548319Y-94918604D01*
X151388896Y-94759181D01*
X151204211Y-94629864D01*
X151199233Y-94627543D01*
X151199230Y-94627541D01*
X151127719Y-94594195D01*
X151074434Y-94547277D01*
X151054973Y-94479000D01*
X151075515Y-94411040D01*
X151127719Y-94365805D01*
X151199230Y-94332459D01*
X151199233Y-94332457D01*
X151204211Y-94330136D01*
X151388896Y-94200819D01*
X151548319Y-94041396D01*
X151677636Y-93856711D01*
X151772919Y-93652376D01*
X151818273Y-93483115D01*
X151829848Y-93439915D01*
X151829848Y-93439913D01*
X151831272Y-93434600D01*
X151850922Y-93210000D01*
X151831272Y-92985400D01*
X151772919Y-92767624D01*
X151698396Y-92607808D01*
X151679959Y-92568270D01*
X151679957Y-92568267D01*
X151677636Y-92563289D01*
X151548319Y-92378604D01*
X151388896Y-92219181D01*
X151282954Y-92145000D01*
X173638906Y-92145000D01*
X173659242Y-92377444D01*
X173719633Y-92602826D01*
X173721955Y-92607806D01*
X173721956Y-92607808D01*
X173815918Y-92809310D01*
X173815921Y-92809315D01*
X173818244Y-92814297D01*
X173821400Y-92818804D01*
X173821401Y-92818806D01*
X173941889Y-92990880D01*
X173952078Y-93005432D01*
X174117068Y-93170422D01*
X174121576Y-93173579D01*
X174121579Y-93173581D01*
X174165772Y-93204525D01*
X174308203Y-93304256D01*
X174313185Y-93306579D01*
X174313190Y-93306582D01*
X174514692Y-93400544D01*
X174519674Y-93402867D01*
X174524982Y-93404289D01*
X174524984Y-93404290D01*
X174739741Y-93461834D01*
X174739743Y-93461834D01*
X174745056Y-93463258D01*
X174977500Y-93483594D01*
X175209944Y-93463258D01*
X175215257Y-93461834D01*
X175215259Y-93461834D01*
X175430016Y-93404290D01*
X175430018Y-93404289D01*
X175435326Y-93402867D01*
X175440308Y-93400544D01*
X175641810Y-93306582D01*
X175641815Y-93306579D01*
X175646797Y-93304256D01*
X175789228Y-93204525D01*
X175833421Y-93173581D01*
X175833424Y-93173579D01*
X175837932Y-93170422D01*
X176002922Y-93005432D01*
X176013112Y-92990880D01*
X176133599Y-92818806D01*
X176133600Y-92818804D01*
X176136756Y-92814297D01*
X176139079Y-92809315D01*
X176139082Y-92809310D01*
X176233044Y-92607808D01*
X176233045Y-92607806D01*
X176235367Y-92602826D01*
X176295758Y-92377444D01*
X176316094Y-92145000D01*
X176295758Y-91912556D01*
X176286739Y-91878896D01*
X176236790Y-91692484D01*
X176236789Y-91692482D01*
X176235367Y-91687174D01*
X176225102Y-91665161D01*
X176139082Y-91480690D01*
X176139079Y-91480685D01*
X176136756Y-91475703D01*
X176110552Y-91438280D01*
X176006081Y-91289079D01*
X176006079Y-91289076D01*
X176002922Y-91284568D01*
X175837932Y-91119578D01*
X175833424Y-91116421D01*
X175833421Y-91116419D01*
X175651306Y-90988901D01*
X175651304Y-90988900D01*
X175646797Y-90985744D01*
X175641815Y-90983421D01*
X175641810Y-90983418D01*
X175440308Y-90889456D01*
X175440306Y-90889455D01*
X175435326Y-90887133D01*
X175430018Y-90885711D01*
X175430016Y-90885710D01*
X175215259Y-90828166D01*
X175215257Y-90828166D01*
X175209944Y-90826742D01*
X174977500Y-90806406D01*
X174745056Y-90826742D01*
X174739743Y-90828166D01*
X174739741Y-90828166D01*
X174524984Y-90885710D01*
X174524982Y-90885711D01*
X174519674Y-90887133D01*
X174514694Y-90889455D01*
X174514692Y-90889456D01*
X174313190Y-90983418D01*
X174313185Y-90983421D01*
X174308203Y-90985744D01*
X174303696Y-90988900D01*
X174303694Y-90988901D01*
X174121579Y-91116419D01*
X174121576Y-91116421D01*
X174117068Y-91119578D01*
X173952078Y-91284568D01*
X173948921Y-91289076D01*
X173948919Y-91289079D01*
X173844448Y-91438280D01*
X173818244Y-91475703D01*
X173815921Y-91480685D01*
X173815918Y-91480690D01*
X173729898Y-91665161D01*
X173719633Y-91687174D01*
X173718211Y-91692482D01*
X173718210Y-91692484D01*
X173668261Y-91878896D01*
X173659242Y-91912556D01*
X173638906Y-92145000D01*
X151282954Y-92145000D01*
X151204211Y-92089864D01*
X151199233Y-92087543D01*
X151199230Y-92087541D01*
X151127719Y-92054195D01*
X151074434Y-92007277D01*
X151054973Y-91939000D01*
X151075515Y-91871040D01*
X151127719Y-91825805D01*
X151199230Y-91792459D01*
X151199233Y-91792457D01*
X151204211Y-91790136D01*
X151388896Y-91660819D01*
X151548319Y-91501396D01*
X151677636Y-91316711D01*
X151729935Y-91204557D01*
X151770596Y-91117358D01*
X151770597Y-91117357D01*
X151772919Y-91112376D01*
X151831272Y-90894600D01*
X151850922Y-90670000D01*
X151831272Y-90445400D01*
X151780211Y-90254839D01*
X151774342Y-90232934D01*
X151774341Y-90232932D01*
X151772919Y-90227624D01*
X151687914Y-90045330D01*
X151679959Y-90028270D01*
X151679957Y-90028267D01*
X151677636Y-90023289D01*
X151548319Y-89838604D01*
X151388896Y-89679181D01*
X151204211Y-89549864D01*
X151199233Y-89547543D01*
X151199230Y-89547541D01*
X151127719Y-89514195D01*
X151074434Y-89467277D01*
X151054973Y-89399000D01*
X151075515Y-89331040D01*
X151127719Y-89285805D01*
X151199230Y-89252459D01*
X151199233Y-89252457D01*
X151204211Y-89250136D01*
X151388896Y-89120819D01*
X151548319Y-88961396D01*
X151677636Y-88776711D01*
X151772919Y-88572376D01*
X151831272Y-88354600D01*
X151832987Y-88335000D01*
X173638906Y-88335000D01*
X173659242Y-88567444D01*
X173719633Y-88792826D01*
X173721955Y-88797806D01*
X173721956Y-88797808D01*
X173815918Y-88999310D01*
X173815921Y-88999315D01*
X173818244Y-89004297D01*
X173952078Y-89195432D01*
X174117068Y-89360422D01*
X174121576Y-89363579D01*
X174121579Y-89363581D01*
X174303694Y-89491099D01*
X174308203Y-89494256D01*
X174313185Y-89496579D01*
X174313190Y-89496582D01*
X174514692Y-89590544D01*
X174519674Y-89592867D01*
X174524982Y-89594289D01*
X174524984Y-89594290D01*
X174739741Y-89651834D01*
X174739743Y-89651834D01*
X174745056Y-89653258D01*
X174977500Y-89673594D01*
X175209944Y-89653258D01*
X175215257Y-89651834D01*
X175215259Y-89651834D01*
X175430016Y-89594290D01*
X175430018Y-89594289D01*
X175435326Y-89592867D01*
X175440308Y-89590544D01*
X175641810Y-89496582D01*
X175641815Y-89496579D01*
X175646797Y-89494256D01*
X175651306Y-89491099D01*
X175833421Y-89363581D01*
X175833424Y-89363579D01*
X175837932Y-89360422D01*
X176002922Y-89195432D01*
X176136756Y-89004297D01*
X176139079Y-88999315D01*
X176139082Y-88999310D01*
X176233044Y-88797808D01*
X176233045Y-88797806D01*
X176235367Y-88792826D01*
X176295758Y-88567444D01*
X176316094Y-88335000D01*
X176295758Y-88102556D01*
X176235367Y-87877174D01*
X176233044Y-87872192D01*
X176139082Y-87670690D01*
X176139079Y-87670685D01*
X176136756Y-87665703D01*
X176133599Y-87661194D01*
X176006081Y-87479079D01*
X176006079Y-87479076D01*
X176002922Y-87474568D01*
X175837932Y-87309578D01*
X175833424Y-87306421D01*
X175833421Y-87306419D01*
X175651306Y-87178901D01*
X175651304Y-87178900D01*
X175646797Y-87175744D01*
X175641815Y-87173421D01*
X175641810Y-87173418D01*
X175440308Y-87079456D01*
X175440306Y-87079455D01*
X175435326Y-87077133D01*
X175430018Y-87075711D01*
X175430016Y-87075710D01*
X175215259Y-87018166D01*
X175215257Y-87018166D01*
X175209944Y-87016742D01*
X174977500Y-86996406D01*
X174745056Y-87016742D01*
X174739743Y-87018166D01*
X174739741Y-87018166D01*
X174524984Y-87075710D01*
X174524982Y-87075711D01*
X174519674Y-87077133D01*
X174514694Y-87079455D01*
X174514692Y-87079456D01*
X174313190Y-87173418D01*
X174313185Y-87173421D01*
X174308203Y-87175744D01*
X174303696Y-87178900D01*
X174303694Y-87178901D01*
X174121579Y-87306419D01*
X174121576Y-87306421D01*
X174117068Y-87309578D01*
X173952078Y-87474568D01*
X173948921Y-87479076D01*
X173948919Y-87479079D01*
X173821401Y-87661194D01*
X173818244Y-87665703D01*
X173815921Y-87670685D01*
X173815918Y-87670690D01*
X173721956Y-87872192D01*
X173719633Y-87877174D01*
X173659242Y-88102556D01*
X173638906Y-88335000D01*
X151832987Y-88335000D01*
X151850922Y-88130000D01*
X151831272Y-87905400D01*
X151772919Y-87687624D01*
X151762697Y-87665703D01*
X151679959Y-87488270D01*
X151679957Y-87488267D01*
X151677636Y-87483289D01*
X151548319Y-87298604D01*
X151388896Y-87139181D01*
X151204211Y-87009864D01*
X151199233Y-87007543D01*
X151199230Y-87007541D01*
X151127719Y-86974195D01*
X151074434Y-86927277D01*
X151054973Y-86859000D01*
X151075515Y-86791040D01*
X151127719Y-86745805D01*
X151199230Y-86712459D01*
X151199233Y-86712457D01*
X151204211Y-86710136D01*
X151388896Y-86580819D01*
X151548319Y-86421396D01*
X151677636Y-86236711D01*
X151729935Y-86124557D01*
X151770596Y-86037358D01*
X151770597Y-86037357D01*
X151772919Y-86032376D01*
X151818273Y-85863115D01*
X151829848Y-85819915D01*
X151829848Y-85819913D01*
X151831272Y-85814600D01*
X151850922Y-85590000D01*
X151831272Y-85365400D01*
X151780211Y-85174839D01*
X151774342Y-85152934D01*
X151774341Y-85152932D01*
X151772919Y-85147624D01*
X151698396Y-84987808D01*
X151679959Y-84948270D01*
X151679957Y-84948267D01*
X151677636Y-84943289D01*
X151548319Y-84758604D01*
X151388896Y-84599181D01*
X151282954Y-84525000D01*
X173638906Y-84525000D01*
X173659242Y-84757444D01*
X173660666Y-84762757D01*
X173660666Y-84762759D01*
X173713813Y-84961104D01*
X173719633Y-84982826D01*
X173721955Y-84987806D01*
X173721956Y-84987808D01*
X173815918Y-85189310D01*
X173815921Y-85189315D01*
X173818244Y-85194297D01*
X173821400Y-85198804D01*
X173821401Y-85198806D01*
X173941889Y-85370880D01*
X173952078Y-85385432D01*
X174117068Y-85550422D01*
X174121576Y-85553579D01*
X174121579Y-85553581D01*
X174245537Y-85640377D01*
X174308203Y-85684256D01*
X174313185Y-85686579D01*
X174313190Y-85686582D01*
X174514692Y-85780544D01*
X174519674Y-85782867D01*
X174524982Y-85784289D01*
X174524984Y-85784290D01*
X174739741Y-85841834D01*
X174739743Y-85841834D01*
X174745056Y-85843258D01*
X174977500Y-85863594D01*
X175209944Y-85843258D01*
X175215257Y-85841834D01*
X175215259Y-85841834D01*
X175430016Y-85784290D01*
X175430018Y-85784289D01*
X175435326Y-85782867D01*
X175440308Y-85780544D01*
X175641810Y-85686582D01*
X175641815Y-85686579D01*
X175646797Y-85684256D01*
X175709463Y-85640377D01*
X175833421Y-85553581D01*
X175833424Y-85553579D01*
X175837932Y-85550422D01*
X176002922Y-85385432D01*
X176013112Y-85370880D01*
X176133599Y-85198806D01*
X176133600Y-85198804D01*
X176136756Y-85194297D01*
X176139079Y-85189315D01*
X176139082Y-85189310D01*
X176233044Y-84987808D01*
X176233045Y-84987806D01*
X176235367Y-84982826D01*
X176241188Y-84961104D01*
X176294334Y-84762759D01*
X176294334Y-84762757D01*
X176295758Y-84757444D01*
X176316094Y-84525000D01*
X176295758Y-84292556D01*
X176235367Y-84067174D01*
X176233044Y-84062192D01*
X176139082Y-83860690D01*
X176139079Y-83860685D01*
X176136756Y-83855703D01*
X176133599Y-83851194D01*
X176006081Y-83669079D01*
X176006079Y-83669076D01*
X176002922Y-83664568D01*
X175837932Y-83499578D01*
X175833424Y-83496421D01*
X175833421Y-83496419D01*
X175651306Y-83368901D01*
X175651304Y-83368900D01*
X175646797Y-83365744D01*
X175641815Y-83363421D01*
X175641810Y-83363418D01*
X175440308Y-83269456D01*
X175440306Y-83269455D01*
X175435326Y-83267133D01*
X175430018Y-83265711D01*
X175430016Y-83265710D01*
X175215259Y-83208166D01*
X175215257Y-83208166D01*
X175209944Y-83206742D01*
X174977500Y-83186406D01*
X174745056Y-83206742D01*
X174739743Y-83208166D01*
X174739741Y-83208166D01*
X174524984Y-83265710D01*
X174524982Y-83265711D01*
X174519674Y-83267133D01*
X174514694Y-83269455D01*
X174514692Y-83269456D01*
X174313190Y-83363418D01*
X174313185Y-83363421D01*
X174308203Y-83365744D01*
X174303696Y-83368900D01*
X174303694Y-83368901D01*
X174121579Y-83496419D01*
X174121576Y-83496421D01*
X174117068Y-83499578D01*
X173952078Y-83664568D01*
X173948921Y-83669076D01*
X173948919Y-83669079D01*
X173821401Y-83851194D01*
X173818244Y-83855703D01*
X173815921Y-83860685D01*
X173815918Y-83860690D01*
X173721956Y-84062192D01*
X173719633Y-84067174D01*
X173659242Y-84292556D01*
X173638906Y-84525000D01*
X151282954Y-84525000D01*
X151204211Y-84469864D01*
X151199233Y-84467543D01*
X151199230Y-84467541D01*
X151127719Y-84434195D01*
X151074434Y-84387277D01*
X151054973Y-84319000D01*
X151075515Y-84251040D01*
X151127719Y-84205805D01*
X151199230Y-84172459D01*
X151199233Y-84172457D01*
X151204211Y-84170136D01*
X151388896Y-84040819D01*
X151548319Y-83881396D01*
X151677636Y-83696711D01*
X151767744Y-83503475D01*
X151770596Y-83497358D01*
X151770597Y-83497357D01*
X151772919Y-83492376D01*
X151831272Y-83274600D01*
X151850922Y-83050000D01*
X151831272Y-82825400D01*
X151772919Y-82607624D01*
X151677636Y-82403289D01*
X151548319Y-82218604D01*
X151388896Y-82059181D01*
X151204211Y-81929864D01*
X151199233Y-81927543D01*
X151199230Y-81927541D01*
X151127719Y-81894195D01*
X151074434Y-81847277D01*
X151054973Y-81779000D01*
X151075515Y-81711040D01*
X151127719Y-81665805D01*
X151199230Y-81632459D01*
X151199233Y-81632457D01*
X151204211Y-81630136D01*
X151388896Y-81500819D01*
X151548319Y-81341396D01*
X151677636Y-81156711D01*
X151729935Y-81044557D01*
X151770596Y-80957358D01*
X151770597Y-80957357D01*
X151772919Y-80952376D01*
X151831272Y-80734600D01*
X151832987Y-80715000D01*
X173638906Y-80715000D01*
X173659242Y-80947444D01*
X173719633Y-81172826D01*
X173721955Y-81177806D01*
X173721956Y-81177808D01*
X173815918Y-81379310D01*
X173815921Y-81379315D01*
X173818244Y-81384297D01*
X173821400Y-81388804D01*
X173821401Y-81388806D01*
X173909029Y-81513951D01*
X173952078Y-81575432D01*
X174117068Y-81740422D01*
X174121576Y-81743579D01*
X174121579Y-81743581D01*
X174303694Y-81871099D01*
X174308203Y-81874256D01*
X174313185Y-81876579D01*
X174313190Y-81876582D01*
X174514692Y-81970544D01*
X174519674Y-81972867D01*
X174524982Y-81974289D01*
X174524984Y-81974290D01*
X174739741Y-82031834D01*
X174739743Y-82031834D01*
X174745056Y-82033258D01*
X174977500Y-82053594D01*
X175209944Y-82033258D01*
X175215257Y-82031834D01*
X175215259Y-82031834D01*
X175430016Y-81974290D01*
X175430018Y-81974289D01*
X175435326Y-81972867D01*
X175440308Y-81970544D01*
X175641810Y-81876582D01*
X175641815Y-81876579D01*
X175646797Y-81874256D01*
X175651306Y-81871099D01*
X175833421Y-81743581D01*
X175833424Y-81743579D01*
X175837932Y-81740422D01*
X176002922Y-81575432D01*
X176045972Y-81513951D01*
X176133599Y-81388806D01*
X176133600Y-81388804D01*
X176136756Y-81384297D01*
X176139079Y-81379315D01*
X176139082Y-81379310D01*
X176233044Y-81177808D01*
X176233045Y-81177806D01*
X176235367Y-81172826D01*
X176295758Y-80947444D01*
X176316094Y-80715000D01*
X176295758Y-80482556D01*
X176251373Y-80316908D01*
X176236790Y-80262484D01*
X176236789Y-80262482D01*
X176235367Y-80257174D01*
X176159669Y-80094839D01*
X176139082Y-80050690D01*
X176139079Y-80050685D01*
X176136756Y-80045703D01*
X176018865Y-79877337D01*
X176006081Y-79859079D01*
X176006079Y-79859076D01*
X176002922Y-79854568D01*
X175837932Y-79689578D01*
X175833424Y-79686421D01*
X175833421Y-79686419D01*
X175651306Y-79558901D01*
X175651304Y-79558900D01*
X175646797Y-79555744D01*
X175641815Y-79553421D01*
X175641810Y-79553418D01*
X175440308Y-79459456D01*
X175440306Y-79459455D01*
X175435326Y-79457133D01*
X175430018Y-79455711D01*
X175430016Y-79455710D01*
X175215259Y-79398166D01*
X175215257Y-79398166D01*
X175209944Y-79396742D01*
X174977500Y-79376406D01*
X174745056Y-79396742D01*
X174739743Y-79398166D01*
X174739741Y-79398166D01*
X174524984Y-79455710D01*
X174524982Y-79455711D01*
X174519674Y-79457133D01*
X174514694Y-79459455D01*
X174514692Y-79459456D01*
X174313190Y-79553418D01*
X174313185Y-79553421D01*
X174308203Y-79555744D01*
X174303696Y-79558900D01*
X174303694Y-79558901D01*
X174121579Y-79686419D01*
X174121576Y-79686421D01*
X174117068Y-79689578D01*
X173952078Y-79854568D01*
X173948921Y-79859076D01*
X173948919Y-79859079D01*
X173936135Y-79877337D01*
X173818244Y-80045703D01*
X173815921Y-80050685D01*
X173815918Y-80050690D01*
X173795331Y-80094839D01*
X173719633Y-80257174D01*
X173718211Y-80262482D01*
X173718210Y-80262484D01*
X173703627Y-80316908D01*
X173659242Y-80482556D01*
X173638906Y-80715000D01*
X151832987Y-80715000D01*
X151850922Y-80510000D01*
X151831272Y-80285400D01*
X151780211Y-80094839D01*
X151774342Y-80072934D01*
X151774341Y-80072932D01*
X151772919Y-80067624D01*
X151762697Y-80045703D01*
X151679959Y-79868270D01*
X151679957Y-79868267D01*
X151677636Y-79863289D01*
X151548319Y-79678604D01*
X151388896Y-79519181D01*
X151204211Y-79389864D01*
X151199233Y-79387543D01*
X151199230Y-79387541D01*
X151127719Y-79354195D01*
X151074434Y-79307277D01*
X151054973Y-79239000D01*
X151075515Y-79171040D01*
X151127719Y-79125805D01*
X151199230Y-79092459D01*
X151199233Y-79092457D01*
X151204211Y-79090136D01*
X151388896Y-78960819D01*
X151548319Y-78801396D01*
X151677636Y-78616711D01*
X151772919Y-78412376D01*
X151818273Y-78243115D01*
X151829848Y-78199915D01*
X151829848Y-78199913D01*
X151831272Y-78194600D01*
X151850922Y-77970000D01*
X151831272Y-77745400D01*
X151772919Y-77527624D01*
X151698396Y-77367808D01*
X151679959Y-77328270D01*
X151679957Y-77328267D01*
X151677636Y-77323289D01*
X151548319Y-77138604D01*
X151388896Y-76979181D01*
X151282954Y-76905000D01*
X173638906Y-76905000D01*
X173659242Y-77137444D01*
X173719633Y-77362826D01*
X173721955Y-77367806D01*
X173721956Y-77367808D01*
X173815918Y-77569310D01*
X173815921Y-77569315D01*
X173818244Y-77574297D01*
X173821400Y-77578804D01*
X173821401Y-77578806D01*
X173941889Y-77750880D01*
X173952078Y-77765432D01*
X174117068Y-77930422D01*
X174121576Y-77933579D01*
X174121579Y-77933581D01*
X174165772Y-77964525D01*
X174308203Y-78064256D01*
X174313185Y-78066579D01*
X174313190Y-78066582D01*
X174514692Y-78160544D01*
X174519674Y-78162867D01*
X174524982Y-78164289D01*
X174524984Y-78164290D01*
X174739741Y-78221834D01*
X174739743Y-78221834D01*
X174745056Y-78223258D01*
X174977500Y-78243594D01*
X175209944Y-78223258D01*
X175215257Y-78221834D01*
X175215259Y-78221834D01*
X175430016Y-78164290D01*
X175430018Y-78164289D01*
X175435326Y-78162867D01*
X175440308Y-78160544D01*
X175641810Y-78066582D01*
X175641815Y-78066579D01*
X175646797Y-78064256D01*
X175789228Y-77964525D01*
X175833421Y-77933581D01*
X175833424Y-77933579D01*
X175837932Y-77930422D01*
X176002922Y-77765432D01*
X176013112Y-77750880D01*
X176133599Y-77578806D01*
X176133600Y-77578804D01*
X176136756Y-77574297D01*
X176139079Y-77569315D01*
X176139082Y-77569310D01*
X176233044Y-77367808D01*
X176233045Y-77367806D01*
X176235367Y-77362826D01*
X176295758Y-77137444D01*
X176316094Y-76905000D01*
X176295758Y-76672556D01*
X176286739Y-76638896D01*
X176236790Y-76452484D01*
X176236789Y-76452482D01*
X176235367Y-76447174D01*
X176225102Y-76425161D01*
X176139082Y-76240690D01*
X176139079Y-76240685D01*
X176136756Y-76235703D01*
X176110552Y-76198280D01*
X176006081Y-76049079D01*
X176006079Y-76049076D01*
X176002922Y-76044568D01*
X175837932Y-75879578D01*
X175833424Y-75876421D01*
X175833421Y-75876419D01*
X175651306Y-75748901D01*
X175651304Y-75748900D01*
X175646797Y-75745744D01*
X175641815Y-75743421D01*
X175641810Y-75743418D01*
X175440308Y-75649456D01*
X175440306Y-75649455D01*
X175435326Y-75647133D01*
X175430018Y-75645711D01*
X175430016Y-75645710D01*
X175215259Y-75588166D01*
X175215257Y-75588166D01*
X175209944Y-75586742D01*
X174977500Y-75566406D01*
X174745056Y-75586742D01*
X174739743Y-75588166D01*
X174739741Y-75588166D01*
X174524984Y-75645710D01*
X174524982Y-75645711D01*
X174519674Y-75647133D01*
X174514694Y-75649455D01*
X174514692Y-75649456D01*
X174313190Y-75743418D01*
X174313185Y-75743421D01*
X174308203Y-75745744D01*
X174303696Y-75748900D01*
X174303694Y-75748901D01*
X174121579Y-75876419D01*
X174121576Y-75876421D01*
X174117068Y-75879578D01*
X173952078Y-76044568D01*
X173948921Y-76049076D01*
X173948919Y-76049079D01*
X173844448Y-76198280D01*
X173818244Y-76235703D01*
X173815921Y-76240685D01*
X173815918Y-76240690D01*
X173729898Y-76425161D01*
X173719633Y-76447174D01*
X173718211Y-76452482D01*
X173718210Y-76452484D01*
X173668261Y-76638896D01*
X173659242Y-76672556D01*
X173638906Y-76905000D01*
X151282954Y-76905000D01*
X151204211Y-76849864D01*
X151199233Y-76847543D01*
X151199230Y-76847541D01*
X151127719Y-76814195D01*
X151074434Y-76767277D01*
X151054973Y-76699000D01*
X151075515Y-76631040D01*
X151127719Y-76585805D01*
X151199230Y-76552459D01*
X151199233Y-76552457D01*
X151204211Y-76550136D01*
X151388896Y-76420819D01*
X151548319Y-76261396D01*
X151677636Y-76076711D01*
X151729935Y-75964557D01*
X151770596Y-75877358D01*
X151770597Y-75877357D01*
X151772919Y-75872376D01*
X151831272Y-75654600D01*
X151850922Y-75430000D01*
X151831272Y-75205400D01*
X151780211Y-75014839D01*
X151774342Y-74992934D01*
X151774341Y-74992932D01*
X151772919Y-74987624D01*
X151687914Y-74805330D01*
X151679959Y-74788270D01*
X151679957Y-74788267D01*
X151677636Y-74783289D01*
X151548319Y-74598604D01*
X151388896Y-74439181D01*
X151204211Y-74309864D01*
X151199233Y-74307543D01*
X151199230Y-74307541D01*
X151127719Y-74274195D01*
X151074434Y-74227277D01*
X151066378Y-74199013D01*
X174238042Y-74199013D01*
X174247338Y-74211028D01*
X174303946Y-74250665D01*
X174313441Y-74256148D01*
X174514864Y-74350072D01*
X174525156Y-74353818D01*
X174739828Y-74411339D01*
X174750623Y-74413242D01*
X174972025Y-74432613D01*
X174982975Y-74432613D01*
X175204377Y-74413242D01*
X175215172Y-74411339D01*
X175429844Y-74353818D01*
X175440136Y-74350072D01*
X175641559Y-74256148D01*
X175651054Y-74250665D01*
X175708500Y-74210441D01*
X175716875Y-74199964D01*
X175709807Y-74186517D01*
X174990312Y-73467022D01*
X174976368Y-73459408D01*
X174974535Y-73459539D01*
X174967920Y-73463790D01*
X174244472Y-74187238D01*
X174238042Y-74199013D01*
X151066378Y-74199013D01*
X151054973Y-74159000D01*
X151075515Y-74091040D01*
X151127719Y-74045805D01*
X151199230Y-74012459D01*
X151199233Y-74012457D01*
X151204211Y-74010136D01*
X151388896Y-73880819D01*
X151548319Y-73721396D01*
X151677636Y-73536711D01*
X151772919Y-73332376D01*
X151831272Y-73114600D01*
X151832508Y-73100475D01*
X173639887Y-73100475D01*
X173659258Y-73321877D01*
X173661161Y-73332672D01*
X173718682Y-73547344D01*
X173722428Y-73557636D01*
X173816352Y-73759059D01*
X173821835Y-73768554D01*
X173862059Y-73826000D01*
X173872536Y-73834375D01*
X173885983Y-73827307D01*
X174605478Y-73107812D01*
X174611856Y-73096132D01*
X175341908Y-73096132D01*
X175342039Y-73097965D01*
X175346290Y-73104580D01*
X176069738Y-73828028D01*
X176081513Y-73834458D01*
X176093528Y-73825162D01*
X176133165Y-73768554D01*
X176138648Y-73759059D01*
X176232572Y-73557636D01*
X176236318Y-73547344D01*
X176293839Y-73332672D01*
X176295742Y-73321877D01*
X176315113Y-73100475D01*
X176315113Y-73089525D01*
X176295742Y-72868123D01*
X176293839Y-72857328D01*
X176236318Y-72642656D01*
X176232572Y-72632364D01*
X176138648Y-72430941D01*
X176133165Y-72421446D01*
X176092941Y-72364000D01*
X176082464Y-72355625D01*
X176069017Y-72362693D01*
X175349522Y-73082188D01*
X175341908Y-73096132D01*
X174611856Y-73096132D01*
X174613092Y-73093868D01*
X174612961Y-73092035D01*
X174608710Y-73085420D01*
X173885262Y-72361972D01*
X173873487Y-72355542D01*
X173861472Y-72364838D01*
X173821835Y-72421446D01*
X173816352Y-72430941D01*
X173722428Y-72632364D01*
X173718682Y-72642656D01*
X173661161Y-72857328D01*
X173659258Y-72868123D01*
X173639887Y-73089525D01*
X173639887Y-73100475D01*
X151832508Y-73100475D01*
X151850922Y-72890000D01*
X151831272Y-72665400D01*
X151772919Y-72447624D01*
X151734315Y-72364838D01*
X151679959Y-72248270D01*
X151679957Y-72248267D01*
X151677636Y-72243289D01*
X151548319Y-72058604D01*
X151479751Y-71990036D01*
X174238125Y-71990036D01*
X174245193Y-72003483D01*
X174964688Y-72722978D01*
X174978632Y-72730592D01*
X174980465Y-72730461D01*
X174987080Y-72726210D01*
X175710528Y-72002762D01*
X175716958Y-71990987D01*
X175707662Y-71978972D01*
X175651054Y-71939335D01*
X175641559Y-71933852D01*
X175440136Y-71839928D01*
X175429844Y-71836182D01*
X175215172Y-71778661D01*
X175204377Y-71776758D01*
X174982975Y-71757387D01*
X174972025Y-71757387D01*
X174750623Y-71776758D01*
X174739828Y-71778661D01*
X174525156Y-71836182D01*
X174514864Y-71839928D01*
X174313441Y-71933852D01*
X174303946Y-71939335D01*
X174246500Y-71979559D01*
X174238125Y-71990036D01*
X151479751Y-71990036D01*
X151388896Y-71899181D01*
X151204211Y-71769864D01*
X151199233Y-71767543D01*
X151199230Y-71767541D01*
X151127719Y-71734195D01*
X151074434Y-71687277D01*
X151054973Y-71619000D01*
X151075515Y-71551040D01*
X151127719Y-71505805D01*
X151199230Y-71472459D01*
X151199233Y-71472457D01*
X151204211Y-71470136D01*
X151388896Y-71340819D01*
X151548319Y-71181396D01*
X151677636Y-70996711D01*
X151772919Y-70792376D01*
X151821091Y-70612598D01*
X151829848Y-70579915D01*
X151829848Y-70579913D01*
X151831272Y-70574600D01*
X151850922Y-70350000D01*
X151834136Y-70158134D01*
X173644000Y-70158134D01*
X173650755Y-70220316D01*
X173701885Y-70356705D01*
X173789239Y-70473261D01*
X173905795Y-70560615D01*
X174042184Y-70611745D01*
X174104366Y-70618500D01*
X175850634Y-70618500D01*
X175912816Y-70611745D01*
X176049205Y-70560615D01*
X176165761Y-70473261D01*
X176253115Y-70356705D01*
X176304245Y-70220316D01*
X176311000Y-70158134D01*
X176311000Y-68411866D01*
X176304245Y-68349684D01*
X176253115Y-68213295D01*
X176165761Y-68096739D01*
X176049205Y-68009385D01*
X175912816Y-67958255D01*
X175850634Y-67951500D01*
X174104366Y-67951500D01*
X174042184Y-67958255D01*
X173905795Y-68009385D01*
X173789239Y-68096739D01*
X173701885Y-68213295D01*
X173650755Y-68349684D01*
X173644000Y-68411866D01*
X173644000Y-70158134D01*
X151834136Y-70158134D01*
X151831272Y-70125400D01*
X151772919Y-69907624D01*
X151677636Y-69703289D01*
X151548319Y-69518604D01*
X151388896Y-69359181D01*
X151204211Y-69229864D01*
X151199233Y-69227543D01*
X151199230Y-69227541D01*
X151127719Y-69194195D01*
X151074434Y-69147277D01*
X151054973Y-69079000D01*
X151075515Y-69011040D01*
X151127719Y-68965805D01*
X151199230Y-68932459D01*
X151199233Y-68932457D01*
X151204211Y-68930136D01*
X151388896Y-68800819D01*
X151548319Y-68641396D01*
X151677636Y-68456711D01*
X151772919Y-68252376D01*
X151831272Y-68034600D01*
X151850922Y-67810000D01*
X151831272Y-67585400D01*
X151772919Y-67367624D01*
X151677636Y-67163289D01*
X151548319Y-66978604D01*
X151388896Y-66819181D01*
X151204211Y-66689864D01*
X151199233Y-66687543D01*
X151199230Y-66687541D01*
X151127719Y-66654195D01*
X151074434Y-66607277D01*
X151054973Y-66539000D01*
X151075515Y-66471040D01*
X151127719Y-66425805D01*
X151199230Y-66392459D01*
X151199233Y-66392457D01*
X151204211Y-66390136D01*
X151388896Y-66260819D01*
X151548319Y-66101396D01*
X151677636Y-65916711D01*
X151710003Y-65847301D01*
X151770596Y-65717358D01*
X151770597Y-65717357D01*
X151772919Y-65712376D01*
X151829357Y-65501749D01*
X151829848Y-65499915D01*
X151829848Y-65499913D01*
X151831272Y-65494600D01*
X151850922Y-65270000D01*
X151831272Y-65045400D01*
X151772919Y-64827624D01*
X151677636Y-64623289D01*
X151548319Y-64438604D01*
X151388896Y-64279181D01*
X151204211Y-64149864D01*
X151199233Y-64147543D01*
X151199230Y-64147541D01*
X151127719Y-64114195D01*
X151074434Y-64067277D01*
X151054973Y-63999000D01*
X151075515Y-63931040D01*
X151127719Y-63885805D01*
X151199230Y-63852459D01*
X151199233Y-63852457D01*
X151204211Y-63850136D01*
X151388896Y-63720819D01*
X151548319Y-63561396D01*
X151677636Y-63376711D01*
X151710003Y-63307301D01*
X151747590Y-63226695D01*
X173547251Y-63226695D01*
X173547548Y-63231848D01*
X173547548Y-63231851D01*
X173555901Y-63376711D01*
X173560110Y-63449715D01*
X173561247Y-63454761D01*
X173561248Y-63454767D01*
X173581119Y-63542939D01*
X173609222Y-63667639D01*
X173647461Y-63761811D01*
X173678724Y-63838802D01*
X173693266Y-63874616D01*
X173695965Y-63879020D01*
X173775599Y-64008971D01*
X173809987Y-64065088D01*
X173956250Y-64233938D01*
X174128126Y-64376632D01*
X174321000Y-64489338D01*
X174529692Y-64569030D01*
X174534760Y-64570061D01*
X174534763Y-64570062D01*
X174642017Y-64591883D01*
X174748597Y-64613567D01*
X174753772Y-64613757D01*
X174753774Y-64613757D01*
X174966673Y-64621564D01*
X174966677Y-64621564D01*
X174971837Y-64621753D01*
X174976957Y-64621097D01*
X174976959Y-64621097D01*
X175188288Y-64594025D01*
X175188289Y-64594025D01*
X175193416Y-64593368D01*
X175198366Y-64591883D01*
X175402429Y-64530661D01*
X175402434Y-64530659D01*
X175407384Y-64529174D01*
X175607994Y-64430896D01*
X175789860Y-64301173D01*
X175808021Y-64283076D01*
X175917919Y-64173561D01*
X175948096Y-64143489D01*
X176007594Y-64060689D01*
X176075435Y-63966277D01*
X176078453Y-63962077D01*
X176081838Y-63955229D01*
X176175136Y-63766453D01*
X176175137Y-63766451D01*
X176177430Y-63761811D01*
X176220420Y-63620316D01*
X176240865Y-63553023D01*
X176240865Y-63553021D01*
X176242370Y-63548069D01*
X176271529Y-63326590D01*
X176273156Y-63260000D01*
X176254852Y-63037361D01*
X176200431Y-62820702D01*
X176111354Y-62615840D01*
X176057819Y-62533087D01*
X175992822Y-62432617D01*
X175992820Y-62432614D01*
X175990014Y-62428277D01*
X175986532Y-62424450D01*
X175842798Y-62266488D01*
X175811746Y-62202642D01*
X175820141Y-62132143D01*
X175865317Y-62077375D01*
X175891761Y-62063706D01*
X175998297Y-62023767D01*
X176006705Y-62020615D01*
X176123261Y-61933261D01*
X176210615Y-61816705D01*
X176261745Y-61680316D01*
X176268500Y-61618134D01*
X176268500Y-59821866D01*
X176261745Y-59759684D01*
X176210615Y-59623295D01*
X176123261Y-59506739D01*
X176006705Y-59419385D01*
X175870316Y-59368255D01*
X175808134Y-59361500D01*
X174011866Y-59361500D01*
X173949684Y-59368255D01*
X173813295Y-59419385D01*
X173696739Y-59506739D01*
X173609385Y-59623295D01*
X173558255Y-59759684D01*
X173551500Y-59821866D01*
X173551500Y-61618134D01*
X173558255Y-61680316D01*
X173609385Y-61816705D01*
X173696739Y-61933261D01*
X173813295Y-62020615D01*
X173821704Y-62023767D01*
X173821705Y-62023768D01*
X173930451Y-62064535D01*
X173987216Y-62107176D01*
X174011916Y-62173738D01*
X173996709Y-62243087D01*
X173977316Y-62269568D01*
X173850629Y-62402138D01*
X173724743Y-62586680D01*
X173709003Y-62620590D01*
X173644651Y-62759225D01*
X173630688Y-62789305D01*
X173570989Y-63004570D01*
X173547251Y-63226695D01*
X151747590Y-63226695D01*
X151770596Y-63177358D01*
X151770597Y-63177357D01*
X151772919Y-63172376D01*
X151819218Y-62999588D01*
X151829848Y-62959915D01*
X151829848Y-62959913D01*
X151831272Y-62954600D01*
X151850922Y-62730000D01*
X151831272Y-62505400D01*
X151810607Y-62428277D01*
X151774342Y-62292934D01*
X151774341Y-62292932D01*
X151772919Y-62287624D01*
X151770596Y-62282642D01*
X151679959Y-62088270D01*
X151679957Y-62088267D01*
X151677636Y-62083289D01*
X151548319Y-61898604D01*
X151388896Y-61739181D01*
X151204211Y-61609864D01*
X151199233Y-61607543D01*
X151199230Y-61607541D01*
X151004858Y-61516904D01*
X151004857Y-61516903D01*
X150999876Y-61514581D01*
X150994568Y-61513159D01*
X150994566Y-61513158D01*
X150787415Y-61457652D01*
X150787413Y-61457652D01*
X150782100Y-61456228D01*
X150557500Y-61436578D01*
X150332900Y-61456228D01*
X150327587Y-61457652D01*
X150327585Y-61457652D01*
X150120434Y-61513158D01*
X150120432Y-61513159D01*
X150115124Y-61514581D01*
X150110143Y-61516903D01*
X150110142Y-61516904D01*
X149915770Y-61607541D01*
X149915767Y-61607543D01*
X149910789Y-61609864D01*
X149726104Y-61739181D01*
X149566681Y-61898604D01*
X149437364Y-62083289D01*
X149435043Y-62088267D01*
X149435041Y-62088270D01*
X149344404Y-62282642D01*
X149342081Y-62287624D01*
X149340659Y-62292932D01*
X149340658Y-62292934D01*
X149304393Y-62428277D01*
X149283728Y-62505400D01*
X149264078Y-62730000D01*
X149283728Y-62954600D01*
X149285152Y-62959913D01*
X149285152Y-62959915D01*
X149295783Y-62999588D01*
X149342081Y-63172376D01*
X149344403Y-63177357D01*
X149344404Y-63177358D01*
X149404998Y-63307301D01*
X149437364Y-63376711D01*
X149566681Y-63561396D01*
X149726104Y-63720819D01*
X149910789Y-63850136D01*
X149915767Y-63852457D01*
X149915770Y-63852459D01*
X149987281Y-63885805D01*
X150040566Y-63932723D01*
X150060027Y-64001000D01*
X150039485Y-64068960D01*
X149987281Y-64114195D01*
X149915770Y-64147541D01*
X149915767Y-64147543D01*
X149910789Y-64149864D01*
X149726104Y-64279181D01*
X149566681Y-64438604D01*
X149437364Y-64623289D01*
X149342081Y-64827624D01*
X149283728Y-65045400D01*
X149264078Y-65270000D01*
X149283728Y-65494600D01*
X149285152Y-65499913D01*
X149285152Y-65499915D01*
X149285644Y-65501749D01*
X149342081Y-65712376D01*
X149344403Y-65717357D01*
X149344404Y-65717358D01*
X149404998Y-65847301D01*
X149437364Y-65916711D01*
X149566681Y-66101396D01*
X149726104Y-66260819D01*
X149910789Y-66390136D01*
X149915767Y-66392457D01*
X149915770Y-66392459D01*
X149987281Y-66425805D01*
X150040566Y-66472723D01*
X150060027Y-66541000D01*
X150039485Y-66608960D01*
X149987281Y-66654195D01*
X149915770Y-66687541D01*
X149915767Y-66687543D01*
X149910789Y-66689864D01*
X149726104Y-66819181D01*
X149566681Y-66978604D01*
X149437364Y-67163289D01*
X149342081Y-67367624D01*
X149283728Y-67585400D01*
X149264078Y-67810000D01*
X149283728Y-68034600D01*
X149342081Y-68252376D01*
X149437364Y-68456711D01*
X149566681Y-68641396D01*
X149726104Y-68800819D01*
X149910789Y-68930136D01*
X149915767Y-68932457D01*
X149915770Y-68932459D01*
X149987281Y-68965805D01*
X150040566Y-69012723D01*
X150060027Y-69081000D01*
X150039485Y-69148960D01*
X149987281Y-69194195D01*
X149915770Y-69227541D01*
X149915767Y-69227543D01*
X149910789Y-69229864D01*
X149726104Y-69359181D01*
X149566681Y-69518604D01*
X149437364Y-69703289D01*
X149342081Y-69907624D01*
X149283728Y-70125400D01*
X149264078Y-70350000D01*
X149283728Y-70574600D01*
X149285152Y-70579913D01*
X149285152Y-70579915D01*
X149293910Y-70612598D01*
X149342081Y-70792376D01*
X149437364Y-70996711D01*
X149566681Y-71181396D01*
X149726104Y-71340819D01*
X149910789Y-71470136D01*
X149915767Y-71472457D01*
X149915770Y-71472459D01*
X149987281Y-71505805D01*
X150040566Y-71552723D01*
X150060027Y-71621000D01*
X150039485Y-71688960D01*
X149987281Y-71734195D01*
X149915770Y-71767541D01*
X149915767Y-71767543D01*
X149910789Y-71769864D01*
X149726104Y-71899181D01*
X149566681Y-72058604D01*
X149437364Y-72243289D01*
X149435043Y-72248267D01*
X149435041Y-72248270D01*
X149380685Y-72364838D01*
X149342081Y-72447624D01*
X149283728Y-72665400D01*
X149264078Y-72890000D01*
X149283728Y-73114600D01*
X149342081Y-73332376D01*
X149437364Y-73536711D01*
X149566681Y-73721396D01*
X149726104Y-73880819D01*
X149910789Y-74010136D01*
X149915767Y-74012457D01*
X149915770Y-74012459D01*
X149987281Y-74045805D01*
X150040566Y-74092723D01*
X150060027Y-74161000D01*
X150039485Y-74228960D01*
X149987281Y-74274195D01*
X149915770Y-74307541D01*
X149915767Y-74307543D01*
X149910789Y-74309864D01*
X149726104Y-74439181D01*
X149566681Y-74598604D01*
X149437364Y-74783289D01*
X149435043Y-74788267D01*
X149435041Y-74788270D01*
X149427086Y-74805330D01*
X149342081Y-74987624D01*
X149340659Y-74992932D01*
X149340658Y-74992934D01*
X149334789Y-75014839D01*
X149283728Y-75205400D01*
X149264078Y-75430000D01*
X149283728Y-75654600D01*
X149342081Y-75872376D01*
X149344403Y-75877357D01*
X149344404Y-75877358D01*
X149385066Y-75964557D01*
X149437364Y-76076711D01*
X149566681Y-76261396D01*
X149726104Y-76420819D01*
X149910789Y-76550136D01*
X149915767Y-76552457D01*
X149915770Y-76552459D01*
X149987281Y-76585805D01*
X150040566Y-76632723D01*
X150060027Y-76701000D01*
X150039485Y-76768960D01*
X149987281Y-76814195D01*
X149915770Y-76847541D01*
X149915767Y-76847543D01*
X149910789Y-76849864D01*
X149726104Y-76979181D01*
X149566681Y-77138604D01*
X149437364Y-77323289D01*
X149435043Y-77328267D01*
X149435041Y-77328270D01*
X149416604Y-77367808D01*
X149342081Y-77527624D01*
X149283728Y-77745400D01*
X149264078Y-77970000D01*
X149283728Y-78194600D01*
X149285152Y-78199913D01*
X149285152Y-78199915D01*
X149296728Y-78243115D01*
X149342081Y-78412376D01*
X149437364Y-78616711D01*
X149566681Y-78801396D01*
X149726104Y-78960819D01*
X149910789Y-79090136D01*
X149915767Y-79092457D01*
X149915770Y-79092459D01*
X149987281Y-79125805D01*
X150040566Y-79172723D01*
X150060027Y-79241000D01*
X150039485Y-79308960D01*
X149987281Y-79354195D01*
X149915770Y-79387541D01*
X149915767Y-79387543D01*
X149910789Y-79389864D01*
X149726104Y-79519181D01*
X149566681Y-79678604D01*
X149437364Y-79863289D01*
X149435043Y-79868267D01*
X149435041Y-79868270D01*
X149352303Y-80045703D01*
X149342081Y-80067624D01*
X149340659Y-80072932D01*
X149340658Y-80072934D01*
X149334789Y-80094839D01*
X149283728Y-80285400D01*
X149264078Y-80510000D01*
X149283728Y-80734600D01*
X149342081Y-80952376D01*
X149344403Y-80957357D01*
X149344404Y-80957358D01*
X149385066Y-81044557D01*
X149437364Y-81156711D01*
X149566681Y-81341396D01*
X149726104Y-81500819D01*
X149910789Y-81630136D01*
X149915767Y-81632457D01*
X149915770Y-81632459D01*
X149987281Y-81665805D01*
X150040566Y-81712723D01*
X150060027Y-81781000D01*
X150039485Y-81848960D01*
X149987281Y-81894195D01*
X149915770Y-81927541D01*
X149915767Y-81927543D01*
X149910789Y-81929864D01*
X149726104Y-82059181D01*
X149566681Y-82218604D01*
X149437364Y-82403289D01*
X149342081Y-82607624D01*
X149283728Y-82825400D01*
X149264078Y-83050000D01*
X149283728Y-83274600D01*
X149342081Y-83492376D01*
X149344403Y-83497357D01*
X149344404Y-83497358D01*
X149347257Y-83503475D01*
X149437364Y-83696711D01*
X149566681Y-83881396D01*
X149726104Y-84040819D01*
X149910789Y-84170136D01*
X149915767Y-84172457D01*
X149915770Y-84172459D01*
X149987281Y-84205805D01*
X150040566Y-84252723D01*
X150060027Y-84321000D01*
X150039485Y-84388960D01*
X149987281Y-84434195D01*
X149915770Y-84467541D01*
X149915767Y-84467543D01*
X149910789Y-84469864D01*
X149726104Y-84599181D01*
X149566681Y-84758604D01*
X149437364Y-84943289D01*
X149435043Y-84948267D01*
X149435041Y-84948270D01*
X149416604Y-84987808D01*
X149342081Y-85147624D01*
X149340659Y-85152932D01*
X149340658Y-85152934D01*
X149334789Y-85174839D01*
X149283728Y-85365400D01*
X149264078Y-85590000D01*
X149283728Y-85814600D01*
X149285152Y-85819913D01*
X149285152Y-85819915D01*
X149296728Y-85863115D01*
X149342081Y-86032376D01*
X149344403Y-86037357D01*
X149344404Y-86037358D01*
X149385066Y-86124557D01*
X149437364Y-86236711D01*
X149566681Y-86421396D01*
X149726104Y-86580819D01*
X149910789Y-86710136D01*
X149915767Y-86712457D01*
X149915770Y-86712459D01*
X149987281Y-86745805D01*
X150040566Y-86792723D01*
X150060027Y-86861000D01*
X150039485Y-86928960D01*
X149987281Y-86974195D01*
X149915770Y-87007541D01*
X149915767Y-87007543D01*
X149910789Y-87009864D01*
X149726104Y-87139181D01*
X149566681Y-87298604D01*
X149437364Y-87483289D01*
X149435043Y-87488267D01*
X149435041Y-87488270D01*
X149352303Y-87665703D01*
X149342081Y-87687624D01*
X149283728Y-87905400D01*
X149264078Y-88130000D01*
X149283728Y-88354600D01*
X149342081Y-88572376D01*
X149437364Y-88776711D01*
X149566681Y-88961396D01*
X149726104Y-89120819D01*
X149910789Y-89250136D01*
X149915767Y-89252457D01*
X149915770Y-89252459D01*
X149987281Y-89285805D01*
X150040566Y-89332723D01*
X150060027Y-89401000D01*
X150039485Y-89468960D01*
X149987281Y-89514195D01*
X149915770Y-89547541D01*
X149915767Y-89547543D01*
X149910789Y-89549864D01*
X149726104Y-89679181D01*
X149566681Y-89838604D01*
X149437364Y-90023289D01*
X149435043Y-90028267D01*
X149435041Y-90028270D01*
X149427086Y-90045330D01*
X149342081Y-90227624D01*
X149340659Y-90232932D01*
X149340658Y-90232934D01*
X149334789Y-90254839D01*
X149283728Y-90445400D01*
X149264078Y-90670000D01*
X149283728Y-90894600D01*
X149342081Y-91112376D01*
X149344403Y-91117357D01*
X149344404Y-91117358D01*
X149385066Y-91204557D01*
X149437364Y-91316711D01*
X149566681Y-91501396D01*
X149726104Y-91660819D01*
X149910789Y-91790136D01*
X149915767Y-91792457D01*
X149915770Y-91792459D01*
X149987281Y-91825805D01*
X150040566Y-91872723D01*
X150060027Y-91941000D01*
X150039485Y-92008960D01*
X149987281Y-92054195D01*
X149915770Y-92087541D01*
X149915767Y-92087543D01*
X149910789Y-92089864D01*
X149726104Y-92219181D01*
X149566681Y-92378604D01*
X149437364Y-92563289D01*
X149435043Y-92568267D01*
X149435041Y-92568270D01*
X149416604Y-92607808D01*
X149342081Y-92767624D01*
X149283728Y-92985400D01*
X149264078Y-93210000D01*
X149283728Y-93434600D01*
X149285152Y-93439913D01*
X149285152Y-93439915D01*
X149296728Y-93483115D01*
X149342081Y-93652376D01*
X149437364Y-93856711D01*
X149566681Y-94041396D01*
X149726104Y-94200819D01*
X149910789Y-94330136D01*
X149915767Y-94332457D01*
X149915770Y-94332459D01*
X149987281Y-94365805D01*
X150040566Y-94412723D01*
X150060027Y-94481000D01*
X150039485Y-94548960D01*
X149987281Y-94594195D01*
X149915770Y-94627541D01*
X149915767Y-94627543D01*
X149910789Y-94629864D01*
X149726104Y-94759181D01*
X149566681Y-94918604D01*
X149437364Y-95103289D01*
X149435043Y-95108267D01*
X149435041Y-95108270D01*
X149352303Y-95285703D01*
X149342081Y-95307624D01*
X149340659Y-95312932D01*
X149340658Y-95312934D01*
X149334789Y-95334839D01*
X149283728Y-95525400D01*
X149264078Y-95750000D01*
X149283728Y-95974600D01*
X149342081Y-96192376D01*
X149344403Y-96197357D01*
X149344404Y-96197358D01*
X149385066Y-96284557D01*
X149437364Y-96396711D01*
X149566681Y-96581396D01*
X149726104Y-96740819D01*
X149910789Y-96870136D01*
X149915767Y-96872457D01*
X149915770Y-96872459D01*
X149987281Y-96905805D01*
X150040566Y-96952723D01*
X150060027Y-97021000D01*
X150039485Y-97088960D01*
X149987281Y-97134195D01*
X149915770Y-97167541D01*
X149915767Y-97167543D01*
X149910789Y-97169864D01*
X149726104Y-97299181D01*
X149566681Y-97458604D01*
X149437364Y-97643289D01*
X149342081Y-97847624D01*
X149283728Y-98065400D01*
X149264078Y-98290000D01*
X149283728Y-98514600D01*
X149342081Y-98732376D01*
X149344403Y-98737357D01*
X149344404Y-98737358D01*
X149347257Y-98743475D01*
X149437364Y-98936711D01*
X149566681Y-99121396D01*
X149726104Y-99280819D01*
X149910789Y-99410136D01*
X149915767Y-99412457D01*
X149915770Y-99412459D01*
X149987281Y-99445805D01*
X150040566Y-99492723D01*
X150060027Y-99561000D01*
X150039485Y-99628960D01*
X149987281Y-99674195D01*
X149915770Y-99707541D01*
X149915767Y-99707543D01*
X149910789Y-99709864D01*
X149726104Y-99839181D01*
X149566681Y-99998604D01*
X149437364Y-100183289D01*
X149435043Y-100188267D01*
X149435041Y-100188270D01*
X149417823Y-100225195D01*
X149342081Y-100387624D01*
X149340659Y-100392932D01*
X149340658Y-100392934D01*
X149330911Y-100429310D01*
X149283728Y-100605400D01*
X149264078Y-100830000D01*
X149283728Y-101054600D01*
X149285152Y-101059913D01*
X149285152Y-101059915D01*
X149300949Y-101118868D01*
X149342081Y-101272376D01*
X149344403Y-101277357D01*
X149344404Y-101277358D01*
X149387274Y-101369292D01*
X149437364Y-101476711D01*
X149566681Y-101661396D01*
X149726104Y-101820819D01*
X149910789Y-101950136D01*
X149915767Y-101952457D01*
X149915770Y-101952459D01*
X149987281Y-101985805D01*
X150040566Y-102032723D01*
X150060027Y-102101000D01*
X150039485Y-102168960D01*
X149987281Y-102214195D01*
X149915770Y-102247541D01*
X149915767Y-102247543D01*
X149910789Y-102249864D01*
X149726104Y-102379181D01*
X149566681Y-102538604D01*
X149437364Y-102723289D01*
X149435043Y-102728267D01*
X149435041Y-102728270D01*
X149352303Y-102905703D01*
X149342081Y-102927624D01*
X149283728Y-103145400D01*
X149264078Y-103370000D01*
X149283728Y-103594600D01*
X149342081Y-103812376D01*
X149437364Y-104016711D01*
X149566681Y-104201396D01*
X149726104Y-104360819D01*
X149910789Y-104490136D01*
X149915767Y-104492457D01*
X149915770Y-104492459D01*
X149987281Y-104525805D01*
X150040566Y-104572723D01*
X150060027Y-104641000D01*
X150039485Y-104708960D01*
X149987281Y-104754195D01*
X149915770Y-104787541D01*
X149915767Y-104787543D01*
X149910789Y-104789864D01*
X149726104Y-104919181D01*
X149566681Y-105078604D01*
X149437364Y-105263289D01*
X149342081Y-105467624D01*
X149340659Y-105472932D01*
X149340658Y-105472934D01*
X149289649Y-105663301D01*
X149283728Y-105685400D01*
X149264078Y-105910000D01*
X149283728Y-106134600D01*
X149285152Y-106139913D01*
X149285152Y-106139915D01*
X149340277Y-106345642D01*
X149342081Y-106352376D01*
X149344403Y-106357357D01*
X149344404Y-106357358D01*
X149382162Y-106438329D01*
X149437364Y-106556711D01*
X149566681Y-106741396D01*
X149726104Y-106900819D01*
X149910789Y-107030136D01*
X149915767Y-107032457D01*
X149915770Y-107032459D01*
X149987281Y-107065805D01*
X150040566Y-107112723D01*
X150060027Y-107181000D01*
X150039485Y-107248960D01*
X149987281Y-107294195D01*
X149915770Y-107327541D01*
X149915767Y-107327543D01*
X149910789Y-107329864D01*
X149726104Y-107459181D01*
X149566681Y-107618604D01*
X149437364Y-107803289D01*
X149435043Y-107808267D01*
X149435041Y-107808270D01*
X149375365Y-107936246D01*
X149342081Y-108007624D01*
X149340659Y-108012932D01*
X149340658Y-108012934D01*
X149285152Y-108220085D01*
X149283728Y-108225400D01*
X149264078Y-108450000D01*
X126450922Y-108450000D01*
X126431272Y-108225400D01*
X126429848Y-108220085D01*
X126374342Y-108012934D01*
X126374341Y-108012932D01*
X126372919Y-108007624D01*
X126339635Y-107936246D01*
X126279959Y-107808270D01*
X126279957Y-107808267D01*
X126277636Y-107803289D01*
X126148319Y-107618604D01*
X125988896Y-107459181D01*
X125804211Y-107329864D01*
X125799233Y-107327543D01*
X125799230Y-107327541D01*
X125727719Y-107294195D01*
X125674434Y-107247277D01*
X125654973Y-107179000D01*
X125675515Y-107111040D01*
X125727719Y-107065805D01*
X125799230Y-107032459D01*
X125799233Y-107032457D01*
X125804211Y-107030136D01*
X125988896Y-106900819D01*
X126148319Y-106741396D01*
X126277636Y-106556711D01*
X126332839Y-106438329D01*
X126370596Y-106357358D01*
X126370597Y-106357357D01*
X126372919Y-106352376D01*
X126374724Y-106345642D01*
X126429848Y-106139915D01*
X126429848Y-106139913D01*
X126431272Y-106134600D01*
X126450922Y-105910000D01*
X126431272Y-105685400D01*
X126425351Y-105663301D01*
X126374342Y-105472934D01*
X126374341Y-105472932D01*
X126372919Y-105467624D01*
X126277636Y-105263289D01*
X126148319Y-105078604D01*
X125988896Y-104919181D01*
X125804211Y-104789864D01*
X125799233Y-104787543D01*
X125799230Y-104787541D01*
X125727719Y-104754195D01*
X125674434Y-104707277D01*
X125654973Y-104639000D01*
X125675515Y-104571040D01*
X125727719Y-104525805D01*
X125799230Y-104492459D01*
X125799233Y-104492457D01*
X125804211Y-104490136D01*
X125988896Y-104360819D01*
X126148319Y-104201396D01*
X126277636Y-104016711D01*
X126372919Y-103812376D01*
X126431272Y-103594600D01*
X126450922Y-103370000D01*
X126431272Y-103145400D01*
X126372919Y-102927624D01*
X126362697Y-102905703D01*
X126279959Y-102728270D01*
X126279957Y-102728267D01*
X126277636Y-102723289D01*
X126148319Y-102538604D01*
X125988896Y-102379181D01*
X125804211Y-102249864D01*
X125799233Y-102247543D01*
X125799230Y-102247541D01*
X125727719Y-102214195D01*
X125674434Y-102167277D01*
X125654973Y-102099000D01*
X125675515Y-102031040D01*
X125727719Y-101985805D01*
X125799230Y-101952459D01*
X125799233Y-101952457D01*
X125804211Y-101950136D01*
X125988896Y-101820819D01*
X126148319Y-101661396D01*
X126277636Y-101476711D01*
X126327727Y-101369292D01*
X126370596Y-101277358D01*
X126370597Y-101277357D01*
X126372919Y-101272376D01*
X126414052Y-101118868D01*
X126429848Y-101059915D01*
X126429848Y-101059913D01*
X126431272Y-101054600D01*
X126450922Y-100830000D01*
X126431272Y-100605400D01*
X126384089Y-100429310D01*
X126374342Y-100392934D01*
X126374341Y-100392932D01*
X126372919Y-100387624D01*
X126297177Y-100225195D01*
X126279959Y-100188270D01*
X126279957Y-100188267D01*
X126277636Y-100183289D01*
X126148319Y-99998604D01*
X125988896Y-99839181D01*
X125804211Y-99709864D01*
X125799233Y-99707543D01*
X125799230Y-99707541D01*
X125727719Y-99674195D01*
X125674434Y-99627277D01*
X125654973Y-99559000D01*
X125675515Y-99491040D01*
X125727719Y-99445805D01*
X125799230Y-99412459D01*
X125799233Y-99412457D01*
X125804211Y-99410136D01*
X125988896Y-99280819D01*
X126148319Y-99121396D01*
X126277636Y-98936711D01*
X126367744Y-98743475D01*
X126370596Y-98737358D01*
X126370597Y-98737357D01*
X126372919Y-98732376D01*
X126431272Y-98514600D01*
X126450922Y-98290000D01*
X126431272Y-98065400D01*
X126372919Y-97847624D01*
X126277636Y-97643289D01*
X126148319Y-97458604D01*
X125988896Y-97299181D01*
X125804211Y-97169864D01*
X125799233Y-97167543D01*
X125799230Y-97167541D01*
X125727719Y-97134195D01*
X125674434Y-97087277D01*
X125654973Y-97019000D01*
X125675515Y-96951040D01*
X125727719Y-96905805D01*
X125799230Y-96872459D01*
X125799233Y-96872457D01*
X125804211Y-96870136D01*
X125988896Y-96740819D01*
X126148319Y-96581396D01*
X126277636Y-96396711D01*
X126329935Y-96284557D01*
X126370596Y-96197358D01*
X126370597Y-96197357D01*
X126372919Y-96192376D01*
X126431272Y-95974600D01*
X126450922Y-95750000D01*
X126431272Y-95525400D01*
X126380211Y-95334839D01*
X126374342Y-95312934D01*
X126374341Y-95312932D01*
X126372919Y-95307624D01*
X126362697Y-95285703D01*
X126279959Y-95108270D01*
X126279957Y-95108267D01*
X126277636Y-95103289D01*
X126148319Y-94918604D01*
X125988896Y-94759181D01*
X125804211Y-94629864D01*
X125799233Y-94627543D01*
X125799230Y-94627541D01*
X125727719Y-94594195D01*
X125674434Y-94547277D01*
X125654973Y-94479000D01*
X125675515Y-94411040D01*
X125727719Y-94365805D01*
X125799230Y-94332459D01*
X125799233Y-94332457D01*
X125804211Y-94330136D01*
X125988896Y-94200819D01*
X126148319Y-94041396D01*
X126277636Y-93856711D01*
X126372919Y-93652376D01*
X126418273Y-93483115D01*
X126429848Y-93439915D01*
X126429848Y-93439913D01*
X126431272Y-93434600D01*
X126450922Y-93210000D01*
X126431272Y-92985400D01*
X126372919Y-92767624D01*
X126298396Y-92607808D01*
X126279959Y-92568270D01*
X126279957Y-92568267D01*
X126277636Y-92563289D01*
X126148319Y-92378604D01*
X125988896Y-92219181D01*
X125804211Y-92089864D01*
X125799233Y-92087543D01*
X125799230Y-92087541D01*
X125727719Y-92054195D01*
X125674434Y-92007277D01*
X125654973Y-91939000D01*
X125675515Y-91871040D01*
X125727719Y-91825805D01*
X125799230Y-91792459D01*
X125799233Y-91792457D01*
X125804211Y-91790136D01*
X125988896Y-91660819D01*
X126148319Y-91501396D01*
X126277636Y-91316711D01*
X126329935Y-91204557D01*
X126370596Y-91117358D01*
X126370597Y-91117357D01*
X126372919Y-91112376D01*
X126431272Y-90894600D01*
X126450922Y-90670000D01*
X126431272Y-90445400D01*
X126380211Y-90254839D01*
X126374342Y-90232934D01*
X126374341Y-90232932D01*
X126372919Y-90227624D01*
X126287914Y-90045330D01*
X126279959Y-90028270D01*
X126279957Y-90028267D01*
X126277636Y-90023289D01*
X126148319Y-89838604D01*
X125988896Y-89679181D01*
X125804211Y-89549864D01*
X125799233Y-89547543D01*
X125799230Y-89547541D01*
X125727719Y-89514195D01*
X125674434Y-89467277D01*
X125654973Y-89399000D01*
X125675515Y-89331040D01*
X125727719Y-89285805D01*
X125799230Y-89252459D01*
X125799233Y-89252457D01*
X125804211Y-89250136D01*
X125988896Y-89120819D01*
X126148319Y-88961396D01*
X126277636Y-88776711D01*
X126372919Y-88572376D01*
X126431272Y-88354600D01*
X126450922Y-88130000D01*
X126431272Y-87905400D01*
X126372919Y-87687624D01*
X126362697Y-87665703D01*
X126279959Y-87488270D01*
X126279957Y-87488267D01*
X126277636Y-87483289D01*
X126148319Y-87298604D01*
X125988896Y-87139181D01*
X125804211Y-87009864D01*
X125799233Y-87007543D01*
X125799230Y-87007541D01*
X125727719Y-86974195D01*
X125674434Y-86927277D01*
X125654973Y-86859000D01*
X125675515Y-86791040D01*
X125727719Y-86745805D01*
X125799230Y-86712459D01*
X125799233Y-86712457D01*
X125804211Y-86710136D01*
X125988896Y-86580819D01*
X126148319Y-86421396D01*
X126277636Y-86236711D01*
X126329935Y-86124557D01*
X126370596Y-86037358D01*
X126370597Y-86037357D01*
X126372919Y-86032376D01*
X126418273Y-85863115D01*
X126429848Y-85819915D01*
X126429848Y-85819913D01*
X126431272Y-85814600D01*
X126450922Y-85590000D01*
X126431272Y-85365400D01*
X126380211Y-85174839D01*
X126374342Y-85152934D01*
X126374341Y-85152932D01*
X126372919Y-85147624D01*
X126298396Y-84987808D01*
X126279959Y-84948270D01*
X126279957Y-84948267D01*
X126277636Y-84943289D01*
X126148319Y-84758604D01*
X125988896Y-84599181D01*
X125804211Y-84469864D01*
X125799233Y-84467543D01*
X125799230Y-84467541D01*
X125727719Y-84434195D01*
X125674434Y-84387277D01*
X125654973Y-84319000D01*
X125675515Y-84251040D01*
X125727719Y-84205805D01*
X125799230Y-84172459D01*
X125799233Y-84172457D01*
X125804211Y-84170136D01*
X125988896Y-84040819D01*
X126148319Y-83881396D01*
X126277636Y-83696711D01*
X126367744Y-83503475D01*
X126370596Y-83497358D01*
X126370597Y-83497357D01*
X126372919Y-83492376D01*
X126431272Y-83274600D01*
X126450922Y-83050000D01*
X126431272Y-82825400D01*
X126372919Y-82607624D01*
X126277636Y-82403289D01*
X126148319Y-82218604D01*
X125988896Y-82059181D01*
X125804211Y-81929864D01*
X125799233Y-81927543D01*
X125799230Y-81927541D01*
X125727719Y-81894195D01*
X125674434Y-81847277D01*
X125654973Y-81779000D01*
X125675515Y-81711040D01*
X125727719Y-81665805D01*
X125799230Y-81632459D01*
X125799233Y-81632457D01*
X125804211Y-81630136D01*
X125988896Y-81500819D01*
X126148319Y-81341396D01*
X126277636Y-81156711D01*
X126329935Y-81044557D01*
X126370596Y-80957358D01*
X126370597Y-80957357D01*
X126372919Y-80952376D01*
X126431272Y-80734600D01*
X126450922Y-80510000D01*
X126431272Y-80285400D01*
X126380211Y-80094839D01*
X126374342Y-80072934D01*
X126374341Y-80072932D01*
X126372919Y-80067624D01*
X126362697Y-80045703D01*
X126279959Y-79868270D01*
X126279957Y-79868267D01*
X126277636Y-79863289D01*
X126148319Y-79678604D01*
X125988896Y-79519181D01*
X125804211Y-79389864D01*
X125799233Y-79387543D01*
X125799230Y-79387541D01*
X125727719Y-79354195D01*
X125674434Y-79307277D01*
X125654973Y-79239000D01*
X125675515Y-79171040D01*
X125727719Y-79125805D01*
X125799230Y-79092459D01*
X125799233Y-79092457D01*
X125804211Y-79090136D01*
X125988896Y-78960819D01*
X126148319Y-78801396D01*
X126277636Y-78616711D01*
X126372919Y-78412376D01*
X126418273Y-78243115D01*
X126429848Y-78199915D01*
X126429848Y-78199913D01*
X126431272Y-78194600D01*
X126450922Y-77970000D01*
X126431272Y-77745400D01*
X126372919Y-77527624D01*
X126298396Y-77367808D01*
X126279959Y-77328270D01*
X126279957Y-77328267D01*
X126277636Y-77323289D01*
X126148319Y-77138604D01*
X125988896Y-76979181D01*
X125804211Y-76849864D01*
X125799233Y-76847543D01*
X125799230Y-76847541D01*
X125727719Y-76814195D01*
X125674434Y-76767277D01*
X125654973Y-76699000D01*
X125675515Y-76631040D01*
X125727719Y-76585805D01*
X125799230Y-76552459D01*
X125799233Y-76552457D01*
X125804211Y-76550136D01*
X125988896Y-76420819D01*
X126148319Y-76261396D01*
X126277636Y-76076711D01*
X126329935Y-75964557D01*
X126370596Y-75877358D01*
X126370597Y-75877357D01*
X126372919Y-75872376D01*
X126431272Y-75654600D01*
X126450922Y-75430000D01*
X126431272Y-75205400D01*
X126380211Y-75014839D01*
X126374342Y-74992934D01*
X126374341Y-74992932D01*
X126372919Y-74987624D01*
X126287914Y-74805330D01*
X126279959Y-74788270D01*
X126279957Y-74788267D01*
X126277636Y-74783289D01*
X126148319Y-74598604D01*
X125988896Y-74439181D01*
X125804211Y-74309864D01*
X125799233Y-74307543D01*
X125799230Y-74307541D01*
X125727719Y-74274195D01*
X125674434Y-74227277D01*
X125654973Y-74159000D01*
X125675515Y-74091040D01*
X125727719Y-74045805D01*
X125799230Y-74012459D01*
X125799233Y-74012457D01*
X125804211Y-74010136D01*
X125988896Y-73880819D01*
X126148319Y-73721396D01*
X126277636Y-73536711D01*
X126372919Y-73332376D01*
X126431272Y-73114600D01*
X126450922Y-72890000D01*
X126431272Y-72665400D01*
X126372919Y-72447624D01*
X126334315Y-72364838D01*
X126279959Y-72248270D01*
X126279957Y-72248267D01*
X126277636Y-72243289D01*
X126148319Y-72058604D01*
X125988896Y-71899181D01*
X125804211Y-71769864D01*
X125799233Y-71767543D01*
X125799230Y-71767541D01*
X125727719Y-71734195D01*
X125674434Y-71687277D01*
X125654973Y-71619000D01*
X125675515Y-71551040D01*
X125727719Y-71505805D01*
X125799230Y-71472459D01*
X125799233Y-71472457D01*
X125804211Y-71470136D01*
X125988896Y-71340819D01*
X126148319Y-71181396D01*
X126277636Y-70996711D01*
X126372919Y-70792376D01*
X126421091Y-70612598D01*
X126429848Y-70579915D01*
X126429848Y-70579913D01*
X126431272Y-70574600D01*
X126450922Y-70350000D01*
X126431272Y-70125400D01*
X126372919Y-69907624D01*
X126277636Y-69703289D01*
X126148319Y-69518604D01*
X125988896Y-69359181D01*
X125804211Y-69229864D01*
X125799233Y-69227543D01*
X125799230Y-69227541D01*
X125727719Y-69194195D01*
X125674434Y-69147277D01*
X125654973Y-69079000D01*
X125675515Y-69011040D01*
X125727719Y-68965805D01*
X125799230Y-68932459D01*
X125799233Y-68932457D01*
X125804211Y-68930136D01*
X125988896Y-68800819D01*
X126148319Y-68641396D01*
X126277636Y-68456711D01*
X126372919Y-68252376D01*
X126431272Y-68034600D01*
X126450922Y-67810000D01*
X126431272Y-67585400D01*
X126372919Y-67367624D01*
X126277636Y-67163289D01*
X126148319Y-66978604D01*
X125988896Y-66819181D01*
X125804211Y-66689864D01*
X125799233Y-66687543D01*
X125799230Y-66687541D01*
X125727719Y-66654195D01*
X125674434Y-66607277D01*
X125654973Y-66539000D01*
X125675515Y-66471040D01*
X125727719Y-66425805D01*
X125799230Y-66392459D01*
X125799233Y-66392457D01*
X125804211Y-66390136D01*
X125988896Y-66260819D01*
X126148319Y-66101396D01*
X126277636Y-65916711D01*
X126310003Y-65847301D01*
X126370596Y-65717358D01*
X126370597Y-65717357D01*
X126372919Y-65712376D01*
X126429357Y-65501749D01*
X126429848Y-65499915D01*
X126429848Y-65499913D01*
X126431272Y-65494600D01*
X126450922Y-65270000D01*
X126431272Y-65045400D01*
X126372919Y-64827624D01*
X126277636Y-64623289D01*
X126148319Y-64438604D01*
X125988896Y-64279181D01*
X125940761Y-64245477D01*
X125896434Y-64190021D01*
X125889125Y-64119402D01*
X125921155Y-64056041D01*
X125982357Y-64020056D01*
X125999425Y-64017002D01*
X126010320Y-64015818D01*
X126047816Y-64011745D01*
X126184205Y-63960615D01*
X126300761Y-63873261D01*
X126388115Y-63756705D01*
X126439245Y-63620316D01*
X126446000Y-63558134D01*
X126446000Y-61901866D01*
X126439245Y-61839684D01*
X126388115Y-61703295D01*
X126300761Y-61586739D01*
X126184205Y-61499385D01*
X126047816Y-61448255D01*
X125985634Y-61441500D01*
X124329366Y-61441500D01*
X124267184Y-61448255D01*
X124130795Y-61499385D01*
X124014239Y-61586739D01*
X123926885Y-61703295D01*
X123875755Y-61839684D01*
X123869000Y-61901866D01*
X123869000Y-63558134D01*
X123875755Y-63620316D01*
X123926885Y-63756705D01*
X124014239Y-63873261D01*
X124130795Y-63960615D01*
X124267184Y-64011745D01*
X124304680Y-64015818D01*
X124315575Y-64017002D01*
X124381137Y-64044244D01*
X124421563Y-64102607D01*
X124424018Y-64173561D01*
X124387723Y-64234579D01*
X124374243Y-64245474D01*
X124326104Y-64279181D01*
X124166681Y-64438604D01*
X124037364Y-64623289D01*
X123942081Y-64827624D01*
X123883728Y-65045400D01*
X123864078Y-65270000D01*
X123883728Y-65494600D01*
X123885152Y-65499913D01*
X123885152Y-65499915D01*
X123885644Y-65501749D01*
X123942081Y-65712376D01*
X123944403Y-65717357D01*
X123944404Y-65717358D01*
X124004998Y-65847301D01*
X124037364Y-65916711D01*
X124166681Y-66101396D01*
X124326104Y-66260819D01*
X124510789Y-66390136D01*
X124515767Y-66392457D01*
X124515770Y-66392459D01*
X124587281Y-66425805D01*
X124640566Y-66472723D01*
X124660027Y-66541000D01*
X124639485Y-66608960D01*
X124587281Y-66654195D01*
X124515770Y-66687541D01*
X124515767Y-66687543D01*
X124510789Y-66689864D01*
X124326104Y-66819181D01*
X124166681Y-66978604D01*
X124037364Y-67163289D01*
X123942081Y-67367624D01*
X123883728Y-67585400D01*
X123864078Y-67810000D01*
X123883728Y-68034600D01*
X123942081Y-68252376D01*
X124037364Y-68456711D01*
X124166681Y-68641396D01*
X124326104Y-68800819D01*
X124510789Y-68930136D01*
X124515767Y-68932457D01*
X124515770Y-68932459D01*
X124587281Y-68965805D01*
X124640566Y-69012723D01*
X124660027Y-69081000D01*
X124639485Y-69148960D01*
X124587281Y-69194195D01*
X124515770Y-69227541D01*
X124515767Y-69227543D01*
X124510789Y-69229864D01*
X124326104Y-69359181D01*
X124166681Y-69518604D01*
X124037364Y-69703289D01*
X123942081Y-69907624D01*
X123883728Y-70125400D01*
X123864078Y-70350000D01*
X123883728Y-70574600D01*
X123885152Y-70579913D01*
X123885152Y-70579915D01*
X123893910Y-70612598D01*
X123942081Y-70792376D01*
X124037364Y-70996711D01*
X124166681Y-71181396D01*
X124326104Y-71340819D01*
X124510789Y-71470136D01*
X124515767Y-71472457D01*
X124515770Y-71472459D01*
X124587281Y-71505805D01*
X124640566Y-71552723D01*
X124660027Y-71621000D01*
X124639485Y-71688960D01*
X124587281Y-71734195D01*
X124515770Y-71767541D01*
X124515767Y-71767543D01*
X124510789Y-71769864D01*
X124326104Y-71899181D01*
X124166681Y-72058604D01*
X124037364Y-72243289D01*
X124035043Y-72248267D01*
X124035041Y-72248270D01*
X123980685Y-72364838D01*
X123942081Y-72447624D01*
X123883728Y-72665400D01*
X123864078Y-72890000D01*
X123883728Y-73114600D01*
X123942081Y-73332376D01*
X124037364Y-73536711D01*
X124166681Y-73721396D01*
X124326104Y-73880819D01*
X124510789Y-74010136D01*
X124515767Y-74012457D01*
X124515770Y-74012459D01*
X124587281Y-74045805D01*
X124640566Y-74092723D01*
X124660027Y-74161000D01*
X124639485Y-74228960D01*
X124587281Y-74274195D01*
X124515770Y-74307541D01*
X124515767Y-74307543D01*
X124510789Y-74309864D01*
X124326104Y-74439181D01*
X124166681Y-74598604D01*
X124037364Y-74783289D01*
X124035043Y-74788267D01*
X124035041Y-74788270D01*
X124027086Y-74805330D01*
X123942081Y-74987624D01*
X123940659Y-74992932D01*
X123940658Y-74992934D01*
X123934789Y-75014839D01*
X123883728Y-75205400D01*
X123864078Y-75430000D01*
X123883728Y-75654600D01*
X123942081Y-75872376D01*
X123944403Y-75877357D01*
X123944404Y-75877358D01*
X123985066Y-75964557D01*
X124037364Y-76076711D01*
X124166681Y-76261396D01*
X124326104Y-76420819D01*
X124510789Y-76550136D01*
X124515767Y-76552457D01*
X124515770Y-76552459D01*
X124587281Y-76585805D01*
X124640566Y-76632723D01*
X124660027Y-76701000D01*
X124639485Y-76768960D01*
X124587281Y-76814195D01*
X124515770Y-76847541D01*
X124515767Y-76847543D01*
X124510789Y-76849864D01*
X124326104Y-76979181D01*
X124166681Y-77138604D01*
X124037364Y-77323289D01*
X124035043Y-77328267D01*
X124035041Y-77328270D01*
X124016604Y-77367808D01*
X123942081Y-77527624D01*
X123883728Y-77745400D01*
X123864078Y-77970000D01*
X123883728Y-78194600D01*
X123885152Y-78199913D01*
X123885152Y-78199915D01*
X123896728Y-78243115D01*
X123942081Y-78412376D01*
X124037364Y-78616711D01*
X124166681Y-78801396D01*
X124326104Y-78960819D01*
X124510789Y-79090136D01*
X124515767Y-79092457D01*
X124515770Y-79092459D01*
X124587281Y-79125805D01*
X124640566Y-79172723D01*
X124660027Y-79241000D01*
X124639485Y-79308960D01*
X124587281Y-79354195D01*
X124515770Y-79387541D01*
X124515767Y-79387543D01*
X124510789Y-79389864D01*
X124326104Y-79519181D01*
X124166681Y-79678604D01*
X124037364Y-79863289D01*
X124035043Y-79868267D01*
X124035041Y-79868270D01*
X123952303Y-80045703D01*
X123942081Y-80067624D01*
X123940659Y-80072932D01*
X123940658Y-80072934D01*
X123934789Y-80094839D01*
X123883728Y-80285400D01*
X123864078Y-80510000D01*
X123883728Y-80734600D01*
X123942081Y-80952376D01*
X123944403Y-80957357D01*
X123944404Y-80957358D01*
X123985066Y-81044557D01*
X124037364Y-81156711D01*
X124166681Y-81341396D01*
X124326104Y-81500819D01*
X124510789Y-81630136D01*
X124515767Y-81632457D01*
X124515770Y-81632459D01*
X124587281Y-81665805D01*
X124640566Y-81712723D01*
X124660027Y-81781000D01*
X124639485Y-81848960D01*
X124587281Y-81894195D01*
X124515770Y-81927541D01*
X124515767Y-81927543D01*
X124510789Y-81929864D01*
X124326104Y-82059181D01*
X124166681Y-82218604D01*
X124037364Y-82403289D01*
X123942081Y-82607624D01*
X123883728Y-82825400D01*
X123864078Y-83050000D01*
X123883728Y-83274600D01*
X123942081Y-83492376D01*
X123944403Y-83497357D01*
X123944404Y-83497358D01*
X123947257Y-83503475D01*
X124037364Y-83696711D01*
X124166681Y-83881396D01*
X124326104Y-84040819D01*
X124510789Y-84170136D01*
X124515767Y-84172457D01*
X124515770Y-84172459D01*
X124587281Y-84205805D01*
X124640566Y-84252723D01*
X124660027Y-84321000D01*
X124639485Y-84388960D01*
X124587281Y-84434195D01*
X124515770Y-84467541D01*
X124515767Y-84467543D01*
X124510789Y-84469864D01*
X124326104Y-84599181D01*
X124166681Y-84758604D01*
X124037364Y-84943289D01*
X124035043Y-84948267D01*
X124035041Y-84948270D01*
X124016604Y-84987808D01*
X123942081Y-85147624D01*
X123940659Y-85152932D01*
X123940658Y-85152934D01*
X123934789Y-85174839D01*
X123883728Y-85365400D01*
X123864078Y-85590000D01*
X123883728Y-85814600D01*
X123885152Y-85819913D01*
X123885152Y-85819915D01*
X123896728Y-85863115D01*
X123942081Y-86032376D01*
X123944403Y-86037357D01*
X123944404Y-86037358D01*
X123985066Y-86124557D01*
X124037364Y-86236711D01*
X124166681Y-86421396D01*
X124326104Y-86580819D01*
X124510789Y-86710136D01*
X124515767Y-86712457D01*
X124515770Y-86712459D01*
X124587281Y-86745805D01*
X124640566Y-86792723D01*
X124660027Y-86861000D01*
X124639485Y-86928960D01*
X124587281Y-86974195D01*
X124515770Y-87007541D01*
X124515767Y-87007543D01*
X124510789Y-87009864D01*
X124326104Y-87139181D01*
X124166681Y-87298604D01*
X124037364Y-87483289D01*
X124035043Y-87488267D01*
X124035041Y-87488270D01*
X123952303Y-87665703D01*
X123942081Y-87687624D01*
X123883728Y-87905400D01*
X123864078Y-88130000D01*
X123883728Y-88354600D01*
X123942081Y-88572376D01*
X124037364Y-88776711D01*
X124166681Y-88961396D01*
X124326104Y-89120819D01*
X124510789Y-89250136D01*
X124515767Y-89252457D01*
X124515770Y-89252459D01*
X124587281Y-89285805D01*
X124640566Y-89332723D01*
X124660027Y-89401000D01*
X124639485Y-89468960D01*
X124587281Y-89514195D01*
X124515770Y-89547541D01*
X124515767Y-89547543D01*
X124510789Y-89549864D01*
X124326104Y-89679181D01*
X124166681Y-89838604D01*
X124037364Y-90023289D01*
X124035043Y-90028267D01*
X124035041Y-90028270D01*
X124027086Y-90045330D01*
X123942081Y-90227624D01*
X123940659Y-90232932D01*
X123940658Y-90232934D01*
X123934789Y-90254839D01*
X123883728Y-90445400D01*
X123864078Y-90670000D01*
X123883728Y-90894600D01*
X123942081Y-91112376D01*
X123944403Y-91117357D01*
X123944404Y-91117358D01*
X123985066Y-91204557D01*
X124037364Y-91316711D01*
X124166681Y-91501396D01*
X124326104Y-91660819D01*
X124510789Y-91790136D01*
X124515767Y-91792457D01*
X124515770Y-91792459D01*
X124587281Y-91825805D01*
X124640566Y-91872723D01*
X124660027Y-91941000D01*
X124639485Y-92008960D01*
X124587281Y-92054195D01*
X124515770Y-92087541D01*
X124515767Y-92087543D01*
X124510789Y-92089864D01*
X124326104Y-92219181D01*
X124166681Y-92378604D01*
X124037364Y-92563289D01*
X124035043Y-92568267D01*
X124035041Y-92568270D01*
X124016604Y-92607808D01*
X123942081Y-92767624D01*
X123883728Y-92985400D01*
X123864078Y-93210000D01*
X123883728Y-93434600D01*
X123885152Y-93439913D01*
X123885152Y-93439915D01*
X123896728Y-93483115D01*
X123942081Y-93652376D01*
X124037364Y-93856711D01*
X124166681Y-94041396D01*
X124326104Y-94200819D01*
X124510789Y-94330136D01*
X124515767Y-94332457D01*
X124515770Y-94332459D01*
X124587281Y-94365805D01*
X124640566Y-94412723D01*
X124660027Y-94481000D01*
X124639485Y-94548960D01*
X124587281Y-94594195D01*
X124515770Y-94627541D01*
X124515767Y-94627543D01*
X124510789Y-94629864D01*
X124326104Y-94759181D01*
X124166681Y-94918604D01*
X124037364Y-95103289D01*
X124035043Y-95108267D01*
X124035041Y-95108270D01*
X123952303Y-95285703D01*
X123942081Y-95307624D01*
X123940659Y-95312932D01*
X123940658Y-95312934D01*
X123934789Y-95334839D01*
X123883728Y-95525400D01*
X123864078Y-95750000D01*
X123883728Y-95974600D01*
X123942081Y-96192376D01*
X123944403Y-96197357D01*
X123944404Y-96197358D01*
X123985066Y-96284557D01*
X124037364Y-96396711D01*
X124166681Y-96581396D01*
X124326104Y-96740819D01*
X124510789Y-96870136D01*
X124515767Y-96872457D01*
X124515770Y-96872459D01*
X124587281Y-96905805D01*
X124640566Y-96952723D01*
X124660027Y-97021000D01*
X124639485Y-97088960D01*
X124587281Y-97134195D01*
X124515770Y-97167541D01*
X124515767Y-97167543D01*
X124510789Y-97169864D01*
X124326104Y-97299181D01*
X124166681Y-97458604D01*
X124037364Y-97643289D01*
X123942081Y-97847624D01*
X123883728Y-98065400D01*
X123864078Y-98290000D01*
X123883728Y-98514600D01*
X123942081Y-98732376D01*
X123944403Y-98737357D01*
X123944404Y-98737358D01*
X123947257Y-98743475D01*
X124037364Y-98936711D01*
X124166681Y-99121396D01*
X124326104Y-99280819D01*
X124510789Y-99410136D01*
X124515767Y-99412457D01*
X124515770Y-99412459D01*
X124587281Y-99445805D01*
X124640566Y-99492723D01*
X124660027Y-99561000D01*
X124639485Y-99628960D01*
X124587281Y-99674195D01*
X124515770Y-99707541D01*
X124515767Y-99707543D01*
X124510789Y-99709864D01*
X124326104Y-99839181D01*
X124166681Y-99998604D01*
X124037364Y-100183289D01*
X124035043Y-100188267D01*
X124035041Y-100188270D01*
X124017823Y-100225195D01*
X123942081Y-100387624D01*
X123940659Y-100392932D01*
X123940658Y-100392934D01*
X123930911Y-100429310D01*
X123883728Y-100605400D01*
X123864078Y-100830000D01*
X123883728Y-101054600D01*
X123885152Y-101059913D01*
X123885152Y-101059915D01*
X123900949Y-101118868D01*
X123942081Y-101272376D01*
X123944403Y-101277357D01*
X123944404Y-101277358D01*
X123987274Y-101369292D01*
X124037364Y-101476711D01*
X124166681Y-101661396D01*
X124326104Y-101820819D01*
X124510789Y-101950136D01*
X124515767Y-101952457D01*
X124515770Y-101952459D01*
X124587281Y-101985805D01*
X124640566Y-102032723D01*
X124660027Y-102101000D01*
X124639485Y-102168960D01*
X124587281Y-102214195D01*
X124515770Y-102247541D01*
X124515767Y-102247543D01*
X124510789Y-102249864D01*
X124326104Y-102379181D01*
X124166681Y-102538604D01*
X124037364Y-102723289D01*
X124035043Y-102728267D01*
X124035041Y-102728270D01*
X123952303Y-102905703D01*
X123942081Y-102927624D01*
X123883728Y-103145400D01*
X123864078Y-103370000D01*
X123883728Y-103594600D01*
X123942081Y-103812376D01*
X124037364Y-104016711D01*
X124166681Y-104201396D01*
X124326104Y-104360819D01*
X124510789Y-104490136D01*
X124515767Y-104492457D01*
X124515770Y-104492459D01*
X124587281Y-104525805D01*
X124640566Y-104572723D01*
X124660027Y-104641000D01*
X124639485Y-104708960D01*
X124587281Y-104754195D01*
X124515770Y-104787541D01*
X124515767Y-104787543D01*
X124510789Y-104789864D01*
X124326104Y-104919181D01*
X124166681Y-105078604D01*
X124037364Y-105263289D01*
X123942081Y-105467624D01*
X123940659Y-105472932D01*
X123940658Y-105472934D01*
X123889649Y-105663301D01*
X123883728Y-105685400D01*
X123864078Y-105910000D01*
X123883728Y-106134600D01*
X123885152Y-106139913D01*
X123885152Y-106139915D01*
X123940277Y-106345642D01*
X123942081Y-106352376D01*
X123944403Y-106357357D01*
X123944404Y-106357358D01*
X123982162Y-106438329D01*
X124037364Y-106556711D01*
X124166681Y-106741396D01*
X124326104Y-106900819D01*
X124510789Y-107030136D01*
X124515767Y-107032457D01*
X124515770Y-107032459D01*
X124587281Y-107065805D01*
X124640566Y-107112723D01*
X124660027Y-107181000D01*
X124639485Y-107248960D01*
X124587281Y-107294195D01*
X124515770Y-107327541D01*
X124515767Y-107327543D01*
X124510789Y-107329864D01*
X124326104Y-107459181D01*
X124166681Y-107618604D01*
X124037364Y-107803289D01*
X124035043Y-107808267D01*
X124035041Y-107808270D01*
X123975365Y-107936246D01*
X123942081Y-108007624D01*
X123940659Y-108012932D01*
X123940658Y-108012934D01*
X123885152Y-108220085D01*
X123883728Y-108225400D01*
X123864078Y-108450000D01*
X103668500Y-108450000D01*
X103668500Y-108444600D01*
X103665120Y-108412022D01*
X103658238Y-108345692D01*
X103658237Y-108345688D01*
X103657526Y-108338834D01*
X103653710Y-108327394D01*
X103603868Y-108178002D01*
X103601550Y-108171054D01*
X103508478Y-108020652D01*
X103383303Y-107895695D01*
X103352965Y-107876994D01*
X103238968Y-107806725D01*
X103238966Y-107806724D01*
X103232738Y-107802885D01*
X103119353Y-107765277D01*
X103071389Y-107749368D01*
X103071387Y-107749368D01*
X103064861Y-107747203D01*
X103058025Y-107746503D01*
X103058022Y-107746502D01*
X103014969Y-107742091D01*
X102960400Y-107736500D01*
X101659600Y-107736500D01*
X101656354Y-107736837D01*
X101656350Y-107736837D01*
X101560692Y-107746762D01*
X101560688Y-107746763D01*
X101553834Y-107747474D01*
X101547298Y-107749655D01*
X101547296Y-107749655D01*
X101415194Y-107793728D01*
X101386054Y-107803450D01*
X101235652Y-107896522D01*
X101110695Y-108021697D01*
X101106855Y-108027927D01*
X101106854Y-108027928D01*
X101099413Y-108040000D01*
X101037170Y-108140977D01*
X101020648Y-108167780D01*
X100967876Y-108215273D01*
X100897804Y-108226697D01*
X100832680Y-108198423D01*
X100822218Y-108188636D01*
X100716766Y-108078094D01*
X100708814Y-108071059D01*
X100532475Y-107939859D01*
X100523438Y-107934255D01*
X100327516Y-107834643D01*
X100317665Y-107830643D01*
X100107760Y-107765466D01*
X100097376Y-107763183D01*
X100081957Y-107761139D01*
X100067793Y-107763335D01*
X100064000Y-107776522D01*
X100064000Y-110661192D01*
X99556000Y-110661192D01*
X99556000Y-107778808D01*
X99552027Y-107765277D01*
X99541420Y-107763752D01*
X99423579Y-107788477D01*
X99413383Y-107791537D01*
X99208971Y-107872263D01*
X99199439Y-107876994D01*
X99011538Y-107991016D01*
X99002948Y-107997280D01*
X98836948Y-108141327D01*
X98829528Y-108148958D01*
X98690174Y-108318911D01*
X98684152Y-108327674D01*
X98668762Y-108354711D01*
X98617680Y-108404018D01*
X98548049Y-108417880D01*
X98481978Y-108391897D01*
X98454739Y-108362747D01*
X98375539Y-108245108D01*
X98372559Y-108240681D01*
X98363210Y-108230880D01*
X98217103Y-108077722D01*
X98213424Y-108073865D01*
X98166387Y-108038868D01*
X98032740Y-107939432D01*
X98032741Y-107939432D01*
X98028458Y-107936246D01*
X98023707Y-107933830D01*
X98023703Y-107933828D01*
X97905588Y-107873776D01*
X97822949Y-107831760D01*
X97817855Y-107830178D01*
X97817852Y-107830177D01*
X97607871Y-107764976D01*
X97602773Y-107763393D01*
X97597484Y-107762692D01*
X97379511Y-107733802D01*
X97379506Y-107733802D01*
X97374226Y-107733102D01*
X97368897Y-107733302D01*
X97368895Y-107733302D01*
X97259034Y-107737427D01*
X97143842Y-107741751D01*
X97138623Y-107742846D01*
X97116566Y-107747474D01*
X96918209Y-107789093D01*
X96913250Y-107791051D01*
X96913248Y-107791052D01*
X96708744Y-107871815D01*
X96708742Y-107871816D01*
X96703779Y-107873776D01*
X96699220Y-107876543D01*
X96699217Y-107876544D01*
X96604113Y-107934255D01*
X96506683Y-107993377D01*
X96502653Y-107996874D01*
X96409484Y-108077722D01*
X96332555Y-108144477D01*
X96313448Y-108167780D01*
X96189760Y-108318627D01*
X96189756Y-108318633D01*
X96186376Y-108322755D01*
X96183737Y-108327391D01*
X96183735Y-108327394D01*
X96163611Y-108362747D01*
X96072325Y-108523114D01*
X95993663Y-108739825D01*
X95992714Y-108745074D01*
X95992713Y-108745077D01*
X95953377Y-108962608D01*
X95953376Y-108962615D01*
X95952639Y-108966692D01*
X95951500Y-108990844D01*
X95951500Y-109402890D01*
X91948500Y-109402890D01*
X91948500Y-102389030D01*
X98873300Y-102389030D01*
X98879027Y-102396680D01*
X99063772Y-102509893D01*
X99072567Y-102514375D01*
X99289990Y-102604434D01*
X99299375Y-102607483D01*
X99528208Y-102662422D01*
X99537955Y-102663965D01*
X99772570Y-102682430D01*
X99782430Y-102682430D01*
X100017045Y-102663965D01*
X100026792Y-102662422D01*
X100255625Y-102607483D01*
X100265010Y-102604434D01*
X100482433Y-102514375D01*
X100491228Y-102509893D01*
X100672305Y-102398928D01*
X100681767Y-102388470D01*
X100677984Y-102379694D01*
X99790312Y-101492022D01*
X99776368Y-101484408D01*
X99774535Y-101484539D01*
X99767920Y-101488790D01*
X98880060Y-102376650D01*
X98873300Y-102389030D01*
X91948500Y-102389030D01*
X91948500Y-101124930D01*
X98215070Y-101124930D01*
X98233535Y-101359545D01*
X98235078Y-101369292D01*
X98290017Y-101598125D01*
X98293066Y-101607510D01*
X98383125Y-101824933D01*
X98387607Y-101833728D01*
X98498572Y-102014805D01*
X98509030Y-102024267D01*
X98517806Y-102020484D01*
X99405478Y-101132812D01*
X99411856Y-101121132D01*
X100141908Y-101121132D01*
X100142039Y-101122965D01*
X100146290Y-101129580D01*
X101034150Y-102017440D01*
X101046530Y-102024200D01*
X101054180Y-102018473D01*
X101167393Y-101833728D01*
X101171875Y-101824933D01*
X101261934Y-101607510D01*
X101264983Y-101598125D01*
X101319922Y-101369292D01*
X101321465Y-101359545D01*
X101339930Y-101124930D01*
X101339930Y-101115070D01*
X101321465Y-100880455D01*
X101319922Y-100870708D01*
X101264983Y-100641875D01*
X101261934Y-100632490D01*
X101171875Y-100415067D01*
X101167393Y-100406272D01*
X101056428Y-100225195D01*
X101045970Y-100215733D01*
X101037194Y-100219516D01*
X100149522Y-101107188D01*
X100141908Y-101121132D01*
X99411856Y-101121132D01*
X99413092Y-101118868D01*
X99412961Y-101117035D01*
X99408710Y-101110420D01*
X98520850Y-100222560D01*
X98508470Y-100215800D01*
X98500820Y-100221527D01*
X98387607Y-100406272D01*
X98383125Y-100415067D01*
X98293066Y-100632490D01*
X98290017Y-100641875D01*
X98235078Y-100870708D01*
X98233535Y-100880455D01*
X98215070Y-101115070D01*
X98215070Y-101124930D01*
X91948500Y-101124930D01*
X91948500Y-99851530D01*
X98873233Y-99851530D01*
X98877016Y-99860306D01*
X99764688Y-100747978D01*
X99778632Y-100755592D01*
X99780465Y-100755461D01*
X99787080Y-100751210D01*
X100674940Y-99863350D01*
X100681700Y-99850970D01*
X100675973Y-99843320D01*
X100491228Y-99730107D01*
X100482433Y-99725625D01*
X100265010Y-99635566D01*
X100255625Y-99632517D01*
X100026792Y-99577578D01*
X100017045Y-99576035D01*
X99782430Y-99557570D01*
X99772570Y-99557570D01*
X99537955Y-99576035D01*
X99528208Y-99577578D01*
X99299375Y-99632517D01*
X99289990Y-99635566D01*
X99072567Y-99725625D01*
X99063772Y-99730107D01*
X98882695Y-99841072D01*
X98873233Y-99851530D01*
X91948500Y-99851530D01*
X91948500Y-96040000D01*
X98214181Y-96040000D01*
X98233428Y-96284557D01*
X98234582Y-96289364D01*
X98234583Y-96289370D01*
X98265419Y-96417808D01*
X98290695Y-96523092D01*
X98292588Y-96527663D01*
X98292589Y-96527665D01*
X98314845Y-96581396D01*
X98384573Y-96749732D01*
X98512748Y-96958896D01*
X98515963Y-96962660D01*
X98515965Y-96962663D01*
X98531133Y-96980422D01*
X98672067Y-97145433D01*
X98675823Y-97148641D01*
X98848383Y-97296022D01*
X98858604Y-97304752D01*
X98862827Y-97307340D01*
X98862830Y-97307342D01*
X98932015Y-97349738D01*
X99067768Y-97432927D01*
X99212467Y-97492864D01*
X99289835Y-97524911D01*
X99289837Y-97524912D01*
X99294408Y-97526805D01*
X99377063Y-97546649D01*
X99528130Y-97582917D01*
X99528136Y-97582918D01*
X99532943Y-97584072D01*
X99777500Y-97603319D01*
X100022057Y-97584072D01*
X100026864Y-97582918D01*
X100026870Y-97582917D01*
X100177937Y-97546649D01*
X100260592Y-97526805D01*
X100265163Y-97524912D01*
X100265165Y-97524911D01*
X100342533Y-97492864D01*
X100487232Y-97432927D01*
X100622985Y-97349738D01*
X100692170Y-97307342D01*
X100692173Y-97307340D01*
X100696396Y-97304752D01*
X100706618Y-97296022D01*
X100879177Y-97148641D01*
X100882933Y-97145433D01*
X101023867Y-96980422D01*
X101039035Y-96962663D01*
X101039037Y-96962660D01*
X101042252Y-96958896D01*
X101170427Y-96749732D01*
X101240155Y-96581396D01*
X101262411Y-96527665D01*
X101262412Y-96527663D01*
X101264305Y-96523092D01*
X101289581Y-96417808D01*
X101320417Y-96289370D01*
X101320418Y-96289364D01*
X101321572Y-96284557D01*
X101340819Y-96040000D01*
X101321572Y-95795443D01*
X101304074Y-95722556D01*
X101265460Y-95561720D01*
X101264305Y-95556908D01*
X101170427Y-95330268D01*
X101042252Y-95121104D01*
X101027037Y-95103289D01*
X100886141Y-94938323D01*
X100882933Y-94934567D01*
X100864243Y-94918604D01*
X100700163Y-94778465D01*
X100700160Y-94778463D01*
X100696396Y-94775248D01*
X100692173Y-94772660D01*
X100692170Y-94772658D01*
X100622985Y-94730262D01*
X100487232Y-94647073D01*
X100342533Y-94587136D01*
X100265165Y-94555089D01*
X100265163Y-94555088D01*
X100260592Y-94553195D01*
X100177937Y-94533351D01*
X100026870Y-94497083D01*
X100026864Y-94497082D01*
X100022057Y-94495928D01*
X99777500Y-94476681D01*
X99532943Y-94495928D01*
X99528136Y-94497082D01*
X99528130Y-94497083D01*
X99377063Y-94533351D01*
X99294408Y-94553195D01*
X99289837Y-94555088D01*
X99289835Y-94555089D01*
X99212467Y-94587136D01*
X99067768Y-94647073D01*
X98932015Y-94730262D01*
X98862830Y-94772658D01*
X98862827Y-94772660D01*
X98858604Y-94775248D01*
X98854840Y-94778463D01*
X98854837Y-94778465D01*
X98690757Y-94918604D01*
X98672067Y-94934567D01*
X98668859Y-94938323D01*
X98527964Y-95103289D01*
X98512748Y-95121104D01*
X98384573Y-95330268D01*
X98290695Y-95556908D01*
X98289540Y-95561720D01*
X98250927Y-95722556D01*
X98233428Y-95795443D01*
X98214181Y-96040000D01*
X91948500Y-96040000D01*
X91948500Y-90960000D01*
X98214181Y-90960000D01*
X98233428Y-91204557D01*
X98290695Y-91443092D01*
X98292588Y-91447663D01*
X98292589Y-91447665D01*
X98314845Y-91501396D01*
X98384573Y-91669732D01*
X98512748Y-91878896D01*
X98515963Y-91882660D01*
X98515965Y-91882663D01*
X98546177Y-91918036D01*
X98672067Y-92065433D01*
X98675823Y-92068641D01*
X98848383Y-92216022D01*
X98858604Y-92224752D01*
X98862827Y-92227340D01*
X98862830Y-92227342D01*
X98932015Y-92269738D01*
X99067768Y-92352927D01*
X99212467Y-92412864D01*
X99289835Y-92444911D01*
X99289837Y-92444912D01*
X99294408Y-92446805D01*
X99377063Y-92466649D01*
X99528130Y-92502917D01*
X99528136Y-92502918D01*
X99532943Y-92504072D01*
X99777500Y-92523319D01*
X100022057Y-92504072D01*
X100026864Y-92502918D01*
X100026870Y-92502917D01*
X100177937Y-92466649D01*
X100260592Y-92446805D01*
X100265163Y-92444912D01*
X100265165Y-92444911D01*
X100342533Y-92412864D01*
X100487232Y-92352927D01*
X100622985Y-92269738D01*
X100692170Y-92227342D01*
X100692173Y-92227340D01*
X100696396Y-92224752D01*
X100706618Y-92216022D01*
X100879177Y-92068641D01*
X100882933Y-92065433D01*
X101008823Y-91918036D01*
X101039035Y-91882663D01*
X101039037Y-91882660D01*
X101042252Y-91878896D01*
X101170427Y-91669732D01*
X101240155Y-91501396D01*
X101262411Y-91447665D01*
X101262412Y-91447663D01*
X101264305Y-91443092D01*
X101321572Y-91204557D01*
X101340819Y-90960000D01*
X101321572Y-90715443D01*
X101264305Y-90476908D01*
X101170427Y-90250268D01*
X101042252Y-90041104D01*
X101027037Y-90023289D01*
X100886141Y-89858323D01*
X100882933Y-89854567D01*
X100864243Y-89838604D01*
X100700163Y-89698465D01*
X100700160Y-89698463D01*
X100696396Y-89695248D01*
X100692173Y-89692660D01*
X100692170Y-89692658D01*
X100525533Y-89590544D01*
X100487232Y-89567073D01*
X100317053Y-89496582D01*
X100265165Y-89475089D01*
X100265163Y-89475088D01*
X100260592Y-89473195D01*
X100177937Y-89453351D01*
X100026870Y-89417083D01*
X100026864Y-89417082D01*
X100022057Y-89415928D01*
X99777500Y-89396681D01*
X99532943Y-89415928D01*
X99528136Y-89417082D01*
X99528130Y-89417083D01*
X99377063Y-89453351D01*
X99294408Y-89473195D01*
X99289837Y-89475088D01*
X99289835Y-89475089D01*
X99237947Y-89496582D01*
X99067768Y-89567073D01*
X99029467Y-89590544D01*
X98862830Y-89692658D01*
X98862827Y-89692660D01*
X98858604Y-89695248D01*
X98854840Y-89698463D01*
X98854837Y-89698465D01*
X98690757Y-89838604D01*
X98672067Y-89854567D01*
X98668859Y-89858323D01*
X98527964Y-90023289D01*
X98512748Y-90041104D01*
X98384573Y-90250268D01*
X98290695Y-90476908D01*
X98233428Y-90715443D01*
X98214181Y-90960000D01*
X91948500Y-90960000D01*
X91948500Y-85880000D01*
X98214181Y-85880000D01*
X98233428Y-86124557D01*
X98290695Y-86363092D01*
X98292588Y-86367663D01*
X98292589Y-86367665D01*
X98314845Y-86421396D01*
X98384573Y-86589732D01*
X98512748Y-86798896D01*
X98672067Y-86985433D01*
X98675823Y-86988641D01*
X98848383Y-87136022D01*
X98858604Y-87144752D01*
X98862827Y-87147340D01*
X98862830Y-87147342D01*
X98905383Y-87173418D01*
X99067768Y-87272927D01*
X99156251Y-87309578D01*
X99289835Y-87364911D01*
X99289837Y-87364912D01*
X99294408Y-87366805D01*
X99377063Y-87386649D01*
X99528130Y-87422917D01*
X99528136Y-87422918D01*
X99532943Y-87424072D01*
X99777500Y-87443319D01*
X100022057Y-87424072D01*
X100026864Y-87422918D01*
X100026870Y-87422917D01*
X100177937Y-87386649D01*
X100260592Y-87366805D01*
X100265163Y-87364912D01*
X100265165Y-87364911D01*
X100398749Y-87309578D01*
X100487232Y-87272927D01*
X100649617Y-87173418D01*
X100692170Y-87147342D01*
X100692173Y-87147340D01*
X100696396Y-87144752D01*
X100706618Y-87136022D01*
X100879177Y-86988641D01*
X100882933Y-86985433D01*
X101042252Y-86798896D01*
X101170427Y-86589732D01*
X101240155Y-86421396D01*
X101262411Y-86367665D01*
X101262412Y-86367663D01*
X101264305Y-86363092D01*
X101321572Y-86124557D01*
X101340819Y-85880000D01*
X101321572Y-85635443D01*
X101301161Y-85550422D01*
X101265460Y-85401720D01*
X101264305Y-85396908D01*
X101259552Y-85385432D01*
X101180380Y-85194297D01*
X101170427Y-85170268D01*
X101042252Y-84961104D01*
X101027037Y-84943289D01*
X100886141Y-84778323D01*
X100882933Y-84774567D01*
X100862885Y-84757444D01*
X100700163Y-84618465D01*
X100700160Y-84618463D01*
X100696396Y-84615248D01*
X100692173Y-84612660D01*
X100692170Y-84612658D01*
X100558058Y-84530475D01*
X100487232Y-84487073D01*
X100342533Y-84427136D01*
X100265165Y-84395089D01*
X100265163Y-84395088D01*
X100260592Y-84393195D01*
X100177937Y-84373351D01*
X100026870Y-84337083D01*
X100026864Y-84337082D01*
X100022057Y-84335928D01*
X99777500Y-84316681D01*
X99532943Y-84335928D01*
X99528136Y-84337082D01*
X99528130Y-84337083D01*
X99377063Y-84373351D01*
X99294408Y-84393195D01*
X99289837Y-84395088D01*
X99289835Y-84395089D01*
X99212467Y-84427136D01*
X99067768Y-84487073D01*
X98996942Y-84530475D01*
X98862830Y-84612658D01*
X98862827Y-84612660D01*
X98858604Y-84615248D01*
X98854840Y-84618463D01*
X98854837Y-84618465D01*
X98692115Y-84757444D01*
X98672067Y-84774567D01*
X98668859Y-84778323D01*
X98527964Y-84943289D01*
X98512748Y-84961104D01*
X98384573Y-85170268D01*
X98374620Y-85194297D01*
X98295449Y-85385432D01*
X98290695Y-85396908D01*
X98289540Y-85401720D01*
X98253840Y-85550422D01*
X98233428Y-85635443D01*
X98214181Y-85880000D01*
X91948500Y-85880000D01*
X91948500Y-80800000D01*
X98214181Y-80800000D01*
X98233428Y-81044557D01*
X98234582Y-81049364D01*
X98234583Y-81049370D01*
X98265419Y-81177808D01*
X98290695Y-81283092D01*
X98292588Y-81287663D01*
X98292589Y-81287665D01*
X98314845Y-81341396D01*
X98384573Y-81509732D01*
X98512748Y-81718896D01*
X98515963Y-81722660D01*
X98515965Y-81722663D01*
X98531133Y-81740422D01*
X98672067Y-81905433D01*
X98675823Y-81908641D01*
X98848383Y-82056022D01*
X98858604Y-82064752D01*
X98862827Y-82067340D01*
X98862830Y-82067342D01*
X98932015Y-82109738D01*
X99067768Y-82192927D01*
X99212467Y-82252864D01*
X99289835Y-82284911D01*
X99289837Y-82284912D01*
X99294408Y-82286805D01*
X99377063Y-82306649D01*
X99528130Y-82342917D01*
X99528136Y-82342918D01*
X99532943Y-82344072D01*
X99777500Y-82363319D01*
X100022057Y-82344072D01*
X100026864Y-82342918D01*
X100026870Y-82342917D01*
X100177937Y-82306649D01*
X100260592Y-82286805D01*
X100265163Y-82284912D01*
X100265165Y-82284911D01*
X100342533Y-82252864D01*
X100487232Y-82192927D01*
X100622985Y-82109738D01*
X100692170Y-82067342D01*
X100692173Y-82067340D01*
X100696396Y-82064752D01*
X100706618Y-82056022D01*
X100879177Y-81908641D01*
X100882933Y-81905433D01*
X101023867Y-81740422D01*
X101039035Y-81722663D01*
X101039037Y-81722660D01*
X101042252Y-81718896D01*
X101170427Y-81509732D01*
X101240155Y-81341396D01*
X101262411Y-81287665D01*
X101262412Y-81287663D01*
X101264305Y-81283092D01*
X101289581Y-81177808D01*
X101320417Y-81049370D01*
X101320418Y-81049364D01*
X101321572Y-81044557D01*
X101340819Y-80800000D01*
X101321572Y-80555443D01*
X101304074Y-80482556D01*
X101265460Y-80321720D01*
X101264305Y-80316908D01*
X101170427Y-80090268D01*
X101042252Y-79881104D01*
X101027037Y-79863289D01*
X100886141Y-79698323D01*
X100882933Y-79694567D01*
X100864243Y-79678604D01*
X100700163Y-79538465D01*
X100700160Y-79538463D01*
X100696396Y-79535248D01*
X100692173Y-79532660D01*
X100692170Y-79532658D01*
X100622985Y-79490262D01*
X100487232Y-79407073D01*
X100342533Y-79347136D01*
X100265165Y-79315089D01*
X100265163Y-79315088D01*
X100260592Y-79313195D01*
X100177937Y-79293351D01*
X100026870Y-79257083D01*
X100026864Y-79257082D01*
X100022057Y-79255928D01*
X99777500Y-79236681D01*
X99532943Y-79255928D01*
X99528136Y-79257082D01*
X99528130Y-79257083D01*
X99377063Y-79293351D01*
X99294408Y-79313195D01*
X99289837Y-79315088D01*
X99289835Y-79315089D01*
X99212467Y-79347136D01*
X99067768Y-79407073D01*
X98932015Y-79490262D01*
X98862830Y-79532658D01*
X98862827Y-79532660D01*
X98858604Y-79535248D01*
X98854840Y-79538463D01*
X98854837Y-79538465D01*
X98690757Y-79678604D01*
X98672067Y-79694567D01*
X98668859Y-79698323D01*
X98527964Y-79863289D01*
X98512748Y-79881104D01*
X98384573Y-80090268D01*
X98290695Y-80316908D01*
X98289540Y-80321720D01*
X98250927Y-80482556D01*
X98233428Y-80555443D01*
X98214181Y-80800000D01*
X91948500Y-80800000D01*
X91948500Y-75720000D01*
X98214181Y-75720000D01*
X98233428Y-75964557D01*
X98290695Y-76203092D01*
X98292588Y-76207663D01*
X98292589Y-76207665D01*
X98314845Y-76261396D01*
X98384573Y-76429732D01*
X98512748Y-76638896D01*
X98515963Y-76642660D01*
X98515965Y-76642663D01*
X98546177Y-76678036D01*
X98672067Y-76825433D01*
X98675823Y-76828641D01*
X98848383Y-76976022D01*
X98858604Y-76984752D01*
X98862827Y-76987340D01*
X98862830Y-76987342D01*
X98932015Y-77029738D01*
X99067768Y-77112927D01*
X99212467Y-77172864D01*
X99289835Y-77204911D01*
X99289837Y-77204912D01*
X99294408Y-77206805D01*
X99377063Y-77226649D01*
X99528130Y-77262917D01*
X99528136Y-77262918D01*
X99532943Y-77264072D01*
X99777500Y-77283319D01*
X100022057Y-77264072D01*
X100026864Y-77262918D01*
X100026870Y-77262917D01*
X100177937Y-77226649D01*
X100260592Y-77206805D01*
X100265163Y-77204912D01*
X100265165Y-77204911D01*
X100342533Y-77172864D01*
X100487232Y-77112927D01*
X100622985Y-77029738D01*
X100692170Y-76987342D01*
X100692173Y-76987340D01*
X100696396Y-76984752D01*
X100706618Y-76976022D01*
X100879177Y-76828641D01*
X100882933Y-76825433D01*
X101008823Y-76678036D01*
X101039035Y-76642663D01*
X101039037Y-76642660D01*
X101042252Y-76638896D01*
X101170427Y-76429732D01*
X101240155Y-76261396D01*
X101262411Y-76207665D01*
X101262412Y-76207663D01*
X101264305Y-76203092D01*
X101321572Y-75964557D01*
X101340819Y-75720000D01*
X101321572Y-75475443D01*
X101264305Y-75236908D01*
X101170427Y-75010268D01*
X101042252Y-74801104D01*
X101027037Y-74783289D01*
X100886141Y-74618323D01*
X100882933Y-74614567D01*
X100864243Y-74598604D01*
X100700163Y-74458465D01*
X100700160Y-74458463D01*
X100696396Y-74455248D01*
X100692173Y-74452660D01*
X100692170Y-74452658D01*
X100622985Y-74410262D01*
X100487232Y-74327073D01*
X100302768Y-74250665D01*
X100265165Y-74235089D01*
X100265163Y-74235088D01*
X100260592Y-74233195D01*
X100177937Y-74213351D01*
X100026870Y-74177083D01*
X100026864Y-74177082D01*
X100022057Y-74175928D01*
X99777500Y-74156681D01*
X99532943Y-74175928D01*
X99528136Y-74177082D01*
X99528130Y-74177083D01*
X99377063Y-74213351D01*
X99294408Y-74233195D01*
X99289837Y-74235088D01*
X99289835Y-74235089D01*
X99252232Y-74250665D01*
X99067768Y-74327073D01*
X98932015Y-74410262D01*
X98862830Y-74452658D01*
X98862827Y-74452660D01*
X98858604Y-74455248D01*
X98854840Y-74458463D01*
X98854837Y-74458465D01*
X98690757Y-74598604D01*
X98672067Y-74614567D01*
X98668859Y-74618323D01*
X98527964Y-74783289D01*
X98512748Y-74801104D01*
X98384573Y-75010268D01*
X98290695Y-75236908D01*
X98233428Y-75475443D01*
X98214181Y-75720000D01*
X91948500Y-75720000D01*
X91948500Y-71738134D01*
X98219000Y-71738134D01*
X98225755Y-71800316D01*
X98276885Y-71936705D01*
X98364239Y-72053261D01*
X98480795Y-72140615D01*
X98617184Y-72191745D01*
X98679366Y-72198500D01*
X100875634Y-72198500D01*
X100937816Y-72191745D01*
X101074205Y-72140615D01*
X101190761Y-72053261D01*
X101278115Y-71936705D01*
X101329245Y-71800316D01*
X101336000Y-71738134D01*
X101336000Y-69541866D01*
X101329245Y-69479684D01*
X101278115Y-69343295D01*
X101190761Y-69226739D01*
X101074205Y-69139385D01*
X100937816Y-69088255D01*
X100875634Y-69081500D01*
X98679366Y-69081500D01*
X98617184Y-69088255D01*
X98480795Y-69139385D01*
X98364239Y-69226739D01*
X98276885Y-69343295D01*
X98225755Y-69479684D01*
X98219000Y-69541866D01*
X98219000Y-71738134D01*
X91948500Y-71738134D01*
X91948500Y-64845000D01*
X94366502Y-64845000D01*
X94386457Y-65073087D01*
X94445716Y-65294243D01*
X94448039Y-65299224D01*
X94448039Y-65299225D01*
X94540151Y-65496762D01*
X94540154Y-65496767D01*
X94542477Y-65501749D01*
X94673802Y-65689300D01*
X94835700Y-65851198D01*
X94840208Y-65854355D01*
X94840211Y-65854357D01*
X94918389Y-65909098D01*
X95023251Y-65982523D01*
X95028233Y-65984846D01*
X95028238Y-65984849D01*
X95225775Y-66076961D01*
X95230757Y-66079284D01*
X95236065Y-66080706D01*
X95236067Y-66080707D01*
X95446598Y-66137119D01*
X95446600Y-66137119D01*
X95451913Y-66138543D01*
X95680000Y-66158498D01*
X95908087Y-66138543D01*
X95913400Y-66137119D01*
X95913402Y-66137119D01*
X96123933Y-66080707D01*
X96123935Y-66080706D01*
X96129243Y-66079284D01*
X96134225Y-66076961D01*
X96331762Y-65984849D01*
X96331767Y-65984846D01*
X96336749Y-65982523D01*
X96441611Y-65909098D01*
X96519789Y-65854357D01*
X96519792Y-65854355D01*
X96524300Y-65851198D01*
X96686198Y-65689300D01*
X96817523Y-65501749D01*
X96819846Y-65496767D01*
X96819849Y-65496762D01*
X96911961Y-65299225D01*
X96911961Y-65299224D01*
X96914284Y-65294243D01*
X96973543Y-65073087D01*
X96993498Y-64845000D01*
X101986502Y-64845000D01*
X102006457Y-65073087D01*
X102065716Y-65294243D01*
X102068039Y-65299224D01*
X102068039Y-65299225D01*
X102160151Y-65496762D01*
X102160154Y-65496767D01*
X102162477Y-65501749D01*
X102293802Y-65689300D01*
X102455700Y-65851198D01*
X102460208Y-65854355D01*
X102460211Y-65854357D01*
X102538389Y-65909098D01*
X102643251Y-65982523D01*
X102648233Y-65984846D01*
X102648238Y-65984849D01*
X102845775Y-66076961D01*
X102850757Y-66079284D01*
X102856065Y-66080706D01*
X102856067Y-66080707D01*
X103066598Y-66137119D01*
X103066600Y-66137119D01*
X103071913Y-66138543D01*
X103300000Y-66158498D01*
X103528087Y-66138543D01*
X103533400Y-66137119D01*
X103533402Y-66137119D01*
X103743933Y-66080707D01*
X103743935Y-66080706D01*
X103749243Y-66079284D01*
X103754225Y-66076961D01*
X103951762Y-65984849D01*
X103951767Y-65984846D01*
X103956749Y-65982523D01*
X104061611Y-65909098D01*
X104139789Y-65854357D01*
X104139792Y-65854355D01*
X104144300Y-65851198D01*
X104306198Y-65689300D01*
X104437523Y-65501749D01*
X104439846Y-65496767D01*
X104439849Y-65496762D01*
X104531961Y-65299225D01*
X104531961Y-65299224D01*
X104534284Y-65294243D01*
X104593543Y-65073087D01*
X104613498Y-64845000D01*
X104593543Y-64616913D01*
X104534284Y-64395757D01*
X104488480Y-64297529D01*
X104439849Y-64193238D01*
X104439846Y-64193233D01*
X104437523Y-64188251D01*
X104336688Y-64044244D01*
X104309357Y-64005211D01*
X104309355Y-64005208D01*
X104306198Y-64000700D01*
X104144300Y-63838802D01*
X104139792Y-63835645D01*
X104139789Y-63835643D01*
X104027271Y-63756857D01*
X103956749Y-63707477D01*
X103951767Y-63705154D01*
X103951762Y-63705151D01*
X103917543Y-63689195D01*
X103864258Y-63642278D01*
X103844797Y-63574001D01*
X103865339Y-63506041D01*
X103917543Y-63460805D01*
X103951762Y-63444849D01*
X103951767Y-63444846D01*
X103956749Y-63442523D01*
X104061611Y-63369098D01*
X104139789Y-63314357D01*
X104139792Y-63314355D01*
X104144300Y-63311198D01*
X104306198Y-63149300D01*
X104437523Y-62961749D01*
X104439846Y-62956767D01*
X104439849Y-62956762D01*
X104531961Y-62759225D01*
X104531961Y-62759224D01*
X104534284Y-62754243D01*
X104570097Y-62620590D01*
X104592119Y-62538402D01*
X104592119Y-62538400D01*
X104593543Y-62533087D01*
X104613498Y-62305000D01*
X104593543Y-62076913D01*
X104579303Y-62023768D01*
X104535707Y-61861067D01*
X104535706Y-61861065D01*
X104534284Y-61855757D01*
X104531961Y-61850775D01*
X104439849Y-61653238D01*
X104439846Y-61653233D01*
X104437523Y-61648251D01*
X104306198Y-61460700D01*
X104144300Y-61298802D01*
X104139792Y-61295645D01*
X104139789Y-61295643D01*
X104061611Y-61240902D01*
X103956749Y-61167477D01*
X103951767Y-61165154D01*
X103951762Y-61165151D01*
X103917543Y-61149195D01*
X103864258Y-61102278D01*
X103844797Y-61034001D01*
X103865339Y-60966041D01*
X103917543Y-60920805D01*
X103951762Y-60904849D01*
X103951767Y-60904846D01*
X103956749Y-60902523D01*
X104098458Y-60803297D01*
X104139789Y-60774357D01*
X104139792Y-60774355D01*
X104144300Y-60771198D01*
X104306198Y-60609300D01*
X104437523Y-60421749D01*
X104439846Y-60416767D01*
X104439849Y-60416762D01*
X104531961Y-60219225D01*
X104531961Y-60219224D01*
X104534284Y-60214243D01*
X104593543Y-59993087D01*
X104613498Y-59765000D01*
X104593543Y-59536913D01*
X104584016Y-59501358D01*
X104535707Y-59321067D01*
X104535706Y-59321065D01*
X104534284Y-59315757D01*
X104531961Y-59310775D01*
X104439849Y-59113238D01*
X104439846Y-59113233D01*
X104437523Y-59108251D01*
X104306198Y-58920700D01*
X104144300Y-58758802D01*
X104139792Y-58755645D01*
X104139789Y-58755643D01*
X104061611Y-58700902D01*
X103956749Y-58627477D01*
X103951767Y-58625154D01*
X103951762Y-58625151D01*
X103754225Y-58533039D01*
X103754224Y-58533039D01*
X103749243Y-58530716D01*
X103743935Y-58529294D01*
X103743933Y-58529293D01*
X103533402Y-58472881D01*
X103533400Y-58472881D01*
X103528087Y-58471457D01*
X103300000Y-58451502D01*
X103071913Y-58471457D01*
X103066600Y-58472881D01*
X103066598Y-58472881D01*
X102856067Y-58529293D01*
X102856065Y-58529294D01*
X102850757Y-58530716D01*
X102845776Y-58533039D01*
X102845775Y-58533039D01*
X102648238Y-58625151D01*
X102648233Y-58625154D01*
X102643251Y-58627477D01*
X102538389Y-58700902D01*
X102460211Y-58755643D01*
X102460208Y-58755645D01*
X102455700Y-58758802D01*
X102293802Y-58920700D01*
X102162477Y-59108251D01*
X102160154Y-59113233D01*
X102160151Y-59113238D01*
X102068039Y-59310775D01*
X102065716Y-59315757D01*
X102064294Y-59321065D01*
X102064293Y-59321067D01*
X102015984Y-59501358D01*
X102006457Y-59536913D01*
X101986502Y-59765000D01*
X102006457Y-59993087D01*
X102065716Y-60214243D01*
X102068039Y-60219224D01*
X102068039Y-60219225D01*
X102160151Y-60416762D01*
X102160154Y-60416767D01*
X102162477Y-60421749D01*
X102293802Y-60609300D01*
X102455700Y-60771198D01*
X102460208Y-60774355D01*
X102460211Y-60774357D01*
X102501542Y-60803297D01*
X102643251Y-60902523D01*
X102648233Y-60904846D01*
X102648238Y-60904849D01*
X102682457Y-60920805D01*
X102735742Y-60967722D01*
X102755203Y-61035999D01*
X102734661Y-61103959D01*
X102682457Y-61149195D01*
X102648238Y-61165151D01*
X102648233Y-61165154D01*
X102643251Y-61167477D01*
X102538389Y-61240902D01*
X102460211Y-61295643D01*
X102460208Y-61295645D01*
X102455700Y-61298802D01*
X102293802Y-61460700D01*
X102162477Y-61648251D01*
X102160154Y-61653233D01*
X102160151Y-61653238D01*
X102068039Y-61850775D01*
X102065716Y-61855757D01*
X102064294Y-61861065D01*
X102064293Y-61861067D01*
X102020697Y-62023768D01*
X102006457Y-62076913D01*
X101986502Y-62305000D01*
X102006457Y-62533087D01*
X102007881Y-62538400D01*
X102007881Y-62538402D01*
X102029904Y-62620590D01*
X102065716Y-62754243D01*
X102068039Y-62759224D01*
X102068039Y-62759225D01*
X102160151Y-62956762D01*
X102160154Y-62956767D01*
X102162477Y-62961749D01*
X102293802Y-63149300D01*
X102455700Y-63311198D01*
X102460208Y-63314355D01*
X102460211Y-63314357D01*
X102538389Y-63369098D01*
X102643251Y-63442523D01*
X102648233Y-63444846D01*
X102648238Y-63444849D01*
X102682457Y-63460805D01*
X102735742Y-63507722D01*
X102755203Y-63575999D01*
X102734661Y-63643959D01*
X102682457Y-63689195D01*
X102648238Y-63705151D01*
X102648233Y-63705154D01*
X102643251Y-63707477D01*
X102572729Y-63756857D01*
X102460211Y-63835643D01*
X102460208Y-63835645D01*
X102455700Y-63838802D01*
X102293802Y-64000700D01*
X102290645Y-64005208D01*
X102290643Y-64005211D01*
X102263312Y-64044244D01*
X102162477Y-64188251D01*
X102160154Y-64193233D01*
X102160151Y-64193238D01*
X102111520Y-64297529D01*
X102065716Y-64395757D01*
X102006457Y-64616913D01*
X101986502Y-64845000D01*
X96993498Y-64845000D01*
X96973543Y-64616913D01*
X96914284Y-64395757D01*
X96868480Y-64297529D01*
X96819849Y-64193238D01*
X96819846Y-64193233D01*
X96817523Y-64188251D01*
X96716688Y-64044244D01*
X96689357Y-64005211D01*
X96689355Y-64005208D01*
X96686198Y-64000700D01*
X96524300Y-63838802D01*
X96519792Y-63835645D01*
X96519789Y-63835643D01*
X96407271Y-63756857D01*
X96336749Y-63707477D01*
X96331767Y-63705154D01*
X96331762Y-63705151D01*
X96297543Y-63689195D01*
X96244258Y-63642278D01*
X96224797Y-63574001D01*
X96245339Y-63506041D01*
X96297543Y-63460805D01*
X96331762Y-63444849D01*
X96331767Y-63444846D01*
X96336749Y-63442523D01*
X96441611Y-63369098D01*
X96519789Y-63314357D01*
X96519792Y-63314355D01*
X96524300Y-63311198D01*
X96686198Y-63149300D01*
X96817523Y-62961749D01*
X96819846Y-62956767D01*
X96819849Y-62956762D01*
X96911961Y-62759225D01*
X96911961Y-62759224D01*
X96914284Y-62754243D01*
X96950097Y-62620590D01*
X96972119Y-62538402D01*
X96972119Y-62538400D01*
X96973543Y-62533087D01*
X96993498Y-62305000D01*
X96973543Y-62076913D01*
X96959303Y-62023768D01*
X96915707Y-61861067D01*
X96915706Y-61861065D01*
X96914284Y-61855757D01*
X96911961Y-61850775D01*
X96819849Y-61653238D01*
X96819846Y-61653233D01*
X96817523Y-61648251D01*
X96686198Y-61460700D01*
X96524300Y-61298802D01*
X96519789Y-61295643D01*
X96515576Y-61292108D01*
X96516527Y-61290974D01*
X96476529Y-61240929D01*
X96469224Y-61170310D01*
X96501258Y-61106951D01*
X96562462Y-61070970D01*
X96579517Y-61067918D01*
X96590316Y-61066745D01*
X96726705Y-61015615D01*
X96843261Y-60928261D01*
X96930615Y-60811705D01*
X96981745Y-60675316D01*
X96988500Y-60613134D01*
X96988500Y-58916866D01*
X96981745Y-58854684D01*
X96930615Y-58718295D01*
X96843261Y-58601739D01*
X96726705Y-58514385D01*
X96590316Y-58463255D01*
X96528134Y-58456500D01*
X94831866Y-58456500D01*
X94769684Y-58463255D01*
X94633295Y-58514385D01*
X94516739Y-58601739D01*
X94429385Y-58718295D01*
X94378255Y-58854684D01*
X94371500Y-58916866D01*
X94371500Y-60613134D01*
X94378255Y-60675316D01*
X94429385Y-60811705D01*
X94516739Y-60928261D01*
X94633295Y-61015615D01*
X94769684Y-61066745D01*
X94780474Y-61067917D01*
X94782606Y-61068803D01*
X94785222Y-61069425D01*
X94785121Y-61069848D01*
X94846035Y-61095155D01*
X94886463Y-61153517D01*
X94888922Y-61224471D01*
X94852629Y-61285490D01*
X94843969Y-61292489D01*
X94840207Y-61295646D01*
X94835700Y-61298802D01*
X94673802Y-61460700D01*
X94542477Y-61648251D01*
X94540154Y-61653233D01*
X94540151Y-61653238D01*
X94448039Y-61850775D01*
X94445716Y-61855757D01*
X94444294Y-61861065D01*
X94444293Y-61861067D01*
X94400697Y-62023768D01*
X94386457Y-62076913D01*
X94366502Y-62305000D01*
X94386457Y-62533087D01*
X94387881Y-62538400D01*
X94387881Y-62538402D01*
X94409904Y-62620590D01*
X94445716Y-62754243D01*
X94448039Y-62759224D01*
X94448039Y-62759225D01*
X94540151Y-62956762D01*
X94540154Y-62956767D01*
X94542477Y-62961749D01*
X94673802Y-63149300D01*
X94835700Y-63311198D01*
X94840208Y-63314355D01*
X94840211Y-63314357D01*
X94918389Y-63369098D01*
X95023251Y-63442523D01*
X95028233Y-63444846D01*
X95028238Y-63444849D01*
X95062457Y-63460805D01*
X95115742Y-63507722D01*
X95135203Y-63575999D01*
X95114661Y-63643959D01*
X95062457Y-63689195D01*
X95028238Y-63705151D01*
X95028233Y-63705154D01*
X95023251Y-63707477D01*
X94952729Y-63756857D01*
X94840211Y-63835643D01*
X94840208Y-63835645D01*
X94835700Y-63838802D01*
X94673802Y-64000700D01*
X94670645Y-64005208D01*
X94670643Y-64005211D01*
X94643312Y-64044244D01*
X94542477Y-64188251D01*
X94540154Y-64193233D01*
X94540151Y-64193238D01*
X94491520Y-64297529D01*
X94445716Y-64395757D01*
X94386457Y-64616913D01*
X94366502Y-64845000D01*
X91948500Y-64845000D01*
X91948500Y-51500000D01*
X112106502Y-51500000D01*
X112126457Y-51728087D01*
X112185716Y-51949243D01*
X112188039Y-51954224D01*
X112188039Y-51954225D01*
X112280151Y-52151762D01*
X112280154Y-52151767D01*
X112282477Y-52156749D01*
X112413802Y-52344300D01*
X112575700Y-52506198D01*
X112580208Y-52509355D01*
X112580211Y-52509357D01*
X112658389Y-52564098D01*
X112763251Y-52637523D01*
X112768233Y-52639846D01*
X112768238Y-52639849D01*
X112965775Y-52731961D01*
X112970757Y-52734284D01*
X112976065Y-52735706D01*
X112976067Y-52735707D01*
X113186598Y-52792119D01*
X113186600Y-52792119D01*
X113191913Y-52793543D01*
X113420000Y-52813498D01*
X113648087Y-52793543D01*
X113653400Y-52792119D01*
X113653402Y-52792119D01*
X113863933Y-52735707D01*
X113863935Y-52735706D01*
X113869243Y-52734284D01*
X113874225Y-52731961D01*
X114071762Y-52639849D01*
X114071767Y-52639846D01*
X114076749Y-52637523D01*
X114181611Y-52564098D01*
X114259789Y-52509357D01*
X114259792Y-52509355D01*
X114264300Y-52506198D01*
X114426198Y-52344300D01*
X114557523Y-52156749D01*
X114559846Y-52151767D01*
X114559849Y-52151762D01*
X114651961Y-51954225D01*
X114651961Y-51954224D01*
X114654284Y-51949243D01*
X114713543Y-51728087D01*
X114733498Y-51500000D01*
X122266502Y-51500000D01*
X122286457Y-51728087D01*
X122345716Y-51949243D01*
X122348039Y-51954224D01*
X122348039Y-51954225D01*
X122440151Y-52151762D01*
X122440154Y-52151767D01*
X122442477Y-52156749D01*
X122573802Y-52344300D01*
X122735700Y-52506198D01*
X122740208Y-52509355D01*
X122740211Y-52509357D01*
X122818389Y-52564098D01*
X122923251Y-52637523D01*
X122928233Y-52639846D01*
X122928238Y-52639849D01*
X123125775Y-52731961D01*
X123130757Y-52734284D01*
X123136065Y-52735706D01*
X123136067Y-52735707D01*
X123346598Y-52792119D01*
X123346600Y-52792119D01*
X123351913Y-52793543D01*
X123580000Y-52813498D01*
X123808087Y-52793543D01*
X123813400Y-52792119D01*
X123813402Y-52792119D01*
X124023933Y-52735707D01*
X124023935Y-52735706D01*
X124029243Y-52734284D01*
X124034225Y-52731961D01*
X124231762Y-52639849D01*
X124231767Y-52639846D01*
X124236749Y-52637523D01*
X124341611Y-52564098D01*
X124419789Y-52509357D01*
X124419792Y-52509355D01*
X124424300Y-52506198D01*
X124586198Y-52344300D01*
X124717523Y-52156749D01*
X124719846Y-52151767D01*
X124719849Y-52151762D01*
X124811961Y-51954225D01*
X124811961Y-51954224D01*
X124814284Y-51949243D01*
X124873543Y-51728087D01*
X124893498Y-51500000D01*
X124873543Y-51271913D01*
X124814284Y-51050757D01*
X124811961Y-51045775D01*
X124719849Y-50848238D01*
X124719846Y-50848233D01*
X124717523Y-50843251D01*
X124586198Y-50655700D01*
X124424300Y-50493802D01*
X124419792Y-50490645D01*
X124419789Y-50490643D01*
X124341611Y-50435902D01*
X124236749Y-50362477D01*
X124231767Y-50360154D01*
X124231762Y-50360151D01*
X124034225Y-50268039D01*
X124034224Y-50268039D01*
X124029243Y-50265716D01*
X124023935Y-50264294D01*
X124023933Y-50264293D01*
X123813402Y-50207881D01*
X123813400Y-50207881D01*
X123808087Y-50206457D01*
X123580000Y-50186502D01*
X123351913Y-50206457D01*
X123346600Y-50207881D01*
X123346598Y-50207881D01*
X123136067Y-50264293D01*
X123136065Y-50264294D01*
X123130757Y-50265716D01*
X123125776Y-50268039D01*
X123125775Y-50268039D01*
X122928238Y-50360151D01*
X122928233Y-50360154D01*
X122923251Y-50362477D01*
X122818389Y-50435902D01*
X122740211Y-50490643D01*
X122740208Y-50490645D01*
X122735700Y-50493802D01*
X122573802Y-50655700D01*
X122442477Y-50843251D01*
X122440154Y-50848233D01*
X122440151Y-50848238D01*
X122348039Y-51045775D01*
X122345716Y-51050757D01*
X122286457Y-51271913D01*
X122266502Y-51500000D01*
X114733498Y-51500000D01*
X114713543Y-51271913D01*
X114654284Y-51050757D01*
X114651961Y-51045775D01*
X114559849Y-50848238D01*
X114559846Y-50848233D01*
X114557523Y-50843251D01*
X114426198Y-50655700D01*
X114264300Y-50493802D01*
X114259792Y-50490645D01*
X114259789Y-50490643D01*
X114181611Y-50435902D01*
X114076749Y-50362477D01*
X114071767Y-50360154D01*
X114071762Y-50360151D01*
X113874225Y-50268039D01*
X113874224Y-50268039D01*
X113869243Y-50265716D01*
X113863935Y-50264294D01*
X113863933Y-50264293D01*
X113653402Y-50207881D01*
X113653400Y-50207881D01*
X113648087Y-50206457D01*
X113420000Y-50186502D01*
X113191913Y-50206457D01*
X113186600Y-50207881D01*
X113186598Y-50207881D01*
X112976067Y-50264293D01*
X112976065Y-50264294D01*
X112970757Y-50265716D01*
X112965776Y-50268039D01*
X112965775Y-50268039D01*
X112768238Y-50360151D01*
X112768233Y-50360154D01*
X112763251Y-50362477D01*
X112658389Y-50435902D01*
X112580211Y-50490643D01*
X112580208Y-50490645D01*
X112575700Y-50493802D01*
X112413802Y-50655700D01*
X112282477Y-50843251D01*
X112280154Y-50848233D01*
X112280151Y-50848238D01*
X112188039Y-51045775D01*
X112185716Y-51050757D01*
X112126457Y-51271913D01*
X112106502Y-51500000D01*
X91948500Y-51500000D01*
X91948500Y-44643274D01*
X173253102Y-44643274D01*
X173261751Y-44873658D01*
X173309093Y-45099291D01*
X173393776Y-45313721D01*
X173513377Y-45510817D01*
X173516874Y-45514847D01*
X173603438Y-45614603D01*
X173664477Y-45684945D01*
X173700120Y-45714170D01*
X173740114Y-45772829D01*
X173742046Y-45843799D01*
X173705302Y-45904548D01*
X173686532Y-45918748D01*
X173555579Y-45999785D01*
X173540652Y-46009022D01*
X173415695Y-46134197D01*
X173322885Y-46284762D01*
X173267203Y-46452639D01*
X173256500Y-46557100D01*
X173256500Y-47857900D01*
X173267474Y-47963666D01*
X173323450Y-48131446D01*
X173416522Y-48281848D01*
X173541697Y-48406805D01*
X173547927Y-48410645D01*
X173547928Y-48410646D01*
X173685090Y-48495194D01*
X173692262Y-48499615D01*
X173772005Y-48526064D01*
X173853611Y-48553132D01*
X173853613Y-48553132D01*
X173860139Y-48555297D01*
X173866975Y-48555997D01*
X173866978Y-48555998D01*
X173910031Y-48560409D01*
X173964600Y-48566000D01*
X175515400Y-48566000D01*
X175518646Y-48565663D01*
X175518650Y-48565663D01*
X175614308Y-48555738D01*
X175614312Y-48555737D01*
X175621166Y-48555026D01*
X175627702Y-48552845D01*
X175627704Y-48552845D01*
X175759806Y-48508772D01*
X175788946Y-48499050D01*
X175939348Y-48405978D01*
X176064305Y-48280803D01*
X176157115Y-48130238D01*
X176212797Y-47962361D01*
X176223500Y-47857900D01*
X176223500Y-46557100D01*
X176212526Y-46451334D01*
X176156550Y-46283554D01*
X176063478Y-46133152D01*
X175938303Y-46008195D01*
X175792660Y-45918419D01*
X175745168Y-45865648D01*
X175733744Y-45795576D01*
X175762018Y-45730452D01*
X175771805Y-45719990D01*
X175882278Y-45614603D01*
X175886135Y-45610924D01*
X176023754Y-45425958D01*
X176128240Y-45220449D01*
X176164321Y-45104252D01*
X176195024Y-45005371D01*
X176196607Y-45000273D01*
X176197308Y-44994984D01*
X176226198Y-44777011D01*
X176226198Y-44777006D01*
X176226898Y-44771726D01*
X176218249Y-44541342D01*
X176170907Y-44315709D01*
X176086224Y-44101279D01*
X176043864Y-44031471D01*
X175969390Y-43908743D01*
X175966623Y-43904183D01*
X175943313Y-43877320D01*
X175819023Y-43734088D01*
X175819021Y-43734086D01*
X175815523Y-43730055D01*
X175773970Y-43695984D01*
X175641373Y-43587260D01*
X175641367Y-43587256D01*
X175637245Y-43583876D01*
X175605750Y-43565948D01*
X175556445Y-43514868D01*
X175542583Y-43445238D01*
X175568566Y-43379167D01*
X175597716Y-43351927D01*
X175633642Y-43327740D01*
X175719319Y-43270059D01*
X175886135Y-43110924D01*
X176023754Y-42925958D01*
X176063879Y-42847039D01*
X176125822Y-42725204D01*
X176128240Y-42720449D01*
X176164321Y-42604252D01*
X176195024Y-42505371D01*
X176196607Y-42500273D01*
X176200661Y-42469688D01*
X176226198Y-42277011D01*
X176226198Y-42277006D01*
X176226898Y-42271726D01*
X176218249Y-42041342D01*
X176208524Y-41994990D01*
X176172002Y-41820928D01*
X176170907Y-41815709D01*
X176086224Y-41601279D01*
X176072240Y-41578233D01*
X175969390Y-41408743D01*
X175966623Y-41404183D01*
X175879755Y-41304076D01*
X175819023Y-41234088D01*
X175819021Y-41234086D01*
X175815523Y-41230055D01*
X175752780Y-41178609D01*
X175641373Y-41087260D01*
X175641367Y-41087256D01*
X175637245Y-41083876D01*
X175624145Y-41076419D01*
X175605265Y-41065671D01*
X175555959Y-41014588D01*
X175542098Y-40944958D01*
X175568082Y-40878887D01*
X175597232Y-40851649D01*
X175714578Y-40772648D01*
X175722870Y-40765981D01*
X175881900Y-40614272D01*
X175888941Y-40606314D01*
X176020141Y-40429975D01*
X176025745Y-40420938D01*
X176125357Y-40225016D01*
X176129357Y-40215165D01*
X176194534Y-40005260D01*
X176196817Y-39994876D01*
X176198861Y-39979457D01*
X176196665Y-39965293D01*
X176183478Y-39961500D01*
X173298808Y-39961500D01*
X173285277Y-39965473D01*
X173283752Y-39976080D01*
X173308477Y-40093921D01*
X173311537Y-40104117D01*
X173392263Y-40308529D01*
X173396994Y-40318061D01*
X173511016Y-40505962D01*
X173517280Y-40514552D01*
X173661327Y-40680552D01*
X173668958Y-40687972D01*
X173838911Y-40827326D01*
X173847674Y-40833348D01*
X173874711Y-40848738D01*
X173924018Y-40899820D01*
X173937880Y-40969451D01*
X173911897Y-41035522D01*
X173882747Y-41062761D01*
X173855310Y-41081233D01*
X173760681Y-41144941D01*
X173756824Y-41148620D01*
X173756822Y-41148622D01*
X173688844Y-41213470D01*
X173593865Y-41304076D01*
X173456246Y-41489042D01*
X173351760Y-41694551D01*
X173350178Y-41699645D01*
X173350177Y-41699648D01*
X173288115Y-41899520D01*
X173283393Y-41914727D01*
X173282692Y-41920016D01*
X173256440Y-42118092D01*
X173253102Y-42143274D01*
X173261751Y-42373658D01*
X173309093Y-42599291D01*
X173311051Y-42604250D01*
X173311052Y-42604252D01*
X173359551Y-42727057D01*
X173393776Y-42813721D01*
X173396543Y-42818280D01*
X173396544Y-42818283D01*
X173458998Y-42921203D01*
X173513377Y-43010817D01*
X173516874Y-43014847D01*
X173603438Y-43114603D01*
X173664477Y-43184945D01*
X173668608Y-43188332D01*
X173838627Y-43327740D01*
X173838633Y-43327744D01*
X173842755Y-43331124D01*
X173874250Y-43349052D01*
X173923555Y-43400132D01*
X173937417Y-43469762D01*
X173911434Y-43535833D01*
X173882284Y-43563073D01*
X173760681Y-43644941D01*
X173593865Y-43804076D01*
X173456246Y-43989042D01*
X173453830Y-43993793D01*
X173453828Y-43993797D01*
X173432830Y-44035098D01*
X173351760Y-44194551D01*
X173350178Y-44199645D01*
X173350177Y-44199648D01*
X173288115Y-44399520D01*
X173283393Y-44414727D01*
X173282692Y-44420016D01*
X173267304Y-44536123D01*
X173253102Y-44643274D01*
X91948500Y-44643274D01*
X91948500Y-43580634D01*
X95811500Y-43580634D01*
X95818255Y-43642816D01*
X95869385Y-43779205D01*
X95956739Y-43895761D01*
X96073295Y-43983115D01*
X96209684Y-44034245D01*
X96271866Y-44041000D01*
X98468134Y-44041000D01*
X98530316Y-44034245D01*
X98666705Y-43983115D01*
X98783261Y-43895761D01*
X98870615Y-43779205D01*
X98880990Y-43751530D01*
X101545800Y-43751530D01*
X101551527Y-43759180D01*
X101736272Y-43872393D01*
X101745067Y-43876875D01*
X101962490Y-43966934D01*
X101971875Y-43969983D01*
X102200708Y-44024922D01*
X102210455Y-44026465D01*
X102445070Y-44044930D01*
X102454930Y-44044930D01*
X102689545Y-44026465D01*
X102699292Y-44024922D01*
X102928125Y-43969983D01*
X102937510Y-43966934D01*
X103154933Y-43876875D01*
X103163728Y-43872393D01*
X103344805Y-43761428D01*
X103354267Y-43750970D01*
X103350484Y-43742194D01*
X102462812Y-42854522D01*
X102448868Y-42846908D01*
X102447035Y-42847039D01*
X102440420Y-42851290D01*
X101552560Y-43739150D01*
X101545800Y-43751530D01*
X98880990Y-43751530D01*
X98921745Y-43642816D01*
X98928500Y-43580634D01*
X98928500Y-42487430D01*
X100887570Y-42487430D01*
X100906035Y-42722045D01*
X100907578Y-42731792D01*
X100962517Y-42960625D01*
X100965566Y-42970010D01*
X101055625Y-43187433D01*
X101060107Y-43196228D01*
X101171072Y-43377305D01*
X101181530Y-43386767D01*
X101190306Y-43382984D01*
X102077978Y-42495312D01*
X102084356Y-42483632D01*
X102814408Y-42483632D01*
X102814539Y-42485465D01*
X102818790Y-42492080D01*
X103706650Y-43379940D01*
X103719030Y-43386700D01*
X103726680Y-43380973D01*
X103839893Y-43196228D01*
X103844375Y-43187433D01*
X103934434Y-42970010D01*
X103937483Y-42960625D01*
X103992422Y-42731792D01*
X103993965Y-42722045D01*
X104012430Y-42487430D01*
X104012430Y-42482500D01*
X105966681Y-42482500D01*
X105985928Y-42727057D01*
X105987082Y-42731864D01*
X105987083Y-42731870D01*
X106023351Y-42882937D01*
X106043195Y-42965592D01*
X106137073Y-43192232D01*
X106220112Y-43327740D01*
X106234934Y-43351927D01*
X106265248Y-43401396D01*
X106268463Y-43405160D01*
X106268465Y-43405163D01*
X106323692Y-43469825D01*
X106424567Y-43587933D01*
X106428323Y-43591141D01*
X106605182Y-43742194D01*
X106611104Y-43747252D01*
X106615327Y-43749840D01*
X106615330Y-43749842D01*
X106634237Y-43761428D01*
X106820268Y-43875427D01*
X106964967Y-43935364D01*
X107042335Y-43967411D01*
X107042337Y-43967412D01*
X107046908Y-43969305D01*
X107081997Y-43977729D01*
X107280630Y-44025417D01*
X107280636Y-44025418D01*
X107285443Y-44026572D01*
X107530000Y-44045819D01*
X107774557Y-44026572D01*
X107779364Y-44025418D01*
X107779370Y-44025417D01*
X107978003Y-43977729D01*
X108013092Y-43969305D01*
X108017663Y-43967412D01*
X108017665Y-43967411D01*
X108095033Y-43935364D01*
X108239732Y-43875427D01*
X108425763Y-43761428D01*
X108441915Y-43751530D01*
X111705800Y-43751530D01*
X111711527Y-43759180D01*
X111896272Y-43872393D01*
X111905067Y-43876875D01*
X112122490Y-43966934D01*
X112131875Y-43969983D01*
X112360708Y-44024922D01*
X112370455Y-44026465D01*
X112605070Y-44044930D01*
X112614930Y-44044930D01*
X112849545Y-44026465D01*
X112859292Y-44024922D01*
X113088125Y-43969983D01*
X113097510Y-43966934D01*
X113314933Y-43876875D01*
X113323728Y-43872393D01*
X113504805Y-43761428D01*
X113514267Y-43750970D01*
X113510484Y-43742194D01*
X112622812Y-42854522D01*
X112608868Y-42846908D01*
X112607035Y-42847039D01*
X112600420Y-42851290D01*
X111712560Y-43739150D01*
X111705800Y-43751530D01*
X108441915Y-43751530D01*
X108444670Y-43749842D01*
X108444673Y-43749840D01*
X108448896Y-43747252D01*
X108454819Y-43742194D01*
X108631677Y-43591141D01*
X108635433Y-43587933D01*
X108736308Y-43469825D01*
X108791535Y-43405163D01*
X108791537Y-43405160D01*
X108794752Y-43401396D01*
X108825067Y-43351927D01*
X108839888Y-43327740D01*
X108922927Y-43192232D01*
X109016805Y-42965592D01*
X109036649Y-42882937D01*
X109072917Y-42731870D01*
X109072918Y-42731864D01*
X109074072Y-42727057D01*
X109092931Y-42487430D01*
X111047570Y-42487430D01*
X111066035Y-42722045D01*
X111067578Y-42731792D01*
X111122517Y-42960625D01*
X111125566Y-42970010D01*
X111215625Y-43187433D01*
X111220107Y-43196228D01*
X111331072Y-43377305D01*
X111341530Y-43386767D01*
X111350306Y-43382984D01*
X112237978Y-42495312D01*
X112244356Y-42483632D01*
X112974408Y-42483632D01*
X112974539Y-42485465D01*
X112978790Y-42492080D01*
X113866650Y-43379940D01*
X113879030Y-43386700D01*
X113886680Y-43380973D01*
X113999893Y-43196228D01*
X114004375Y-43187433D01*
X114094434Y-42970010D01*
X114097483Y-42960625D01*
X114152422Y-42731792D01*
X114153965Y-42722045D01*
X114172430Y-42487430D01*
X114172430Y-42482500D01*
X116126681Y-42482500D01*
X116145928Y-42727057D01*
X116147082Y-42731864D01*
X116147083Y-42731870D01*
X116183351Y-42882937D01*
X116203195Y-42965592D01*
X116297073Y-43192232D01*
X116380112Y-43327740D01*
X116394934Y-43351927D01*
X116425248Y-43401396D01*
X116428463Y-43405160D01*
X116428465Y-43405163D01*
X116483692Y-43469825D01*
X116584567Y-43587933D01*
X116588323Y-43591141D01*
X116765182Y-43742194D01*
X116771104Y-43747252D01*
X116775327Y-43749840D01*
X116775330Y-43749842D01*
X116794237Y-43761428D01*
X116980268Y-43875427D01*
X117124967Y-43935364D01*
X117202335Y-43967411D01*
X117202337Y-43967412D01*
X117206908Y-43969305D01*
X117241997Y-43977729D01*
X117440630Y-44025417D01*
X117440636Y-44025418D01*
X117445443Y-44026572D01*
X117690000Y-44045819D01*
X117934557Y-44026572D01*
X117939364Y-44025418D01*
X117939370Y-44025417D01*
X118138003Y-43977729D01*
X118173092Y-43969305D01*
X118177663Y-43967412D01*
X118177665Y-43967411D01*
X118255033Y-43935364D01*
X118399732Y-43875427D01*
X118585763Y-43761428D01*
X118604670Y-43749842D01*
X118604673Y-43749840D01*
X118608896Y-43747252D01*
X118614819Y-43742194D01*
X118791677Y-43591141D01*
X118795433Y-43587933D01*
X118896308Y-43469825D01*
X118951535Y-43405163D01*
X118951537Y-43405160D01*
X118954752Y-43401396D01*
X118985067Y-43351927D01*
X118999888Y-43327740D01*
X119082927Y-43192232D01*
X119176805Y-42965592D01*
X119196649Y-42882937D01*
X119232917Y-42731870D01*
X119232918Y-42731864D01*
X119234072Y-42727057D01*
X119253319Y-42482500D01*
X121206681Y-42482500D01*
X121225928Y-42727057D01*
X121227082Y-42731864D01*
X121227083Y-42731870D01*
X121263351Y-42882937D01*
X121283195Y-42965592D01*
X121377073Y-43192232D01*
X121460112Y-43327740D01*
X121474934Y-43351927D01*
X121505248Y-43401396D01*
X121508463Y-43405160D01*
X121508465Y-43405163D01*
X121563692Y-43469825D01*
X121664567Y-43587933D01*
X121668323Y-43591141D01*
X121845182Y-43742194D01*
X121851104Y-43747252D01*
X121855327Y-43749840D01*
X121855330Y-43749842D01*
X121874237Y-43761428D01*
X122060268Y-43875427D01*
X122204967Y-43935364D01*
X122282335Y-43967411D01*
X122282337Y-43967412D01*
X122286908Y-43969305D01*
X122321997Y-43977729D01*
X122520630Y-44025417D01*
X122520636Y-44025418D01*
X122525443Y-44026572D01*
X122770000Y-44045819D01*
X123014557Y-44026572D01*
X123019364Y-44025418D01*
X123019370Y-44025417D01*
X123218003Y-43977729D01*
X123253092Y-43969305D01*
X123257663Y-43967412D01*
X123257665Y-43967411D01*
X123335033Y-43935364D01*
X123479732Y-43875427D01*
X123665763Y-43761428D01*
X123684670Y-43749842D01*
X123684673Y-43749840D01*
X123688896Y-43747252D01*
X123694819Y-43742194D01*
X123871677Y-43591141D01*
X123875433Y-43587933D01*
X123881667Y-43580634D01*
X127531500Y-43580634D01*
X127538255Y-43642816D01*
X127589385Y-43779205D01*
X127676739Y-43895761D01*
X127793295Y-43983115D01*
X127929684Y-44034245D01*
X127991866Y-44041000D01*
X130188134Y-44041000D01*
X130250316Y-44034245D01*
X130386705Y-43983115D01*
X130503261Y-43895761D01*
X130590615Y-43779205D01*
X130600990Y-43751530D01*
X133265800Y-43751530D01*
X133271527Y-43759180D01*
X133456272Y-43872393D01*
X133465067Y-43876875D01*
X133682490Y-43966934D01*
X133691875Y-43969983D01*
X133920708Y-44024922D01*
X133930455Y-44026465D01*
X134165070Y-44044930D01*
X134174930Y-44044930D01*
X134409545Y-44026465D01*
X134419292Y-44024922D01*
X134648125Y-43969983D01*
X134657510Y-43966934D01*
X134874933Y-43876875D01*
X134883728Y-43872393D01*
X135064805Y-43761428D01*
X135074267Y-43750970D01*
X135070484Y-43742194D01*
X134182812Y-42854522D01*
X134168868Y-42846908D01*
X134167035Y-42847039D01*
X134160420Y-42851290D01*
X133272560Y-43739150D01*
X133265800Y-43751530D01*
X130600990Y-43751530D01*
X130641745Y-43642816D01*
X130648500Y-43580634D01*
X130648500Y-42487430D01*
X132607570Y-42487430D01*
X132626035Y-42722045D01*
X132627578Y-42731792D01*
X132682517Y-42960625D01*
X132685566Y-42970010D01*
X132775625Y-43187433D01*
X132780107Y-43196228D01*
X132891072Y-43377305D01*
X132901530Y-43386767D01*
X132910306Y-43382984D01*
X133797978Y-42495312D01*
X133804356Y-42483632D01*
X134534408Y-42483632D01*
X134534539Y-42485465D01*
X134538790Y-42492080D01*
X135426650Y-43379940D01*
X135439030Y-43386700D01*
X135446680Y-43380973D01*
X135559893Y-43196228D01*
X135564375Y-43187433D01*
X135654434Y-42970010D01*
X135657483Y-42960625D01*
X135712422Y-42731792D01*
X135713965Y-42722045D01*
X135732430Y-42487430D01*
X135732430Y-42482500D01*
X137686681Y-42482500D01*
X137705928Y-42727057D01*
X137707082Y-42731864D01*
X137707083Y-42731870D01*
X137743351Y-42882937D01*
X137763195Y-42965592D01*
X137857073Y-43192232D01*
X137940112Y-43327740D01*
X137954934Y-43351927D01*
X137985248Y-43401396D01*
X137988463Y-43405160D01*
X137988465Y-43405163D01*
X138043692Y-43469825D01*
X138144567Y-43587933D01*
X138148323Y-43591141D01*
X138325182Y-43742194D01*
X138331104Y-43747252D01*
X138335327Y-43749840D01*
X138335330Y-43749842D01*
X138354237Y-43761428D01*
X138540268Y-43875427D01*
X138684967Y-43935364D01*
X138762335Y-43967411D01*
X138762337Y-43967412D01*
X138766908Y-43969305D01*
X138801997Y-43977729D01*
X139000630Y-44025417D01*
X139000636Y-44025418D01*
X139005443Y-44026572D01*
X139250000Y-44045819D01*
X139494557Y-44026572D01*
X139499364Y-44025418D01*
X139499370Y-44025417D01*
X139698003Y-43977729D01*
X139733092Y-43969305D01*
X139737663Y-43967412D01*
X139737665Y-43967411D01*
X139815033Y-43935364D01*
X139959732Y-43875427D01*
X140145763Y-43761428D01*
X140161915Y-43751530D01*
X143425800Y-43751530D01*
X143431527Y-43759180D01*
X143616272Y-43872393D01*
X143625067Y-43876875D01*
X143842490Y-43966934D01*
X143851875Y-43969983D01*
X144080708Y-44024922D01*
X144090455Y-44026465D01*
X144325070Y-44044930D01*
X144334930Y-44044930D01*
X144569545Y-44026465D01*
X144579292Y-44024922D01*
X144808125Y-43969983D01*
X144817510Y-43966934D01*
X145034933Y-43876875D01*
X145043728Y-43872393D01*
X145224805Y-43761428D01*
X145234267Y-43750970D01*
X145230484Y-43742194D01*
X144342812Y-42854522D01*
X144328868Y-42846908D01*
X144327035Y-42847039D01*
X144320420Y-42851290D01*
X143432560Y-43739150D01*
X143425800Y-43751530D01*
X140161915Y-43751530D01*
X140164670Y-43749842D01*
X140164673Y-43749840D01*
X140168896Y-43747252D01*
X140174819Y-43742194D01*
X140351677Y-43591141D01*
X140355433Y-43587933D01*
X140456308Y-43469825D01*
X140511535Y-43405163D01*
X140511537Y-43405160D01*
X140514752Y-43401396D01*
X140545067Y-43351927D01*
X140559888Y-43327740D01*
X140642927Y-43192232D01*
X140736805Y-42965592D01*
X140756649Y-42882937D01*
X140792917Y-42731870D01*
X140792918Y-42731864D01*
X140794072Y-42727057D01*
X140812931Y-42487430D01*
X142767570Y-42487430D01*
X142786035Y-42722045D01*
X142787578Y-42731792D01*
X142842517Y-42960625D01*
X142845566Y-42970010D01*
X142935625Y-43187433D01*
X142940107Y-43196228D01*
X143051072Y-43377305D01*
X143061530Y-43386767D01*
X143070306Y-43382984D01*
X143957978Y-42495312D01*
X143964356Y-42483632D01*
X144694408Y-42483632D01*
X144694539Y-42485465D01*
X144698790Y-42492080D01*
X145586650Y-43379940D01*
X145599030Y-43386700D01*
X145606680Y-43380973D01*
X145719893Y-43196228D01*
X145724375Y-43187433D01*
X145814434Y-42970010D01*
X145817483Y-42960625D01*
X145872422Y-42731792D01*
X145873965Y-42722045D01*
X145892430Y-42487430D01*
X145892430Y-42482500D01*
X147846681Y-42482500D01*
X147865928Y-42727057D01*
X147867082Y-42731864D01*
X147867083Y-42731870D01*
X147903351Y-42882937D01*
X147923195Y-42965592D01*
X148017073Y-43192232D01*
X148100112Y-43327740D01*
X148114934Y-43351927D01*
X148145248Y-43401396D01*
X148148463Y-43405160D01*
X148148465Y-43405163D01*
X148203692Y-43469825D01*
X148304567Y-43587933D01*
X148308323Y-43591141D01*
X148485182Y-43742194D01*
X148491104Y-43747252D01*
X148495327Y-43749840D01*
X148495330Y-43749842D01*
X148514237Y-43761428D01*
X148700268Y-43875427D01*
X148844967Y-43935364D01*
X148922335Y-43967411D01*
X148922337Y-43967412D01*
X148926908Y-43969305D01*
X148961997Y-43977729D01*
X149160630Y-44025417D01*
X149160636Y-44025418D01*
X149165443Y-44026572D01*
X149410000Y-44045819D01*
X149654557Y-44026572D01*
X149659364Y-44025418D01*
X149659370Y-44025417D01*
X149858003Y-43977729D01*
X149893092Y-43969305D01*
X149897663Y-43967412D01*
X149897665Y-43967411D01*
X149975033Y-43935364D01*
X150119732Y-43875427D01*
X150305763Y-43761428D01*
X150321915Y-43751530D01*
X153585800Y-43751530D01*
X153591527Y-43759180D01*
X153776272Y-43872393D01*
X153785067Y-43876875D01*
X154002490Y-43966934D01*
X154011875Y-43969983D01*
X154240708Y-44024922D01*
X154250455Y-44026465D01*
X154485070Y-44044930D01*
X154494930Y-44044930D01*
X154729545Y-44026465D01*
X154739292Y-44024922D01*
X154968125Y-43969983D01*
X154977510Y-43966934D01*
X155194933Y-43876875D01*
X155203728Y-43872393D01*
X155384805Y-43761428D01*
X155394267Y-43750970D01*
X155390484Y-43742194D01*
X154502812Y-42854522D01*
X154488868Y-42846908D01*
X154487035Y-42847039D01*
X154480420Y-42851290D01*
X153592560Y-43739150D01*
X153585800Y-43751530D01*
X150321915Y-43751530D01*
X150324670Y-43749842D01*
X150324673Y-43749840D01*
X150328896Y-43747252D01*
X150334819Y-43742194D01*
X150511677Y-43591141D01*
X150515433Y-43587933D01*
X150616308Y-43469825D01*
X150671535Y-43405163D01*
X150671537Y-43405160D01*
X150674752Y-43401396D01*
X150705067Y-43351927D01*
X150719888Y-43327740D01*
X150802927Y-43192232D01*
X150896805Y-42965592D01*
X150916649Y-42882937D01*
X150952917Y-42731870D01*
X150952918Y-42731864D01*
X150954072Y-42727057D01*
X150972931Y-42487430D01*
X152927570Y-42487430D01*
X152946035Y-42722045D01*
X152947578Y-42731792D01*
X153002517Y-42960625D01*
X153005566Y-42970010D01*
X153095625Y-43187433D01*
X153100107Y-43196228D01*
X153211072Y-43377305D01*
X153221530Y-43386767D01*
X153230306Y-43382984D01*
X154117978Y-42495312D01*
X154124356Y-42483632D01*
X154854408Y-42483632D01*
X154854539Y-42485465D01*
X154858790Y-42492080D01*
X155746650Y-43379940D01*
X155759030Y-43386700D01*
X155766680Y-43380973D01*
X155879893Y-43196228D01*
X155884375Y-43187433D01*
X155974434Y-42970010D01*
X155977483Y-42960625D01*
X156032422Y-42731792D01*
X156033965Y-42722045D01*
X156052430Y-42487430D01*
X156052430Y-42482500D01*
X158006681Y-42482500D01*
X158025928Y-42727057D01*
X158027082Y-42731864D01*
X158027083Y-42731870D01*
X158063351Y-42882937D01*
X158083195Y-42965592D01*
X158177073Y-43192232D01*
X158260112Y-43327740D01*
X158274934Y-43351927D01*
X158305248Y-43401396D01*
X158308463Y-43405160D01*
X158308465Y-43405163D01*
X158363692Y-43469825D01*
X158464567Y-43587933D01*
X158468323Y-43591141D01*
X158645182Y-43742194D01*
X158651104Y-43747252D01*
X158655327Y-43749840D01*
X158655330Y-43749842D01*
X158674237Y-43761428D01*
X158860268Y-43875427D01*
X159004967Y-43935364D01*
X159082335Y-43967411D01*
X159082337Y-43967412D01*
X159086908Y-43969305D01*
X159121997Y-43977729D01*
X159320630Y-44025417D01*
X159320636Y-44025418D01*
X159325443Y-44026572D01*
X159570000Y-44045819D01*
X159814557Y-44026572D01*
X159819364Y-44025418D01*
X159819370Y-44025417D01*
X160018003Y-43977729D01*
X160053092Y-43969305D01*
X160057663Y-43967412D01*
X160057665Y-43967411D01*
X160135033Y-43935364D01*
X160279732Y-43875427D01*
X160465763Y-43761428D01*
X160481915Y-43751530D01*
X163745800Y-43751530D01*
X163751527Y-43759180D01*
X163936272Y-43872393D01*
X163945067Y-43876875D01*
X164162490Y-43966934D01*
X164171875Y-43969983D01*
X164400708Y-44024922D01*
X164410455Y-44026465D01*
X164645070Y-44044930D01*
X164654930Y-44044930D01*
X164889545Y-44026465D01*
X164899292Y-44024922D01*
X165128125Y-43969983D01*
X165137510Y-43966934D01*
X165354933Y-43876875D01*
X165363728Y-43872393D01*
X165544805Y-43761428D01*
X165554267Y-43750970D01*
X165550484Y-43742194D01*
X164662812Y-42854522D01*
X164648868Y-42846908D01*
X164647035Y-42847039D01*
X164640420Y-42851290D01*
X163752560Y-43739150D01*
X163745800Y-43751530D01*
X160481915Y-43751530D01*
X160484670Y-43749842D01*
X160484673Y-43749840D01*
X160488896Y-43747252D01*
X160494819Y-43742194D01*
X160671677Y-43591141D01*
X160675433Y-43587933D01*
X160776308Y-43469825D01*
X160831535Y-43405163D01*
X160831537Y-43405160D01*
X160834752Y-43401396D01*
X160865067Y-43351927D01*
X160879888Y-43327740D01*
X160962927Y-43192232D01*
X161056805Y-42965592D01*
X161076649Y-42882937D01*
X161112917Y-42731870D01*
X161112918Y-42731864D01*
X161114072Y-42727057D01*
X161132931Y-42487430D01*
X163087570Y-42487430D01*
X163106035Y-42722045D01*
X163107578Y-42731792D01*
X163162517Y-42960625D01*
X163165566Y-42970010D01*
X163255625Y-43187433D01*
X163260107Y-43196228D01*
X163371072Y-43377305D01*
X163381530Y-43386767D01*
X163390306Y-43382984D01*
X164277978Y-42495312D01*
X164284356Y-42483632D01*
X165014408Y-42483632D01*
X165014539Y-42485465D01*
X165018790Y-42492080D01*
X165906650Y-43379940D01*
X165919030Y-43386700D01*
X165926680Y-43380973D01*
X166039893Y-43196228D01*
X166044375Y-43187433D01*
X166134434Y-42970010D01*
X166137483Y-42960625D01*
X166192422Y-42731792D01*
X166193965Y-42722045D01*
X166212430Y-42487430D01*
X166212430Y-42477570D01*
X166193965Y-42242955D01*
X166192422Y-42233208D01*
X166137483Y-42004375D01*
X166134434Y-41994990D01*
X166044375Y-41777567D01*
X166039893Y-41768772D01*
X165928928Y-41587695D01*
X165918470Y-41578233D01*
X165909694Y-41582016D01*
X165022022Y-42469688D01*
X165014408Y-42483632D01*
X164284356Y-42483632D01*
X164285592Y-42481368D01*
X164285461Y-42479535D01*
X164281210Y-42472920D01*
X163393350Y-41585060D01*
X163380970Y-41578300D01*
X163373320Y-41584027D01*
X163260107Y-41768772D01*
X163255625Y-41777567D01*
X163165566Y-41994990D01*
X163162517Y-42004375D01*
X163107578Y-42233208D01*
X163106035Y-42242955D01*
X163087570Y-42477570D01*
X163087570Y-42487430D01*
X161132931Y-42487430D01*
X161133319Y-42482500D01*
X161114072Y-42237943D01*
X161085299Y-42118092D01*
X161057960Y-42004220D01*
X161056805Y-41999408D01*
X160962927Y-41772768D01*
X160834752Y-41563604D01*
X160771070Y-41489042D01*
X160678641Y-41380823D01*
X160675433Y-41377067D01*
X160499340Y-41226668D01*
X160492663Y-41220965D01*
X160492660Y-41220963D01*
X160488896Y-41217748D01*
X160484673Y-41215160D01*
X160484670Y-41215158D01*
X160482829Y-41214030D01*
X163745733Y-41214030D01*
X163749516Y-41222806D01*
X164637188Y-42110478D01*
X164651132Y-42118092D01*
X164652965Y-42117961D01*
X164659580Y-42113710D01*
X165547440Y-41225850D01*
X165554200Y-41213470D01*
X165548473Y-41205820D01*
X165363728Y-41092607D01*
X165354933Y-41088125D01*
X165137510Y-40998066D01*
X165128125Y-40995017D01*
X164899292Y-40940078D01*
X164889545Y-40938535D01*
X164654930Y-40920070D01*
X164645070Y-40920070D01*
X164410455Y-40938535D01*
X164400708Y-40940078D01*
X164171875Y-40995017D01*
X164162490Y-40998066D01*
X163945067Y-41088125D01*
X163936272Y-41092607D01*
X163755195Y-41203572D01*
X163745733Y-41214030D01*
X160482829Y-41214030D01*
X160365222Y-41141961D01*
X160279732Y-41089573D01*
X160102566Y-41016188D01*
X160057665Y-40997589D01*
X160057663Y-40997588D01*
X160053092Y-40995695D01*
X159970437Y-40975851D01*
X159819370Y-40939583D01*
X159819364Y-40939582D01*
X159814557Y-40938428D01*
X159570000Y-40919181D01*
X159325443Y-40938428D01*
X159320636Y-40939582D01*
X159320630Y-40939583D01*
X159169563Y-40975851D01*
X159086908Y-40995695D01*
X159082337Y-40997588D01*
X159082335Y-40997589D01*
X159037434Y-41016188D01*
X158860268Y-41089573D01*
X158774778Y-41141961D01*
X158655330Y-41215158D01*
X158655327Y-41215160D01*
X158651104Y-41217748D01*
X158647340Y-41220963D01*
X158647337Y-41220965D01*
X158640660Y-41226668D01*
X158464567Y-41377067D01*
X158461359Y-41380823D01*
X158368931Y-41489042D01*
X158305248Y-41563604D01*
X158177073Y-41772768D01*
X158083195Y-41999408D01*
X158082040Y-42004220D01*
X158054702Y-42118092D01*
X158025928Y-42237943D01*
X158006681Y-42482500D01*
X156052430Y-42482500D01*
X156052430Y-42477570D01*
X156033965Y-42242955D01*
X156032422Y-42233208D01*
X155977483Y-42004375D01*
X155974434Y-41994990D01*
X155884375Y-41777567D01*
X155879893Y-41768772D01*
X155768928Y-41587695D01*
X155758470Y-41578233D01*
X155749694Y-41582016D01*
X154862022Y-42469688D01*
X154854408Y-42483632D01*
X154124356Y-42483632D01*
X154125592Y-42481368D01*
X154125461Y-42479535D01*
X154121210Y-42472920D01*
X153233350Y-41585060D01*
X153220970Y-41578300D01*
X153213320Y-41584027D01*
X153100107Y-41768772D01*
X153095625Y-41777567D01*
X153005566Y-41994990D01*
X153002517Y-42004375D01*
X152947578Y-42233208D01*
X152946035Y-42242955D01*
X152927570Y-42477570D01*
X152927570Y-42487430D01*
X150972931Y-42487430D01*
X150973319Y-42482500D01*
X150954072Y-42237943D01*
X150925299Y-42118092D01*
X150897960Y-42004220D01*
X150896805Y-41999408D01*
X150802927Y-41772768D01*
X150674752Y-41563604D01*
X150611070Y-41489042D01*
X150518641Y-41380823D01*
X150515433Y-41377067D01*
X150339340Y-41226668D01*
X150332663Y-41220965D01*
X150332660Y-41220963D01*
X150328896Y-41217748D01*
X150324673Y-41215160D01*
X150324670Y-41215158D01*
X150322829Y-41214030D01*
X153585733Y-41214030D01*
X153589516Y-41222806D01*
X154477188Y-42110478D01*
X154491132Y-42118092D01*
X154492965Y-42117961D01*
X154499580Y-42113710D01*
X155387440Y-41225850D01*
X155394200Y-41213470D01*
X155388473Y-41205820D01*
X155203728Y-41092607D01*
X155194933Y-41088125D01*
X154977510Y-40998066D01*
X154968125Y-40995017D01*
X154739292Y-40940078D01*
X154729545Y-40938535D01*
X154494930Y-40920070D01*
X154485070Y-40920070D01*
X154250455Y-40938535D01*
X154240708Y-40940078D01*
X154011875Y-40995017D01*
X154002490Y-40998066D01*
X153785067Y-41088125D01*
X153776272Y-41092607D01*
X153595195Y-41203572D01*
X153585733Y-41214030D01*
X150322829Y-41214030D01*
X150205222Y-41141961D01*
X150119732Y-41089573D01*
X149942566Y-41016188D01*
X149897665Y-40997589D01*
X149897663Y-40997588D01*
X149893092Y-40995695D01*
X149810437Y-40975851D01*
X149659370Y-40939583D01*
X149659364Y-40939582D01*
X149654557Y-40938428D01*
X149410000Y-40919181D01*
X149165443Y-40938428D01*
X149160636Y-40939582D01*
X149160630Y-40939583D01*
X149009563Y-40975851D01*
X148926908Y-40995695D01*
X148922337Y-40997588D01*
X148922335Y-40997589D01*
X148877434Y-41016188D01*
X148700268Y-41089573D01*
X148614778Y-41141961D01*
X148495330Y-41215158D01*
X148495327Y-41215160D01*
X148491104Y-41217748D01*
X148487340Y-41220963D01*
X148487337Y-41220965D01*
X148480660Y-41226668D01*
X148304567Y-41377067D01*
X148301359Y-41380823D01*
X148208931Y-41489042D01*
X148145248Y-41563604D01*
X148017073Y-41772768D01*
X147923195Y-41999408D01*
X147922040Y-42004220D01*
X147894702Y-42118092D01*
X147865928Y-42237943D01*
X147846681Y-42482500D01*
X145892430Y-42482500D01*
X145892430Y-42477570D01*
X145873965Y-42242955D01*
X145872422Y-42233208D01*
X145817483Y-42004375D01*
X145814434Y-41994990D01*
X145724375Y-41777567D01*
X145719893Y-41768772D01*
X145608928Y-41587695D01*
X145598470Y-41578233D01*
X145589694Y-41582016D01*
X144702022Y-42469688D01*
X144694408Y-42483632D01*
X143964356Y-42483632D01*
X143965592Y-42481368D01*
X143965461Y-42479535D01*
X143961210Y-42472920D01*
X143073350Y-41585060D01*
X143060970Y-41578300D01*
X143053320Y-41584027D01*
X142940107Y-41768772D01*
X142935625Y-41777567D01*
X142845566Y-41994990D01*
X142842517Y-42004375D01*
X142787578Y-42233208D01*
X142786035Y-42242955D01*
X142767570Y-42477570D01*
X142767570Y-42487430D01*
X140812931Y-42487430D01*
X140813319Y-42482500D01*
X140794072Y-42237943D01*
X140765299Y-42118092D01*
X140737960Y-42004220D01*
X140736805Y-41999408D01*
X140642927Y-41772768D01*
X140514752Y-41563604D01*
X140451070Y-41489042D01*
X140358641Y-41380823D01*
X140355433Y-41377067D01*
X140179340Y-41226668D01*
X140172663Y-41220965D01*
X140172660Y-41220963D01*
X140168896Y-41217748D01*
X140164673Y-41215160D01*
X140164670Y-41215158D01*
X140162829Y-41214030D01*
X143425733Y-41214030D01*
X143429516Y-41222806D01*
X144317188Y-42110478D01*
X144331132Y-42118092D01*
X144332965Y-42117961D01*
X144339580Y-42113710D01*
X145227440Y-41225850D01*
X145234200Y-41213470D01*
X145228473Y-41205820D01*
X145043728Y-41092607D01*
X145034933Y-41088125D01*
X144817510Y-40998066D01*
X144808125Y-40995017D01*
X144579292Y-40940078D01*
X144569545Y-40938535D01*
X144334930Y-40920070D01*
X144325070Y-40920070D01*
X144090455Y-40938535D01*
X144080708Y-40940078D01*
X143851875Y-40995017D01*
X143842490Y-40998066D01*
X143625067Y-41088125D01*
X143616272Y-41092607D01*
X143435195Y-41203572D01*
X143425733Y-41214030D01*
X140162829Y-41214030D01*
X140045222Y-41141961D01*
X139959732Y-41089573D01*
X139782566Y-41016188D01*
X139737665Y-40997589D01*
X139737663Y-40997588D01*
X139733092Y-40995695D01*
X139650437Y-40975851D01*
X139499370Y-40939583D01*
X139499364Y-40939582D01*
X139494557Y-40938428D01*
X139250000Y-40919181D01*
X139005443Y-40938428D01*
X139000636Y-40939582D01*
X139000630Y-40939583D01*
X138849563Y-40975851D01*
X138766908Y-40995695D01*
X138762337Y-40997588D01*
X138762335Y-40997589D01*
X138717434Y-41016188D01*
X138540268Y-41089573D01*
X138454778Y-41141961D01*
X138335330Y-41215158D01*
X138335327Y-41215160D01*
X138331104Y-41217748D01*
X138327340Y-41220963D01*
X138327337Y-41220965D01*
X138320660Y-41226668D01*
X138144567Y-41377067D01*
X138141359Y-41380823D01*
X138048931Y-41489042D01*
X137985248Y-41563604D01*
X137857073Y-41772768D01*
X137763195Y-41999408D01*
X137762040Y-42004220D01*
X137734702Y-42118092D01*
X137705928Y-42237943D01*
X137686681Y-42482500D01*
X135732430Y-42482500D01*
X135732430Y-42477570D01*
X135713965Y-42242955D01*
X135712422Y-42233208D01*
X135657483Y-42004375D01*
X135654434Y-41994990D01*
X135564375Y-41777567D01*
X135559893Y-41768772D01*
X135448928Y-41587695D01*
X135438470Y-41578233D01*
X135429694Y-41582016D01*
X134542022Y-42469688D01*
X134534408Y-42483632D01*
X133804356Y-42483632D01*
X133805592Y-42481368D01*
X133805461Y-42479535D01*
X133801210Y-42472920D01*
X132913350Y-41585060D01*
X132900970Y-41578300D01*
X132893320Y-41584027D01*
X132780107Y-41768772D01*
X132775625Y-41777567D01*
X132685566Y-41994990D01*
X132682517Y-42004375D01*
X132627578Y-42233208D01*
X132626035Y-42242955D01*
X132607570Y-42477570D01*
X132607570Y-42487430D01*
X130648500Y-42487430D01*
X130648500Y-41384366D01*
X130641745Y-41322184D01*
X130601200Y-41214030D01*
X133265733Y-41214030D01*
X133269516Y-41222806D01*
X134157188Y-42110478D01*
X134171132Y-42118092D01*
X134172965Y-42117961D01*
X134179580Y-42113710D01*
X135067440Y-41225850D01*
X135074200Y-41213470D01*
X135068473Y-41205820D01*
X134883728Y-41092607D01*
X134874933Y-41088125D01*
X134657510Y-40998066D01*
X134648125Y-40995017D01*
X134419292Y-40940078D01*
X134409545Y-40938535D01*
X134174930Y-40920070D01*
X134165070Y-40920070D01*
X133930455Y-40938535D01*
X133920708Y-40940078D01*
X133691875Y-40995017D01*
X133682490Y-40998066D01*
X133465067Y-41088125D01*
X133456272Y-41092607D01*
X133275195Y-41203572D01*
X133265733Y-41214030D01*
X130601200Y-41214030D01*
X130590615Y-41185795D01*
X130503261Y-41069239D01*
X130386705Y-40981885D01*
X130250316Y-40930755D01*
X130188134Y-40924000D01*
X127991866Y-40924000D01*
X127929684Y-40930755D01*
X127793295Y-40981885D01*
X127676739Y-41069239D01*
X127589385Y-41185795D01*
X127538255Y-41322184D01*
X127531500Y-41384366D01*
X127531500Y-43580634D01*
X123881667Y-43580634D01*
X123976308Y-43469825D01*
X124031535Y-43405163D01*
X124031537Y-43405160D01*
X124034752Y-43401396D01*
X124065067Y-43351927D01*
X124079888Y-43327740D01*
X124162927Y-43192232D01*
X124256805Y-42965592D01*
X124276649Y-42882937D01*
X124312917Y-42731870D01*
X124312918Y-42731864D01*
X124314072Y-42727057D01*
X124333319Y-42482500D01*
X124314072Y-42237943D01*
X124285299Y-42118092D01*
X124257960Y-42004220D01*
X124256805Y-41999408D01*
X124162927Y-41772768D01*
X124034752Y-41563604D01*
X123971070Y-41489042D01*
X123878641Y-41380823D01*
X123875433Y-41377067D01*
X123699340Y-41226668D01*
X123692663Y-41220965D01*
X123692660Y-41220963D01*
X123688896Y-41217748D01*
X123684673Y-41215160D01*
X123684670Y-41215158D01*
X123565222Y-41141961D01*
X123479732Y-41089573D01*
X123302566Y-41016188D01*
X123257665Y-40997589D01*
X123257663Y-40997588D01*
X123253092Y-40995695D01*
X123170437Y-40975851D01*
X123019370Y-40939583D01*
X123019364Y-40939582D01*
X123014557Y-40938428D01*
X122770000Y-40919181D01*
X122525443Y-40938428D01*
X122520636Y-40939582D01*
X122520630Y-40939583D01*
X122369563Y-40975851D01*
X122286908Y-40995695D01*
X122282337Y-40997588D01*
X122282335Y-40997589D01*
X122237434Y-41016188D01*
X122060268Y-41089573D01*
X121974778Y-41141961D01*
X121855330Y-41215158D01*
X121855327Y-41215160D01*
X121851104Y-41217748D01*
X121847340Y-41220963D01*
X121847337Y-41220965D01*
X121840660Y-41226668D01*
X121664567Y-41377067D01*
X121661359Y-41380823D01*
X121568931Y-41489042D01*
X121505248Y-41563604D01*
X121377073Y-41772768D01*
X121283195Y-41999408D01*
X121282040Y-42004220D01*
X121254702Y-42118092D01*
X121225928Y-42237943D01*
X121206681Y-42482500D01*
X119253319Y-42482500D01*
X119234072Y-42237943D01*
X119205299Y-42118092D01*
X119177960Y-42004220D01*
X119176805Y-41999408D01*
X119082927Y-41772768D01*
X118954752Y-41563604D01*
X118891070Y-41489042D01*
X118798641Y-41380823D01*
X118795433Y-41377067D01*
X118619340Y-41226668D01*
X118612663Y-41220965D01*
X118612660Y-41220963D01*
X118608896Y-41217748D01*
X118604673Y-41215160D01*
X118604670Y-41215158D01*
X118485222Y-41141961D01*
X118399732Y-41089573D01*
X118222566Y-41016188D01*
X118177665Y-40997589D01*
X118177663Y-40997588D01*
X118173092Y-40995695D01*
X118090437Y-40975851D01*
X117939370Y-40939583D01*
X117939364Y-40939582D01*
X117934557Y-40938428D01*
X117690000Y-40919181D01*
X117445443Y-40938428D01*
X117440636Y-40939582D01*
X117440630Y-40939583D01*
X117289563Y-40975851D01*
X117206908Y-40995695D01*
X117202337Y-40997588D01*
X117202335Y-40997589D01*
X117157434Y-41016188D01*
X116980268Y-41089573D01*
X116894778Y-41141961D01*
X116775330Y-41215158D01*
X116775327Y-41215160D01*
X116771104Y-41217748D01*
X116767340Y-41220963D01*
X116767337Y-41220965D01*
X116760660Y-41226668D01*
X116584567Y-41377067D01*
X116581359Y-41380823D01*
X116488931Y-41489042D01*
X116425248Y-41563604D01*
X116297073Y-41772768D01*
X116203195Y-41999408D01*
X116202040Y-42004220D01*
X116174702Y-42118092D01*
X116145928Y-42237943D01*
X116126681Y-42482500D01*
X114172430Y-42482500D01*
X114172430Y-42477570D01*
X114153965Y-42242955D01*
X114152422Y-42233208D01*
X114097483Y-42004375D01*
X114094434Y-41994990D01*
X114004375Y-41777567D01*
X113999893Y-41768772D01*
X113888928Y-41587695D01*
X113878470Y-41578233D01*
X113869694Y-41582016D01*
X112982022Y-42469688D01*
X112974408Y-42483632D01*
X112244356Y-42483632D01*
X112245592Y-42481368D01*
X112245461Y-42479535D01*
X112241210Y-42472920D01*
X111353350Y-41585060D01*
X111340970Y-41578300D01*
X111333320Y-41584027D01*
X111220107Y-41768772D01*
X111215625Y-41777567D01*
X111125566Y-41994990D01*
X111122517Y-42004375D01*
X111067578Y-42233208D01*
X111066035Y-42242955D01*
X111047570Y-42477570D01*
X111047570Y-42487430D01*
X109092931Y-42487430D01*
X109093319Y-42482500D01*
X109074072Y-42237943D01*
X109045299Y-42118092D01*
X109017960Y-42004220D01*
X109016805Y-41999408D01*
X108922927Y-41772768D01*
X108794752Y-41563604D01*
X108731070Y-41489042D01*
X108638641Y-41380823D01*
X108635433Y-41377067D01*
X108459340Y-41226668D01*
X108452663Y-41220965D01*
X108452660Y-41220963D01*
X108448896Y-41217748D01*
X108444673Y-41215160D01*
X108444670Y-41215158D01*
X108442829Y-41214030D01*
X111705733Y-41214030D01*
X111709516Y-41222806D01*
X112597188Y-42110478D01*
X112611132Y-42118092D01*
X112612965Y-42117961D01*
X112619580Y-42113710D01*
X113507440Y-41225850D01*
X113514200Y-41213470D01*
X113508473Y-41205820D01*
X113323728Y-41092607D01*
X113314933Y-41088125D01*
X113097510Y-40998066D01*
X113088125Y-40995017D01*
X112859292Y-40940078D01*
X112849545Y-40938535D01*
X112614930Y-40920070D01*
X112605070Y-40920070D01*
X112370455Y-40938535D01*
X112360708Y-40940078D01*
X112131875Y-40995017D01*
X112122490Y-40998066D01*
X111905067Y-41088125D01*
X111896272Y-41092607D01*
X111715195Y-41203572D01*
X111705733Y-41214030D01*
X108442829Y-41214030D01*
X108325222Y-41141961D01*
X108239732Y-41089573D01*
X108062566Y-41016188D01*
X108017665Y-40997589D01*
X108017663Y-40997588D01*
X108013092Y-40995695D01*
X107930437Y-40975851D01*
X107779370Y-40939583D01*
X107779364Y-40939582D01*
X107774557Y-40938428D01*
X107530000Y-40919181D01*
X107285443Y-40938428D01*
X107280636Y-40939582D01*
X107280630Y-40939583D01*
X107129563Y-40975851D01*
X107046908Y-40995695D01*
X107042337Y-40997588D01*
X107042335Y-40997589D01*
X106997434Y-41016188D01*
X106820268Y-41089573D01*
X106734778Y-41141961D01*
X106615330Y-41215158D01*
X106615327Y-41215160D01*
X106611104Y-41217748D01*
X106607340Y-41220963D01*
X106607337Y-41220965D01*
X106600660Y-41226668D01*
X106424567Y-41377067D01*
X106421359Y-41380823D01*
X106328931Y-41489042D01*
X106265248Y-41563604D01*
X106137073Y-41772768D01*
X106043195Y-41999408D01*
X106042040Y-42004220D01*
X106014702Y-42118092D01*
X105985928Y-42237943D01*
X105966681Y-42482500D01*
X104012430Y-42482500D01*
X104012430Y-42477570D01*
X103993965Y-42242955D01*
X103992422Y-42233208D01*
X103937483Y-42004375D01*
X103934434Y-41994990D01*
X103844375Y-41777567D01*
X103839893Y-41768772D01*
X103728928Y-41587695D01*
X103718470Y-41578233D01*
X103709694Y-41582016D01*
X102822022Y-42469688D01*
X102814408Y-42483632D01*
X102084356Y-42483632D01*
X102085592Y-42481368D01*
X102085461Y-42479535D01*
X102081210Y-42472920D01*
X101193350Y-41585060D01*
X101180970Y-41578300D01*
X101173320Y-41584027D01*
X101060107Y-41768772D01*
X101055625Y-41777567D01*
X100965566Y-41994990D01*
X100962517Y-42004375D01*
X100907578Y-42233208D01*
X100906035Y-42242955D01*
X100887570Y-42477570D01*
X100887570Y-42487430D01*
X98928500Y-42487430D01*
X98928500Y-41384366D01*
X98921745Y-41322184D01*
X98881200Y-41214030D01*
X101545733Y-41214030D01*
X101549516Y-41222806D01*
X102437188Y-42110478D01*
X102451132Y-42118092D01*
X102452965Y-42117961D01*
X102459580Y-42113710D01*
X103347440Y-41225850D01*
X103354200Y-41213470D01*
X103348473Y-41205820D01*
X103163728Y-41092607D01*
X103154933Y-41088125D01*
X102937510Y-40998066D01*
X102928125Y-40995017D01*
X102699292Y-40940078D01*
X102689545Y-40938535D01*
X102454930Y-40920070D01*
X102445070Y-40920070D01*
X102210455Y-40938535D01*
X102200708Y-40940078D01*
X101971875Y-40995017D01*
X101962490Y-40998066D01*
X101745067Y-41088125D01*
X101736272Y-41092607D01*
X101555195Y-41203572D01*
X101545733Y-41214030D01*
X98881200Y-41214030D01*
X98870615Y-41185795D01*
X98783261Y-41069239D01*
X98666705Y-40981885D01*
X98530316Y-40930755D01*
X98468134Y-40924000D01*
X96271866Y-40924000D01*
X96209684Y-40930755D01*
X96073295Y-40981885D01*
X95956739Y-41069239D01*
X95869385Y-41185795D01*
X95818255Y-41322184D01*
X95811500Y-41384366D01*
X95811500Y-43580634D01*
X91948500Y-43580634D01*
X91948500Y-39435543D01*
X173281139Y-39435543D01*
X173283335Y-39449707D01*
X173296522Y-39453500D01*
X174467885Y-39453500D01*
X174483124Y-39449025D01*
X174484329Y-39447635D01*
X174486000Y-39439952D01*
X174486000Y-39435385D01*
X174994000Y-39435385D01*
X174998475Y-39450624D01*
X174999865Y-39451829D01*
X175007548Y-39453500D01*
X176181192Y-39453500D01*
X176194723Y-39449527D01*
X176196248Y-39438920D01*
X176171523Y-39321079D01*
X176168463Y-39310883D01*
X176087737Y-39106471D01*
X176083006Y-39096939D01*
X175968984Y-38909038D01*
X175962720Y-38900448D01*
X175818673Y-38734448D01*
X175811042Y-38727028D01*
X175641089Y-38587674D01*
X175632322Y-38581650D01*
X175441318Y-38472924D01*
X175431654Y-38468459D01*
X175225059Y-38393469D01*
X175214792Y-38390698D01*
X175011826Y-38353996D01*
X174998586Y-38355415D01*
X174994000Y-38370050D01*
X174994000Y-39435385D01*
X174486000Y-39435385D01*
X174486000Y-38373651D01*
X174481690Y-38358973D01*
X174469807Y-38356910D01*
X174390675Y-38363624D01*
X174380203Y-38365414D01*
X174167465Y-38420630D01*
X174157425Y-38424165D01*
X173957030Y-38514437D01*
X173947744Y-38519606D01*
X173765425Y-38642350D01*
X173757130Y-38649019D01*
X173598100Y-38800728D01*
X173591059Y-38808686D01*
X173459859Y-38985025D01*
X173454255Y-38994062D01*
X173354643Y-39189984D01*
X173350643Y-39199835D01*
X173285466Y-39409740D01*
X173283183Y-39420124D01*
X173281139Y-39435543D01*
X91948500Y-39435543D01*
X91948500Y-36194500D01*
X91968502Y-36126379D01*
X92022158Y-36079886D01*
X92074500Y-36068500D01*
X179705500Y-36068500D01*
X179773621Y-36088502D01*
G37*
%TD.AperFunction*%
%TD*%
M02*
