M48
; DRILL file {KiCad (6.0.4)} date Tue Dec  6 21:14:30 2022
; FORMAT={-:-/ absolute / inch / decimal}
; #@! TF.CreationDate,2022-12-06T21:14:30+05:00
; #@! TF.GenerationSoftware,Kicad,Pcbnew,(6.0.4)
; #@! TF.FileFunction,Plated,1,2,PTH
FMAT,2
INCH
; #@! TA.AperFunction,Plated,PTH,ComponentDrill
T1C0.0315
; #@! TA.AperFunction,Plated,PTH,ComponentDrill
T2C0.0354
; #@! TA.AperFunction,Plated,PTH,ComponentDrill
T3C0.0374
; #@! TA.AperFunction,Plated,PTH,ComponentDrill
T4C0.0394
; #@! TA.AperFunction,Plated,PTH,ComponentDrill
T5C0.0409
; #@! TA.AperFunction,Plated,PTH,ComponentDrill
T6C0.0433
; #@! TA.AperFunction,Plated,PTH,ComponentDrill
T7C0.0551
%
G90
G05
T1
X3.7669Y-2.353
X3.7669Y-2.453
X3.7669Y-2.553
X4.0669Y-2.353
X4.0669Y-2.453
X4.0669Y-2.553
X4.4654Y-2.0276
X4.8654Y-2.0276
X6.4484Y-4.2535
X6.8484Y-4.2535
T2
X6.2236Y-4.1702
X6.2236Y-4.2702
T3
X3.8311Y-4.3
X3.9295Y-4.3
X4.028Y-4.3
X6.8795Y-1.5633
X6.8795Y-1.6617
X6.8795Y-1.7601
X6.8795Y-1.8586
T4
X6.8862Y-2.3906
X6.8862Y-2.4906
T5
X4.9275Y-2.4697
X4.9275Y-2.5697
X4.9275Y-2.6697
X4.9275Y-2.7697
X4.9275Y-2.8697
X4.9275Y-2.9697
X4.9275Y-3.0697
X4.9275Y-3.1697
X4.9275Y-3.2697
X4.9275Y-3.3697
X4.9275Y-3.4697
X4.9275Y-3.5697
X4.9275Y-3.6697
X4.9275Y-3.7697
X4.9275Y-3.8697
X4.9275Y-3.9697
X4.9275Y-4.0697
X4.9275Y-4.1697
X4.9275Y-4.2697
X5.9275Y-2.4697
X5.9275Y-2.5697
X5.9275Y-2.6697
X5.9275Y-2.7697
X5.9275Y-2.8697
X5.9275Y-2.9697
X5.9275Y-3.0697
X5.9275Y-3.1697
X5.9275Y-3.2697
X5.9275Y-3.3697
X5.9275Y-3.4697
X5.9275Y-3.5697
X5.9275Y-3.6697
X5.9275Y-3.7697
X5.9275Y-3.8697
X5.9275Y-3.9697
X5.9275Y-4.0697
X5.9275Y-4.1697
X5.9275Y-4.2697
T6
X6.8889Y-2.7278
X6.8889Y-2.8778
X6.8889Y-3.0278
X6.8889Y-3.1778
X6.8889Y-3.3278
X6.8889Y-3.4778
X6.8889Y-3.6278
X6.8889Y-3.7778
X6.8889Y-3.9278
X6.8889Y-4.0778
T7
X3.8335Y-1.6725
X3.9282Y-2.7811
X3.9282Y-2.9811
X3.9282Y-3.1811
X3.9282Y-3.3811
X3.9282Y-3.5811
X3.9282Y-3.7811
X3.9282Y-3.9811
X4.0335Y-1.6725
X4.2335Y-1.6725
X4.4335Y-1.6725
X4.6335Y-1.6725
X4.8335Y-1.6725
X5.0823Y-1.6725
X5.2823Y-1.6725
X5.4823Y-1.6725
X5.6823Y-1.6725
X5.8823Y-1.6725
X6.0823Y-1.6725
X6.2823Y-1.6725
X6.4823Y-1.6725
T0
M30
