%TF.GenerationSoftware,KiCad,Pcbnew,(6.0.4)*%
%TF.CreationDate,2022-12-06T21:14:28+05:00*%
%TF.ProjectId,max,6d61782e-6b69-4636-9164-5f7063625858,rev?*%
%TF.SameCoordinates,Original*%
%TF.FileFunction,Soldermask,Bot*%
%TF.FilePolarity,Negative*%
%FSLAX46Y46*%
G04 Gerber Fmt 4.6, Leading zero omitted, Abs format (unit mm)*
G04 Created by KiCad (PCBNEW (6.0.4)) date 2022-12-06 21:14:28*
%MOMM*%
%LPD*%
G01*
G04 APERTURE LIST*
G04 Aperture macros list*
%AMRoundRect*
0 Rectangle with rounded corners*
0 $1 Rounding radius*
0 $2 $3 $4 $5 $6 $7 $8 $9 X,Y pos of 4 corners*
0 Add a 4 corners polygon primitive as box body*
4,1,4,$2,$3,$4,$5,$6,$7,$8,$9,$2,$3,0*
0 Add four circle primitives for the rounded corners*
1,1,$1+$1,$2,$3*
1,1,$1+$1,$4,$5*
1,1,$1+$1,$6,$7*
1,1,$1+$1,$8,$9*
0 Add four rect primitives between the rounded corners*
20,1,$1+$1,$2,$3,$4,$5,0*
20,1,$1+$1,$4,$5,$6,$7,0*
20,1,$1+$1,$6,$7,$8,$9,0*
20,1,$1+$1,$8,$9,$2,$3,0*%
G04 Aperture macros list end*
%ADD10R,1.560000X1.560000*%
%ADD11C,1.560000*%
%ADD12R,2.100000X2.100000*%
%ADD13C,2.100000*%
%ADD14R,1.650000X1.650000*%
%ADD15C,1.650000*%
%ADD16O,1.600000X1.600000*%
%ADD17R,1.600000X1.600000*%
%ADD18C,1.600000*%
%ADD19R,1.700000X1.700000*%
%ADD20O,1.700000X1.700000*%
%ADD21RoundRect,0.250000X0.725000X-0.600000X0.725000X0.600000X-0.725000X0.600000X-0.725000X-0.600000X0*%
%ADD22O,1.950000X1.700000*%
%ADD23RoundRect,0.250000X0.600000X0.725000X-0.600000X0.725000X-0.600000X-0.725000X0.600000X-0.725000X0*%
%ADD24O,1.700000X1.950000*%
%ADD25R,1.800000X1.800000*%
%ADD26C,1.800000*%
G04 APERTURE END LIST*
D10*
%TO.C,U101*%
X125157500Y-62730000D03*
D11*
X125157500Y-65270000D03*
X125157500Y-108450000D03*
X125157500Y-67810000D03*
X125157500Y-70350000D03*
X125157500Y-72890000D03*
X125157500Y-75430000D03*
X125157500Y-77970000D03*
X125157500Y-80510000D03*
X125157500Y-83050000D03*
X125157500Y-85590000D03*
X125157500Y-88130000D03*
X125157500Y-90670000D03*
X125157500Y-93210000D03*
X125157500Y-95750000D03*
X125157500Y-98290000D03*
X125157500Y-100830000D03*
X125157500Y-103370000D03*
X125157500Y-105910000D03*
X150557500Y-62730000D03*
X150557500Y-65270000D03*
X150557500Y-67810000D03*
X150557500Y-70350000D03*
X150557500Y-72890000D03*
X150557500Y-75430000D03*
X150557500Y-77970000D03*
X150557500Y-80510000D03*
X150557500Y-83050000D03*
X150557500Y-85590000D03*
X150557500Y-88130000D03*
X150557500Y-90670000D03*
X150557500Y-93210000D03*
X150557500Y-95750000D03*
X150557500Y-98290000D03*
X150557500Y-100830000D03*
X150557500Y-103370000D03*
X150557500Y-105910000D03*
X150557500Y-108450000D03*
%TD*%
D12*
%TO.C,J101*%
X99777500Y-70640000D03*
D13*
X99777500Y-75720000D03*
X99777500Y-80800000D03*
X99777500Y-85880000D03*
X99777500Y-90960000D03*
X99777500Y-96040000D03*
X99777500Y-101120000D03*
%TD*%
D14*
%TO.C,J107*%
X174977500Y-69285000D03*
D15*
X174977500Y-73095000D03*
X174977500Y-76905000D03*
X174977500Y-80715000D03*
X174977500Y-84525000D03*
X174977500Y-88335000D03*
X174977500Y-92145000D03*
X174977500Y-95955000D03*
X174977500Y-99765000D03*
X174977500Y-103575000D03*
%TD*%
D13*
%TO.C,J104*%
X164650000Y-42482500D03*
X159570000Y-42482500D03*
X154490000Y-42482500D03*
X149410000Y-42482500D03*
X144330000Y-42482500D03*
X139250000Y-42482500D03*
X134170000Y-42482500D03*
D12*
X129090000Y-42482500D03*
%TD*%
%TO.C,J103*%
X97370000Y-42482500D03*
D13*
X102450000Y-42482500D03*
X107530000Y-42482500D03*
X112610000Y-42482500D03*
X117690000Y-42482500D03*
X122770000Y-42482500D03*
%TD*%
D16*
%TO.C,SW101*%
X103300000Y-59765000D03*
X103300000Y-62305000D03*
X103300000Y-64845000D03*
X95680000Y-64845000D03*
X95680000Y-62305000D03*
D17*
X95680000Y-59765000D03*
%TD*%
D18*
%TO.C,R102*%
X173950000Y-108040000D03*
D16*
X163790000Y-108040000D03*
%TD*%
D18*
%TO.C,R101*%
X113420000Y-51500000D03*
D16*
X123580000Y-51500000D03*
%TD*%
D19*
%TO.C,J106*%
X174910000Y-60720000D03*
D20*
X174910000Y-63260000D03*
%TD*%
D21*
%TO.C,J105*%
X174740000Y-47207500D03*
D22*
X174740000Y-44707500D03*
X174740000Y-42207500D03*
X174740000Y-39707500D03*
%TD*%
D23*
%TO.C,J102*%
X102310000Y-109220000D03*
D24*
X99810000Y-109220000D03*
X97310000Y-109220000D03*
%TD*%
D25*
%TO.C,D101*%
X158080000Y-108463000D03*
D26*
X158080000Y-105923000D03*
%TD*%
M02*
