%TF.GenerationSoftware,KiCad,Pcbnew,(6.0.4)*%
%TF.CreationDate,2022-12-06T21:14:27+05:00*%
%TF.ProjectId,max,6d61782e-6b69-4636-9164-5f7063625858,rev?*%
%TF.SameCoordinates,Original*%
%TF.FileFunction,Legend,Top*%
%TF.FilePolarity,Positive*%
%FSLAX46Y46*%
G04 Gerber Fmt 4.6, Leading zero omitted, Abs format (unit mm)*
G04 Created by KiCad (PCBNEW (6.0.4)) date 2022-12-06 21:14:27*
%MOMM*%
%LPD*%
G01*
G04 APERTURE LIST*
%ADD10C,0.200000*%
%ADD11C,0.150000*%
%ADD12C,0.127000*%
%ADD13C,0.120000*%
G04 APERTURE END LIST*
D10*
X164838095Y-104002380D02*
X164504761Y-103526190D01*
X164266666Y-104002380D02*
X164266666Y-103002380D01*
X164647619Y-103002380D01*
X164742857Y-103050000D01*
X164790476Y-103097619D01*
X164838095Y-103192857D01*
X164838095Y-103335714D01*
X164790476Y-103430952D01*
X164742857Y-103478571D01*
X164647619Y-103526190D01*
X164266666Y-103526190D01*
X165266666Y-103478571D02*
X165600000Y-103478571D01*
X165742857Y-104002380D02*
X165266666Y-104002380D01*
X165266666Y-103002380D01*
X165742857Y-103002380D01*
X166647619Y-104002380D02*
X166171428Y-104002380D01*
X166171428Y-103002380D01*
X166933333Y-103716666D02*
X167409523Y-103716666D01*
X166838095Y-104002380D02*
X167171428Y-103002380D01*
X167504761Y-104002380D01*
X168028571Y-103526190D02*
X168028571Y-104002380D01*
X167695238Y-103002380D02*
X168028571Y-103526190D01*
X168361904Y-103002380D01*
X169600000Y-103430952D02*
X169504761Y-103383333D01*
X169457142Y-103335714D01*
X169409523Y-103240476D01*
X169409523Y-103192857D01*
X169457142Y-103097619D01*
X169504761Y-103050000D01*
X169600000Y-103002380D01*
X169790476Y-103002380D01*
X169885714Y-103050000D01*
X169933333Y-103097619D01*
X169980952Y-103192857D01*
X169980952Y-103240476D01*
X169933333Y-103335714D01*
X169885714Y-103383333D01*
X169790476Y-103430952D01*
X169600000Y-103430952D01*
X169504761Y-103478571D01*
X169457142Y-103526190D01*
X169409523Y-103621428D01*
X169409523Y-103811904D01*
X169457142Y-103907142D01*
X169504761Y-103954761D01*
X169600000Y-104002380D01*
X169790476Y-104002380D01*
X169885714Y-103954761D01*
X169933333Y-103907142D01*
X169980952Y-103811904D01*
X169980952Y-103621428D01*
X169933333Y-103526190D01*
X169885714Y-103478571D01*
X169790476Y-103430952D01*
X164838095Y-100206664D02*
X164504761Y-99730474D01*
X164266666Y-100206664D02*
X164266666Y-99206664D01*
X164647619Y-99206664D01*
X164742857Y-99254284D01*
X164790476Y-99301903D01*
X164838095Y-99397141D01*
X164838095Y-99539998D01*
X164790476Y-99635236D01*
X164742857Y-99682855D01*
X164647619Y-99730474D01*
X164266666Y-99730474D01*
X165266666Y-99682855D02*
X165600000Y-99682855D01*
X165742857Y-100206664D02*
X165266666Y-100206664D01*
X165266666Y-99206664D01*
X165742857Y-99206664D01*
X166647619Y-100206664D02*
X166171428Y-100206664D01*
X166171428Y-99206664D01*
X166933333Y-99920950D02*
X167409523Y-99920950D01*
X166838095Y-100206664D02*
X167171428Y-99206664D01*
X167504761Y-100206664D01*
X168028571Y-99730474D02*
X168028571Y-100206664D01*
X167695238Y-99206664D02*
X168028571Y-99730474D01*
X168361904Y-99206664D01*
X169361904Y-99206664D02*
X170028571Y-99206664D01*
X169600000Y-100206664D01*
X164838095Y-96410950D02*
X164504761Y-95934760D01*
X164266666Y-96410950D02*
X164266666Y-95410950D01*
X164647619Y-95410950D01*
X164742857Y-95458570D01*
X164790476Y-95506189D01*
X164838095Y-95601427D01*
X164838095Y-95744284D01*
X164790476Y-95839522D01*
X164742857Y-95887141D01*
X164647619Y-95934760D01*
X164266666Y-95934760D01*
X165266666Y-95887141D02*
X165600000Y-95887141D01*
X165742857Y-96410950D02*
X165266666Y-96410950D01*
X165266666Y-95410950D01*
X165742857Y-95410950D01*
X166647619Y-96410950D02*
X166171428Y-96410950D01*
X166171428Y-95410950D01*
X166933333Y-96125236D02*
X167409523Y-96125236D01*
X166838095Y-96410950D02*
X167171428Y-95410950D01*
X167504761Y-96410950D01*
X168028571Y-95934760D02*
X168028571Y-96410950D01*
X167695238Y-95410950D02*
X168028571Y-95934760D01*
X168361904Y-95410950D01*
X169885714Y-95410950D02*
X169695238Y-95410950D01*
X169600000Y-95458570D01*
X169552380Y-95506189D01*
X169457142Y-95649046D01*
X169409523Y-95839522D01*
X169409523Y-96220474D01*
X169457142Y-96315712D01*
X169504761Y-96363331D01*
X169600000Y-96410950D01*
X169790476Y-96410950D01*
X169885714Y-96363331D01*
X169933333Y-96315712D01*
X169980952Y-96220474D01*
X169980952Y-95982379D01*
X169933333Y-95887141D01*
X169885714Y-95839522D01*
X169790476Y-95791903D01*
X169600000Y-95791903D01*
X169504761Y-95839522D01*
X169457142Y-95887141D01*
X169409523Y-95982379D01*
X164838095Y-92615236D02*
X164504761Y-92139046D01*
X164266666Y-92615236D02*
X164266666Y-91615236D01*
X164647619Y-91615236D01*
X164742857Y-91662856D01*
X164790476Y-91710475D01*
X164838095Y-91805713D01*
X164838095Y-91948570D01*
X164790476Y-92043808D01*
X164742857Y-92091427D01*
X164647619Y-92139046D01*
X164266666Y-92139046D01*
X165266666Y-92091427D02*
X165600000Y-92091427D01*
X165742857Y-92615236D02*
X165266666Y-92615236D01*
X165266666Y-91615236D01*
X165742857Y-91615236D01*
X166647619Y-92615236D02*
X166171428Y-92615236D01*
X166171428Y-91615236D01*
X166933333Y-92329522D02*
X167409523Y-92329522D01*
X166838095Y-92615236D02*
X167171428Y-91615236D01*
X167504761Y-92615236D01*
X168028571Y-92139046D02*
X168028571Y-92615236D01*
X167695238Y-91615236D02*
X168028571Y-92139046D01*
X168361904Y-91615236D01*
X169933333Y-91615236D02*
X169457142Y-91615236D01*
X169409523Y-92091427D01*
X169457142Y-92043808D01*
X169552380Y-91996189D01*
X169790476Y-91996189D01*
X169885714Y-92043808D01*
X169933333Y-92091427D01*
X169980952Y-92186665D01*
X169980952Y-92424760D01*
X169933333Y-92519998D01*
X169885714Y-92567617D01*
X169790476Y-92615236D01*
X169552380Y-92615236D01*
X169457142Y-92567617D01*
X169409523Y-92519998D01*
X164838095Y-88819522D02*
X164504761Y-88343332D01*
X164266666Y-88819522D02*
X164266666Y-87819522D01*
X164647619Y-87819522D01*
X164742857Y-87867142D01*
X164790476Y-87914761D01*
X164838095Y-88009999D01*
X164838095Y-88152856D01*
X164790476Y-88248094D01*
X164742857Y-88295713D01*
X164647619Y-88343332D01*
X164266666Y-88343332D01*
X165266666Y-88295713D02*
X165600000Y-88295713D01*
X165742857Y-88819522D02*
X165266666Y-88819522D01*
X165266666Y-87819522D01*
X165742857Y-87819522D01*
X166647619Y-88819522D02*
X166171428Y-88819522D01*
X166171428Y-87819522D01*
X166933333Y-88533808D02*
X167409523Y-88533808D01*
X166838095Y-88819522D02*
X167171428Y-87819522D01*
X167504761Y-88819522D01*
X168028571Y-88343332D02*
X168028571Y-88819522D01*
X167695238Y-87819522D02*
X168028571Y-88343332D01*
X168361904Y-87819522D01*
X169885714Y-88152856D02*
X169885714Y-88819522D01*
X169647619Y-87771903D02*
X169409523Y-88486189D01*
X170028571Y-88486189D01*
X164838095Y-85023808D02*
X164504761Y-84547618D01*
X164266666Y-85023808D02*
X164266666Y-84023808D01*
X164647619Y-84023808D01*
X164742857Y-84071428D01*
X164790476Y-84119047D01*
X164838095Y-84214285D01*
X164838095Y-84357142D01*
X164790476Y-84452380D01*
X164742857Y-84499999D01*
X164647619Y-84547618D01*
X164266666Y-84547618D01*
X165266666Y-84499999D02*
X165600000Y-84499999D01*
X165742857Y-85023808D02*
X165266666Y-85023808D01*
X165266666Y-84023808D01*
X165742857Y-84023808D01*
X166647619Y-85023808D02*
X166171428Y-85023808D01*
X166171428Y-84023808D01*
X166933333Y-84738094D02*
X167409523Y-84738094D01*
X166838095Y-85023808D02*
X167171428Y-84023808D01*
X167504761Y-85023808D01*
X168028571Y-84547618D02*
X168028571Y-85023808D01*
X167695238Y-84023808D02*
X168028571Y-84547618D01*
X168361904Y-84023808D01*
X169361904Y-84023808D02*
X169980952Y-84023808D01*
X169647619Y-84404761D01*
X169790476Y-84404761D01*
X169885714Y-84452380D01*
X169933333Y-84499999D01*
X169980952Y-84595237D01*
X169980952Y-84833332D01*
X169933333Y-84928570D01*
X169885714Y-84976189D01*
X169790476Y-85023808D01*
X169504761Y-85023808D01*
X169409523Y-84976189D01*
X169361904Y-84928570D01*
X164838095Y-81228094D02*
X164504761Y-80751904D01*
X164266666Y-81228094D02*
X164266666Y-80228094D01*
X164647619Y-80228094D01*
X164742857Y-80275714D01*
X164790476Y-80323333D01*
X164838095Y-80418571D01*
X164838095Y-80561428D01*
X164790476Y-80656666D01*
X164742857Y-80704285D01*
X164647619Y-80751904D01*
X164266666Y-80751904D01*
X165266666Y-80704285D02*
X165600000Y-80704285D01*
X165742857Y-81228094D02*
X165266666Y-81228094D01*
X165266666Y-80228094D01*
X165742857Y-80228094D01*
X166647619Y-81228094D02*
X166171428Y-81228094D01*
X166171428Y-80228094D01*
X166933333Y-80942380D02*
X167409523Y-80942380D01*
X166838095Y-81228094D02*
X167171428Y-80228094D01*
X167504761Y-81228094D01*
X168028571Y-80751904D02*
X168028571Y-81228094D01*
X167695238Y-80228094D02*
X168028571Y-80751904D01*
X168361904Y-80228094D01*
X169409523Y-80323333D02*
X169457142Y-80275714D01*
X169552380Y-80228094D01*
X169790476Y-80228094D01*
X169885714Y-80275714D01*
X169933333Y-80323333D01*
X169980952Y-80418571D01*
X169980952Y-80513809D01*
X169933333Y-80656666D01*
X169361904Y-81228094D01*
X169980952Y-81228094D01*
X164838095Y-77432380D02*
X164504761Y-76956190D01*
X164266666Y-77432380D02*
X164266666Y-76432380D01*
X164647619Y-76432380D01*
X164742857Y-76480000D01*
X164790476Y-76527619D01*
X164838095Y-76622857D01*
X164838095Y-76765714D01*
X164790476Y-76860952D01*
X164742857Y-76908571D01*
X164647619Y-76956190D01*
X164266666Y-76956190D01*
X165266666Y-76908571D02*
X165600000Y-76908571D01*
X165742857Y-77432380D02*
X165266666Y-77432380D01*
X165266666Y-76432380D01*
X165742857Y-76432380D01*
X166647619Y-77432380D02*
X166171428Y-77432380D01*
X166171428Y-76432380D01*
X166933333Y-77146666D02*
X167409523Y-77146666D01*
X166838095Y-77432380D02*
X167171428Y-76432380D01*
X167504761Y-77432380D01*
X168028571Y-76956190D02*
X168028571Y-77432380D01*
X167695238Y-76432380D02*
X168028571Y-76956190D01*
X168361904Y-76432380D01*
X169980952Y-77432380D02*
X169409523Y-77432380D01*
X169695238Y-77432380D02*
X169695238Y-76432380D01*
X169600000Y-76575238D01*
X169504761Y-76670476D01*
X169409523Y-76718095D01*
X169817142Y-64492380D02*
X169483809Y-64016190D01*
X169245714Y-64492380D02*
X169245714Y-63492380D01*
X169626666Y-63492380D01*
X169721904Y-63540000D01*
X169769523Y-63587619D01*
X169817142Y-63682857D01*
X169817142Y-63825714D01*
X169769523Y-63920952D01*
X169721904Y-63968571D01*
X169626666Y-64016190D01*
X169245714Y-64016190D01*
X170150476Y-63492380D02*
X170817142Y-64492380D01*
X170817142Y-63492380D02*
X170150476Y-64492380D01*
X171198095Y-64492380D02*
X171198095Y-63492380D01*
X171436190Y-63492380D01*
X171579047Y-63540000D01*
X171674285Y-63635238D01*
X171721904Y-63730476D01*
X171769523Y-63920952D01*
X171769523Y-64063809D01*
X171721904Y-64254285D01*
X171674285Y-64349523D01*
X171579047Y-64444761D01*
X171436190Y-64492380D01*
X171198095Y-64492380D01*
X172388571Y-63492380D02*
X172483809Y-63492380D01*
X172579047Y-63540000D01*
X172626666Y-63587619D01*
X172674285Y-63682857D01*
X172721904Y-63873333D01*
X172721904Y-64111428D01*
X172674285Y-64301904D01*
X172626666Y-64397142D01*
X172579047Y-64444761D01*
X172483809Y-64492380D01*
X172388571Y-64492380D01*
X172293333Y-64444761D01*
X172245714Y-64397142D01*
X172198095Y-64301904D01*
X172150476Y-64111428D01*
X172150476Y-63873333D01*
X172198095Y-63682857D01*
X172245714Y-63587619D01*
X172293333Y-63540000D01*
X172388571Y-63492380D01*
X169340951Y-60092380D02*
X169912380Y-60092380D01*
X169626666Y-61092380D02*
X169626666Y-60092380D01*
X170150475Y-60092380D02*
X170817142Y-61092380D01*
X170817142Y-60092380D02*
X170150475Y-61092380D01*
X171198094Y-61092380D02*
X171198094Y-60092380D01*
X171436189Y-60092380D01*
X171579047Y-60140000D01*
X171674285Y-60235238D01*
X171721904Y-60330476D01*
X171769523Y-60520952D01*
X171769523Y-60663809D01*
X171721904Y-60854285D01*
X171674285Y-60949523D01*
X171579047Y-61044761D01*
X171436189Y-61092380D01*
X171198094Y-61092380D01*
X172388570Y-60092380D02*
X172483808Y-60092380D01*
X172579047Y-60140000D01*
X172626666Y-60187619D01*
X172674285Y-60282857D01*
X172721904Y-60473333D01*
X172721904Y-60711428D01*
X172674285Y-60901904D01*
X172626666Y-60997142D01*
X172579047Y-61044761D01*
X172483808Y-61092380D01*
X172388570Y-61092380D01*
X172293332Y-61044761D01*
X172245713Y-60997142D01*
X172198094Y-60901904D01*
X172150475Y-60711428D01*
X172150475Y-60473333D01*
X172198094Y-60282857D01*
X172245713Y-60187619D01*
X172293332Y-60140000D01*
X172388570Y-60092380D01*
X170189047Y-39180000D02*
X170093809Y-39132380D01*
X169950952Y-39132380D01*
X169808094Y-39180000D01*
X169712856Y-39275238D01*
X169665237Y-39370476D01*
X169617618Y-39560952D01*
X169617618Y-39703809D01*
X169665237Y-39894285D01*
X169712856Y-39989523D01*
X169808094Y-40084761D01*
X169950952Y-40132380D01*
X170046190Y-40132380D01*
X170189047Y-40084761D01*
X170236666Y-40037142D01*
X170236666Y-39703809D01*
X170046190Y-39703809D01*
X170665237Y-40132380D02*
X170665237Y-39132380D01*
X171236666Y-40132380D01*
X171236666Y-39132380D01*
X171712856Y-40132380D02*
X171712856Y-39132380D01*
X171950952Y-39132380D01*
X172093809Y-39180000D01*
X172189047Y-39275238D01*
X172236666Y-39370476D01*
X172284285Y-39560952D01*
X172284285Y-39703809D01*
X172236666Y-39894285D01*
X172189047Y-39989523D01*
X172093809Y-40084761D01*
X171950952Y-40132380D01*
X171712856Y-40132380D01*
X169903332Y-47644761D02*
X170046189Y-47692380D01*
X170284285Y-47692380D01*
X170379523Y-47644761D01*
X170427142Y-47597142D01*
X170474761Y-47501904D01*
X170474761Y-47406666D01*
X170427142Y-47311428D01*
X170379523Y-47263809D01*
X170284285Y-47216190D01*
X170093809Y-47168571D01*
X169998570Y-47120952D01*
X169950951Y-47073333D01*
X169903332Y-46978095D01*
X169903332Y-46882857D01*
X169950951Y-46787619D01*
X169998570Y-46740000D01*
X170093809Y-46692380D01*
X170331904Y-46692380D01*
X170474761Y-46740000D01*
X171474761Y-47597142D02*
X171427142Y-47644761D01*
X171284285Y-47692380D01*
X171189047Y-47692380D01*
X171046189Y-47644761D01*
X170950951Y-47549523D01*
X170903332Y-47454285D01*
X170855713Y-47263809D01*
X170855713Y-47120952D01*
X170903332Y-46930476D01*
X170950951Y-46835238D01*
X171046189Y-46740000D01*
X171189047Y-46692380D01*
X171284285Y-46692380D01*
X171427142Y-46740000D01*
X171474761Y-46787619D01*
X172379523Y-47692380D02*
X171903332Y-47692380D01*
X171903332Y-46692380D01*
X169855714Y-45034761D02*
X169998571Y-45082380D01*
X170236666Y-45082380D01*
X170331904Y-45034761D01*
X170379523Y-44987142D01*
X170427142Y-44891904D01*
X170427142Y-44796666D01*
X170379523Y-44701428D01*
X170331904Y-44653809D01*
X170236666Y-44606190D01*
X170046190Y-44558571D01*
X169950952Y-44510952D01*
X169903333Y-44463333D01*
X169855714Y-44368095D01*
X169855714Y-44272857D01*
X169903333Y-44177619D01*
X169950952Y-44130000D01*
X170046190Y-44082380D01*
X170284285Y-44082380D01*
X170427142Y-44130000D01*
X170855714Y-45082380D02*
X170855714Y-44082380D01*
X171093809Y-44082380D01*
X171236666Y-44130000D01*
X171331904Y-44225238D01*
X171379523Y-44320476D01*
X171427142Y-44510952D01*
X171427142Y-44653809D01*
X171379523Y-44844285D01*
X171331904Y-44939523D01*
X171236666Y-45034761D01*
X171093809Y-45082380D01*
X170855714Y-45082380D01*
X171808095Y-44796666D02*
X172284285Y-44796666D01*
X171712857Y-45082380D02*
X172046190Y-44082380D01*
X172379523Y-45082380D01*
X105054761Y-65206666D02*
X105530952Y-65206666D01*
X104959523Y-65492380D02*
X105292857Y-64492380D01*
X105626190Y-65492380D01*
X105959523Y-65492380D02*
X105959523Y-64492380D01*
X106197619Y-64492380D01*
X106340476Y-64540000D01*
X106435714Y-64635238D01*
X106483333Y-64730476D01*
X106530952Y-64920952D01*
X106530952Y-65063809D01*
X106483333Y-65254285D01*
X106435714Y-65349523D01*
X106340476Y-65444761D01*
X106197619Y-65492380D01*
X105959523Y-65492380D01*
X106959523Y-65492380D02*
X106959523Y-64492380D01*
X107197619Y-64492380D01*
X107340476Y-64540000D01*
X107435714Y-64635238D01*
X107483333Y-64730476D01*
X107530952Y-64920952D01*
X107530952Y-65063809D01*
X107483333Y-65254285D01*
X107435714Y-65349523D01*
X107340476Y-65444761D01*
X107197619Y-65492380D01*
X106959523Y-65492380D01*
X109245238Y-65492380D02*
X108673809Y-65492380D01*
X108959523Y-65492380D02*
X108959523Y-64492380D01*
X108864285Y-64635238D01*
X108769047Y-64730476D01*
X108673809Y-64778095D01*
X105054761Y-62676666D02*
X105530952Y-62676666D01*
X104959523Y-62962380D02*
X105292857Y-61962380D01*
X105626190Y-62962380D01*
X105959523Y-62962380D02*
X105959523Y-61962380D01*
X106197619Y-61962380D01*
X106340476Y-62010000D01*
X106435714Y-62105238D01*
X106483333Y-62200476D01*
X106530952Y-62390952D01*
X106530952Y-62533809D01*
X106483333Y-62724285D01*
X106435714Y-62819523D01*
X106340476Y-62914761D01*
X106197619Y-62962380D01*
X105959523Y-62962380D01*
X106959523Y-62962380D02*
X106959523Y-61962380D01*
X107197619Y-61962380D01*
X107340476Y-62010000D01*
X107435714Y-62105238D01*
X107483333Y-62200476D01*
X107530952Y-62390952D01*
X107530952Y-62533809D01*
X107483333Y-62724285D01*
X107435714Y-62819523D01*
X107340476Y-62914761D01*
X107197619Y-62962380D01*
X106959523Y-62962380D01*
X108673809Y-62057619D02*
X108721428Y-62010000D01*
X108816666Y-61962380D01*
X109054761Y-61962380D01*
X109150000Y-62010000D01*
X109197619Y-62057619D01*
X109245238Y-62152857D01*
X109245238Y-62248095D01*
X109197619Y-62390952D01*
X108626190Y-62962380D01*
X109245238Y-62962380D01*
X105054761Y-60116666D02*
X105530952Y-60116666D01*
X104959523Y-60402380D02*
X105292857Y-59402380D01*
X105626190Y-60402380D01*
X105959523Y-60402380D02*
X105959523Y-59402380D01*
X106197619Y-59402380D01*
X106340476Y-59450000D01*
X106435714Y-59545238D01*
X106483333Y-59640476D01*
X106530952Y-59830952D01*
X106530952Y-59973809D01*
X106483333Y-60164285D01*
X106435714Y-60259523D01*
X106340476Y-60354761D01*
X106197619Y-60402380D01*
X105959523Y-60402380D01*
X106959523Y-60402380D02*
X106959523Y-59402380D01*
X107197619Y-59402380D01*
X107340476Y-59450000D01*
X107435714Y-59545238D01*
X107483333Y-59640476D01*
X107530952Y-59830952D01*
X107530952Y-59973809D01*
X107483333Y-60164285D01*
X107435714Y-60259523D01*
X107340476Y-60354761D01*
X107197619Y-60402380D01*
X106959523Y-60402380D01*
X108626190Y-59402380D02*
X109245238Y-59402380D01*
X108911904Y-59783333D01*
X109054761Y-59783333D01*
X109150000Y-59830952D01*
X109197619Y-59878571D01*
X109245238Y-59973809D01*
X109245238Y-60211904D01*
X109197619Y-60307142D01*
X109150000Y-60354761D01*
X109054761Y-60402380D01*
X108769047Y-60402380D01*
X108673809Y-60354761D01*
X108626190Y-60307142D01*
X105407142Y-71022380D02*
X105407142Y-70022380D01*
X105788095Y-70022380D01*
X105883333Y-70070000D01*
X105930952Y-70117619D01*
X105978571Y-70212857D01*
X105978571Y-70355714D01*
X105930952Y-70450952D01*
X105883333Y-70498571D01*
X105788095Y-70546190D01*
X105407142Y-70546190D01*
X106978571Y-71022380D02*
X106645238Y-70546190D01*
X106407142Y-71022380D02*
X106407142Y-70022380D01*
X106788095Y-70022380D01*
X106883333Y-70070000D01*
X106930952Y-70117619D01*
X106978571Y-70212857D01*
X106978571Y-70355714D01*
X106930952Y-70450952D01*
X106883333Y-70498571D01*
X106788095Y-70546190D01*
X106407142Y-70546190D01*
X107597619Y-70022380D02*
X107788095Y-70022380D01*
X107883333Y-70070000D01*
X107978571Y-70165238D01*
X108026190Y-70355714D01*
X108026190Y-70689047D01*
X107978571Y-70879523D01*
X107883333Y-70974761D01*
X107788095Y-71022380D01*
X107597619Y-71022380D01*
X107502380Y-70974761D01*
X107407142Y-70879523D01*
X107359523Y-70689047D01*
X107359523Y-70355714D01*
X107407142Y-70165238D01*
X107502380Y-70070000D01*
X107597619Y-70022380D01*
X108978571Y-70070000D02*
X108883333Y-70022380D01*
X108740476Y-70022380D01*
X108597619Y-70070000D01*
X108502380Y-70165238D01*
X108454761Y-70260476D01*
X108407142Y-70450952D01*
X108407142Y-70593809D01*
X108454761Y-70784285D01*
X108502380Y-70879523D01*
X108597619Y-70974761D01*
X108740476Y-71022380D01*
X108835714Y-71022380D01*
X108978571Y-70974761D01*
X109026190Y-70927142D01*
X109026190Y-70593809D01*
X108835714Y-70593809D01*
X110740476Y-71022380D02*
X110169047Y-71022380D01*
X110454761Y-71022380D02*
X110454761Y-70022380D01*
X110359523Y-70165238D01*
X110264285Y-70260476D01*
X110169047Y-70308095D01*
X105407142Y-75892380D02*
X105407142Y-74892380D01*
X105788095Y-74892380D01*
X105883333Y-74940000D01*
X105930952Y-74987619D01*
X105978571Y-75082857D01*
X105978571Y-75225714D01*
X105930952Y-75320952D01*
X105883333Y-75368571D01*
X105788095Y-75416190D01*
X105407142Y-75416190D01*
X106978571Y-75892380D02*
X106645238Y-75416190D01*
X106407142Y-75892380D02*
X106407142Y-74892380D01*
X106788095Y-74892380D01*
X106883333Y-74940000D01*
X106930952Y-74987619D01*
X106978571Y-75082857D01*
X106978571Y-75225714D01*
X106930952Y-75320952D01*
X106883333Y-75368571D01*
X106788095Y-75416190D01*
X106407142Y-75416190D01*
X107597619Y-74892380D02*
X107788095Y-74892380D01*
X107883333Y-74940000D01*
X107978571Y-75035238D01*
X108026190Y-75225714D01*
X108026190Y-75559047D01*
X107978571Y-75749523D01*
X107883333Y-75844761D01*
X107788095Y-75892380D01*
X107597619Y-75892380D01*
X107502380Y-75844761D01*
X107407142Y-75749523D01*
X107359523Y-75559047D01*
X107359523Y-75225714D01*
X107407142Y-75035238D01*
X107502380Y-74940000D01*
X107597619Y-74892380D01*
X108978571Y-74940000D02*
X108883333Y-74892380D01*
X108740476Y-74892380D01*
X108597619Y-74940000D01*
X108502380Y-75035238D01*
X108454761Y-75130476D01*
X108407142Y-75320952D01*
X108407142Y-75463809D01*
X108454761Y-75654285D01*
X108502380Y-75749523D01*
X108597619Y-75844761D01*
X108740476Y-75892380D01*
X108835714Y-75892380D01*
X108978571Y-75844761D01*
X109026190Y-75797142D01*
X109026190Y-75463809D01*
X108835714Y-75463809D01*
X110169047Y-74987619D02*
X110216666Y-74940000D01*
X110311904Y-74892380D01*
X110550000Y-74892380D01*
X110645238Y-74940000D01*
X110692857Y-74987619D01*
X110740476Y-75082857D01*
X110740476Y-75178095D01*
X110692857Y-75320952D01*
X110121428Y-75892380D01*
X110740476Y-75892380D01*
X105407142Y-81112380D02*
X105407142Y-80112380D01*
X105788095Y-80112380D01*
X105883333Y-80160000D01*
X105930952Y-80207619D01*
X105978571Y-80302857D01*
X105978571Y-80445714D01*
X105930952Y-80540952D01*
X105883333Y-80588571D01*
X105788095Y-80636190D01*
X105407142Y-80636190D01*
X106978571Y-81112380D02*
X106645238Y-80636190D01*
X106407142Y-81112380D02*
X106407142Y-80112380D01*
X106788095Y-80112380D01*
X106883333Y-80160000D01*
X106930952Y-80207619D01*
X106978571Y-80302857D01*
X106978571Y-80445714D01*
X106930952Y-80540952D01*
X106883333Y-80588571D01*
X106788095Y-80636190D01*
X106407142Y-80636190D01*
X107597619Y-80112380D02*
X107788095Y-80112380D01*
X107883333Y-80160000D01*
X107978571Y-80255238D01*
X108026190Y-80445714D01*
X108026190Y-80779047D01*
X107978571Y-80969523D01*
X107883333Y-81064761D01*
X107788095Y-81112380D01*
X107597619Y-81112380D01*
X107502380Y-81064761D01*
X107407142Y-80969523D01*
X107359523Y-80779047D01*
X107359523Y-80445714D01*
X107407142Y-80255238D01*
X107502380Y-80160000D01*
X107597619Y-80112380D01*
X108978571Y-80160000D02*
X108883333Y-80112380D01*
X108740476Y-80112380D01*
X108597619Y-80160000D01*
X108502380Y-80255238D01*
X108454761Y-80350476D01*
X108407142Y-80540952D01*
X108407142Y-80683809D01*
X108454761Y-80874285D01*
X108502380Y-80969523D01*
X108597619Y-81064761D01*
X108740476Y-81112380D01*
X108835714Y-81112380D01*
X108978571Y-81064761D01*
X109026190Y-81017142D01*
X109026190Y-80683809D01*
X108835714Y-80683809D01*
X110121428Y-80112380D02*
X110740476Y-80112380D01*
X110407142Y-80493333D01*
X110550000Y-80493333D01*
X110645238Y-80540952D01*
X110692857Y-80588571D01*
X110740476Y-80683809D01*
X110740476Y-80921904D01*
X110692857Y-81017142D01*
X110645238Y-81064761D01*
X110550000Y-81112380D01*
X110264285Y-81112380D01*
X110169047Y-81064761D01*
X110121428Y-81017142D01*
X105407142Y-86342380D02*
X105407142Y-85342380D01*
X105788095Y-85342380D01*
X105883333Y-85390000D01*
X105930952Y-85437619D01*
X105978571Y-85532857D01*
X105978571Y-85675714D01*
X105930952Y-85770952D01*
X105883333Y-85818571D01*
X105788095Y-85866190D01*
X105407142Y-85866190D01*
X106978571Y-86342380D02*
X106645238Y-85866190D01*
X106407142Y-86342380D02*
X106407142Y-85342380D01*
X106788095Y-85342380D01*
X106883333Y-85390000D01*
X106930952Y-85437619D01*
X106978571Y-85532857D01*
X106978571Y-85675714D01*
X106930952Y-85770952D01*
X106883333Y-85818571D01*
X106788095Y-85866190D01*
X106407142Y-85866190D01*
X107597619Y-85342380D02*
X107788095Y-85342380D01*
X107883333Y-85390000D01*
X107978571Y-85485238D01*
X108026190Y-85675714D01*
X108026190Y-86009047D01*
X107978571Y-86199523D01*
X107883333Y-86294761D01*
X107788095Y-86342380D01*
X107597619Y-86342380D01*
X107502380Y-86294761D01*
X107407142Y-86199523D01*
X107359523Y-86009047D01*
X107359523Y-85675714D01*
X107407142Y-85485238D01*
X107502380Y-85390000D01*
X107597619Y-85342380D01*
X108978571Y-85390000D02*
X108883333Y-85342380D01*
X108740476Y-85342380D01*
X108597619Y-85390000D01*
X108502380Y-85485238D01*
X108454761Y-85580476D01*
X108407142Y-85770952D01*
X108407142Y-85913809D01*
X108454761Y-86104285D01*
X108502380Y-86199523D01*
X108597619Y-86294761D01*
X108740476Y-86342380D01*
X108835714Y-86342380D01*
X108978571Y-86294761D01*
X109026190Y-86247142D01*
X109026190Y-85913809D01*
X108835714Y-85913809D01*
X110645238Y-85675714D02*
X110645238Y-86342380D01*
X110407142Y-85294761D02*
X110169047Y-86009047D01*
X110788095Y-86009047D01*
X105359523Y-91184761D02*
X105502380Y-91232380D01*
X105740475Y-91232380D01*
X105835714Y-91184761D01*
X105883333Y-91137142D01*
X105930952Y-91041904D01*
X105930952Y-90946666D01*
X105883333Y-90851428D01*
X105835714Y-90803809D01*
X105740475Y-90756190D01*
X105549999Y-90708571D01*
X105454761Y-90660952D01*
X105407142Y-90613333D01*
X105359523Y-90518095D01*
X105359523Y-90422857D01*
X105407142Y-90327619D01*
X105454761Y-90280000D01*
X105549999Y-90232380D01*
X105788094Y-90232380D01*
X105930952Y-90280000D01*
X106216666Y-90565714D02*
X106597618Y-90565714D01*
X106359523Y-90232380D02*
X106359523Y-91089523D01*
X106407142Y-91184761D01*
X106502380Y-91232380D01*
X106597618Y-91232380D01*
X107073809Y-91232380D02*
X106978571Y-91184761D01*
X106930952Y-91137142D01*
X106883333Y-91041904D01*
X106883333Y-90756190D01*
X106930952Y-90660952D01*
X106978571Y-90613333D01*
X107073809Y-90565714D01*
X107216666Y-90565714D01*
X107311904Y-90613333D01*
X107359523Y-90660952D01*
X107407142Y-90756190D01*
X107407142Y-91041904D01*
X107359523Y-91137142D01*
X107311904Y-91184761D01*
X107216666Y-91232380D01*
X107073809Y-91232380D01*
X107835714Y-90565714D02*
X107835714Y-91565714D01*
X107835714Y-90613333D02*
X107930952Y-90565714D01*
X108121428Y-90565714D01*
X108216666Y-90613333D01*
X108264285Y-90660952D01*
X108311904Y-90756190D01*
X108311904Y-91041904D01*
X108264285Y-91137142D01*
X108216666Y-91184761D01*
X108121428Y-91232380D01*
X107930952Y-91232380D01*
X107835714Y-91184761D01*
X105407143Y-95678571D02*
X105740476Y-95678571D01*
X105883333Y-96202380D02*
X105407143Y-96202380D01*
X105407143Y-95202380D01*
X105883333Y-95202380D01*
X106216666Y-95202380D02*
X106883333Y-96202380D01*
X106883333Y-95202380D02*
X106216666Y-96202380D01*
X107121428Y-95202380D02*
X107692857Y-95202380D01*
X107407143Y-96202380D02*
X107407143Y-95202380D01*
X108597619Y-96202380D02*
X108264285Y-95726190D01*
X108026190Y-96202380D02*
X108026190Y-95202380D01*
X108407143Y-95202380D01*
X108502381Y-95250000D01*
X108550000Y-95297619D01*
X108597619Y-95392857D01*
X108597619Y-95535714D01*
X108550000Y-95630952D01*
X108502381Y-95678571D01*
X108407143Y-95726190D01*
X108026190Y-95726190D01*
X108978571Y-95916666D02*
X109454762Y-95916666D01*
X108883333Y-96202380D02*
X109216666Y-95202380D01*
X109550000Y-96202380D01*
X105930952Y-100120000D02*
X105835714Y-100072380D01*
X105692857Y-100072380D01*
X105549999Y-100120000D01*
X105454761Y-100215238D01*
X105407142Y-100310476D01*
X105359523Y-100500952D01*
X105359523Y-100643809D01*
X105407142Y-100834285D01*
X105454761Y-100929523D01*
X105549999Y-101024761D01*
X105692857Y-101072380D01*
X105788095Y-101072380D01*
X105930952Y-101024761D01*
X105978571Y-100977142D01*
X105978571Y-100643809D01*
X105788095Y-100643809D01*
X106407142Y-101072380D02*
X106407142Y-100072380D01*
X106978571Y-101072380D01*
X106978571Y-100072380D01*
X107454761Y-101072380D02*
X107454761Y-100072380D01*
X107692857Y-100072380D01*
X107835714Y-100120000D01*
X107930952Y-100215238D01*
X107978571Y-100310476D01*
X108026190Y-100500952D01*
X108026190Y-100643809D01*
X107978571Y-100834285D01*
X107930952Y-100929523D01*
X107835714Y-101024761D01*
X107692857Y-101072380D01*
X107454761Y-101072380D01*
X99530000Y-106121904D02*
X99482380Y-106217142D01*
X99482380Y-106360000D01*
X99530000Y-106502857D01*
X99625238Y-106598095D01*
X99720476Y-106645714D01*
X99910952Y-106693333D01*
X100053809Y-106693333D01*
X100244285Y-106645714D01*
X100339523Y-106598095D01*
X100434761Y-106502857D01*
X100482380Y-106360000D01*
X100482380Y-106264761D01*
X100434761Y-106121904D01*
X100387142Y-106074285D01*
X100053809Y-106074285D01*
X100053809Y-106264761D01*
X100482380Y-105645714D02*
X99482380Y-105645714D01*
X100482380Y-105074285D01*
X99482380Y-105074285D01*
X100482380Y-104598095D02*
X99482380Y-104598095D01*
X99482380Y-104360000D01*
X99530000Y-104217142D01*
X99625238Y-104121904D01*
X99720476Y-104074285D01*
X99910952Y-104026666D01*
X100053809Y-104026666D01*
X100244285Y-104074285D01*
X100339523Y-104121904D01*
X100434761Y-104217142D01*
X100482380Y-104360000D01*
X100482380Y-104598095D01*
X102182380Y-105680476D02*
X102182380Y-106156666D01*
X102658571Y-106204285D01*
X102610952Y-106156666D01*
X102563333Y-106061428D01*
X102563333Y-105823333D01*
X102610952Y-105728095D01*
X102658571Y-105680476D01*
X102753809Y-105632857D01*
X102991904Y-105632857D01*
X103087142Y-105680476D01*
X103134761Y-105728095D01*
X103182380Y-105823333D01*
X103182380Y-106061428D01*
X103134761Y-106156666D01*
X103087142Y-106204285D01*
X102182380Y-105347142D02*
X103182380Y-105013809D01*
X102182380Y-104680476D01*
X105880952Y-109952380D02*
X106214285Y-110952380D01*
X106547619Y-109952380D01*
X106880952Y-110952380D02*
X106880952Y-110285714D01*
X106880952Y-109952380D02*
X106833333Y-110000000D01*
X106880952Y-110047619D01*
X106928571Y-110000000D01*
X106880952Y-109952380D01*
X106880952Y-110047619D01*
X107357142Y-110952380D02*
X107357142Y-109952380D01*
X107357142Y-110333333D02*
X107452380Y-110285714D01*
X107642857Y-110285714D01*
X107738095Y-110333333D01*
X107785714Y-110380952D01*
X107833333Y-110476190D01*
X107833333Y-110761904D01*
X107785714Y-110857142D01*
X107738095Y-110904761D01*
X107642857Y-110952380D01*
X107452380Y-110952380D01*
X107357142Y-110904761D01*
X108261904Y-110952380D02*
X108261904Y-110285714D01*
X108261904Y-110476190D02*
X108309523Y-110380952D01*
X108357142Y-110333333D01*
X108452380Y-110285714D01*
X108547619Y-110285714D01*
X109309523Y-110952380D02*
X109309523Y-110428571D01*
X109261904Y-110333333D01*
X109166666Y-110285714D01*
X108976190Y-110285714D01*
X108880952Y-110333333D01*
X109309523Y-110904761D02*
X109214285Y-110952380D01*
X108976190Y-110952380D01*
X108880952Y-110904761D01*
X108833333Y-110809523D01*
X108833333Y-110714285D01*
X108880952Y-110619047D01*
X108976190Y-110571428D01*
X109214285Y-110571428D01*
X109309523Y-110523809D01*
X109642857Y-110285714D02*
X110023809Y-110285714D01*
X109785714Y-109952380D02*
X109785714Y-110809523D01*
X109833333Y-110904761D01*
X109928571Y-110952380D01*
X110023809Y-110952380D01*
X110357142Y-110952380D02*
X110357142Y-110285714D01*
X110357142Y-109952380D02*
X110309523Y-110000000D01*
X110357142Y-110047619D01*
X110404761Y-110000000D01*
X110357142Y-109952380D01*
X110357142Y-110047619D01*
X110976190Y-110952380D02*
X110880952Y-110904761D01*
X110833333Y-110857142D01*
X110785714Y-110761904D01*
X110785714Y-110476190D01*
X110833333Y-110380952D01*
X110880952Y-110333333D01*
X110976190Y-110285714D01*
X111119047Y-110285714D01*
X111214285Y-110333333D01*
X111261904Y-110380952D01*
X111309523Y-110476190D01*
X111309523Y-110761904D01*
X111261904Y-110857142D01*
X111214285Y-110904761D01*
X111119047Y-110952380D01*
X110976190Y-110952380D01*
X111738095Y-110285714D02*
X111738095Y-110952380D01*
X111738095Y-110380952D02*
X111785714Y-110333333D01*
X111880952Y-110285714D01*
X112023809Y-110285714D01*
X112119047Y-110333333D01*
X112166666Y-110428571D01*
X112166666Y-110952380D01*
X113357142Y-110904761D02*
X113500000Y-110952380D01*
X113738095Y-110952380D01*
X113833333Y-110904761D01*
X113880952Y-110857142D01*
X113928571Y-110761904D01*
X113928571Y-110666666D01*
X113880952Y-110571428D01*
X113833333Y-110523809D01*
X113738095Y-110476190D01*
X113547619Y-110428571D01*
X113452380Y-110380952D01*
X113404761Y-110333333D01*
X113357142Y-110238095D01*
X113357142Y-110142857D01*
X113404761Y-110047619D01*
X113452380Y-110000000D01*
X113547619Y-109952380D01*
X113785714Y-109952380D01*
X113928571Y-110000000D01*
X114738095Y-110904761D02*
X114642857Y-110952380D01*
X114452380Y-110952380D01*
X114357142Y-110904761D01*
X114309523Y-110809523D01*
X114309523Y-110428571D01*
X114357142Y-110333333D01*
X114452380Y-110285714D01*
X114642857Y-110285714D01*
X114738095Y-110333333D01*
X114785714Y-110428571D01*
X114785714Y-110523809D01*
X114309523Y-110619047D01*
X115214285Y-110285714D02*
X115214285Y-110952380D01*
X115214285Y-110380952D02*
X115261904Y-110333333D01*
X115357142Y-110285714D01*
X115500000Y-110285714D01*
X115595238Y-110333333D01*
X115642857Y-110428571D01*
X115642857Y-110952380D01*
X116071428Y-110904761D02*
X116166666Y-110952380D01*
X116357142Y-110952380D01*
X116452380Y-110904761D01*
X116500000Y-110809523D01*
X116500000Y-110761904D01*
X116452380Y-110666666D01*
X116357142Y-110619047D01*
X116214285Y-110619047D01*
X116119047Y-110571428D01*
X116071428Y-110476190D01*
X116071428Y-110428571D01*
X116119047Y-110333333D01*
X116214285Y-110285714D01*
X116357142Y-110285714D01*
X116452380Y-110333333D01*
X117071428Y-110952380D02*
X116976190Y-110904761D01*
X116928571Y-110857142D01*
X116880952Y-110761904D01*
X116880952Y-110476190D01*
X116928571Y-110380952D01*
X116976190Y-110333333D01*
X117071428Y-110285714D01*
X117214285Y-110285714D01*
X117309523Y-110333333D01*
X117357142Y-110380952D01*
X117404761Y-110476190D01*
X117404761Y-110761904D01*
X117357142Y-110857142D01*
X117309523Y-110904761D01*
X117214285Y-110952380D01*
X117071428Y-110952380D01*
X117833333Y-110952380D02*
X117833333Y-110285714D01*
X117833333Y-110476190D02*
X117880952Y-110380952D01*
X117928571Y-110333333D01*
X118023809Y-110285714D01*
X118119047Y-110285714D01*
D11*
%TO.C,J104*%
X127439285Y-35299880D02*
X127439285Y-36014166D01*
X127391666Y-36157023D01*
X127296428Y-36252261D01*
X127153571Y-36299880D01*
X127058333Y-36299880D01*
X128439285Y-36299880D02*
X127867857Y-36299880D01*
X128153571Y-36299880D02*
X128153571Y-35299880D01*
X128058333Y-35442738D01*
X127963095Y-35537976D01*
X127867857Y-35585595D01*
X129058333Y-35299880D02*
X129153571Y-35299880D01*
X129248809Y-35347500D01*
X129296428Y-35395119D01*
X129344047Y-35490357D01*
X129391666Y-35680833D01*
X129391666Y-35918928D01*
X129344047Y-36109404D01*
X129296428Y-36204642D01*
X129248809Y-36252261D01*
X129153571Y-36299880D01*
X129058333Y-36299880D01*
X128963095Y-36252261D01*
X128915476Y-36204642D01*
X128867857Y-36109404D01*
X128820238Y-35918928D01*
X128820238Y-35680833D01*
X128867857Y-35490357D01*
X128915476Y-35395119D01*
X128963095Y-35347500D01*
X129058333Y-35299880D01*
X130248809Y-35633214D02*
X130248809Y-36299880D01*
X130010714Y-35252261D02*
X129772619Y-35966547D01*
X130391666Y-35966547D01*
%TO.C,R102*%
X167890952Y-108472380D02*
X167557619Y-107996190D01*
X167319523Y-108472380D02*
X167319523Y-107472380D01*
X167700476Y-107472380D01*
X167795714Y-107520000D01*
X167843333Y-107567619D01*
X167890952Y-107662857D01*
X167890952Y-107805714D01*
X167843333Y-107900952D01*
X167795714Y-107948571D01*
X167700476Y-107996190D01*
X167319523Y-107996190D01*
X168843333Y-108472380D02*
X168271904Y-108472380D01*
X168557619Y-108472380D02*
X168557619Y-107472380D01*
X168462380Y-107615238D01*
X168367142Y-107710476D01*
X168271904Y-107758095D01*
X169462380Y-107472380D02*
X169557619Y-107472380D01*
X169652857Y-107520000D01*
X169700476Y-107567619D01*
X169748095Y-107662857D01*
X169795714Y-107853333D01*
X169795714Y-108091428D01*
X169748095Y-108281904D01*
X169700476Y-108377142D01*
X169652857Y-108424761D01*
X169557619Y-108472380D01*
X169462380Y-108472380D01*
X169367142Y-108424761D01*
X169319523Y-108377142D01*
X169271904Y-108281904D01*
X169224285Y-108091428D01*
X169224285Y-107853333D01*
X169271904Y-107662857D01*
X169319523Y-107567619D01*
X169367142Y-107520000D01*
X169462380Y-107472380D01*
X170176666Y-107567619D02*
X170224285Y-107520000D01*
X170319523Y-107472380D01*
X170557619Y-107472380D01*
X170652857Y-107520000D01*
X170700476Y-107567619D01*
X170748095Y-107662857D01*
X170748095Y-107758095D01*
X170700476Y-107900952D01*
X170129047Y-108472380D01*
X170748095Y-108472380D01*
%TO.C,R101*%
X117470952Y-51952380D02*
X117137619Y-51476190D01*
X116899523Y-51952380D02*
X116899523Y-50952380D01*
X117280476Y-50952380D01*
X117375714Y-51000000D01*
X117423333Y-51047619D01*
X117470952Y-51142857D01*
X117470952Y-51285714D01*
X117423333Y-51380952D01*
X117375714Y-51428571D01*
X117280476Y-51476190D01*
X116899523Y-51476190D01*
X118423333Y-51952380D02*
X117851904Y-51952380D01*
X118137619Y-51952380D02*
X118137619Y-50952380D01*
X118042380Y-51095238D01*
X117947142Y-51190476D01*
X117851904Y-51238095D01*
X119042380Y-50952380D02*
X119137619Y-50952380D01*
X119232857Y-51000000D01*
X119280476Y-51047619D01*
X119328095Y-51142857D01*
X119375714Y-51333333D01*
X119375714Y-51571428D01*
X119328095Y-51761904D01*
X119280476Y-51857142D01*
X119232857Y-51904761D01*
X119137619Y-51952380D01*
X119042380Y-51952380D01*
X118947142Y-51904761D01*
X118899523Y-51857142D01*
X118851904Y-51761904D01*
X118804285Y-51571428D01*
X118804285Y-51333333D01*
X118851904Y-51142857D01*
X118899523Y-51047619D01*
X118947142Y-51000000D01*
X119042380Y-50952380D01*
X120328095Y-51952380D02*
X119756666Y-51952380D01*
X120042380Y-51952380D02*
X120042380Y-50952380D01*
X119947142Y-51095238D01*
X119851904Y-51190476D01*
X119756666Y-51238095D01*
%TO.C,D101*%
X155572380Y-108883476D02*
X154572380Y-108883476D01*
X154572380Y-108645380D01*
X154620000Y-108502523D01*
X154715238Y-108407285D01*
X154810476Y-108359666D01*
X155000952Y-108312047D01*
X155143809Y-108312047D01*
X155334285Y-108359666D01*
X155429523Y-108407285D01*
X155524761Y-108502523D01*
X155572380Y-108645380D01*
X155572380Y-108883476D01*
X155572380Y-107359666D02*
X155572380Y-107931095D01*
X155572380Y-107645380D02*
X154572380Y-107645380D01*
X154715238Y-107740619D01*
X154810476Y-107835857D01*
X154858095Y-107931095D01*
X154572380Y-106740619D02*
X154572380Y-106645380D01*
X154620000Y-106550142D01*
X154667619Y-106502523D01*
X154762857Y-106454904D01*
X154953333Y-106407285D01*
X155191428Y-106407285D01*
X155381904Y-106454904D01*
X155477142Y-106502523D01*
X155524761Y-106550142D01*
X155572380Y-106645380D01*
X155572380Y-106740619D01*
X155524761Y-106835857D01*
X155477142Y-106883476D01*
X155381904Y-106931095D01*
X155191428Y-106978714D01*
X154953333Y-106978714D01*
X154762857Y-106931095D01*
X154667619Y-106883476D01*
X154620000Y-106835857D01*
X154572380Y-106740619D01*
X155572380Y-105454904D02*
X155572380Y-106026333D01*
X155572380Y-105740619D02*
X154572380Y-105740619D01*
X154715238Y-105835857D01*
X154810476Y-105931095D01*
X154858095Y-106026333D01*
D12*
%TO.C,U101*%
X123907500Y-109740000D02*
X123907500Y-55340000D01*
X123907500Y-55340000D02*
X151807500Y-55340000D01*
X151807500Y-55340000D02*
X151807500Y-109740000D01*
X151807500Y-109740000D02*
X123907500Y-109740000D01*
%TO.C,J101*%
X94777500Y-68100000D02*
X104777500Y-68100000D01*
X104777500Y-68100000D02*
X104777500Y-103660000D01*
X104777500Y-103660000D02*
X94777500Y-103660000D01*
X94777500Y-103660000D02*
X94777500Y-68100000D01*
D10*
X105477500Y-70640000D02*
G75*
G03*
X105477500Y-70640000I-100000J0D01*
G01*
D12*
%TO.C,J107*%
X170877500Y-67385000D02*
X179077500Y-67385000D01*
X179077500Y-67385000D02*
X179077500Y-105475000D01*
X179077500Y-105475000D02*
X170877500Y-105475000D01*
X170877500Y-105475000D02*
X170877500Y-67385000D01*
D10*
X179777500Y-69285000D02*
G75*
G03*
X179777500Y-69285000I-100000J0D01*
G01*
%TO.C,J104*%
X129190000Y-36882500D02*
G75*
G03*
X129190000Y-36882500I-100000J0D01*
G01*
D12*
X167190000Y-47482500D02*
X126550000Y-47482500D01*
X167190000Y-37482500D02*
X167190000Y-47482500D01*
X126550000Y-37482500D02*
X167190000Y-37482500D01*
X126550000Y-47482500D02*
X126550000Y-37482500D01*
%TO.C,J103*%
X94830000Y-47482500D02*
X94830000Y-37482500D01*
X94830000Y-37482500D02*
X125310000Y-37482500D01*
X125310000Y-37482500D02*
X125310000Y-47482500D01*
X125310000Y-47482500D02*
X94830000Y-47482500D01*
D10*
X97470000Y-36882500D02*
G75*
G03*
X97470000Y-36882500I-100000J0D01*
G01*
D13*
%TO.C,SW101*%
X95840000Y-57415000D02*
X97223000Y-57415000D01*
X97680000Y-59610000D02*
X98886667Y-59610000D01*
X96080000Y-60805000D02*
X96080000Y-61316000D01*
X97680000Y-61790000D02*
X98886667Y-61790000D01*
X102901000Y-57655000D02*
X102901000Y-58775000D01*
X97680000Y-61670000D02*
X97680000Y-62940000D01*
X97680000Y-62510000D02*
X98886667Y-62510000D01*
X97680000Y-59250000D02*
X98886667Y-59250000D01*
X102901000Y-63295000D02*
X102901000Y-63856000D01*
X96080000Y-65835000D02*
X96080000Y-66955000D01*
X97680000Y-61910000D02*
X98886667Y-61910000D01*
X97680000Y-62390000D02*
X98886667Y-62390000D01*
X101300000Y-60400000D02*
X101300000Y-59130000D01*
X97680000Y-65410000D02*
X98886667Y-65410000D01*
X97680000Y-64570000D02*
X98886667Y-64570000D01*
X97680000Y-65290000D02*
X98886667Y-65290000D01*
X97680000Y-64210000D02*
X97680000Y-65480000D01*
X98886667Y-64210000D02*
X98886667Y-65480000D01*
X97680000Y-59730000D02*
X98886667Y-59730000D01*
X97680000Y-62030000D02*
X98886667Y-62030000D01*
X96080000Y-66955000D02*
X102901000Y-66955000D01*
X97680000Y-64810000D02*
X98886667Y-64810000D01*
X98886667Y-59130000D02*
X98886667Y-60400000D01*
X97680000Y-65170000D02*
X98886667Y-65170000D01*
X95840000Y-57415000D02*
X95840000Y-58725000D01*
X97680000Y-65050000D02*
X98886667Y-65050000D01*
X97680000Y-62270000D02*
X98886667Y-62270000D01*
X101300000Y-65480000D02*
X101300000Y-64210000D01*
X97680000Y-59130000D02*
X97680000Y-60400000D01*
X97680000Y-65480000D02*
X101300000Y-65480000D01*
X97680000Y-60090000D02*
X98886667Y-60090000D01*
X97680000Y-62630000D02*
X98886667Y-62630000D01*
X97680000Y-60330000D02*
X98886667Y-60330000D01*
X97680000Y-59370000D02*
X98886667Y-59370000D01*
X101300000Y-62940000D02*
X101300000Y-61670000D01*
X96080000Y-63295000D02*
X96080000Y-63856000D01*
X97680000Y-59490000D02*
X98886667Y-59490000D01*
X96080000Y-57655000D02*
X96080000Y-58725000D01*
X97680000Y-64690000D02*
X98886667Y-64690000D01*
X97680000Y-62940000D02*
X101300000Y-62940000D01*
X97680000Y-60210000D02*
X98886667Y-60210000D01*
X101300000Y-61670000D02*
X97680000Y-61670000D01*
X97680000Y-64930000D02*
X98886667Y-64930000D01*
X98886667Y-61670000D02*
X98886667Y-62940000D01*
X101300000Y-59130000D02*
X97680000Y-59130000D01*
X97680000Y-64450000D02*
X98886667Y-64450000D01*
X97680000Y-59970000D02*
X98886667Y-59970000D01*
X102901000Y-65835000D02*
X102901000Y-66955000D01*
X101300000Y-64210000D02*
X97680000Y-64210000D01*
X97680000Y-59850000D02*
X98886667Y-59850000D01*
X96080000Y-57655000D02*
X102901000Y-57655000D01*
X97680000Y-62150000D02*
X98886667Y-62150000D01*
X97680000Y-62870000D02*
X98886667Y-62870000D01*
X102901000Y-60755000D02*
X102901000Y-61316000D01*
X97680000Y-62750000D02*
X98886667Y-62750000D01*
X97680000Y-64330000D02*
X98886667Y-64330000D01*
X97680000Y-60400000D02*
X101300000Y-60400000D01*
%TO.C,R102*%
X164830000Y-108040000D02*
X165600000Y-108040000D01*
X172910000Y-108040000D02*
X172140000Y-108040000D01*
X172140000Y-109410000D02*
X172140000Y-106670000D01*
X165600000Y-106670000D02*
X165600000Y-109410000D01*
X172140000Y-106670000D02*
X165600000Y-106670000D01*
X165600000Y-109410000D02*
X172140000Y-109410000D01*
%TO.C,R101*%
X122540000Y-51500000D02*
X121770000Y-51500000D01*
X114460000Y-51500000D02*
X115230000Y-51500000D01*
X115230000Y-50130000D02*
X115230000Y-52870000D01*
X121770000Y-52870000D02*
X121770000Y-50130000D01*
X115230000Y-52870000D02*
X121770000Y-52870000D01*
X121770000Y-50130000D02*
X115230000Y-50130000D01*
%TO.C,J106*%
X173580000Y-60720000D02*
X173580000Y-59390000D01*
X173580000Y-64590000D02*
X176240000Y-64590000D01*
X173580000Y-61990000D02*
X173580000Y-64590000D01*
X173580000Y-61990000D02*
X176240000Y-61990000D01*
X173580000Y-59390000D02*
X174910000Y-59390000D01*
X176240000Y-61990000D02*
X176240000Y-64590000D01*
%TO.C,J105*%
X173030000Y-49817500D02*
X177050000Y-49817500D01*
X173030000Y-37097500D02*
X173030000Y-49817500D01*
X175550000Y-37097500D02*
X175550000Y-38097500D01*
X173530000Y-37597500D02*
X174740000Y-37597500D01*
X175550000Y-49817500D02*
X175550000Y-48817500D01*
X174740000Y-49317500D02*
X173530000Y-49317500D01*
X175550000Y-38097500D02*
X177050000Y-38097500D01*
X174740000Y-37597500D02*
X174740000Y-37097500D01*
X173530000Y-49317500D02*
X173530000Y-37597500D01*
X175550000Y-48817500D02*
X177050000Y-48817500D01*
X177050000Y-37097500D02*
X173030000Y-37097500D01*
X174740000Y-49817500D02*
X174740000Y-49317500D01*
X174850000Y-50117500D02*
X177350000Y-50117500D01*
X177050000Y-49817500D02*
X177050000Y-37097500D01*
X177350000Y-50117500D02*
X177350000Y-47617500D01*
%TO.C,J102*%
X104920000Y-106910000D02*
X94700000Y-106910000D01*
X95200000Y-109220000D02*
X94700000Y-109220000D01*
X95700000Y-108410000D02*
X95700000Y-106910000D01*
X95200000Y-110430000D02*
X95200000Y-109220000D01*
X105220000Y-109110000D02*
X105220000Y-106610000D01*
X94700000Y-108410000D02*
X95700000Y-108410000D01*
X104420000Y-109220000D02*
X104420000Y-110430000D01*
X105220000Y-106610000D02*
X102720000Y-106610000D01*
X94700000Y-110930000D02*
X104920000Y-110930000D01*
X104920000Y-108410000D02*
X103920000Y-108410000D01*
X103920000Y-108410000D02*
X103920000Y-106910000D01*
X104920000Y-110930000D02*
X104920000Y-106910000D01*
X104920000Y-109220000D02*
X104420000Y-109220000D01*
X94700000Y-106910000D02*
X94700000Y-110930000D01*
X104420000Y-110430000D02*
X95200000Y-110430000D01*
%TO.C,D101*%
X156844000Y-108753000D02*
X157000000Y-108753000D01*
X159160000Y-108753000D02*
X159316000Y-108753000D01*
X157000163Y-106151870D02*
G75*
G03*
X157000000Y-108233961I1079837J-1041130D01*
G01*
X159315516Y-108753000D02*
G75*
G03*
X159158608Y-105520665I-1235516J1560000D01*
G01*
X159160000Y-108233961D02*
G75*
G03*
X159159837Y-106151870I-1080000J1040961D01*
G01*
X157001392Y-105520665D02*
G75*
G03*
X156844484Y-108753000I1078608J-1672335D01*
G01*
%TD*%
M02*
