  0
SECTION
  2
HEADER
  9
$ANGBASE
  50
0.0
  9
$ANGDIR
  70
1
  9
$MEASUREMENT
  70
0
  0
ENDSEC
  0
SECTION
  2
TABLES
  0
TABLE
  2
LTYPE
  70
4
  0
LTYPE
  5
40F
  2
CONTINUOUS
  70
0
  3
Solid line
  72
65
  73
0
  40
0.0
  0
LTYPE
  5
410
  2
DASHDOT
 70
0
  3
Dash Dot ____ _ ____ _
 72
65
 73
4
 40
2.0
 49
1.25
 49
-0.25
 49
0.25
 49
-0.25
  0
LTYPE
  5
411
  2
DASHED
 70
0
  3
Dashed __ __ __ __ __
 72
65
 73
2
 40
0.75
 49
0.5
 49
-0.25
  0
LTYPE
  5
43B
  2
DOTTED
 70
0
  3
Dotted .  .  .  .
 72
65
 73
2
 40
0.2
 49
0.0
 49
-0.2
  0
ENDTAB
  0
TABLE
  2
STYLE
  70
4
  0
STYLE
  2
KICAD
  70
0
  40
0
  41
1
  42
1
  50
0
  71
0
  3
isocp.shx
  0
STYLE
  2
KICADB
  70
0
  40
0
  41
1
  42
1
  50
0
  71
0
  3
isocp.shx
  0
STYLE
  2
KICADI
  70
0
  40
0
  41
1
  42
1
  50
15
  71
0
  3
isocp.shx
  0
STYLE
  2
KICADBI
  70
0
  40
0
  41
1
  42
1
  50
15
  71
0
  3
isocp.shx
  0
ENDTAB
  0
TABLE
  2
LAYER
  70
1
  0
LAYER
  2
BLACK
  70
0
  62
7
  6
CONTINUOUS
  0
ENDTAB
  0
ENDSEC
  0
SECTION
  2
ENTITIES
0
LINE
8
BLACK
6
CONTINUOUS
10
3.6
20
-4.4
11
3.6
21
-1.4
0
LINE
8
BLACK
6
CONTINUOUS
10
7.1
20
-4.4
11
3.6
21
-4.4
0
LINE
8
BLACK
6
CONTINUOUS
10
7.1
20
-1.4
11
7.1
21
-4.4
0
LINE
8
BLACK
6
CONTINUOUS
10
3.6
20
-1.4
11
7.1
21
-1.4
0
LINE
8
BLACK
6
CONTINUOUS
10
3.69946
20
-4.5242
11
3.69946
21
-4.44546
0
LINE
8
BLACK
6
CONTINUOUS
10
3.69946
20
-4.44546
11
3.7182
21
-4.44546
0
LINE
8
BLACK
6
CONTINUOUS
10
3.7182
20
-4.44546
11
3.72945
21
-4.44921
0
LINE
8
BLACK
6
CONTINUOUS
10
3.72945
20
-4.44921
11
3.73695
21
-4.45671
0
LINE
8
BLACK
6
CONTINUOUS
10
3.73695
20
-4.45671
11
3.7407
21
-4.46421
0
LINE
8
BLACK
6
CONTINUOUS
10
3.7407
20
-4.46421
11
3.74445
21
-4.47921
0
LINE
8
BLACK
6
CONTINUOUS
10
3.74445
20
-4.47921
11
3.74445
21
-4.49046
0
LINE
8
BLACK
6
CONTINUOUS
10
3.74445
20
-4.49046
11
3.7407
21
-4.50546
0
LINE
8
BLACK
6
CONTINUOUS
10
3.7407
20
-4.50546
11
3.73695
21
-4.51295
0
LINE
8
BLACK
6
CONTINUOUS
10
3.73695
20
-4.51295
11
3.72945
21
-4.52045
0
LINE
8
BLACK
6
CONTINUOUS
10
3.72945
20
-4.52045
11
3.7182
21
-4.5242
0
LINE
8
BLACK
6
CONTINUOUS
10
3.7182
20
-4.5242
11
3.69946
21
-4.5242
0
LINE
8
BLACK
6
CONTINUOUS
10
3.7782
20
-4.5242
11
3.7782
21
-4.47171
0
LINE
8
BLACK
6
CONTINUOUS
10
3.7782
20
-4.48671
11
3.78195
21
-4.47921
0
LINE
8
BLACK
6
CONTINUOUS
10
3.78195
20
-4.47921
11
3.7857
21
-4.47546
0
LINE
8
BLACK
6
CONTINUOUS
10
3.7857
20
-4.47546
11
3.79319
21
-4.47171
0
LINE
8
BLACK
6
CONTINUOUS
10
3.79319
20
-4.47171
11
3.80069
21
-4.47171
0
LINE
8
BLACK
6
CONTINUOUS
10
3.82694
20
-4.5242
11
3.82694
21
-4.47171
0
LINE
8
BLACK
6
CONTINUOUS
10
3.82694
20
-4.44546
11
3.82319
21
-4.44921
0
LINE
8
BLACK
6
CONTINUOUS
10
3.82319
20
-4.44921
11
3.82694
21
-4.45296
0
LINE
8
BLACK
6
CONTINUOUS
10
3.82694
20
-4.45296
11
3.83069
21
-4.44921
0
LINE
8
BLACK
6
CONTINUOUS
10
3.83069
20
-4.44921
11
3.82694
21
-4.44546
0
LINE
8
BLACK
6
CONTINUOUS
10
3.82694
20
-4.44546
11
3.82694
21
-4.45296
0
LINE
8
BLACK
6
CONTINUOUS
10
3.87568
20
-4.5242
11
3.86819
21
-4.52045
0
LINE
8
BLACK
6
CONTINUOUS
10
3.86819
20
-4.52045
11
3.86444
21
-4.51295
0
LINE
8
BLACK
6
CONTINUOUS
10
3.86444
20
-4.51295
11
3.86444
21
-4.44546
0
LINE
8
BLACK
6
CONTINUOUS
10
3.91693
20
-4.5242
11
3.90943
21
-4.52045
0
LINE
8
BLACK
6
CONTINUOUS
10
3.90943
20
-4.52045
11
3.90568
21
-4.51295
0
LINE
8
BLACK
6
CONTINUOUS
10
3.90568
20
-4.51295
11
3.90568
21
-4.44546
0
LINE
8
BLACK
6
CONTINUOUS
10
4.00692
20
-4.5242
11
4.00692
21
-4.44546
0
LINE
8
BLACK
6
CONTINUOUS
10
4.00692
20
-4.44546
11
4.03316
21
-4.50171
0
LINE
8
BLACK
6
CONTINUOUS
10
4.03316
20
-4.50171
11
4.05941
21
-4.44546
0
LINE
8
BLACK
6
CONTINUOUS
10
4.05941
20
-4.44546
11
4.05941
21
-4.5242
0
LINE
8
BLACK
6
CONTINUOUS
10
4.13065
20
-4.5242
11
4.13065
21
-4.48296
0
LINE
8
BLACK
6
CONTINUOUS
10
4.13065
20
-4.48296
11
4.1269
21
-4.47546
0
LINE
8
BLACK
6
CONTINUOUS
10
4.1269
20
-4.47546
11
4.1194
21
-4.47171
0
LINE
8
BLACK
6
CONTINUOUS
10
4.1194
20
-4.47171
11
4.10441
21
-4.47171
0
LINE
8
BLACK
6
CONTINUOUS
10
4.10441
20
-4.47171
11
4.09691
21
-4.47546
0
LINE
8
BLACK
6
CONTINUOUS
10
4.13065
20
-4.52045
11
4.12315
21
-4.5242
0
LINE
8
BLACK
6
CONTINUOUS
10
4.12315
20
-4.5242
11
4.10441
21
-4.5242
0
LINE
8
BLACK
6
CONTINUOUS
10
4.10441
20
-4.5242
11
4.09691
21
-4.52045
0
LINE
8
BLACK
6
CONTINUOUS
10
4.09691
20
-4.52045
11
4.09316
21
-4.51295
0
LINE
8
BLACK
6
CONTINUOUS
10
4.09316
20
-4.51295
11
4.09316
21
-4.50546
0
LINE
8
BLACK
6
CONTINUOUS
10
4.09316
20
-4.50546
11
4.09691
21
-4.49796
0
LINE
8
BLACK
6
CONTINUOUS
10
4.09691
20
-4.49796
11
4.10441
21
-4.49421
0
LINE
8
BLACK
6
CONTINUOUS
10
4.10441
20
-4.49421
11
4.12315
21
-4.49421
0
LINE
8
BLACK
6
CONTINUOUS
10
4.12315
20
-4.49421
11
4.13065
21
-4.49046
0
LINE
8
BLACK
6
CONTINUOUS
10
4.16815
20
-4.47171
11
4.16815
21
-4.55045
0
LINE
8
BLACK
6
CONTINUOUS
10
4.16815
20
-4.47546
11
4.17565
21
-4.47171
0
LINE
8
BLACK
6
CONTINUOUS
10
4.17565
20
-4.47171
11
4.19064
21
-4.47171
0
LINE
8
BLACK
6
CONTINUOUS
10
4.19064
20
-4.47171
11
4.19814
21
-4.47546
0
LINE
8
BLACK
6
CONTINUOUS
10
4.19814
20
-4.47546
11
4.20189
21
-4.47921
0
LINE
8
BLACK
6
CONTINUOUS
10
4.20189
20
-4.47921
11
4.20564
21
-4.48671
0
LINE
8
BLACK
6
CONTINUOUS
10
4.20564
20
-4.48671
11
4.20564
21
-4.50921
0
LINE
8
BLACK
6
CONTINUOUS
10
4.20564
20
-4.50921
11
4.20189
21
-4.5167
0
LINE
8
BLACK
6
CONTINUOUS
10
4.20189
20
-4.5167
11
4.19814
21
-4.52045
0
LINE
8
BLACK
6
CONTINUOUS
10
4.19814
20
-4.52045
11
4.19064
21
-4.5242
0
LINE
8
BLACK
6
CONTINUOUS
10
4.19064
20
-4.5242
11
4.17565
21
-4.5242
0
LINE
8
BLACK
6
CONTINUOUS
10
4.17565
20
-4.5242
11
4.16815
21
-4.52045
0
LINE
8
BLACK
6
CONTINUOUS
10
4.23939
20
-4.5167
11
4.24314
21
-4.52045
0
LINE
8
BLACK
6
CONTINUOUS
10
4.24314
20
-4.52045
11
4.23939
21
-4.5242
0
LINE
8
BLACK
6
CONTINUOUS
10
4.23939
20
-4.5242
11
4.23564
21
-4.52045
0
LINE
8
BLACK
6
CONTINUOUS
10
4.23564
20
-4.52045
11
4.23939
21
-4.5167
0
LINE
8
BLACK
6
CONTINUOUS
10
4.23939
20
-4.5167
11
4.23939
21
-4.5242
0
LINE
8
BLACK
6
CONTINUOUS
10
4.23939
20
-4.47546
11
4.24314
21
-4.47921
0
LINE
8
BLACK
6
CONTINUOUS
10
4.24314
20
-4.47921
11
4.23939
21
-4.48296
0
LINE
8
BLACK
6
CONTINUOUS
10
4.23939
20
-4.48296
11
4.23564
21
-4.47921
0
LINE
8
BLACK
6
CONTINUOUS
10
4.23564
20
-4.47921
11
4.23939
21
-4.47546
0
LINE
8
BLACK
6
CONTINUOUS
10
4.23939
20
-4.47546
11
4.23939
21
-4.48296
  0
ENDSEC
  0
EOF
