  0
SECTION
  2
HEADER
  9
$ANGBASE
  50
0.0
  9
$ANGDIR
  70
1
  9
$MEASUREMENT
  70
0
  0
ENDSEC
  0
SECTION
  2
TABLES
  0
TABLE
  2
LTYPE
  70
4
  0
LTYPE
  5
40F
  2
CONTINUOUS
  70
0
  3
Solid line
  72
65
  73
0
  40
0.0
  0
LTYPE
  5
410
  2
DASHDOT
 70
0
  3
Dash Dot ____ _ ____ _
 72
65
 73
4
 40
2.0
 49
1.25
 49
-0.25
 49
0.25
 49
-0.25
  0
LTYPE
  5
411
  2
DASHED
 70
0
  3
Dashed __ __ __ __ __
 72
65
 73
2
 40
0.75
 49
0.5
 49
-0.25
  0
LTYPE
  5
43B
  2
DOTTED
 70
0
  3
Dotted .  .  .  .
 72
65
 73
2
 40
0.2
 49
0.0
 49
-0.2
  0
ENDTAB
  0
TABLE
  2
STYLE
  70
4
  0
STYLE
  2
KICAD
  70
0
  40
0
  41
1
  42
1
  50
0
  71
0
  3
isocp.shx
  0
STYLE
  2
KICADB
  70
0
  40
0
  41
1
  42
1
  50
0
  71
0
  3
isocp.shx
  0
STYLE
  2
KICADI
  70
0
  40
0
  41
1
  42
1
  50
15
  71
0
  3
isocp.shx
  0
STYLE
  2
KICADBI
  70
0
  40
0
  41
1
  42
1
  50
15
  71
0
  3
isocp.shx
  0
ENDTAB
  0
TABLE
  2
LAYER
  70
1
  0
LAYER
  2
BLACK
  70
0
  62
7
  6
CONTINUOUS
  0
ENDTAB
  0
ENDSEC
  0
SECTION
  2
ENTITIES
0
LINE
8
BLACK
6
CONTINUOUS
10
3.6
20
-4.4
11
3.6
21
-1.4
0
LINE
8
BLACK
6
CONTINUOUS
10
7.1
20
-4.4
11
3.6
21
-4.4
0
LINE
8
BLACK
6
CONTINUOUS
10
7.1
20
-1.4
11
7.1
21
-4.4
0
LINE
8
BLACK
6
CONTINUOUS
10
3.6
20
-1.4
11
7.1
21
-1.4
0
LINE
8
BLACK
6
CONTINUOUS
10
3.75118
20
-2.3372
11
3.78268
21
-2.3687
0
LINE
8
BLACK
6
CONTINUOUS
10
3.78268
20
-2.3372
11
3.75118
21
-2.3687
0
LINE
8
BLACK
6
CONTINUOUS
10
3.75118
20
-2.4372
11
3.78268
21
-2.4687
0
LINE
8
BLACK
6
CONTINUOUS
10
3.78268
20
-2.4372
11
3.75118
21
-2.4687
0
LINE
8
BLACK
6
CONTINUOUS
10
3.75118
20
-2.5372
11
3.78268
21
-2.5687
0
LINE
8
BLACK
6
CONTINUOUS
10
3.78268
20
-2.5372
11
3.75118
21
-2.5687
0
LINE
8
BLACK
6
CONTINUOUS
10
4.05118
20
-2.3372
11
4.08268
21
-2.3687
0
LINE
8
BLACK
6
CONTINUOUS
10
4.08268
20
-2.3372
11
4.05118
21
-2.3687
0
LINE
8
BLACK
6
CONTINUOUS
10
4.05118
20
-2.4372
11
4.08268
21
-2.4687
0
LINE
8
BLACK
6
CONTINUOUS
10
4.08268
20
-2.4372
11
4.05118
21
-2.4687
0
LINE
8
BLACK
6
CONTINUOUS
10
4.05118
20
-2.5372
11
4.08268
21
-2.5687
0
LINE
8
BLACK
6
CONTINUOUS
10
4.08268
20
-2.5372
11
4.05118
21
-2.5687
0
LINE
8
BLACK
6
CONTINUOUS
10
4.44961
20
-2.01181
11
4.4811
21
-2.04331
0
LINE
8
BLACK
6
CONTINUOUS
10
4.4811
20
-2.01181
11
4.44961
21
-2.04331
0
LINE
8
BLACK
6
CONTINUOUS
10
4.84961
20
-2.01181
11
4.8811
21
-2.04331
0
LINE
8
BLACK
6
CONTINUOUS
10
4.8811
20
-2.01181
11
4.84961
21
-2.04331
0
LINE
8
BLACK
6
CONTINUOUS
10
6.43268
20
-4.2378
11
6.46417
21
-4.26929
0
LINE
8
BLACK
6
CONTINUOUS
10
6.46417
20
-4.2378
11
6.43268
21
-4.26929
0
LINE
8
BLACK
6
CONTINUOUS
10
6.83268
20
-4.2378
11
6.86417
21
-4.26929
0
LINE
8
BLACK
6
CONTINUOUS
10
6.86417
20
-4.2378
11
6.83268
21
-4.26929
0
CIRCLE
8
BLACK
10
6.22362
20
-4.1702
40
0.0177165
0
CIRCLE
8
BLACK
10
6.22362
20
-4.2702
40
0.0177165
0
LINE
8
BLACK
6
CONTINUOUS
10
3.8311
20
-4.2813
11
3.8311
21
-4.3187
0
LINE
8
BLACK
6
CONTINUOUS
10
3.8124
20
-4.3
11
3.8498
21
-4.3
0
LINE
8
BLACK
6
CONTINUOUS
10
3.92953
20
-4.2813
11
3.92953
21
-4.3187
0
LINE
8
BLACK
6
CONTINUOUS
10
3.91083
20
-4.3
11
3.94823
21
-4.3
0
LINE
8
BLACK
6
CONTINUOUS
10
4.02795
20
-4.2813
11
4.02795
21
-4.3187
0
LINE
8
BLACK
6
CONTINUOUS
10
4.00925
20
-4.3
11
4.04665
21
-4.3
0
LINE
8
BLACK
6
CONTINUOUS
10
6.87953
20
-1.54459
11
6.87953
21
-1.58199
0
LINE
8
BLACK
6
CONTINUOUS
10
6.86083
20
-1.56329
11
6.89823
21
-1.56329
0
LINE
8
BLACK
6
CONTINUOUS
10
6.87953
20
-1.64301
11
6.87953
21
-1.68041
0
LINE
8
BLACK
6
CONTINUOUS
10
6.86083
20
-1.66171
11
6.89823
21
-1.66171
0
LINE
8
BLACK
6
CONTINUOUS
10
6.87953
20
-1.74144
11
6.87953
21
-1.77884
0
LINE
8
BLACK
6
CONTINUOUS
10
6.86083
20
-1.76014
11
6.89823
21
-1.76014
0
LINE
8
BLACK
6
CONTINUOUS
10
6.87953
20
-1.83986
11
6.87953
21
-1.87726
0
LINE
8
BLACK
6
CONTINUOUS
10
6.86083
20
-1.85856
11
6.89823
21
-1.85856
0
LINE
8
BLACK
6
CONTINUOUS
10
6.90014
20
-2.40447
11
6.90014
21
-2.37663
0
LINE
8
BLACK
6
CONTINUOUS
10
6.90014
20
-2.37663
11
6.8723
21
-2.37663
0
LINE
8
BLACK
6
CONTINUOUS
10
6.8723
20
-2.37663
11
6.8723
21
-2.40447
0
LINE
8
BLACK
6
CONTINUOUS
10
6.8723
20
-2.40447
11
6.90014
21
-2.40447
0
LINE
8
BLACK
6
CONTINUOUS
10
6.90014
20
-2.50447
11
6.90014
21
-2.47663
0
LINE
8
BLACK
6
CONTINUOUS
10
6.90014
20
-2.47663
11
6.8723
21
-2.47663
0
LINE
8
BLACK
6
CONTINUOUS
10
6.8723
20
-2.47663
11
6.8723
21
-2.50447
0
LINE
8
BLACK
6
CONTINUOUS
10
6.8723
20
-2.50447
11
6.90014
21
-2.50447
0
LINE
8
BLACK
6
CONTINUOUS
10
4.92746
20
-2.49016
11
4.94793
21
-2.46969
0
LINE
8
BLACK
6
CONTINUOUS
10
4.94793
20
-2.46969
11
4.92746
21
-2.44921
0
LINE
8
BLACK
6
CONTINUOUS
10
4.92746
20
-2.44921
11
4.90699
21
-2.46969
0
LINE
8
BLACK
6
CONTINUOUS
10
4.90699
20
-2.46969
11
4.92746
21
-2.49016
0
LINE
8
BLACK
6
CONTINUOUS
10
4.92746
20
-2.59016
11
4.94793
21
-2.56969
0
LINE
8
BLACK
6
CONTINUOUS
10
4.94793
20
-2.56969
11
4.92746
21
-2.54921
0
LINE
8
BLACK
6
CONTINUOUS
10
4.92746
20
-2.54921
11
4.90699
21
-2.56969
0
LINE
8
BLACK
6
CONTINUOUS
10
4.90699
20
-2.56969
11
4.92746
21
-2.59016
0
LINE
8
BLACK
6
CONTINUOUS
10
4.92746
20
-2.69016
11
4.94793
21
-2.66969
0
LINE
8
BLACK
6
CONTINUOUS
10
4.94793
20
-2.66969
11
4.92746
21
-2.64921
0
LINE
8
BLACK
6
CONTINUOUS
10
4.92746
20
-2.64921
11
4.90699
21
-2.66969
0
LINE
8
BLACK
6
CONTINUOUS
10
4.90699
20
-2.66969
11
4.92746
21
-2.69016
0
LINE
8
BLACK
6
CONTINUOUS
10
4.92746
20
-2.79016
11
4.94793
21
-2.76969
0
LINE
8
BLACK
6
CONTINUOUS
10
4.94793
20
-2.76969
11
4.92746
21
-2.74921
0
LINE
8
BLACK
6
CONTINUOUS
10
4.92746
20
-2.74921
11
4.90699
21
-2.76969
0
LINE
8
BLACK
6
CONTINUOUS
10
4.90699
20
-2.76969
11
4.92746
21
-2.79016
0
LINE
8
BLACK
6
CONTINUOUS
10
4.92746
20
-2.89016
11
4.94793
21
-2.86969
0
LINE
8
BLACK
6
CONTINUOUS
10
4.94793
20
-2.86969
11
4.92746
21
-2.84921
0
LINE
8
BLACK
6
CONTINUOUS
10
4.92746
20
-2.84921
11
4.90699
21
-2.86969
0
LINE
8
BLACK
6
CONTINUOUS
10
4.90699
20
-2.86969
11
4.92746
21
-2.89016
0
LINE
8
BLACK
6
CONTINUOUS
10
4.92746
20
-2.99016
11
4.94793
21
-2.96969
0
LINE
8
BLACK
6
CONTINUOUS
10
4.94793
20
-2.96969
11
4.92746
21
-2.94921
0
LINE
8
BLACK
6
CONTINUOUS
10
4.92746
20
-2.94921
11
4.90699
21
-2.96969
0
LINE
8
BLACK
6
CONTINUOUS
10
4.90699
20
-2.96969
11
4.92746
21
-2.99016
0
LINE
8
BLACK
6
CONTINUOUS
10
4.92746
20
-3.09016
11
4.94793
21
-3.06969
0
LINE
8
BLACK
6
CONTINUOUS
10
4.94793
20
-3.06969
11
4.92746
21
-3.04921
0
LINE
8
BLACK
6
CONTINUOUS
10
4.92746
20
-3.04921
11
4.90699
21
-3.06969
0
LINE
8
BLACK
6
CONTINUOUS
10
4.90699
20
-3.06969
11
4.92746
21
-3.09016
0
LINE
8
BLACK
6
CONTINUOUS
10
4.92746
20
-3.19016
11
4.94793
21
-3.16969
0
LINE
8
BLACK
6
CONTINUOUS
10
4.94793
20
-3.16969
11
4.92746
21
-3.14921
0
LINE
8
BLACK
6
CONTINUOUS
10
4.92746
20
-3.14921
11
4.90699
21
-3.16969
0
LINE
8
BLACK
6
CONTINUOUS
10
4.90699
20
-3.16969
11
4.92746
21
-3.19016
0
LINE
8
BLACK
6
CONTINUOUS
10
4.92746
20
-3.29016
11
4.94793
21
-3.26969
0
LINE
8
BLACK
6
CONTINUOUS
10
4.94793
20
-3.26969
11
4.92746
21
-3.24921
0
LINE
8
BLACK
6
CONTINUOUS
10
4.92746
20
-3.24921
11
4.90699
21
-3.26969
0
LINE
8
BLACK
6
CONTINUOUS
10
4.90699
20
-3.26969
11
4.92746
21
-3.29016
0
LINE
8
BLACK
6
CONTINUOUS
10
4.92746
20
-3.39016
11
4.94793
21
-3.36969
0
LINE
8
BLACK
6
CONTINUOUS
10
4.94793
20
-3.36969
11
4.92746
21
-3.34921
0
LINE
8
BLACK
6
CONTINUOUS
10
4.92746
20
-3.34921
11
4.90699
21
-3.36969
0
LINE
8
BLACK
6
CONTINUOUS
10
4.90699
20
-3.36969
11
4.92746
21
-3.39016
0
LINE
8
BLACK
6
CONTINUOUS
10
4.92746
20
-3.49016
11
4.94793
21
-3.46969
0
LINE
8
BLACK
6
CONTINUOUS
10
4.94793
20
-3.46969
11
4.92746
21
-3.44921
0
LINE
8
BLACK
6
CONTINUOUS
10
4.92746
20
-3.44921
11
4.90699
21
-3.46969
0
LINE
8
BLACK
6
CONTINUOUS
10
4.90699
20
-3.46969
11
4.92746
21
-3.49016
0
LINE
8
BLACK
6
CONTINUOUS
10
4.92746
20
-3.59016
11
4.94793
21
-3.56969
0
LINE
8
BLACK
6
CONTINUOUS
10
4.94793
20
-3.56969
11
4.92746
21
-3.54921
0
LINE
8
BLACK
6
CONTINUOUS
10
4.92746
20
-3.54921
11
4.90699
21
-3.56969
0
LINE
8
BLACK
6
CONTINUOUS
10
4.90699
20
-3.56969
11
4.92746
21
-3.59016
0
LINE
8
BLACK
6
CONTINUOUS
10
4.92746
20
-3.69016
11
4.94793
21
-3.66969
0
LINE
8
BLACK
6
CONTINUOUS
10
4.94793
20
-3.66969
11
4.92746
21
-3.64921
0
LINE
8
BLACK
6
CONTINUOUS
10
4.92746
20
-3.64921
11
4.90699
21
-3.66969
0
LINE
8
BLACK
6
CONTINUOUS
10
4.90699
20
-3.66969
11
4.92746
21
-3.69016
0
LINE
8
BLACK
6
CONTINUOUS
10
4.92746
20
-3.79016
11
4.94793
21
-3.76969
0
LINE
8
BLACK
6
CONTINUOUS
10
4.94793
20
-3.76969
11
4.92746
21
-3.74921
0
LINE
8
BLACK
6
CONTINUOUS
10
4.92746
20
-3.74921
11
4.90699
21
-3.76969
0
LINE
8
BLACK
6
CONTINUOUS
10
4.90699
20
-3.76969
11
4.92746
21
-3.79016
0
LINE
8
BLACK
6
CONTINUOUS
10
4.92746
20
-3.89016
11
4.94793
21
-3.86969
0
LINE
8
BLACK
6
CONTINUOUS
10
4.94793
20
-3.86969
11
4.92746
21
-3.84921
0
LINE
8
BLACK
6
CONTINUOUS
10
4.92746
20
-3.84921
11
4.90699
21
-3.86969
0
LINE
8
BLACK
6
CONTINUOUS
10
4.90699
20
-3.86969
11
4.92746
21
-3.89016
0
LINE
8
BLACK
6
CONTINUOUS
10
4.92746
20
-3.99016
11
4.94793
21
-3.96969
0
LINE
8
BLACK
6
CONTINUOUS
10
4.94793
20
-3.96969
11
4.92746
21
-3.94921
0
LINE
8
BLACK
6
CONTINUOUS
10
4.92746
20
-3.94921
11
4.90699
21
-3.96969
0
LINE
8
BLACK
6
CONTINUOUS
10
4.90699
20
-3.96969
11
4.92746
21
-3.99016
0
LINE
8
BLACK
6
CONTINUOUS
10
4.92746
20
-4.09016
11
4.94793
21
-4.06969
0
LINE
8
BLACK
6
CONTINUOUS
10
4.94793
20
-4.06969
11
4.92746
21
-4.04921
0
LINE
8
BLACK
6
CONTINUOUS
10
4.92746
20
-4.04921
11
4.90699
21
-4.06969
0
LINE
8
BLACK
6
CONTINUOUS
10
4.90699
20
-4.06969
11
4.92746
21
-4.09016
0
LINE
8
BLACK
6
CONTINUOUS
10
4.92746
20
-4.19016
11
4.94793
21
-4.16969
0
LINE
8
BLACK
6
CONTINUOUS
10
4.94793
20
-4.16969
11
4.92746
21
-4.14921
0
LINE
8
BLACK
6
CONTINUOUS
10
4.92746
20
-4.14921
11
4.90699
21
-4.16969
0
LINE
8
BLACK
6
CONTINUOUS
10
4.90699
20
-4.16969
11
4.92746
21
-4.19016
0
LINE
8
BLACK
6
CONTINUOUS
10
4.92746
20
-4.29016
11
4.94793
21
-4.26969
0
LINE
8
BLACK
6
CONTINUOUS
10
4.94793
20
-4.26969
11
4.92746
21
-4.24921
0
LINE
8
BLACK
6
CONTINUOUS
10
4.92746
20
-4.24921
11
4.90699
21
-4.26969
0
LINE
8
BLACK
6
CONTINUOUS
10
4.90699
20
-4.26969
11
4.92746
21
-4.29016
0
LINE
8
BLACK
6
CONTINUOUS
10
5.92746
20
-2.49016
11
5.94793
21
-2.46969
0
LINE
8
BLACK
6
CONTINUOUS
10
5.94793
20
-2.46969
11
5.92746
21
-2.44921
0
LINE
8
BLACK
6
CONTINUOUS
10
5.92746
20
-2.44921
11
5.90699
21
-2.46969
0
LINE
8
BLACK
6
CONTINUOUS
10
5.90699
20
-2.46969
11
5.92746
21
-2.49016
0
LINE
8
BLACK
6
CONTINUOUS
10
5.92746
20
-2.59016
11
5.94793
21
-2.56969
0
LINE
8
BLACK
6
CONTINUOUS
10
5.94793
20
-2.56969
11
5.92746
21
-2.54921
0
LINE
8
BLACK
6
CONTINUOUS
10
5.92746
20
-2.54921
11
5.90699
21
-2.56969
0
LINE
8
BLACK
6
CONTINUOUS
10
5.90699
20
-2.56969
11
5.92746
21
-2.59016
0
LINE
8
BLACK
6
CONTINUOUS
10
5.92746
20
-2.69016
11
5.94793
21
-2.66969
0
LINE
8
BLACK
6
CONTINUOUS
10
5.94793
20
-2.66969
11
5.92746
21
-2.64921
0
LINE
8
BLACK
6
CONTINUOUS
10
5.92746
20
-2.64921
11
5.90699
21
-2.66969
0
LINE
8
BLACK
6
CONTINUOUS
10
5.90699
20
-2.66969
11
5.92746
21
-2.69016
0
LINE
8
BLACK
6
CONTINUOUS
10
5.92746
20
-2.79016
11
5.94793
21
-2.76969
0
LINE
8
BLACK
6
CONTINUOUS
10
5.94793
20
-2.76969
11
5.92746
21
-2.74921
0
LINE
8
BLACK
6
CONTINUOUS
10
5.92746
20
-2.74921
11
5.90699
21
-2.76969
0
LINE
8
BLACK
6
CONTINUOUS
10
5.90699
20
-2.76969
11
5.92746
21
-2.79016
0
LINE
8
BLACK
6
CONTINUOUS
10
5.92746
20
-2.89016
11
5.94793
21
-2.86969
0
LINE
8
BLACK
6
CONTINUOUS
10
5.94793
20
-2.86969
11
5.92746
21
-2.84921
0
LINE
8
BLACK
6
CONTINUOUS
10
5.92746
20
-2.84921
11
5.90699
21
-2.86969
0
LINE
8
BLACK
6
CONTINUOUS
10
5.90699
20
-2.86969
11
5.92746
21
-2.89016
0
LINE
8
BLACK
6
CONTINUOUS
10
5.92746
20
-2.99016
11
5.94793
21
-2.96969
0
LINE
8
BLACK
6
CONTINUOUS
10
5.94793
20
-2.96969
11
5.92746
21
-2.94921
0
LINE
8
BLACK
6
CONTINUOUS
10
5.92746
20
-2.94921
11
5.90699
21
-2.96969
0
LINE
8
BLACK
6
CONTINUOUS
10
5.90699
20
-2.96969
11
5.92746
21
-2.99016
0
LINE
8
BLACK
6
CONTINUOUS
10
5.92746
20
-3.09016
11
5.94793
21
-3.06969
0
LINE
8
BLACK
6
CONTINUOUS
10
5.94793
20
-3.06969
11
5.92746
21
-3.04921
0
LINE
8
BLACK
6
CONTINUOUS
10
5.92746
20
-3.04921
11
5.90699
21
-3.06969
0
LINE
8
BLACK
6
CONTINUOUS
10
5.90699
20
-3.06969
11
5.92746
21
-3.09016
0
LINE
8
BLACK
6
CONTINUOUS
10
5.92746
20
-3.19016
11
5.94793
21
-3.16969
0
LINE
8
BLACK
6
CONTINUOUS
10
5.94793
20
-3.16969
11
5.92746
21
-3.14921
0
LINE
8
BLACK
6
CONTINUOUS
10
5.92746
20
-3.14921
11
5.90699
21
-3.16969
0
LINE
8
BLACK
6
CONTINUOUS
10
5.90699
20
-3.16969
11
5.92746
21
-3.19016
0
LINE
8
BLACK
6
CONTINUOUS
10
5.92746
20
-3.29016
11
5.94793
21
-3.26969
0
LINE
8
BLACK
6
CONTINUOUS
10
5.94793
20
-3.26969
11
5.92746
21
-3.24921
0
LINE
8
BLACK
6
CONTINUOUS
10
5.92746
20
-3.24921
11
5.90699
21
-3.26969
0
LINE
8
BLACK
6
CONTINUOUS
10
5.90699
20
-3.26969
11
5.92746
21
-3.29016
0
LINE
8
BLACK
6
CONTINUOUS
10
5.92746
20
-3.39016
11
5.94793
21
-3.36969
0
LINE
8
BLACK
6
CONTINUOUS
10
5.94793
20
-3.36969
11
5.92746
21
-3.34921
0
LINE
8
BLACK
6
CONTINUOUS
10
5.92746
20
-3.34921
11
5.90699
21
-3.36969
0
LINE
8
BLACK
6
CONTINUOUS
10
5.90699
20
-3.36969
11
5.92746
21
-3.39016
0
LINE
8
BLACK
6
CONTINUOUS
10
5.92746
20
-3.49016
11
5.94793
21
-3.46969
0
LINE
8
BLACK
6
CONTINUOUS
10
5.94793
20
-3.46969
11
5.92746
21
-3.44921
0
LINE
8
BLACK
6
CONTINUOUS
10
5.92746
20
-3.44921
11
5.90699
21
-3.46969
0
LINE
8
BLACK
6
CONTINUOUS
10
5.90699
20
-3.46969
11
5.92746
21
-3.49016
0
LINE
8
BLACK
6
CONTINUOUS
10
5.92746
20
-3.59016
11
5.94793
21
-3.56969
0
LINE
8
BLACK
6
CONTINUOUS
10
5.94793
20
-3.56969
11
5.92746
21
-3.54921
0
LINE
8
BLACK
6
CONTINUOUS
10
5.92746
20
-3.54921
11
5.90699
21
-3.56969
0
LINE
8
BLACK
6
CONTINUOUS
10
5.90699
20
-3.56969
11
5.92746
21
-3.59016
0
LINE
8
BLACK
6
CONTINUOUS
10
5.92746
20
-3.69016
11
5.94793
21
-3.66969
0
LINE
8
BLACK
6
CONTINUOUS
10
5.94793
20
-3.66969
11
5.92746
21
-3.64921
0
LINE
8
BLACK
6
CONTINUOUS
10
5.92746
20
-3.64921
11
5.90699
21
-3.66969
0
LINE
8
BLACK
6
CONTINUOUS
10
5.90699
20
-3.66969
11
5.92746
21
-3.69016
0
LINE
8
BLACK
6
CONTINUOUS
10
5.92746
20
-3.79016
11
5.94793
21
-3.76969
0
LINE
8
BLACK
6
CONTINUOUS
10
5.94793
20
-3.76969
11
5.92746
21
-3.74921
0
LINE
8
BLACK
6
CONTINUOUS
10
5.92746
20
-3.74921
11
5.90699
21
-3.76969
0
LINE
8
BLACK
6
CONTINUOUS
10
5.90699
20
-3.76969
11
5.92746
21
-3.79016
0
LINE
8
BLACK
6
CONTINUOUS
10
5.92746
20
-3.89016
11
5.94793
21
-3.86969
0
LINE
8
BLACK
6
CONTINUOUS
10
5.94793
20
-3.86969
11
5.92746
21
-3.84921
0
LINE
8
BLACK
6
CONTINUOUS
10
5.92746
20
-3.84921
11
5.90699
21
-3.86969
0
LINE
8
BLACK
6
CONTINUOUS
10
5.90699
20
-3.86969
11
5.92746
21
-3.89016
0
LINE
8
BLACK
6
CONTINUOUS
10
5.92746
20
-3.99016
11
5.94793
21
-3.96969
0
LINE
8
BLACK
6
CONTINUOUS
10
5.94793
20
-3.96969
11
5.92746
21
-3.94921
0
LINE
8
BLACK
6
CONTINUOUS
10
5.92746
20
-3.94921
11
5.90699
21
-3.96969
0
LINE
8
BLACK
6
CONTINUOUS
10
5.90699
20
-3.96969
11
5.92746
21
-3.99016
0
LINE
8
BLACK
6
CONTINUOUS
10
5.92746
20
-4.09016
11
5.94793
21
-4.06969
0
LINE
8
BLACK
6
CONTINUOUS
10
5.94793
20
-4.06969
11
5.92746
21
-4.04921
0
LINE
8
BLACK
6
CONTINUOUS
10
5.92746
20
-4.04921
11
5.90699
21
-4.06969
0
LINE
8
BLACK
6
CONTINUOUS
10
5.90699
20
-4.06969
11
5.92746
21
-4.09016
0
LINE
8
BLACK
6
CONTINUOUS
10
5.92746
20
-4.19016
11
5.94793
21
-4.16969
0
LINE
8
BLACK
6
CONTINUOUS
10
5.94793
20
-4.16969
11
5.92746
21
-4.14921
0
LINE
8
BLACK
6
CONTINUOUS
10
5.92746
20
-4.14921
11
5.90699
21
-4.16969
0
LINE
8
BLACK
6
CONTINUOUS
10
5.90699
20
-4.16969
11
5.92746
21
-4.19016
0
LINE
8
BLACK
6
CONTINUOUS
10
5.92746
20
-4.29016
11
5.94793
21
-4.26969
0
LINE
8
BLACK
6
CONTINUOUS
10
5.94793
20
-4.26969
11
5.92746
21
-4.24921
0
LINE
8
BLACK
6
CONTINUOUS
10
5.92746
20
-4.24921
11
5.90699
21
-4.26969
0
LINE
8
BLACK
6
CONTINUOUS
10
5.90699
20
-4.26969
11
5.92746
21
-4.29016
0
LINE
8
BLACK
6
CONTINUOUS
10
6.86722
20
-2.7061
11
6.91053
21
-2.74941
0
LINE
8
BLACK
6
CONTINUOUS
10
6.91053
20
-2.7061
11
6.86722
21
-2.74941
0
CIRCLE
8
BLACK
10
6.88888
20
-2.72776
40
0.0216535
0
LINE
8
BLACK
6
CONTINUOUS
10
6.86722
20
-2.8561
11
6.91053
21
-2.89941
0
LINE
8
BLACK
6
CONTINUOUS
10
6.91053
20
-2.8561
11
6.86722
21
-2.89941
0
CIRCLE
8
BLACK
10
6.88888
20
-2.87776
40
0.0216535
0
LINE
8
BLACK
6
CONTINUOUS
10
6.86722
20
-3.0061
11
6.91053
21
-3.04941
0
LINE
8
BLACK
6
CONTINUOUS
10
6.91053
20
-3.0061
11
6.86722
21
-3.04941
0
CIRCLE
8
BLACK
10
6.88888
20
-3.02776
40
0.0216535
0
LINE
8
BLACK
6
CONTINUOUS
10
6.86722
20
-3.1561
11
6.91053
21
-3.19941
0
LINE
8
BLACK
6
CONTINUOUS
10
6.91053
20
-3.1561
11
6.86722
21
-3.19941
0
CIRCLE
8
BLACK
10
6.88888
20
-3.17776
40
0.0216535
0
LINE
8
BLACK
6
CONTINUOUS
10
6.86722
20
-3.3061
11
6.91053
21
-3.34941
0
LINE
8
BLACK
6
CONTINUOUS
10
6.91053
20
-3.3061
11
6.86722
21
-3.34941
0
CIRCLE
8
BLACK
10
6.88888
20
-3.32776
40
0.0216535
0
LINE
8
BLACK
6
CONTINUOUS
10
6.86722
20
-3.4561
11
6.91053
21
-3.49941
0
LINE
8
BLACK
6
CONTINUOUS
10
6.91053
20
-3.4561
11
6.86722
21
-3.49941
0
CIRCLE
8
BLACK
10
6.88888
20
-3.47776
40
0.0216535
0
LINE
8
BLACK
6
CONTINUOUS
10
6.86722
20
-3.6061
11
6.91053
21
-3.64941
0
LINE
8
BLACK
6
CONTINUOUS
10
6.91053
20
-3.6061
11
6.86722
21
-3.64941
0
CIRCLE
8
BLACK
10
6.88888
20
-3.62776
40
0.0216535
0
LINE
8
BLACK
6
CONTINUOUS
10
6.86722
20
-3.7561
11
6.91053
21
-3.79941
0
LINE
8
BLACK
6
CONTINUOUS
10
6.91053
20
-3.7561
11
6.86722
21
-3.79941
0
CIRCLE
8
BLACK
10
6.88888
20
-3.77776
40
0.0216535
0
LINE
8
BLACK
6
CONTINUOUS
10
6.86722
20
-3.9061
11
6.91053
21
-3.94941
0
LINE
8
BLACK
6
CONTINUOUS
10
6.91053
20
-3.9061
11
6.86722
21
-3.94941
0
CIRCLE
8
BLACK
10
6.88888
20
-3.92776
40
0.0216535
0
LINE
8
BLACK
6
CONTINUOUS
10
6.86722
20
-4.0561
11
6.91053
21
-4.09941
0
LINE
8
BLACK
6
CONTINUOUS
10
6.91053
20
-4.0561
11
6.86722
21
-4.09941
0
CIRCLE
8
BLACK
10
6.88888
20
-4.07776
40
0.0216535
0
LINE
8
BLACK
6
CONTINUOUS
10
3.80591
20
-1.64498
11
3.86102
21
-1.7001
0
LINE
8
BLACK
6
CONTINUOUS
10
3.86102
20
-1.64498
11
3.80591
21
-1.7001
0
LINE
8
BLACK
6
CONTINUOUS
10
3.83346
20
-1.64498
11
3.83346
21
-1.7001
0
LINE
8
BLACK
6
CONTINUOUS
10
3.80591
20
-1.67254
11
3.86102
21
-1.67254
0
LINE
8
BLACK
6
CONTINUOUS
10
3.90069
20
-2.75354
11
3.95581
21
-2.80866
0
LINE
8
BLACK
6
CONTINUOUS
10
3.95581
20
-2.75354
11
3.90069
21
-2.80866
0
LINE
8
BLACK
6
CONTINUOUS
10
3.92825
20
-2.75354
11
3.92825
21
-2.80866
0
LINE
8
BLACK
6
CONTINUOUS
10
3.90069
20
-2.7811
11
3.95581
21
-2.7811
0
LINE
8
BLACK
6
CONTINUOUS
10
3.90069
20
-2.95354
11
3.95581
21
-3.00866
0
LINE
8
BLACK
6
CONTINUOUS
10
3.95581
20
-2.95354
11
3.90069
21
-3.00866
0
LINE
8
BLACK
6
CONTINUOUS
10
3.92825
20
-2.95354
11
3.92825
21
-3.00866
0
LINE
8
BLACK
6
CONTINUOUS
10
3.90069
20
-2.9811
11
3.95581
21
-2.9811
0
LINE
8
BLACK
6
CONTINUOUS
10
3.90069
20
-3.15354
11
3.95581
21
-3.20866
0
LINE
8
BLACK
6
CONTINUOUS
10
3.95581
20
-3.15354
11
3.90069
21
-3.20866
0
LINE
8
BLACK
6
CONTINUOUS
10
3.92825
20
-3.15354
11
3.92825
21
-3.20866
0
LINE
8
BLACK
6
CONTINUOUS
10
3.90069
20
-3.1811
11
3.95581
21
-3.1811
0
LINE
8
BLACK
6
CONTINUOUS
10
3.90069
20
-3.35354
11
3.95581
21
-3.40866
0
LINE
8
BLACK
6
CONTINUOUS
10
3.95581
20
-3.35354
11
3.90069
21
-3.40866
0
LINE
8
BLACK
6
CONTINUOUS
10
3.92825
20
-3.35354
11
3.92825
21
-3.40866
0
LINE
8
BLACK
6
CONTINUOUS
10
3.90069
20
-3.3811
11
3.95581
21
-3.3811
0
LINE
8
BLACK
6
CONTINUOUS
10
3.90069
20
-3.55354
11
3.95581
21
-3.60866
0
LINE
8
BLACK
6
CONTINUOUS
10
3.95581
20
-3.55354
11
3.90069
21
-3.60866
0
LINE
8
BLACK
6
CONTINUOUS
10
3.92825
20
-3.55354
11
3.92825
21
-3.60866
0
LINE
8
BLACK
6
CONTINUOUS
10
3.90069
20
-3.5811
11
3.95581
21
-3.5811
0
LINE
8
BLACK
6
CONTINUOUS
10
3.90069
20
-3.75354
11
3.95581
21
-3.80866
0
LINE
8
BLACK
6
CONTINUOUS
10
3.95581
20
-3.75354
11
3.90069
21
-3.80866
0
LINE
8
BLACK
6
CONTINUOUS
10
3.92825
20
-3.75354
11
3.92825
21
-3.80866
0
LINE
8
BLACK
6
CONTINUOUS
10
3.90069
20
-3.7811
11
3.95581
21
-3.7811
0
LINE
8
BLACK
6
CONTINUOUS
10
3.90069
20
-3.95354
11
3.95581
21
-4.00866
0
LINE
8
BLACK
6
CONTINUOUS
10
3.95581
20
-3.95354
11
3.90069
21
-4.00866
0
LINE
8
BLACK
6
CONTINUOUS
10
3.92825
20
-3.95354
11
3.92825
21
-4.00866
0
LINE
8
BLACK
6
CONTINUOUS
10
3.90069
20
-3.9811
11
3.95581
21
-3.9811
0
LINE
8
BLACK
6
CONTINUOUS
10
4.00591
20
-1.64498
11
4.06102
21
-1.7001
0
LINE
8
BLACK
6
CONTINUOUS
10
4.06102
20
-1.64498
11
4.00591
21
-1.7001
0
LINE
8
BLACK
6
CONTINUOUS
10
4.03346
20
-1.64498
11
4.03346
21
-1.7001
0
LINE
8
BLACK
6
CONTINUOUS
10
4.00591
20
-1.67254
11
4.06102
21
-1.67254
0
LINE
8
BLACK
6
CONTINUOUS
10
4.20591
20
-1.64498
11
4.26102
21
-1.7001
0
LINE
8
BLACK
6
CONTINUOUS
10
4.26102
20
-1.64498
11
4.20591
21
-1.7001
0
LINE
8
BLACK
6
CONTINUOUS
10
4.23346
20
-1.64498
11
4.23346
21
-1.7001
0
LINE
8
BLACK
6
CONTINUOUS
10
4.20591
20
-1.67254
11
4.26102
21
-1.67254
0
LINE
8
BLACK
6
CONTINUOUS
10
4.40591
20
-1.64498
11
4.46102
21
-1.7001
0
LINE
8
BLACK
6
CONTINUOUS
10
4.46102
20
-1.64498
11
4.40591
21
-1.7001
0
LINE
8
BLACK
6
CONTINUOUS
10
4.43346
20
-1.64498
11
4.43346
21
-1.7001
0
LINE
8
BLACK
6
CONTINUOUS
10
4.40591
20
-1.67254
11
4.46102
21
-1.67254
0
LINE
8
BLACK
6
CONTINUOUS
10
4.60591
20
-1.64498
11
4.66102
21
-1.7001
0
LINE
8
BLACK
6
CONTINUOUS
10
4.66102
20
-1.64498
11
4.60591
21
-1.7001
0
LINE
8
BLACK
6
CONTINUOUS
10
4.63346
20
-1.64498
11
4.63346
21
-1.7001
0
LINE
8
BLACK
6
CONTINUOUS
10
4.60591
20
-1.67254
11
4.66102
21
-1.67254
0
LINE
8
BLACK
6
CONTINUOUS
10
4.80591
20
-1.64498
11
4.86102
21
-1.7001
0
LINE
8
BLACK
6
CONTINUOUS
10
4.86102
20
-1.64498
11
4.80591
21
-1.7001
0
LINE
8
BLACK
6
CONTINUOUS
10
4.83346
20
-1.64498
11
4.83346
21
-1.7001
0
LINE
8
BLACK
6
CONTINUOUS
10
4.80591
20
-1.67254
11
4.86102
21
-1.67254
0
LINE
8
BLACK
6
CONTINUOUS
10
5.05472
20
-1.64498
11
5.10984
21
-1.7001
0
LINE
8
BLACK
6
CONTINUOUS
10
5.10984
20
-1.64498
11
5.05472
21
-1.7001
0
LINE
8
BLACK
6
CONTINUOUS
10
5.08228
20
-1.64498
11
5.08228
21
-1.7001
0
LINE
8
BLACK
6
CONTINUOUS
10
5.05472
20
-1.67254
11
5.10984
21
-1.67254
0
LINE
8
BLACK
6
CONTINUOUS
10
5.25472
20
-1.64498
11
5.30984
21
-1.7001
0
LINE
8
BLACK
6
CONTINUOUS
10
5.30984
20
-1.64498
11
5.25472
21
-1.7001
0
LINE
8
BLACK
6
CONTINUOUS
10
5.28228
20
-1.64498
11
5.28228
21
-1.7001
0
LINE
8
BLACK
6
CONTINUOUS
10
5.25472
20
-1.67254
11
5.30984
21
-1.67254
0
LINE
8
BLACK
6
CONTINUOUS
10
5.45472
20
-1.64498
11
5.50984
21
-1.7001
0
LINE
8
BLACK
6
CONTINUOUS
10
5.50984
20
-1.64498
11
5.45472
21
-1.7001
0
LINE
8
BLACK
6
CONTINUOUS
10
5.48228
20
-1.64498
11
5.48228
21
-1.7001
0
LINE
8
BLACK
6
CONTINUOUS
10
5.45472
20
-1.67254
11
5.50984
21
-1.67254
0
LINE
8
BLACK
6
CONTINUOUS
10
5.65472
20
-1.64498
11
5.70984
21
-1.7001
0
LINE
8
BLACK
6
CONTINUOUS
10
5.70984
20
-1.64498
11
5.65472
21
-1.7001
0
LINE
8
BLACK
6
CONTINUOUS
10
5.68228
20
-1.64498
11
5.68228
21
-1.7001
0
LINE
8
BLACK
6
CONTINUOUS
10
5.65472
20
-1.67254
11
5.70984
21
-1.67254
0
LINE
8
BLACK
6
CONTINUOUS
10
5.85472
20
-1.64498
11
5.90984
21
-1.7001
0
LINE
8
BLACK
6
CONTINUOUS
10
5.90984
20
-1.64498
11
5.85472
21
-1.7001
0
LINE
8
BLACK
6
CONTINUOUS
10
5.88228
20
-1.64498
11
5.88228
21
-1.7001
0
LINE
8
BLACK
6
CONTINUOUS
10
5.85472
20
-1.67254
11
5.90984
21
-1.67254
0
LINE
8
BLACK
6
CONTINUOUS
10
6.05472
20
-1.64498
11
6.10984
21
-1.7001
0
LINE
8
BLACK
6
CONTINUOUS
10
6.10984
20
-1.64498
11
6.05472
21
-1.7001
0
LINE
8
BLACK
6
CONTINUOUS
10
6.08228
20
-1.64498
11
6.08228
21
-1.7001
0
LINE
8
BLACK
6
CONTINUOUS
10
6.05472
20
-1.67254
11
6.10984
21
-1.67254
0
LINE
8
BLACK
6
CONTINUOUS
10
6.25472
20
-1.64498
11
6.30984
21
-1.7001
0
LINE
8
BLACK
6
CONTINUOUS
10
6.30984
20
-1.64498
11
6.25472
21
-1.7001
0
LINE
8
BLACK
6
CONTINUOUS
10
6.28228
20
-1.64498
11
6.28228
21
-1.7001
0
LINE
8
BLACK
6
CONTINUOUS
10
6.25472
20
-1.67254
11
6.30984
21
-1.67254
0
LINE
8
BLACK
6
CONTINUOUS
10
6.45472
20
-1.64498
11
6.50984
21
-1.7001
0
LINE
8
BLACK
6
CONTINUOUS
10
6.50984
20
-1.64498
11
6.45472
21
-1.7001
0
LINE
8
BLACK
6
CONTINUOUS
10
6.48228
20
-1.64498
11
6.48228
21
-1.7001
0
LINE
8
BLACK
6
CONTINUOUS
10
6.45472
20
-1.67254
11
6.50984
21
-1.67254
0
LINE
8
BLACK
6
CONTINUOUS
10
3.69946
20
-4.5242
11
3.69946
21
-4.44546
0
LINE
8
BLACK
6
CONTINUOUS
10
3.69946
20
-4.44546
11
3.7182
21
-4.44546
0
LINE
8
BLACK
6
CONTINUOUS
10
3.7182
20
-4.44546
11
3.72945
21
-4.44921
0
LINE
8
BLACK
6
CONTINUOUS
10
3.72945
20
-4.44921
11
3.73695
21
-4.45671
0
LINE
8
BLACK
6
CONTINUOUS
10
3.73695
20
-4.45671
11
3.7407
21
-4.46421
0
LINE
8
BLACK
6
CONTINUOUS
10
3.7407
20
-4.46421
11
3.74445
21
-4.47921
0
LINE
8
BLACK
6
CONTINUOUS
10
3.74445
20
-4.47921
11
3.74445
21
-4.49046
0
LINE
8
BLACK
6
CONTINUOUS
10
3.74445
20
-4.49046
11
3.7407
21
-4.50546
0
LINE
8
BLACK
6
CONTINUOUS
10
3.7407
20
-4.50546
11
3.73695
21
-4.51295
0
LINE
8
BLACK
6
CONTINUOUS
10
3.73695
20
-4.51295
11
3.72945
21
-4.52045
0
LINE
8
BLACK
6
CONTINUOUS
10
3.72945
20
-4.52045
11
3.7182
21
-4.5242
0
LINE
8
BLACK
6
CONTINUOUS
10
3.7182
20
-4.5242
11
3.69946
21
-4.5242
0
LINE
8
BLACK
6
CONTINUOUS
10
3.7782
20
-4.5242
11
3.7782
21
-4.47171
0
LINE
8
BLACK
6
CONTINUOUS
10
3.7782
20
-4.48671
11
3.78195
21
-4.47921
0
LINE
8
BLACK
6
CONTINUOUS
10
3.78195
20
-4.47921
11
3.7857
21
-4.47546
0
LINE
8
BLACK
6
CONTINUOUS
10
3.7857
20
-4.47546
11
3.79319
21
-4.47171
0
LINE
8
BLACK
6
CONTINUOUS
10
3.79319
20
-4.47171
11
3.80069
21
-4.47171
0
LINE
8
BLACK
6
CONTINUOUS
10
3.82694
20
-4.5242
11
3.82694
21
-4.47171
0
LINE
8
BLACK
6
CONTINUOUS
10
3.82694
20
-4.44546
11
3.82319
21
-4.44921
0
LINE
8
BLACK
6
CONTINUOUS
10
3.82319
20
-4.44921
11
3.82694
21
-4.45296
0
LINE
8
BLACK
6
CONTINUOUS
10
3.82694
20
-4.45296
11
3.83069
21
-4.44921
0
LINE
8
BLACK
6
CONTINUOUS
10
3.83069
20
-4.44921
11
3.82694
21
-4.44546
0
LINE
8
BLACK
6
CONTINUOUS
10
3.82694
20
-4.44546
11
3.82694
21
-4.45296
0
LINE
8
BLACK
6
CONTINUOUS
10
3.87568
20
-4.5242
11
3.86819
21
-4.52045
0
LINE
8
BLACK
6
CONTINUOUS
10
3.86819
20
-4.52045
11
3.86444
21
-4.51295
0
LINE
8
BLACK
6
CONTINUOUS
10
3.86444
20
-4.51295
11
3.86444
21
-4.44546
0
LINE
8
BLACK
6
CONTINUOUS
10
3.91693
20
-4.5242
11
3.90943
21
-4.52045
0
LINE
8
BLACK
6
CONTINUOUS
10
3.90943
20
-4.52045
11
3.90568
21
-4.51295
0
LINE
8
BLACK
6
CONTINUOUS
10
3.90568
20
-4.51295
11
3.90568
21
-4.44546
0
LINE
8
BLACK
6
CONTINUOUS
10
4.00692
20
-4.5242
11
4.00692
21
-4.44546
0
LINE
8
BLACK
6
CONTINUOUS
10
4.00692
20
-4.44546
11
4.03316
21
-4.50171
0
LINE
8
BLACK
6
CONTINUOUS
10
4.03316
20
-4.50171
11
4.05941
21
-4.44546
0
LINE
8
BLACK
6
CONTINUOUS
10
4.05941
20
-4.44546
11
4.05941
21
-4.5242
0
LINE
8
BLACK
6
CONTINUOUS
10
4.13065
20
-4.5242
11
4.13065
21
-4.48296
0
LINE
8
BLACK
6
CONTINUOUS
10
4.13065
20
-4.48296
11
4.1269
21
-4.47546
0
LINE
8
BLACK
6
CONTINUOUS
10
4.1269
20
-4.47546
11
4.1194
21
-4.47171
0
LINE
8
BLACK
6
CONTINUOUS
10
4.1194
20
-4.47171
11
4.10441
21
-4.47171
0
LINE
8
BLACK
6
CONTINUOUS
10
4.10441
20
-4.47171
11
4.09691
21
-4.47546
0
LINE
8
BLACK
6
CONTINUOUS
10
4.13065
20
-4.52045
11
4.12315
21
-4.5242
0
LINE
8
BLACK
6
CONTINUOUS
10
4.12315
20
-4.5242
11
4.10441
21
-4.5242
0
LINE
8
BLACK
6
CONTINUOUS
10
4.10441
20
-4.5242
11
4.09691
21
-4.52045
0
LINE
8
BLACK
6
CONTINUOUS
10
4.09691
20
-4.52045
11
4.09316
21
-4.51295
0
LINE
8
BLACK
6
CONTINUOUS
10
4.09316
20
-4.51295
11
4.09316
21
-4.50546
0
LINE
8
BLACK
6
CONTINUOUS
10
4.09316
20
-4.50546
11
4.09691
21
-4.49796
0
LINE
8
BLACK
6
CONTINUOUS
10
4.09691
20
-4.49796
11
4.10441
21
-4.49421
0
LINE
8
BLACK
6
CONTINUOUS
10
4.10441
20
-4.49421
11
4.12315
21
-4.49421
0
LINE
8
BLACK
6
CONTINUOUS
10
4.12315
20
-4.49421
11
4.13065
21
-4.49046
0
LINE
8
BLACK
6
CONTINUOUS
10
4.16815
20
-4.47171
11
4.16815
21
-4.55045
0
LINE
8
BLACK
6
CONTINUOUS
10
4.16815
20
-4.47546
11
4.17565
21
-4.47171
0
LINE
8
BLACK
6
CONTINUOUS
10
4.17565
20
-4.47171
11
4.19064
21
-4.47171
0
LINE
8
BLACK
6
CONTINUOUS
10
4.19064
20
-4.47171
11
4.19814
21
-4.47546
0
LINE
8
BLACK
6
CONTINUOUS
10
4.19814
20
-4.47546
11
4.20189
21
-4.47921
0
LINE
8
BLACK
6
CONTINUOUS
10
4.20189
20
-4.47921
11
4.20564
21
-4.48671
0
LINE
8
BLACK
6
CONTINUOUS
10
4.20564
20
-4.48671
11
4.20564
21
-4.50921
0
LINE
8
BLACK
6
CONTINUOUS
10
4.20564
20
-4.50921
11
4.20189
21
-4.5167
0
LINE
8
BLACK
6
CONTINUOUS
10
4.20189
20
-4.5167
11
4.19814
21
-4.52045
0
LINE
8
BLACK
6
CONTINUOUS
10
4.19814
20
-4.52045
11
4.19064
21
-4.5242
0
LINE
8
BLACK
6
CONTINUOUS
10
4.19064
20
-4.5242
11
4.17565
21
-4.5242
0
LINE
8
BLACK
6
CONTINUOUS
10
4.17565
20
-4.5242
11
4.16815
21
-4.52045
0
LINE
8
BLACK
6
CONTINUOUS
10
4.23939
20
-4.5167
11
4.24314
21
-4.52045
0
LINE
8
BLACK
6
CONTINUOUS
10
4.24314
20
-4.52045
11
4.23939
21
-4.5242
0
LINE
8
BLACK
6
CONTINUOUS
10
4.23939
20
-4.5242
11
4.23564
21
-4.52045
0
LINE
8
BLACK
6
CONTINUOUS
10
4.23564
20
-4.52045
11
4.23939
21
-4.5167
0
LINE
8
BLACK
6
CONTINUOUS
10
4.23939
20
-4.5167
11
4.23939
21
-4.5242
0
LINE
8
BLACK
6
CONTINUOUS
10
4.23939
20
-4.47546
11
4.24314
21
-4.47921
0
LINE
8
BLACK
6
CONTINUOUS
10
4.24314
20
-4.47921
11
4.23939
21
-4.48296
0
LINE
8
BLACK
6
CONTINUOUS
10
4.23939
20
-4.48296
11
4.23564
21
-4.47921
0
LINE
8
BLACK
6
CONTINUOUS
10
4.23564
20
-4.47921
11
4.23939
21
-4.47546
0
LINE
8
BLACK
6
CONTINUOUS
10
4.23939
20
-4.47546
11
4.23939
21
-4.48296
0
LINE
8
BLACK
6
CONTINUOUS
10
3.56654
20
-4.63819
11
3.59803
21
-4.66969
0
LINE
8
BLACK
6
CONTINUOUS
10
3.59803
20
-4.63819
11
3.56654
21
-4.66969
0
LINE
8
BLACK
6
CONTINUOUS
10
3.71445
20
-4.61082
11
3.72195
21
-4.61082
0
LINE
8
BLACK
6
CONTINUOUS
10
3.72195
20
-4.61082
11
3.72945
21
-4.61457
0
LINE
8
BLACK
6
CONTINUOUS
10
3.72945
20
-4.61457
11
3.7332
21
-4.61832
0
LINE
8
BLACK
6
CONTINUOUS
10
3.7332
20
-4.61832
11
3.73695
21
-4.62582
0
LINE
8
BLACK
6
CONTINUOUS
10
3.73695
20
-4.62582
11
3.7407
21
-4.64081
0
LINE
8
BLACK
6
CONTINUOUS
10
3.7407
20
-4.64081
11
3.7407
21
-4.65956
0
LINE
8
BLACK
6
CONTINUOUS
10
3.7407
20
-4.65956
11
3.73695
21
-4.67456
0
LINE
8
BLACK
6
CONTINUOUS
10
3.73695
20
-4.67456
11
3.7332
21
-4.68206
0
LINE
8
BLACK
6
CONTINUOUS
10
3.7332
20
-4.68206
11
3.72945
21
-4.68581
0
LINE
8
BLACK
6
CONTINUOUS
10
3.72945
20
-4.68581
11
3.72195
21
-4.68956
0
LINE
8
BLACK
6
CONTINUOUS
10
3.72195
20
-4.68956
11
3.71445
21
-4.68956
0
LINE
8
BLACK
6
CONTINUOUS
10
3.71445
20
-4.68956
11
3.70696
21
-4.68581
0
LINE
8
BLACK
6
CONTINUOUS
10
3.70696
20
-4.68581
11
3.70321
21
-4.68206
0
LINE
8
BLACK
6
CONTINUOUS
10
3.70321
20
-4.68206
11
3.69946
21
-4.67456
0
LINE
8
BLACK
6
CONTINUOUS
10
3.69946
20
-4.67456
11
3.69571
21
-4.65956
0
LINE
8
BLACK
6
CONTINUOUS
10
3.69571
20
-4.65956
11
3.69571
21
-4.64081
0
LINE
8
BLACK
6
CONTINUOUS
10
3.69571
20
-4.64081
11
3.69946
21
-4.62582
0
LINE
8
BLACK
6
CONTINUOUS
10
3.69946
20
-4.62582
11
3.70321
21
-4.61832
0
LINE
8
BLACK
6
CONTINUOUS
10
3.70321
20
-4.61832
11
3.70696
21
-4.61457
0
LINE
8
BLACK
6
CONTINUOUS
10
3.70696
20
-4.61457
11
3.71445
21
-4.61082
0
LINE
8
BLACK
6
CONTINUOUS
10
3.77445
20
-4.68206
11
3.7782
21
-4.68581
0
LINE
8
BLACK
6
CONTINUOUS
10
3.7782
20
-4.68581
11
3.77445
21
-4.68956
0
LINE
8
BLACK
6
CONTINUOUS
10
3.77445
20
-4.68956
11
3.7707
21
-4.68581
0
LINE
8
BLACK
6
CONTINUOUS
10
3.7707
20
-4.68581
11
3.77445
21
-4.68206
0
LINE
8
BLACK
6
CONTINUOUS
10
3.77445
20
-4.68206
11
3.77445
21
-4.68956
0
LINE
8
BLACK
6
CONTINUOUS
10
3.82319
20
-4.64456
11
3.81569
21
-4.64081
0
LINE
8
BLACK
6
CONTINUOUS
10
3.81569
20
-4.64081
11
3.81194
21
-4.63706
0
LINE
8
BLACK
6
CONTINUOUS
10
3.81194
20
-4.63706
11
3.80819
21
-4.62957
0
LINE
8
BLACK
6
CONTINUOUS
10
3.80819
20
-4.62957
11
3.80819
21
-4.62582
0
LINE
8
BLACK
6
CONTINUOUS
10
3.80819
20
-4.62582
11
3.81194
21
-4.61832
0
LINE
8
BLACK
6
CONTINUOUS
10
3.81194
20
-4.61832
11
3.81569
21
-4.61457
0
LINE
8
BLACK
6
CONTINUOUS
10
3.81569
20
-4.61457
11
3.82319
21
-4.61082
0
LINE
8
BLACK
6
CONTINUOUS
10
3.82319
20
-4.61082
11
3.83819
21
-4.61082
0
LINE
8
BLACK
6
CONTINUOUS
10
3.83819
20
-4.61082
11
3.84569
21
-4.61457
0
LINE
8
BLACK
6
CONTINUOUS
10
3.84569
20
-4.61457
11
3.84944
21
-4.61832
0
LINE
8
BLACK
6
CONTINUOUS
10
3.84944
20
-4.61832
11
3.85319
21
-4.62582
0
LINE
8
BLACK
6
CONTINUOUS
10
3.85319
20
-4.62582
11
3.85319
21
-4.62957
0
LINE
8
BLACK
6
CONTINUOUS
10
3.85319
20
-4.62957
11
3.84944
21
-4.63706
0
LINE
8
BLACK
6
CONTINUOUS
10
3.84944
20
-4.63706
11
3.84569
21
-4.64081
0
LINE
8
BLACK
6
CONTINUOUS
10
3.84569
20
-4.64081
11
3.83819
21
-4.64456
0
LINE
8
BLACK
6
CONTINUOUS
10
3.83819
20
-4.64456
11
3.82319
21
-4.64456
0
LINE
8
BLACK
6
CONTINUOUS
10
3.82319
20
-4.64456
11
3.81569
21
-4.64831
0
LINE
8
BLACK
6
CONTINUOUS
10
3.81569
20
-4.64831
11
3.81194
21
-4.65206
0
LINE
8
BLACK
6
CONTINUOUS
10
3.81194
20
-4.65206
11
3.80819
21
-4.65956
0
LINE
8
BLACK
6
CONTINUOUS
10
3.80819
20
-4.65956
11
3.80819
21
-4.67456
0
LINE
8
BLACK
6
CONTINUOUS
10
3.80819
20
-4.67456
11
3.81194
21
-4.68206
0
LINE
8
BLACK
6
CONTINUOUS
10
3.81194
20
-4.68206
11
3.81569
21
-4.68581
0
LINE
8
BLACK
6
CONTINUOUS
10
3.81569
20
-4.68581
11
3.82319
21
-4.68956
0
LINE
8
BLACK
6
CONTINUOUS
10
3.82319
20
-4.68956
11
3.83819
21
-4.68956
0
LINE
8
BLACK
6
CONTINUOUS
10
3.83819
20
-4.68956
11
3.84569
21
-4.68581
0
LINE
8
BLACK
6
CONTINUOUS
10
3.84569
20
-4.68581
11
3.84944
21
-4.68206
0
LINE
8
BLACK
6
CONTINUOUS
10
3.84944
20
-4.68206
11
3.85319
21
-4.67456
0
LINE
8
BLACK
6
CONTINUOUS
10
3.85319
20
-4.67456
11
3.85319
21
-4.65956
0
LINE
8
BLACK
6
CONTINUOUS
10
3.85319
20
-4.65956
11
3.84944
21
-4.65206
0
LINE
8
BLACK
6
CONTINUOUS
10
3.84944
20
-4.65206
11
3.84569
21
-4.64831
0
LINE
8
BLACK
6
CONTINUOUS
10
3.84569
20
-4.64831
11
3.83819
21
-4.64456
0
LINE
8
BLACK
6
CONTINUOUS
10
3.90193
20
-4.61082
11
3.90943
21
-4.61082
0
LINE
8
BLACK
6
CONTINUOUS
10
3.90943
20
-4.61082
11
3.91693
21
-4.61457
0
LINE
8
BLACK
6
CONTINUOUS
10
3.91693
20
-4.61457
11
3.92068
21
-4.61832
0
LINE
8
BLACK
6
CONTINUOUS
10
3.92068
20
-4.61832
11
3.92443
21
-4.62582
0
LINE
8
BLACK
6
CONTINUOUS
10
3.92443
20
-4.62582
11
3.92818
21
-4.64081
0
LINE
8
BLACK
6
CONTINUOUS
10
3.92818
20
-4.64081
11
3.92818
21
-4.65956
0
LINE
8
BLACK
6
CONTINUOUS
10
3.92818
20
-4.65956
11
3.92443
21
-4.67456
0
LINE
8
BLACK
6
CONTINUOUS
10
3.92443
20
-4.67456
11
3.92068
21
-4.68206
0
LINE
8
BLACK
6
CONTINUOUS
10
3.92068
20
-4.68206
11
3.91693
21
-4.68581
0
LINE
8
BLACK
6
CONTINUOUS
10
3.91693
20
-4.68581
11
3.90943
21
-4.68956
0
LINE
8
BLACK
6
CONTINUOUS
10
3.90943
20
-4.68956
11
3.90193
21
-4.68956
0
LINE
8
BLACK
6
CONTINUOUS
10
3.90193
20
-4.68956
11
3.89443
21
-4.68581
0
LINE
8
BLACK
6
CONTINUOUS
10
3.89443
20
-4.68581
11
3.89068
21
-4.68206
0
LINE
8
BLACK
6
CONTINUOUS
10
3.89068
20
-4.68206
11
3.88693
21
-4.67456
0
LINE
8
BLACK
6
CONTINUOUS
10
3.88693
20
-4.67456
11
3.88318
21
-4.65956
0
LINE
8
BLACK
6
CONTINUOUS
10
3.88318
20
-4.65956
11
3.88318
21
-4.64081
0
LINE
8
BLACK
6
CONTINUOUS
10
3.88318
20
-4.64081
11
3.88693
21
-4.62582
0
LINE
8
BLACK
6
CONTINUOUS
10
3.88693
20
-4.62582
11
3.89068
21
-4.61832
0
LINE
8
BLACK
6
CONTINUOUS
10
3.89068
20
-4.61832
11
3.89443
21
-4.61457
0
LINE
8
BLACK
6
CONTINUOUS
10
3.89443
20
-4.61457
11
3.90193
21
-4.61082
0
LINE
8
BLACK
6
CONTINUOUS
10
3.97692
20
-4.61082
11
3.98442
21
-4.61082
0
LINE
8
BLACK
6
CONTINUOUS
10
3.98442
20
-4.61082
11
3.99192
21
-4.61457
0
LINE
8
BLACK
6
CONTINUOUS
10
3.99192
20
-4.61457
11
3.99567
21
-4.61832
0
LINE
8
BLACK
6
CONTINUOUS
10
3.99567
20
-4.61832
11
3.99942
21
-4.62582
0
LINE
8
BLACK
6
CONTINUOUS
10
3.99942
20
-4.62582
11
4.00317
21
-4.64081
0
LINE
8
BLACK
6
CONTINUOUS
10
4.00317
20
-4.64081
11
4.00317
21
-4.65956
0
LINE
8
BLACK
6
CONTINUOUS
10
4.00317
20
-4.65956
11
3.99942
21
-4.67456
0
LINE
8
BLACK
6
CONTINUOUS
10
3.99942
20
-4.67456
11
3.99567
21
-4.68206
0
LINE
8
BLACK
6
CONTINUOUS
10
3.99567
20
-4.68206
11
3.99192
21
-4.68581
0
LINE
8
BLACK
6
CONTINUOUS
10
3.99192
20
-4.68581
11
3.98442
21
-4.68956
0
LINE
8
BLACK
6
CONTINUOUS
10
3.98442
20
-4.68956
11
3.97692
21
-4.68956
0
LINE
8
BLACK
6
CONTINUOUS
10
3.97692
20
-4.68956
11
3.96942
21
-4.68581
0
LINE
8
BLACK
6
CONTINUOUS
10
3.96942
20
-4.68581
11
3.96567
21
-4.68206
0
LINE
8
BLACK
6
CONTINUOUS
10
3.96567
20
-4.68206
11
3.96192
21
-4.67456
0
LINE
8
BLACK
6
CONTINUOUS
10
3.96192
20
-4.67456
11
3.95817
21
-4.65956
0
LINE
8
BLACK
6
CONTINUOUS
10
3.95817
20
-4.65956
11
3.95817
21
-4.64081
0
LINE
8
BLACK
6
CONTINUOUS
10
3.95817
20
-4.64081
11
3.96192
21
-4.62582
0
LINE
8
BLACK
6
CONTINUOUS
10
3.96192
20
-4.62582
11
3.96567
21
-4.61832
0
LINE
8
BLACK
6
CONTINUOUS
10
3.96567
20
-4.61832
11
3.96942
21
-4.61457
0
LINE
8
BLACK
6
CONTINUOUS
10
3.96942
20
-4.61457
11
3.97692
21
-4.61082
0
LINE
8
BLACK
6
CONTINUOUS
10
4.03691
20
-4.68956
11
4.03691
21
-4.63706
0
LINE
8
BLACK
6
CONTINUOUS
10
4.03691
20
-4.64456
11
4.04066
21
-4.64081
0
LINE
8
BLACK
6
CONTINUOUS
10
4.04066
20
-4.64081
11
4.04816
21
-4.63706
0
LINE
8
BLACK
6
CONTINUOUS
10
4.04816
20
-4.63706
11
4.05941
21
-4.63706
0
LINE
8
BLACK
6
CONTINUOUS
10
4.05941
20
-4.63706
11
4.06691
21
-4.64081
0
LINE
8
BLACK
6
CONTINUOUS
10
4.06691
20
-4.64081
11
4.07066
21
-4.64831
0
LINE
8
BLACK
6
CONTINUOUS
10
4.07066
20
-4.64831
11
4.07066
21
-4.68956
0
LINE
8
BLACK
6
CONTINUOUS
10
4.07066
20
-4.64831
11
4.07441
21
-4.64081
0
LINE
8
BLACK
6
CONTINUOUS
10
4.07441
20
-4.64081
11
4.08191
21
-4.63706
0
LINE
8
BLACK
6
CONTINUOUS
10
4.08191
20
-4.63706
11
4.09316
21
-4.63706
0
LINE
8
BLACK
6
CONTINUOUS
10
4.09316
20
-4.63706
11
4.10066
21
-4.64081
0
LINE
8
BLACK
6
CONTINUOUS
10
4.10066
20
-4.64081
11
4.10441
21
-4.64831
0
LINE
8
BLACK
6
CONTINUOUS
10
4.10441
20
-4.64831
11
4.10441
21
-4.68956
0
LINE
8
BLACK
6
CONTINUOUS
10
4.1419
20
-4.68956
11
4.1419
21
-4.63706
0
LINE
8
BLACK
6
CONTINUOUS
10
4.1419
20
-4.64456
11
4.14565
21
-4.64081
0
LINE
8
BLACK
6
CONTINUOUS
10
4.14565
20
-4.64081
11
4.15315
21
-4.63706
0
LINE
8
BLACK
6
CONTINUOUS
10
4.15315
20
-4.63706
11
4.1644
21
-4.63706
0
LINE
8
BLACK
6
CONTINUOUS
10
4.1644
20
-4.63706
11
4.1719
21
-4.64081
0
LINE
8
BLACK
6
CONTINUOUS
10
4.1719
20
-4.64081
11
4.17565
21
-4.64831
0
LINE
8
BLACK
6
CONTINUOUS
10
4.17565
20
-4.64831
11
4.17565
21
-4.68956
0
LINE
8
BLACK
6
CONTINUOUS
10
4.17565
20
-4.64831
11
4.1794
21
-4.64081
0
LINE
8
BLACK
6
CONTINUOUS
10
4.1794
20
-4.64081
11
4.1869
21
-4.63706
0
LINE
8
BLACK
6
CONTINUOUS
10
4.1869
20
-4.63706
11
4.19814
21
-4.63706
0
LINE
8
BLACK
6
CONTINUOUS
10
4.19814
20
-4.63706
11
4.20564
21
-4.64081
0
LINE
8
BLACK
6
CONTINUOUS
10
4.20564
20
-4.64081
11
4.20939
21
-4.64831
0
LINE
8
BLACK
6
CONTINUOUS
10
4.20939
20
-4.64831
11
4.20939
21
-4.68956
0
LINE
8
BLACK
6
CONTINUOUS
10
4.36312
20
-4.60707
11
4.29563
21
-4.70831
0
LINE
8
BLACK
6
CONTINUOUS
10
4.46436
20
-4.61082
11
4.47186
21
-4.61082
0
LINE
8
BLACK
6
CONTINUOUS
10
4.47186
20
-4.61082
11
4.47936
21
-4.61457
0
LINE
8
BLACK
6
CONTINUOUS
10
4.47936
20
-4.61457
11
4.48311
21
-4.61832
0
LINE
8
BLACK
6
CONTINUOUS
10
4.48311
20
-4.61832
11
4.48686
21
-4.62582
0
LINE
8
BLACK
6
CONTINUOUS
10
4.48686
20
-4.62582
11
4.49061
21
-4.64081
0
LINE
8
BLACK
6
CONTINUOUS
10
4.49061
20
-4.64081
11
4.49061
21
-4.65956
0
LINE
8
BLACK
6
CONTINUOUS
10
4.49061
20
-4.65956
11
4.48686
21
-4.67456
0
LINE
8
BLACK
6
CONTINUOUS
10
4.48686
20
-4.67456
11
4.48311
21
-4.68206
0
LINE
8
BLACK
6
CONTINUOUS
10
4.48311
20
-4.68206
11
4.47936
21
-4.68581
0
LINE
8
BLACK
6
CONTINUOUS
10
4.47936
20
-4.68581
11
4.47186
21
-4.68956
0
LINE
8
BLACK
6
CONTINUOUS
10
4.47186
20
-4.68956
11
4.46436
21
-4.68956
0
LINE
8
BLACK
6
CONTINUOUS
10
4.46436
20
-4.68956
11
4.45686
21
-4.68581
0
LINE
8
BLACK
6
CONTINUOUS
10
4.45686
20
-4.68581
11
4.45311
21
-4.68206
0
LINE
8
BLACK
6
CONTINUOUS
10
4.45311
20
-4.68206
11
4.44936
21
-4.67456
0
LINE
8
BLACK
6
CONTINUOUS
10
4.44936
20
-4.67456
11
4.44561
21
-4.65956
0
LINE
8
BLACK
6
CONTINUOUS
10
4.44561
20
-4.65956
11
4.44561
21
-4.64081
0
LINE
8
BLACK
6
CONTINUOUS
10
4.44561
20
-4.64081
11
4.44936
21
-4.62582
0
LINE
8
BLACK
6
CONTINUOUS
10
4.44936
20
-4.62582
11
4.45311
21
-4.61832
0
LINE
8
BLACK
6
CONTINUOUS
10
4.45311
20
-4.61832
11
4.45686
21
-4.61457
0
LINE
8
BLACK
6
CONTINUOUS
10
4.45686
20
-4.61457
11
4.46436
21
-4.61082
0
LINE
8
BLACK
6
CONTINUOUS
10
4.52435
20
-4.68206
11
4.5281
21
-4.68581
0
LINE
8
BLACK
6
CONTINUOUS
10
4.5281
20
-4.68581
11
4.52435
21
-4.68956
0
LINE
8
BLACK
6
CONTINUOUS
10
4.52435
20
-4.68956
11
4.5206
21
-4.68581
0
LINE
8
BLACK
6
CONTINUOUS
10
4.5206
20
-4.68581
11
4.52435
21
-4.68206
0
LINE
8
BLACK
6
CONTINUOUS
10
4.52435
20
-4.68206
11
4.52435
21
-4.68956
0
LINE
8
BLACK
6
CONTINUOUS
10
4.57685
20
-4.61082
11
4.58435
21
-4.61082
0
LINE
8
BLACK
6
CONTINUOUS
10
4.58435
20
-4.61082
11
4.59184
21
-4.61457
0
LINE
8
BLACK
6
CONTINUOUS
10
4.59184
20
-4.61457
11
4.59559
21
-4.61832
0
LINE
8
BLACK
6
CONTINUOUS
10
4.59559
20
-4.61832
11
4.59934
21
-4.62582
0
LINE
8
BLACK
6
CONTINUOUS
10
4.59934
20
-4.62582
11
4.60309
21
-4.64081
0
LINE
8
BLACK
6
CONTINUOUS
10
4.60309
20
-4.64081
11
4.60309
21
-4.65956
0
LINE
8
BLACK
6
CONTINUOUS
10
4.60309
20
-4.65956
11
4.59934
21
-4.67456
0
LINE
8
BLACK
6
CONTINUOUS
10
4.59934
20
-4.67456
11
4.59559
21
-4.68206
0
LINE
8
BLACK
6
CONTINUOUS
10
4.59559
20
-4.68206
11
4.59184
21
-4.68581
0
LINE
8
BLACK
6
CONTINUOUS
10
4.59184
20
-4.68581
11
4.58435
21
-4.68956
0
LINE
8
BLACK
6
CONTINUOUS
10
4.58435
20
-4.68956
11
4.57685
21
-4.68956
0
LINE
8
BLACK
6
CONTINUOUS
10
4.57685
20
-4.68956
11
4.56935
21
-4.68581
0
LINE
8
BLACK
6
CONTINUOUS
10
4.56935
20
-4.68581
11
4.5656
21
-4.68206
0
LINE
8
BLACK
6
CONTINUOUS
10
4.5656
20
-4.68206
11
4.56185
21
-4.67456
0
LINE
8
BLACK
6
CONTINUOUS
10
4.56185
20
-4.67456
11
4.5581
21
-4.65956
0
LINE
8
BLACK
6
CONTINUOUS
10
4.5581
20
-4.65956
11
4.5581
21
-4.64081
0
LINE
8
BLACK
6
CONTINUOUS
10
4.5581
20
-4.64081
11
4.56185
21
-4.62582
0
LINE
8
BLACK
6
CONTINUOUS
10
4.56185
20
-4.62582
11
4.5656
21
-4.61832
0
LINE
8
BLACK
6
CONTINUOUS
10
4.5656
20
-4.61832
11
4.56935
21
-4.61457
0
LINE
8
BLACK
6
CONTINUOUS
10
4.56935
20
-4.61457
11
4.57685
21
-4.61082
0
LINE
8
BLACK
6
CONTINUOUS
10
4.62934
20
-4.61082
11
4.67808
21
-4.61082
0
LINE
8
BLACK
6
CONTINUOUS
10
4.67808
20
-4.61082
11
4.65184
21
-4.64081
0
LINE
8
BLACK
6
CONTINUOUS
10
4.65184
20
-4.64081
11
4.66309
21
-4.64081
0
LINE
8
BLACK
6
CONTINUOUS
10
4.66309
20
-4.64081
11
4.67058
21
-4.64456
0
LINE
8
BLACK
6
CONTINUOUS
10
4.67058
20
-4.64456
11
4.67433
21
-4.64831
0
LINE
8
BLACK
6
CONTINUOUS
10
4.67433
20
-4.64831
11
4.67808
21
-4.65581
0
LINE
8
BLACK
6
CONTINUOUS
10
4.67808
20
-4.65581
11
4.67808
21
-4.67456
0
LINE
8
BLACK
6
CONTINUOUS
10
4.67808
20
-4.67456
11
4.67433
21
-4.68206
0
LINE
8
BLACK
6
CONTINUOUS
10
4.67433
20
-4.68206
11
4.67058
21
-4.68581
0
LINE
8
BLACK
6
CONTINUOUS
10
4.67058
20
-4.68581
11
4.66309
21
-4.68956
0
LINE
8
BLACK
6
CONTINUOUS
10
4.66309
20
-4.68956
11
4.64059
21
-4.68956
0
LINE
8
BLACK
6
CONTINUOUS
10
4.64059
20
-4.68956
11
4.63309
21
-4.68581
0
LINE
8
BLACK
6
CONTINUOUS
10
4.63309
20
-4.68581
11
4.62934
21
-4.68206
0
LINE
8
BLACK
6
CONTINUOUS
10
4.75307
20
-4.68956
11
4.70808
21
-4.68956
0
LINE
8
BLACK
6
CONTINUOUS
10
4.73058
20
-4.68956
11
4.73058
21
-4.61082
0
LINE
8
BLACK
6
CONTINUOUS
10
4.73058
20
-4.61082
11
4.72308
21
-4.62207
0
LINE
8
BLACK
6
CONTINUOUS
10
4.72308
20
-4.62207
11
4.71558
21
-4.62957
0
LINE
8
BLACK
6
CONTINUOUS
10
4.71558
20
-4.62957
11
4.70808
21
-4.63331
0
LINE
8
BLACK
6
CONTINUOUS
10
4.82432
20
-4.61082
11
4.78682
21
-4.61082
0
LINE
8
BLACK
6
CONTINUOUS
10
4.78682
20
-4.61082
11
4.78307
21
-4.64831
0
LINE
8
BLACK
6
CONTINUOUS
10
4.78307
20
-4.64831
11
4.78682
21
-4.64456
0
LINE
8
BLACK
6
CONTINUOUS
10
4.78682
20
-4.64456
11
4.79432
21
-4.64081
0
LINE
8
BLACK
6
CONTINUOUS
10
4.79432
20
-4.64081
11
4.81307
21
-4.64081
0
LINE
8
BLACK
6
CONTINUOUS
10
4.81307
20
-4.64081
11
4.82057
21
-4.64456
0
LINE
8
BLACK
6
CONTINUOUS
10
4.82057
20
-4.64456
11
4.82432
21
-4.64831
0
LINE
8
BLACK
6
CONTINUOUS
10
4.82432
20
-4.64831
11
4.82807
21
-4.65581
0
LINE
8
BLACK
6
CONTINUOUS
10
4.82807
20
-4.65581
11
4.82807
21
-4.67456
0
LINE
8
BLACK
6
CONTINUOUS
10
4.82807
20
-4.67456
11
4.82432
21
-4.68206
0
LINE
8
BLACK
6
CONTINUOUS
10
4.82432
20
-4.68206
11
4.82057
21
-4.68581
0
LINE
8
BLACK
6
CONTINUOUS
10
4.82057
20
-4.68581
11
4.81307
21
-4.68956
0
LINE
8
BLACK
6
CONTINUOUS
10
4.81307
20
-4.68956
11
4.79432
21
-4.68956
0
LINE
8
BLACK
6
CONTINUOUS
10
4.79432
20
-4.68956
11
4.78682
21
-4.68581
0
LINE
8
BLACK
6
CONTINUOUS
10
4.78682
20
-4.68581
11
4.78307
21
-4.68206
0
LINE
8
BLACK
6
CONTINUOUS
10
4.85806
20
-4.61082
11
4.85806
21
-4.62582
0
LINE
8
BLACK
6
CONTINUOUS
10
4.88806
20
-4.61082
11
4.88806
21
-4.62582
0
LINE
8
BLACK
6
CONTINUOUS
10
5.00429
20
-4.71955
11
5.00054
21
-4.7158
0
LINE
8
BLACK
6
CONTINUOUS
10
5.00054
20
-4.7158
11
4.99304
21
-4.70456
0
LINE
8
BLACK
6
CONTINUOUS
10
4.99304
20
-4.70456
11
4.9893
21
-4.69706
0
LINE
8
BLACK
6
CONTINUOUS
10
4.9893
20
-4.69706
11
4.98555
21
-4.68581
0
LINE
8
BLACK
6
CONTINUOUS
10
4.98555
20
-4.68581
11
4.9818
21
-4.66706
0
LINE
8
BLACK
6
CONTINUOUS
10
4.9818
20
-4.66706
11
4.9818
21
-4.65206
0
LINE
8
BLACK
6
CONTINUOUS
10
4.9818
20
-4.65206
11
4.98555
21
-4.63331
0
LINE
8
BLACK
6
CONTINUOUS
10
4.98555
20
-4.63331
11
4.9893
21
-4.62207
0
LINE
8
BLACK
6
CONTINUOUS
10
4.9893
20
-4.62207
11
4.99304
21
-4.61457
0
LINE
8
BLACK
6
CONTINUOUS
10
4.99304
20
-4.61457
11
5.00054
21
-4.60332
0
LINE
8
BLACK
6
CONTINUOUS
10
5.00054
20
-4.60332
11
5.00429
21
-4.59957
0
LINE
8
BLACK
6
CONTINUOUS
10
5.07553
20
-4.68956
11
5.03054
21
-4.68956
0
LINE
8
BLACK
6
CONTINUOUS
10
5.05304
20
-4.68956
11
5.05304
21
-4.61082
0
LINE
8
BLACK
6
CONTINUOUS
10
5.05304
20
-4.61082
11
5.04554
21
-4.62207
0
LINE
8
BLACK
6
CONTINUOUS
10
5.04554
20
-4.62207
11
5.03804
21
-4.62957
0
LINE
8
BLACK
6
CONTINUOUS
10
5.03804
20
-4.62957
11
5.03054
21
-4.63331
0
LINE
8
BLACK
6
CONTINUOUS
10
5.12428
20
-4.61082
11
5.13178
21
-4.61082
0
LINE
8
BLACK
6
CONTINUOUS
10
5.13178
20
-4.61082
11
5.13928
21
-4.61457
0
LINE
8
BLACK
6
CONTINUOUS
10
5.13928
20
-4.61457
11
5.14303
21
-4.61832
0
LINE
8
BLACK
6
CONTINUOUS
10
5.14303
20
-4.61832
11
5.14678
21
-4.62582
0
LINE
8
BLACK
6
CONTINUOUS
10
5.14678
20
-4.62582
11
5.15052
21
-4.64081
0
LINE
8
BLACK
6
CONTINUOUS
10
5.15052
20
-4.64081
11
5.15052
21
-4.65956
0
LINE
8
BLACK
6
CONTINUOUS
10
5.15052
20
-4.65956
11
5.14678
21
-4.67456
0
LINE
8
BLACK
6
CONTINUOUS
10
5.14678
20
-4.67456
11
5.14303
21
-4.68206
0
LINE
8
BLACK
6
CONTINUOUS
10
5.14303
20
-4.68206
11
5.13928
21
-4.68581
0
LINE
8
BLACK
6
CONTINUOUS
10
5.13928
20
-4.68581
11
5.13178
21
-4.68956
0
LINE
8
BLACK
6
CONTINUOUS
10
5.13178
20
-4.68956
11
5.12428
21
-4.68956
0
LINE
8
BLACK
6
CONTINUOUS
10
5.12428
20
-4.68956
11
5.11678
21
-4.68581
0
LINE
8
BLACK
6
CONTINUOUS
10
5.11678
20
-4.68581
11
5.11303
21
-4.68206
0
LINE
8
BLACK
6
CONTINUOUS
10
5.11303
20
-4.68206
11
5.10928
21
-4.67456
0
LINE
8
BLACK
6
CONTINUOUS
10
5.10928
20
-4.67456
11
5.10553
21
-4.65956
0
LINE
8
BLACK
6
CONTINUOUS
10
5.10553
20
-4.65956
11
5.10553
21
-4.64081
0
LINE
8
BLACK
6
CONTINUOUS
10
5.10553
20
-4.64081
11
5.10928
21
-4.62582
0
LINE
8
BLACK
6
CONTINUOUS
10
5.10928
20
-4.62582
11
5.11303
21
-4.61832
0
LINE
8
BLACK
6
CONTINUOUS
10
5.11303
20
-4.61832
11
5.11678
21
-4.61457
0
LINE
8
BLACK
6
CONTINUOUS
10
5.11678
20
-4.61457
11
5.12428
21
-4.61082
0
LINE
8
BLACK
6
CONTINUOUS
10
5.24426
20
-4.68956
11
5.24426
21
-4.61082
0
LINE
8
BLACK
6
CONTINUOUS
10
5.27801
20
-4.68956
11
5.27801
21
-4.64831
0
LINE
8
BLACK
6
CONTINUOUS
10
5.27801
20
-4.64831
11
5.27426
21
-4.64081
0
LINE
8
BLACK
6
CONTINUOUS
10
5.27426
20
-4.64081
11
5.26676
21
-4.63706
0
LINE
8
BLACK
6
CONTINUOUS
10
5.26676
20
-4.63706
11
5.25551
21
-4.63706
0
LINE
8
BLACK
6
CONTINUOUS
10
5.25551
20
-4.63706
11
5.24801
21
-4.64081
0
LINE
8
BLACK
6
CONTINUOUS
10
5.24801
20
-4.64081
11
5.24426
21
-4.64456
0
LINE
8
BLACK
6
CONTINUOUS
10
5.32675
20
-4.68956
11
5.31925
21
-4.68581
0
LINE
8
BLACK
6
CONTINUOUS
10
5.31925
20
-4.68581
11
5.3155
21
-4.68206
0
LINE
8
BLACK
6
CONTINUOUS
10
5.3155
20
-4.68206
11
5.31175
21
-4.67456
0
LINE
8
BLACK
6
CONTINUOUS
10
5.31175
20
-4.67456
11
5.31175
21
-4.65206
0
LINE
8
BLACK
6
CONTINUOUS
10
5.31175
20
-4.65206
11
5.3155
21
-4.64456
0
LINE
8
BLACK
6
CONTINUOUS
10
5.3155
20
-4.64456
11
5.31925
21
-4.64081
0
LINE
8
BLACK
6
CONTINUOUS
10
5.31925
20
-4.64081
11
5.32675
21
-4.63706
0
LINE
8
BLACK
6
CONTINUOUS
10
5.32675
20
-4.63706
11
5.338
21
-4.63706
0
LINE
8
BLACK
6
CONTINUOUS
10
5.338
20
-4.63706
11
5.3455
21
-4.64081
0
LINE
8
BLACK
6
CONTINUOUS
10
5.3455
20
-4.64081
11
5.34925
21
-4.64456
0
LINE
8
BLACK
6
CONTINUOUS
10
5.34925
20
-4.64456
11
5.353
21
-4.65206
0
LINE
8
BLACK
6
CONTINUOUS
10
5.353
20
-4.65206
11
5.353
21
-4.67456
0
LINE
8
BLACK
6
CONTINUOUS
10
5.353
20
-4.67456
11
5.34925
21
-4.68206
0
LINE
8
BLACK
6
CONTINUOUS
10
5.34925
20
-4.68206
11
5.3455
21
-4.68581
0
LINE
8
BLACK
6
CONTINUOUS
10
5.3455
20
-4.68581
11
5.338
21
-4.68956
0
LINE
8
BLACK
6
CONTINUOUS
10
5.338
20
-4.68956
11
5.32675
21
-4.68956
0
LINE
8
BLACK
6
CONTINUOUS
10
5.39799
20
-4.68956
11
5.39049
21
-4.68581
0
LINE
8
BLACK
6
CONTINUOUS
10
5.39049
20
-4.68581
11
5.38675
21
-4.67831
0
LINE
8
BLACK
6
CONTINUOUS
10
5.38675
20
-4.67831
11
5.38675
21
-4.61082
0
LINE
8
BLACK
6
CONTINUOUS
10
5.45799
20
-4.68581
11
5.45049
21
-4.68956
0
LINE
8
BLACK
6
CONTINUOUS
10
5.45049
20
-4.68956
11
5.43549
21
-4.68956
0
LINE
8
BLACK
6
CONTINUOUS
10
5.43549
20
-4.68956
11
5.42799
21
-4.68581
0
LINE
8
BLACK
6
CONTINUOUS
10
5.42799
20
-4.68581
11
5.42424
21
-4.67831
0
LINE
8
BLACK
6
CONTINUOUS
10
5.42424
20
-4.67831
11
5.42424
21
-4.64831
0
LINE
8
BLACK
6
CONTINUOUS
10
5.42424
20
-4.64831
11
5.42799
21
-4.64081
0
LINE
8
BLACK
6
CONTINUOUS
10
5.42799
20
-4.64081
11
5.43549
21
-4.63706
0
LINE
8
BLACK
6
CONTINUOUS
10
5.43549
20
-4.63706
11
5.45049
21
-4.63706
0
LINE
8
BLACK
6
CONTINUOUS
10
5.45049
20
-4.63706
11
5.45799
21
-4.64081
0
LINE
8
BLACK
6
CONTINUOUS
10
5.45799
20
-4.64081
11
5.46174
21
-4.64831
0
LINE
8
BLACK
6
CONTINUOUS
10
5.46174
20
-4.64831
11
5.46174
21
-4.65581
0
LINE
8
BLACK
6
CONTINUOUS
10
5.46174
20
-4.65581
11
5.42424
21
-4.66331
0
LINE
8
BLACK
6
CONTINUOUS
10
5.49173
20
-4.68581
11
5.49923
21
-4.68956
0
LINE
8
BLACK
6
CONTINUOUS
10
5.49923
20
-4.68956
11
5.51423
21
-4.68956
0
LINE
8
BLACK
6
CONTINUOUS
10
5.51423
20
-4.68956
11
5.52173
21
-4.68581
0
LINE
8
BLACK
6
CONTINUOUS
10
5.52173
20
-4.68581
11
5.52548
21
-4.67831
0
LINE
8
BLACK
6
CONTINUOUS
10
5.52548
20
-4.67831
11
5.52548
21
-4.67456
0
LINE
8
BLACK
6
CONTINUOUS
10
5.52548
20
-4.67456
11
5.52173
21
-4.66706
0
LINE
8
BLACK
6
CONTINUOUS
10
5.52173
20
-4.66706
11
5.51423
21
-4.66331
0
LINE
8
BLACK
6
CONTINUOUS
10
5.51423
20
-4.66331
11
5.50298
21
-4.66331
0
LINE
8
BLACK
6
CONTINUOUS
10
5.50298
20
-4.66331
11
5.49548
21
-4.65956
0
LINE
8
BLACK
6
CONTINUOUS
10
5.49548
20
-4.65956
11
5.49173
21
-4.65206
0
LINE
8
BLACK
6
CONTINUOUS
10
5.49173
20
-4.65206
11
5.49173
21
-4.64831
0
LINE
8
BLACK
6
CONTINUOUS
10
5.49173
20
-4.64831
11
5.49548
21
-4.64081
0
LINE
8
BLACK
6
CONTINUOUS
10
5.49548
20
-4.64081
11
5.50298
21
-4.63706
0
LINE
8
BLACK
6
CONTINUOUS
10
5.50298
20
-4.63706
11
5.51423
21
-4.63706
0
LINE
8
BLACK
6
CONTINUOUS
10
5.51423
20
-4.63706
11
5.52173
21
-4.64081
0
LINE
8
BLACK
6
CONTINUOUS
10
5.55172
20
-4.71955
11
5.55547
21
-4.7158
0
LINE
8
BLACK
6
CONTINUOUS
10
5.55547
20
-4.7158
11
5.56297
21
-4.70456
0
LINE
8
BLACK
6
CONTINUOUS
10
5.56297
20
-4.70456
11
5.56672
21
-4.69706
0
LINE
8
BLACK
6
CONTINUOUS
10
5.56672
20
-4.69706
11
5.57047
21
-4.68581
0
LINE
8
BLACK
6
CONTINUOUS
10
5.57047
20
-4.68581
11
5.57422
21
-4.66706
0
LINE
8
BLACK
6
CONTINUOUS
10
5.57422
20
-4.66706
11
5.57422
21
-4.65206
0
LINE
8
BLACK
6
CONTINUOUS
10
5.57422
20
-4.65206
11
5.57047
21
-4.63331
0
LINE
8
BLACK
6
CONTINUOUS
10
5.57047
20
-4.63331
11
5.56672
21
-4.62207
0
LINE
8
BLACK
6
CONTINUOUS
10
5.56672
20
-4.62207
11
5.56297
21
-4.61457
0
LINE
8
BLACK
6
CONTINUOUS
10
5.56297
20
-4.61457
11
5.55547
21
-4.60332
0
LINE
8
BLACK
6
CONTINUOUS
10
5.55547
20
-4.60332
11
5.55172
21
-4.59957
0
CIRCLE
8
BLACK
10
3.58031
20
-4.75787
40
0.0177165
0
LINE
8
BLACK
6
CONTINUOUS
10
3.71445
20
-4.71475
11
3.72195
21
-4.71475
0
LINE
8
BLACK
6
CONTINUOUS
10
3.72195
20
-4.71475
11
3.72945
21
-4.7185
0
LINE
8
BLACK
6
CONTINUOUS
10
3.72945
20
-4.7185
11
3.7332
21
-4.72225
0
LINE
8
BLACK
6
CONTINUOUS
10
3.7332
20
-4.72225
11
3.73695
21
-4.72975
0
LINE
8
BLACK
6
CONTINUOUS
10
3.73695
20
-4.72975
11
3.7407
21
-4.74475
0
LINE
8
BLACK
6
CONTINUOUS
10
3.7407
20
-4.74475
11
3.7407
21
-4.7635
0
LINE
8
BLACK
6
CONTINUOUS
10
3.7407
20
-4.7635
11
3.73695
21
-4.7785
0
LINE
8
BLACK
6
CONTINUOUS
10
3.73695
20
-4.7785
11
3.7332
21
-4.786
0
LINE
8
BLACK
6
CONTINUOUS
10
3.7332
20
-4.786
11
3.72945
21
-4.78974
0
LINE
8
BLACK
6
CONTINUOUS
10
3.72945
20
-4.78974
11
3.72195
21
-4.79349
0
LINE
8
BLACK
6
CONTINUOUS
10
3.72195
20
-4.79349
11
3.71445
21
-4.79349
0
LINE
8
BLACK
6
CONTINUOUS
10
3.71445
20
-4.79349
11
3.70696
21
-4.78974
0
LINE
8
BLACK
6
CONTINUOUS
10
3.70696
20
-4.78974
11
3.70321
21
-4.786
0
LINE
8
BLACK
6
CONTINUOUS
10
3.70321
20
-4.786
11
3.69946
21
-4.7785
0
LINE
8
BLACK
6
CONTINUOUS
10
3.69946
20
-4.7785
11
3.69571
21
-4.7635
0
LINE
8
BLACK
6
CONTINUOUS
10
3.69571
20
-4.7635
11
3.69571
21
-4.74475
0
LINE
8
BLACK
6
CONTINUOUS
10
3.69571
20
-4.74475
11
3.69946
21
-4.72975
0
LINE
8
BLACK
6
CONTINUOUS
10
3.69946
20
-4.72975
11
3.70321
21
-4.72225
0
LINE
8
BLACK
6
CONTINUOUS
10
3.70321
20
-4.72225
11
3.70696
21
-4.7185
0
LINE
8
BLACK
6
CONTINUOUS
10
3.70696
20
-4.7185
11
3.71445
21
-4.71475
0
LINE
8
BLACK
6
CONTINUOUS
10
3.77445
20
-4.786
11
3.7782
21
-4.78974
0
LINE
8
BLACK
6
CONTINUOUS
10
3.7782
20
-4.78974
11
3.77445
21
-4.79349
0
LINE
8
BLACK
6
CONTINUOUS
10
3.77445
20
-4.79349
11
3.7707
21
-4.78974
0
LINE
8
BLACK
6
CONTINUOUS
10
3.7707
20
-4.78974
11
3.77445
21
-4.786
0
LINE
8
BLACK
6
CONTINUOUS
10
3.77445
20
-4.786
11
3.77445
21
-4.79349
0
LINE
8
BLACK
6
CONTINUOUS
10
3.81569
20
-4.79349
11
3.83069
21
-4.79349
0
LINE
8
BLACK
6
CONTINUOUS
10
3.83069
20
-4.79349
11
3.83819
21
-4.78974
0
LINE
8
BLACK
6
CONTINUOUS
10
3.83819
20
-4.78974
11
3.84194
21
-4.786
0
LINE
8
BLACK
6
CONTINUOUS
10
3.84194
20
-4.786
11
3.84944
21
-4.77475
0
LINE
8
BLACK
6
CONTINUOUS
10
3.84944
20
-4.77475
11
3.85319
21
-4.75975
0
LINE
8
BLACK
6
CONTINUOUS
10
3.85319
20
-4.75975
11
3.85319
21
-4.72975
0
LINE
8
BLACK
6
CONTINUOUS
10
3.85319
20
-4.72975
11
3.84944
21
-4.72225
0
LINE
8
BLACK
6
CONTINUOUS
10
3.84944
20
-4.72225
11
3.84569
21
-4.7185
0
LINE
8
BLACK
6
CONTINUOUS
10
3.84569
20
-4.7185
11
3.83819
21
-4.71475
0
LINE
8
BLACK
6
CONTINUOUS
10
3.83819
20
-4.71475
11
3.82319
21
-4.71475
0
LINE
8
BLACK
6
CONTINUOUS
10
3.82319
20
-4.71475
11
3.81569
21
-4.7185
0
LINE
8
BLACK
6
CONTINUOUS
10
3.81569
20
-4.7185
11
3.81194
21
-4.72225
0
LINE
8
BLACK
6
CONTINUOUS
10
3.81194
20
-4.72225
11
3.80819
21
-4.72975
0
LINE
8
BLACK
6
CONTINUOUS
10
3.80819
20
-4.72975
11
3.80819
21
-4.7485
0
LINE
8
BLACK
6
CONTINUOUS
10
3.80819
20
-4.7485
11
3.81194
21
-4.756
0
LINE
8
BLACK
6
CONTINUOUS
10
3.81194
20
-4.756
11
3.81569
21
-4.75975
0
LINE
8
BLACK
6
CONTINUOUS
10
3.81569
20
-4.75975
11
3.82319
21
-4.7635
0
LINE
8
BLACK
6
CONTINUOUS
10
3.82319
20
-4.7635
11
3.83819
21
-4.7635
0
LINE
8
BLACK
6
CONTINUOUS
10
3.83819
20
-4.7635
11
3.84569
21
-4.75975
0
LINE
8
BLACK
6
CONTINUOUS
10
3.84569
20
-4.75975
11
3.84944
21
-4.756
0
LINE
8
BLACK
6
CONTINUOUS
10
3.84944
20
-4.756
11
3.85319
21
-4.7485
0
LINE
8
BLACK
6
CONTINUOUS
10
3.90193
20
-4.71475
11
3.90943
21
-4.71475
0
LINE
8
BLACK
6
CONTINUOUS
10
3.90943
20
-4.71475
11
3.91693
21
-4.7185
0
LINE
8
BLACK
6
CONTINUOUS
10
3.91693
20
-4.7185
11
3.92068
21
-4.72225
0
LINE
8
BLACK
6
CONTINUOUS
10
3.92068
20
-4.72225
11
3.92443
21
-4.72975
0
LINE
8
BLACK
6
CONTINUOUS
10
3.92443
20
-4.72975
11
3.92818
21
-4.74475
0
LINE
8
BLACK
6
CONTINUOUS
10
3.92818
20
-4.74475
11
3.92818
21
-4.7635
0
LINE
8
BLACK
6
CONTINUOUS
10
3.92818
20
-4.7635
11
3.92443
21
-4.7785
0
LINE
8
BLACK
6
CONTINUOUS
10
3.92443
20
-4.7785
11
3.92068
21
-4.786
0
LINE
8
BLACK
6
CONTINUOUS
10
3.92068
20
-4.786
11
3.91693
21
-4.78974
0
LINE
8
BLACK
6
CONTINUOUS
10
3.91693
20
-4.78974
11
3.90943
21
-4.79349
0
LINE
8
BLACK
6
CONTINUOUS
10
3.90943
20
-4.79349
11
3.90193
21
-4.79349
0
LINE
8
BLACK
6
CONTINUOUS
10
3.90193
20
-4.79349
11
3.89443
21
-4.78974
0
LINE
8
BLACK
6
CONTINUOUS
10
3.89443
20
-4.78974
11
3.89068
21
-4.786
0
LINE
8
BLACK
6
CONTINUOUS
10
3.89068
20
-4.786
11
3.88693
21
-4.7785
0
LINE
8
BLACK
6
CONTINUOUS
10
3.88693
20
-4.7785
11
3.88318
21
-4.7635
0
LINE
8
BLACK
6
CONTINUOUS
10
3.88318
20
-4.7635
11
3.88318
21
-4.74475
0
LINE
8
BLACK
6
CONTINUOUS
10
3.88318
20
-4.74475
11
3.88693
21
-4.72975
0
LINE
8
BLACK
6
CONTINUOUS
10
3.88693
20
-4.72975
11
3.89068
21
-4.72225
0
LINE
8
BLACK
6
CONTINUOUS
10
3.89068
20
-4.72225
11
3.89443
21
-4.7185
0
LINE
8
BLACK
6
CONTINUOUS
10
3.89443
20
-4.7185
11
3.90193
21
-4.71475
0
LINE
8
BLACK
6
CONTINUOUS
10
3.97692
20
-4.71475
11
3.98442
21
-4.71475
0
LINE
8
BLACK
6
CONTINUOUS
10
3.98442
20
-4.71475
11
3.99192
21
-4.7185
0
LINE
8
BLACK
6
CONTINUOUS
10
3.99192
20
-4.7185
11
3.99567
21
-4.72225
0
LINE
8
BLACK
6
CONTINUOUS
10
3.99567
20
-4.72225
11
3.99942
21
-4.72975
0
LINE
8
BLACK
6
CONTINUOUS
10
3.99942
20
-4.72975
11
4.00317
21
-4.74475
0
LINE
8
BLACK
6
CONTINUOUS
10
4.00317
20
-4.74475
11
4.00317
21
-4.7635
0
LINE
8
BLACK
6
CONTINUOUS
10
4.00317
20
-4.7635
11
3.99942
21
-4.7785
0
LINE
8
BLACK
6
CONTINUOUS
10
3.99942
20
-4.7785
11
3.99567
21
-4.786
0
LINE
8
BLACK
6
CONTINUOUS
10
3.99567
20
-4.786
11
3.99192
21
-4.78974
0
LINE
8
BLACK
6
CONTINUOUS
10
3.99192
20
-4.78974
11
3.98442
21
-4.79349
0
LINE
8
BLACK
6
CONTINUOUS
10
3.98442
20
-4.79349
11
3.97692
21
-4.79349
0
LINE
8
BLACK
6
CONTINUOUS
10
3.97692
20
-4.79349
11
3.96942
21
-4.78974
0
LINE
8
BLACK
6
CONTINUOUS
10
3.96942
20
-4.78974
11
3.96567
21
-4.786
0
LINE
8
BLACK
6
CONTINUOUS
10
3.96567
20
-4.786
11
3.96192
21
-4.7785
0
LINE
8
BLACK
6
CONTINUOUS
10
3.96192
20
-4.7785
11
3.95817
21
-4.7635
0
LINE
8
BLACK
6
CONTINUOUS
10
3.95817
20
-4.7635
11
3.95817
21
-4.74475
0
LINE
8
BLACK
6
CONTINUOUS
10
3.95817
20
-4.74475
11
3.96192
21
-4.72975
0
LINE
8
BLACK
6
CONTINUOUS
10
3.96192
20
-4.72975
11
3.96567
21
-4.72225
0
LINE
8
BLACK
6
CONTINUOUS
10
3.96567
20
-4.72225
11
3.96942
21
-4.7185
0
LINE
8
BLACK
6
CONTINUOUS
10
3.96942
20
-4.7185
11
3.97692
21
-4.71475
0
LINE
8
BLACK
6
CONTINUOUS
10
4.03691
20
-4.79349
11
4.03691
21
-4.741
0
LINE
8
BLACK
6
CONTINUOUS
10
4.03691
20
-4.7485
11
4.04066
21
-4.74475
0
LINE
8
BLACK
6
CONTINUOUS
10
4.04066
20
-4.74475
11
4.04816
21
-4.741
0
LINE
8
BLACK
6
CONTINUOUS
10
4.04816
20
-4.741
11
4.05941
21
-4.741
0
LINE
8
BLACK
6
CONTINUOUS
10
4.05941
20
-4.741
11
4.06691
21
-4.74475
0
LINE
8
BLACK
6
CONTINUOUS
10
4.06691
20
-4.74475
11
4.07066
21
-4.75225
0
LINE
8
BLACK
6
CONTINUOUS
10
4.07066
20
-4.75225
11
4.07066
21
-4.79349
0
LINE
8
BLACK
6
CONTINUOUS
10
4.07066
20
-4.75225
11
4.07441
21
-4.74475
0
LINE
8
BLACK
6
CONTINUOUS
10
4.07441
20
-4.74475
11
4.08191
21
-4.741
0
LINE
8
BLACK
6
CONTINUOUS
10
4.08191
20
-4.741
11
4.09316
21
-4.741
0
LINE
8
BLACK
6
CONTINUOUS
10
4.09316
20
-4.741
11
4.10066
21
-4.74475
0
LINE
8
BLACK
6
CONTINUOUS
10
4.10066
20
-4.74475
11
4.10441
21
-4.75225
0
LINE
8
BLACK
6
CONTINUOUS
10
4.10441
20
-4.75225
11
4.10441
21
-4.79349
0
LINE
8
BLACK
6
CONTINUOUS
10
4.1419
20
-4.79349
11
4.1419
21
-4.741
0
LINE
8
BLACK
6
CONTINUOUS
10
4.1419
20
-4.7485
11
4.14565
21
-4.74475
0
LINE
8
BLACK
6
CONTINUOUS
10
4.14565
20
-4.74475
11
4.15315
21
-4.741
0
LINE
8
BLACK
6
CONTINUOUS
10
4.15315
20
-4.741
11
4.1644
21
-4.741
0
LINE
8
BLACK
6
CONTINUOUS
10
4.1644
20
-4.741
11
4.1719
21
-4.74475
0
LINE
8
BLACK
6
CONTINUOUS
10
4.1719
20
-4.74475
11
4.17565
21
-4.75225
0
LINE
8
BLACK
6
CONTINUOUS
10
4.17565
20
-4.75225
11
4.17565
21
-4.79349
0
LINE
8
BLACK
6
CONTINUOUS
10
4.17565
20
-4.75225
11
4.1794
21
-4.74475
0
LINE
8
BLACK
6
CONTINUOUS
10
4.1794
20
-4.74475
11
4.1869
21
-4.741
0
LINE
8
BLACK
6
CONTINUOUS
10
4.1869
20
-4.741
11
4.19814
21
-4.741
0
LINE
8
BLACK
6
CONTINUOUS
10
4.19814
20
-4.741
11
4.20564
21
-4.74475
0
LINE
8
BLACK
6
CONTINUOUS
10
4.20564
20
-4.74475
11
4.20939
21
-4.75225
0
LINE
8
BLACK
6
CONTINUOUS
10
4.20939
20
-4.75225
11
4.20939
21
-4.79349
0
LINE
8
BLACK
6
CONTINUOUS
10
4.36312
20
-4.711
11
4.29563
21
-4.81224
0
LINE
8
BLACK
6
CONTINUOUS
10
4.46436
20
-4.71475
11
4.47186
21
-4.71475
0
LINE
8
BLACK
6
CONTINUOUS
10
4.47186
20
-4.71475
11
4.47936
21
-4.7185
0
LINE
8
BLACK
6
CONTINUOUS
10
4.47936
20
-4.7185
11
4.48311
21
-4.72225
0
LINE
8
BLACK
6
CONTINUOUS
10
4.48311
20
-4.72225
11
4.48686
21
-4.72975
0
LINE
8
BLACK
6
CONTINUOUS
10
4.48686
20
-4.72975
11
4.49061
21
-4.74475
0
LINE
8
BLACK
6
CONTINUOUS
10
4.49061
20
-4.74475
11
4.49061
21
-4.7635
0
LINE
8
BLACK
6
CONTINUOUS
10
4.49061
20
-4.7635
11
4.48686
21
-4.7785
0
LINE
8
BLACK
6
CONTINUOUS
10
4.48686
20
-4.7785
11
4.48311
21
-4.786
0
LINE
8
BLACK
6
CONTINUOUS
10
4.48311
20
-4.786
11
4.47936
21
-4.78974
0
LINE
8
BLACK
6
CONTINUOUS
10
4.47936
20
-4.78974
11
4.47186
21
-4.79349
0
LINE
8
BLACK
6
CONTINUOUS
10
4.47186
20
-4.79349
11
4.46436
21
-4.79349
0
LINE
8
BLACK
6
CONTINUOUS
10
4.46436
20
-4.79349
11
4.45686
21
-4.78974
0
LINE
8
BLACK
6
CONTINUOUS
10
4.45686
20
-4.78974
11
4.45311
21
-4.786
0
LINE
8
BLACK
6
CONTINUOUS
10
4.45311
20
-4.786
11
4.44936
21
-4.7785
0
LINE
8
BLACK
6
CONTINUOUS
10
4.44936
20
-4.7785
11
4.44561
21
-4.7635
0
LINE
8
BLACK
6
CONTINUOUS
10
4.44561
20
-4.7635
11
4.44561
21
-4.74475
0
LINE
8
BLACK
6
CONTINUOUS
10
4.44561
20
-4.74475
11
4.44936
21
-4.72975
0
LINE
8
BLACK
6
CONTINUOUS
10
4.44936
20
-4.72975
11
4.45311
21
-4.72225
0
LINE
8
BLACK
6
CONTINUOUS
10
4.45311
20
-4.72225
11
4.45686
21
-4.7185
0
LINE
8
BLACK
6
CONTINUOUS
10
4.45686
20
-4.7185
11
4.46436
21
-4.71475
0
LINE
8
BLACK
6
CONTINUOUS
10
4.52435
20
-4.786
11
4.5281
21
-4.78974
0
LINE
8
BLACK
6
CONTINUOUS
10
4.5281
20
-4.78974
11
4.52435
21
-4.79349
0
LINE
8
BLACK
6
CONTINUOUS
10
4.52435
20
-4.79349
11
4.5206
21
-4.78974
0
LINE
8
BLACK
6
CONTINUOUS
10
4.5206
20
-4.78974
11
4.52435
21
-4.786
0
LINE
8
BLACK
6
CONTINUOUS
10
4.52435
20
-4.786
11
4.52435
21
-4.79349
0
LINE
8
BLACK
6
CONTINUOUS
10
4.57685
20
-4.71475
11
4.58435
21
-4.71475
0
LINE
8
BLACK
6
CONTINUOUS
10
4.58435
20
-4.71475
11
4.59184
21
-4.7185
0
LINE
8
BLACK
6
CONTINUOUS
10
4.59184
20
-4.7185
11
4.59559
21
-4.72225
0
LINE
8
BLACK
6
CONTINUOUS
10
4.59559
20
-4.72225
11
4.59934
21
-4.72975
0
LINE
8
BLACK
6
CONTINUOUS
10
4.59934
20
-4.72975
11
4.60309
21
-4.74475
0
LINE
8
BLACK
6
CONTINUOUS
10
4.60309
20
-4.74475
11
4.60309
21
-4.7635
0
LINE
8
BLACK
6
CONTINUOUS
10
4.60309
20
-4.7635
11
4.59934
21
-4.7785
0
LINE
8
BLACK
6
CONTINUOUS
10
4.59934
20
-4.7785
11
4.59559
21
-4.786
0
LINE
8
BLACK
6
CONTINUOUS
10
4.59559
20
-4.786
11
4.59184
21
-4.78974
0
LINE
8
BLACK
6
CONTINUOUS
10
4.59184
20
-4.78974
11
4.58435
21
-4.79349
0
LINE
8
BLACK
6
CONTINUOUS
10
4.58435
20
-4.79349
11
4.57685
21
-4.79349
0
LINE
8
BLACK
6
CONTINUOUS
10
4.57685
20
-4.79349
11
4.56935
21
-4.78974
0
LINE
8
BLACK
6
CONTINUOUS
10
4.56935
20
-4.78974
11
4.5656
21
-4.786
0
LINE
8
BLACK
6
CONTINUOUS
10
4.5656
20
-4.786
11
4.56185
21
-4.7785
0
LINE
8
BLACK
6
CONTINUOUS
10
4.56185
20
-4.7785
11
4.5581
21
-4.7635
0
LINE
8
BLACK
6
CONTINUOUS
10
4.5581
20
-4.7635
11
4.5581
21
-4.74475
0
LINE
8
BLACK
6
CONTINUOUS
10
4.5581
20
-4.74475
11
4.56185
21
-4.72975
0
LINE
8
BLACK
6
CONTINUOUS
10
4.56185
20
-4.72975
11
4.5656
21
-4.72225
0
LINE
8
BLACK
6
CONTINUOUS
10
4.5656
20
-4.72225
11
4.56935
21
-4.7185
0
LINE
8
BLACK
6
CONTINUOUS
10
4.56935
20
-4.7185
11
4.57685
21
-4.71475
0
LINE
8
BLACK
6
CONTINUOUS
10
4.62934
20
-4.71475
11
4.67808
21
-4.71475
0
LINE
8
BLACK
6
CONTINUOUS
10
4.67808
20
-4.71475
11
4.65184
21
-4.74475
0
LINE
8
BLACK
6
CONTINUOUS
10
4.65184
20
-4.74475
11
4.66309
21
-4.74475
0
LINE
8
BLACK
6
CONTINUOUS
10
4.66309
20
-4.74475
11
4.67058
21
-4.7485
0
LINE
8
BLACK
6
CONTINUOUS
10
4.67058
20
-4.7485
11
4.67433
21
-4.75225
0
LINE
8
BLACK
6
CONTINUOUS
10
4.67433
20
-4.75225
11
4.67808
21
-4.75975
0
LINE
8
BLACK
6
CONTINUOUS
10
4.67808
20
-4.75975
11
4.67808
21
-4.7785
0
LINE
8
BLACK
6
CONTINUOUS
10
4.67808
20
-4.7785
11
4.67433
21
-4.786
0
LINE
8
BLACK
6
CONTINUOUS
10
4.67433
20
-4.786
11
4.67058
21
-4.78974
0
LINE
8
BLACK
6
CONTINUOUS
10
4.67058
20
-4.78974
11
4.66309
21
-4.79349
0
LINE
8
BLACK
6
CONTINUOUS
10
4.66309
20
-4.79349
11
4.64059
21
-4.79349
0
LINE
8
BLACK
6
CONTINUOUS
10
4.64059
20
-4.79349
11
4.63309
21
-4.78974
0
LINE
8
BLACK
6
CONTINUOUS
10
4.63309
20
-4.78974
11
4.62934
21
-4.786
0
LINE
8
BLACK
6
CONTINUOUS
10
4.74933
20
-4.71475
11
4.71183
21
-4.71475
0
LINE
8
BLACK
6
CONTINUOUS
10
4.71183
20
-4.71475
11
4.70808
21
-4.75225
0
LINE
8
BLACK
6
CONTINUOUS
10
4.70808
20
-4.75225
11
4.71183
21
-4.7485
0
LINE
8
BLACK
6
CONTINUOUS
10
4.71183
20
-4.7485
11
4.71933
21
-4.74475
0
LINE
8
BLACK
6
CONTINUOUS
10
4.71933
20
-4.74475
11
4.73808
21
-4.74475
0
LINE
8
BLACK
6
CONTINUOUS
10
4.73808
20
-4.74475
11
4.74558
21
-4.7485
0
LINE
8
BLACK
6
CONTINUOUS
10
4.74558
20
-4.7485
11
4.74933
21
-4.75225
0
LINE
8
BLACK
6
CONTINUOUS
10
4.74933
20
-4.75225
11
4.75307
21
-4.75975
0
LINE
8
BLACK
6
CONTINUOUS
10
4.75307
20
-4.75975
11
4.75307
21
-4.7785
0
LINE
8
BLACK
6
CONTINUOUS
10
4.75307
20
-4.7785
11
4.74933
21
-4.786
0
LINE
8
BLACK
6
CONTINUOUS
10
4.74933
20
-4.786
11
4.74558
21
-4.78974
0
LINE
8
BLACK
6
CONTINUOUS
10
4.74558
20
-4.78974
11
4.73808
21
-4.79349
0
LINE
8
BLACK
6
CONTINUOUS
10
4.73808
20
-4.79349
11
4.71933
21
-4.79349
0
LINE
8
BLACK
6
CONTINUOUS
10
4.71933
20
-4.79349
11
4.71183
21
-4.78974
0
LINE
8
BLACK
6
CONTINUOUS
10
4.71183
20
-4.78974
11
4.70808
21
-4.786
0
LINE
8
BLACK
6
CONTINUOUS
10
4.82057
20
-4.741
11
4.82057
21
-4.79349
0
LINE
8
BLACK
6
CONTINUOUS
10
4.80182
20
-4.711
11
4.78307
21
-4.76725
0
LINE
8
BLACK
6
CONTINUOUS
10
4.78307
20
-4.76725
11
4.83181
21
-4.76725
0
LINE
8
BLACK
6
CONTINUOUS
10
4.85806
20
-4.71475
11
4.85806
21
-4.72975
0
LINE
8
BLACK
6
CONTINUOUS
10
4.88806
20
-4.71475
11
4.88806
21
-4.72975
0
LINE
8
BLACK
6
CONTINUOUS
10
5.00429
20
-4.82349
11
5.00054
21
-4.81974
0
LINE
8
BLACK
6
CONTINUOUS
10
5.00054
20
-4.81974
11
4.99304
21
-4.80849
0
LINE
8
BLACK
6
CONTINUOUS
10
4.99304
20
-4.80849
11
4.9893
21
-4.80099
0
LINE
8
BLACK
6
CONTINUOUS
10
4.9893
20
-4.80099
11
4.98555
21
-4.78974
0
LINE
8
BLACK
6
CONTINUOUS
10
4.98555
20
-4.78974
11
4.9818
21
-4.771
0
LINE
8
BLACK
6
CONTINUOUS
10
4.9818
20
-4.771
11
4.9818
21
-4.756
0
LINE
8
BLACK
6
CONTINUOUS
10
4.9818
20
-4.756
11
4.98555
21
-4.73725
0
LINE
8
BLACK
6
CONTINUOUS
10
4.98555
20
-4.73725
11
4.9893
21
-4.726
0
LINE
8
BLACK
6
CONTINUOUS
10
4.9893
20
-4.726
11
4.99304
21
-4.7185
0
LINE
8
BLACK
6
CONTINUOUS
10
4.99304
20
-4.7185
11
5.00054
21
-4.70726
0
LINE
8
BLACK
6
CONTINUOUS
10
5.00054
20
-4.70726
11
5.00429
21
-4.70351
0
LINE
8
BLACK
6
CONTINUOUS
10
5.03054
20
-4.72225
11
5.03429
21
-4.7185
0
LINE
8
BLACK
6
CONTINUOUS
10
5.03429
20
-4.7185
11
5.04179
21
-4.71475
0
LINE
8
BLACK
6
CONTINUOUS
10
5.04179
20
-4.71475
11
5.06054
21
-4.71475
0
LINE
8
BLACK
6
CONTINUOUS
10
5.06054
20
-4.71475
11
5.06804
21
-4.7185
0
LINE
8
BLACK
6
CONTINUOUS
10
5.06804
20
-4.7185
11
5.07178
21
-4.72225
0
LINE
8
BLACK
6
CONTINUOUS
10
5.07178
20
-4.72225
11
5.07553
21
-4.72975
0
LINE
8
BLACK
6
CONTINUOUS
10
5.07553
20
-4.72975
11
5.07553
21
-4.73725
0
LINE
8
BLACK
6
CONTINUOUS
10
5.07553
20
-4.73725
11
5.07178
21
-4.7485
0
LINE
8
BLACK
6
CONTINUOUS
10
5.07178
20
-4.7485
11
5.02679
21
-4.79349
0
LINE
8
BLACK
6
CONTINUOUS
10
5.02679
20
-4.79349
11
5.07553
21
-4.79349
0
LINE
8
BLACK
6
CONTINUOUS
10
5.16927
20
-4.79349
11
5.16927
21
-4.71475
0
LINE
8
BLACK
6
CONTINUOUS
10
5.20302
20
-4.79349
11
5.20302
21
-4.75225
0
LINE
8
BLACK
6
CONTINUOUS
10
5.20302
20
-4.75225
11
5.19927
21
-4.74475
0
LINE
8
BLACK
6
CONTINUOUS
10
5.19927
20
-4.74475
11
5.19177
21
-4.741
0
LINE
8
BLACK
6
CONTINUOUS
10
5.19177
20
-4.741
11
5.18052
21
-4.741
0
LINE
8
BLACK
6
CONTINUOUS
10
5.18052
20
-4.741
11
5.17302
21
-4.74475
0
LINE
8
BLACK
6
CONTINUOUS
10
5.17302
20
-4.74475
11
5.16927
21
-4.7485
0
LINE
8
BLACK
6
CONTINUOUS
10
5.25176
20
-4.79349
11
5.24426
21
-4.78974
0
LINE
8
BLACK
6
CONTINUOUS
10
5.24426
20
-4.78974
11
5.24051
21
-4.786
0
LINE
8
BLACK
6
CONTINUOUS
10
5.24051
20
-4.786
11
5.23676
21
-4.7785
0
LINE
8
BLACK
6
CONTINUOUS
10
5.23676
20
-4.7785
11
5.23676
21
-4.756
0
LINE
8
BLACK
6
CONTINUOUS
10
5.23676
20
-4.756
11
5.24051
21
-4.7485
0
LINE
8
BLACK
6
CONTINUOUS
10
5.24051
20
-4.7485
11
5.24426
21
-4.74475
0
LINE
8
BLACK
6
CONTINUOUS
10
5.24426
20
-4.74475
11
5.25176
21
-4.741
0
LINE
8
BLACK
6
CONTINUOUS
10
5.25176
20
-4.741
11
5.26301
21
-4.741
0
LINE
8
BLACK
6
CONTINUOUS
10
5.26301
20
-4.741
11
5.27051
21
-4.74475
0
LINE
8
BLACK
6
CONTINUOUS
10
5.27051
20
-4.74475
11
5.27426
21
-4.7485
0
LINE
8
BLACK
6
CONTINUOUS
10
5.27426
20
-4.7485
11
5.27801
21
-4.756
0
LINE
8
BLACK
6
CONTINUOUS
10
5.27801
20
-4.756
11
5.27801
21
-4.7785
0
LINE
8
BLACK
6
CONTINUOUS
10
5.27801
20
-4.7785
11
5.27426
21
-4.786
0
LINE
8
BLACK
6
CONTINUOUS
10
5.27426
20
-4.786
11
5.27051
21
-4.78974
0
LINE
8
BLACK
6
CONTINUOUS
10
5.27051
20
-4.78974
11
5.26301
21
-4.79349
0
LINE
8
BLACK
6
CONTINUOUS
10
5.26301
20
-4.79349
11
5.25176
21
-4.79349
0
LINE
8
BLACK
6
CONTINUOUS
10
5.323
20
-4.79349
11
5.3155
21
-4.78974
0
LINE
8
BLACK
6
CONTINUOUS
10
5.3155
20
-4.78974
11
5.31175
21
-4.78225
0
LINE
8
BLACK
6
CONTINUOUS
10
5.31175
20
-4.78225
11
5.31175
21
-4.71475
0
LINE
8
BLACK
6
CONTINUOUS
10
5.383
20
-4.78974
11
5.3755
21
-4.79349
0
LINE
8
BLACK
6
CONTINUOUS
10
5.3755
20
-4.79349
11
5.3605
21
-4.79349
0
LINE
8
BLACK
6
CONTINUOUS
10
5.3605
20
-4.79349
11
5.353
21
-4.78974
0
LINE
8
BLACK
6
CONTINUOUS
10
5.353
20
-4.78974
11
5.34925
21
-4.78225
0
LINE
8
BLACK
6
CONTINUOUS
10
5.34925
20
-4.78225
11
5.34925
21
-4.75225
0
LINE
8
BLACK
6
CONTINUOUS
10
5.34925
20
-4.75225
11
5.353
21
-4.74475
0
LINE
8
BLACK
6
CONTINUOUS
10
5.353
20
-4.74475
11
5.3605
21
-4.741
0
LINE
8
BLACK
6
CONTINUOUS
10
5.3605
20
-4.741
11
5.3755
21
-4.741
0
LINE
8
BLACK
6
CONTINUOUS
10
5.3755
20
-4.741
11
5.383
21
-4.74475
0
LINE
8
BLACK
6
CONTINUOUS
10
5.383
20
-4.74475
11
5.38675
21
-4.75225
0
LINE
8
BLACK
6
CONTINUOUS
10
5.38675
20
-4.75225
11
5.38675
21
-4.75975
0
LINE
8
BLACK
6
CONTINUOUS
10
5.38675
20
-4.75975
11
5.34925
21
-4.76725
0
LINE
8
BLACK
6
CONTINUOUS
10
5.41674
20
-4.78974
11
5.42424
21
-4.79349
0
LINE
8
BLACK
6
CONTINUOUS
10
5.42424
20
-4.79349
11
5.43924
21
-4.79349
0
LINE
8
BLACK
6
CONTINUOUS
10
5.43924
20
-4.79349
11
5.44674
21
-4.78974
0
LINE
8
BLACK
6
CONTINUOUS
10
5.44674
20
-4.78974
11
5.45049
21
-4.78225
0
LINE
8
BLACK
6
CONTINUOUS
10
5.45049
20
-4.78225
11
5.45049
21
-4.7785
0
LINE
8
BLACK
6
CONTINUOUS
10
5.45049
20
-4.7785
11
5.44674
21
-4.771
0
LINE
8
BLACK
6
CONTINUOUS
10
5.44674
20
-4.771
11
5.43924
21
-4.76725
0
LINE
8
BLACK
6
CONTINUOUS
10
5.43924
20
-4.76725
11
5.42799
21
-4.76725
0
LINE
8
BLACK
6
CONTINUOUS
10
5.42799
20
-4.76725
11
5.42049
21
-4.7635
0
LINE
8
BLACK
6
CONTINUOUS
10
5.42049
20
-4.7635
11
5.41674
21
-4.756
0
LINE
8
BLACK
6
CONTINUOUS
10
5.41674
20
-4.756
11
5.41674
21
-4.75225
0
LINE
8
BLACK
6
CONTINUOUS
10
5.41674
20
-4.75225
11
5.42049
21
-4.74475
0
LINE
8
BLACK
6
CONTINUOUS
10
5.42049
20
-4.74475
11
5.42799
21
-4.741
0
LINE
8
BLACK
6
CONTINUOUS
10
5.42799
20
-4.741
11
5.43924
21
-4.741
0
LINE
8
BLACK
6
CONTINUOUS
10
5.43924
20
-4.741
11
5.44674
21
-4.74475
0
LINE
8
BLACK
6
CONTINUOUS
10
5.47673
20
-4.82349
11
5.48048
21
-4.81974
0
LINE
8
BLACK
6
CONTINUOUS
10
5.48048
20
-4.81974
11
5.48798
21
-4.80849
0
LINE
8
BLACK
6
CONTINUOUS
10
5.48798
20
-4.80849
11
5.49173
21
-4.80099
0
LINE
8
BLACK
6
CONTINUOUS
10
5.49173
20
-4.80099
11
5.49548
21
-4.78974
0
LINE
8
BLACK
6
CONTINUOUS
10
5.49548
20
-4.78974
11
5.49923
21
-4.771
0
LINE
8
BLACK
6
CONTINUOUS
10
5.49923
20
-4.771
11
5.49923
21
-4.756
0
LINE
8
BLACK
6
CONTINUOUS
10
5.49923
20
-4.756
11
5.49548
21
-4.73725
0
LINE
8
BLACK
6
CONTINUOUS
10
5.49548
20
-4.73725
11
5.49173
21
-4.726
0
LINE
8
BLACK
6
CONTINUOUS
10
5.49173
20
-4.726
11
5.48798
21
-4.7185
0
LINE
8
BLACK
6
CONTINUOUS
10
5.48798
20
-4.7185
11
5.48048
21
-4.70726
0
LINE
8
BLACK
6
CONTINUOUS
10
5.48048
20
-4.70726
11
5.47673
21
-4.70351
0
LINE
8
BLACK
6
CONTINUOUS
10
3.57933
20
-4.84311
11
3.57933
21
-4.88051
0
LINE
8
BLACK
6
CONTINUOUS
10
3.56063
20
-4.86181
11
3.59803
21
-4.86181
0
LINE
8
BLACK
6
CONTINUOUS
10
3.71445
20
-4.81869
11
3.72195
21
-4.81869
0
LINE
8
BLACK
6
CONTINUOUS
10
3.72195
20
-4.81869
11
3.72945
21
-4.82244
0
LINE
8
BLACK
6
CONTINUOUS
10
3.72945
20
-4.82244
11
3.7332
21
-4.82619
0
LINE
8
BLACK
6
CONTINUOUS
10
3.7332
20
-4.82619
11
3.73695
21
-4.83369
0
LINE
8
BLACK
6
CONTINUOUS
10
3.73695
20
-4.83369
11
3.7407
21
-4.84869
0
LINE
8
BLACK
6
CONTINUOUS
10
3.7407
20
-4.84869
11
3.7407
21
-4.86744
0
LINE
8
BLACK
6
CONTINUOUS
10
3.7407
20
-4.86744
11
3.73695
21
-4.88243
0
LINE
8
BLACK
6
CONTINUOUS
10
3.73695
20
-4.88243
11
3.7332
21
-4.88993
0
LINE
8
BLACK
6
CONTINUOUS
10
3.7332
20
-4.88993
11
3.72945
21
-4.89368
0
LINE
8
BLACK
6
CONTINUOUS
10
3.72945
20
-4.89368
11
3.72195
21
-4.89743
0
LINE
8
BLACK
6
CONTINUOUS
10
3.72195
20
-4.89743
11
3.71445
21
-4.89743
0
LINE
8
BLACK
6
CONTINUOUS
10
3.71445
20
-4.89743
11
3.70696
21
-4.89368
0
LINE
8
BLACK
6
CONTINUOUS
10
3.70696
20
-4.89368
11
3.70321
21
-4.88993
0
LINE
8
BLACK
6
CONTINUOUS
10
3.70321
20
-4.88993
11
3.69946
21
-4.88243
0
LINE
8
BLACK
6
CONTINUOUS
10
3.69946
20
-4.88243
11
3.69571
21
-4.86744
0
LINE
8
BLACK
6
CONTINUOUS
10
3.69571
20
-4.86744
11
3.69571
21
-4.84869
0
LINE
8
BLACK
6
CONTINUOUS
10
3.69571
20
-4.84869
11
3.69946
21
-4.83369
0
LINE
8
BLACK
6
CONTINUOUS
10
3.69946
20
-4.83369
11
3.70321
21
-4.82619
0
LINE
8
BLACK
6
CONTINUOUS
10
3.70321
20
-4.82619
11
3.70696
21
-4.82244
0
LINE
8
BLACK
6
CONTINUOUS
10
3.70696
20
-4.82244
11
3.71445
21
-4.81869
0
LINE
8
BLACK
6
CONTINUOUS
10
3.77445
20
-4.88993
11
3.7782
21
-4.89368
0
LINE
8
BLACK
6
CONTINUOUS
10
3.7782
20
-4.89368
11
3.77445
21
-4.89743
0
LINE
8
BLACK
6
CONTINUOUS
10
3.77445
20
-4.89743
11
3.7707
21
-4.89368
0
LINE
8
BLACK
6
CONTINUOUS
10
3.7707
20
-4.89368
11
3.77445
21
-4.88993
0
LINE
8
BLACK
6
CONTINUOUS
10
3.77445
20
-4.88993
11
3.77445
21
-4.89743
0
LINE
8
BLACK
6
CONTINUOUS
10
3.81569
20
-4.89743
11
3.83069
21
-4.89743
0
LINE
8
BLACK
6
CONTINUOUS
10
3.83069
20
-4.89743
11
3.83819
21
-4.89368
0
LINE
8
BLACK
6
CONTINUOUS
10
3.83819
20
-4.89368
11
3.84194
21
-4.88993
0
LINE
8
BLACK
6
CONTINUOUS
10
3.84194
20
-4.88993
11
3.84944
21
-4.87868
0
LINE
8
BLACK
6
CONTINUOUS
10
3.84944
20
-4.87868
11
3.85319
21
-4.86369
0
LINE
8
BLACK
6
CONTINUOUS
10
3.85319
20
-4.86369
11
3.85319
21
-4.83369
0
LINE
8
BLACK
6
CONTINUOUS
10
3.85319
20
-4.83369
11
3.84944
21
-4.82619
0
LINE
8
BLACK
6
CONTINUOUS
10
3.84944
20
-4.82619
11
3.84569
21
-4.82244
0
LINE
8
BLACK
6
CONTINUOUS
10
3.84569
20
-4.82244
11
3.83819
21
-4.81869
0
LINE
8
BLACK
6
CONTINUOUS
10
3.83819
20
-4.81869
11
3.82319
21
-4.81869
0
LINE
8
BLACK
6
CONTINUOUS
10
3.82319
20
-4.81869
11
3.81569
21
-4.82244
0
LINE
8
BLACK
6
CONTINUOUS
10
3.81569
20
-4.82244
11
3.81194
21
-4.82619
0
LINE
8
BLACK
6
CONTINUOUS
10
3.81194
20
-4.82619
11
3.80819
21
-4.83369
0
LINE
8
BLACK
6
CONTINUOUS
10
3.80819
20
-4.83369
11
3.80819
21
-4.85244
0
LINE
8
BLACK
6
CONTINUOUS
10
3.80819
20
-4.85244
11
3.81194
21
-4.85994
0
LINE
8
BLACK
6
CONTINUOUS
10
3.81194
20
-4.85994
11
3.81569
21
-4.86369
0
LINE
8
BLACK
6
CONTINUOUS
10
3.81569
20
-4.86369
11
3.82319
21
-4.86744
0
LINE
8
BLACK
6
CONTINUOUS
10
3.82319
20
-4.86744
11
3.83819
21
-4.86744
0
LINE
8
BLACK
6
CONTINUOUS
10
3.83819
20
-4.86744
11
3.84569
21
-4.86369
0
LINE
8
BLACK
6
CONTINUOUS
10
3.84569
20
-4.86369
11
3.84944
21
-4.85994
0
LINE
8
BLACK
6
CONTINUOUS
10
3.84944
20
-4.85994
11
3.85319
21
-4.85244
0
LINE
8
BLACK
6
CONTINUOUS
10
3.92443
20
-4.81869
11
3.88693
21
-4.81869
0
LINE
8
BLACK
6
CONTINUOUS
10
3.88693
20
-4.81869
11
3.88318
21
-4.85619
0
LINE
8
BLACK
6
CONTINUOUS
10
3.88318
20
-4.85619
11
3.88693
21
-4.85244
0
LINE
8
BLACK
6
CONTINUOUS
10
3.88693
20
-4.85244
11
3.89443
21
-4.84869
0
LINE
8
BLACK
6
CONTINUOUS
10
3.89443
20
-4.84869
11
3.91318
21
-4.84869
0
LINE
8
BLACK
6
CONTINUOUS
10
3.91318
20
-4.84869
11
3.92068
21
-4.85244
0
LINE
8
BLACK
6
CONTINUOUS
10
3.92068
20
-4.85244
11
3.92443
21
-4.85619
0
LINE
8
BLACK
6
CONTINUOUS
10
3.92443
20
-4.85619
11
3.92818
21
-4.86369
0
LINE
8
BLACK
6
CONTINUOUS
10
3.92818
20
-4.86369
11
3.92818
21
-4.88243
0
LINE
8
BLACK
6
CONTINUOUS
10
3.92818
20
-4.88243
11
3.92443
21
-4.88993
0
LINE
8
BLACK
6
CONTINUOUS
10
3.92443
20
-4.88993
11
3.92068
21
-4.89368
0
LINE
8
BLACK
6
CONTINUOUS
10
3.92068
20
-4.89368
11
3.91318
21
-4.89743
0
LINE
8
BLACK
6
CONTINUOUS
10
3.91318
20
-4.89743
11
3.89443
21
-4.89743
0
LINE
8
BLACK
6
CONTINUOUS
10
3.89443
20
-4.89743
11
3.88693
21
-4.89368
0
LINE
8
BLACK
6
CONTINUOUS
10
3.88693
20
-4.89368
11
3.88318
21
-4.88993
0
LINE
8
BLACK
6
CONTINUOUS
10
3.97692
20
-4.81869
11
3.98442
21
-4.81869
0
LINE
8
BLACK
6
CONTINUOUS
10
3.98442
20
-4.81869
11
3.99192
21
-4.82244
0
LINE
8
BLACK
6
CONTINUOUS
10
3.99192
20
-4.82244
11
3.99567
21
-4.82619
0
LINE
8
BLACK
6
CONTINUOUS
10
3.99567
20
-4.82619
11
3.99942
21
-4.83369
0
LINE
8
BLACK
6
CONTINUOUS
10
3.99942
20
-4.83369
11
4.00317
21
-4.84869
0
LINE
8
BLACK
6
CONTINUOUS
10
4.00317
20
-4.84869
11
4.00317
21
-4.86744
0
LINE
8
BLACK
6
CONTINUOUS
10
4.00317
20
-4.86744
11
3.99942
21
-4.88243
0
LINE
8
BLACK
6
CONTINUOUS
10
3.99942
20
-4.88243
11
3.99567
21
-4.88993
0
LINE
8
BLACK
6
CONTINUOUS
10
3.99567
20
-4.88993
11
3.99192
21
-4.89368
0
LINE
8
BLACK
6
CONTINUOUS
10
3.99192
20
-4.89368
11
3.98442
21
-4.89743
0
LINE
8
BLACK
6
CONTINUOUS
10
3.98442
20
-4.89743
11
3.97692
21
-4.89743
0
LINE
8
BLACK
6
CONTINUOUS
10
3.97692
20
-4.89743
11
3.96942
21
-4.89368
0
LINE
8
BLACK
6
CONTINUOUS
10
3.96942
20
-4.89368
11
3.96567
21
-4.88993
0
LINE
8
BLACK
6
CONTINUOUS
10
3.96567
20
-4.88993
11
3.96192
21
-4.88243
0
LINE
8
BLACK
6
CONTINUOUS
10
3.96192
20
-4.88243
11
3.95817
21
-4.86744
0
LINE
8
BLACK
6
CONTINUOUS
10
3.95817
20
-4.86744
11
3.95817
21
-4.84869
0
LINE
8
BLACK
6
CONTINUOUS
10
3.95817
20
-4.84869
11
3.96192
21
-4.83369
0
LINE
8
BLACK
6
CONTINUOUS
10
3.96192
20
-4.83369
11
3.96567
21
-4.82619
0
LINE
8
BLACK
6
CONTINUOUS
10
3.96567
20
-4.82619
11
3.96942
21
-4.82244
0
LINE
8
BLACK
6
CONTINUOUS
10
3.96942
20
-4.82244
11
3.97692
21
-4.81869
0
LINE
8
BLACK
6
CONTINUOUS
10
4.03691
20
-4.89743
11
4.03691
21
-4.84494
0
LINE
8
BLACK
6
CONTINUOUS
10
4.03691
20
-4.85244
11
4.04066
21
-4.84869
0
LINE
8
BLACK
6
CONTINUOUS
10
4.04066
20
-4.84869
11
4.04816
21
-4.84494
0
LINE
8
BLACK
6
CONTINUOUS
10
4.04816
20
-4.84494
11
4.05941
21
-4.84494
0
LINE
8
BLACK
6
CONTINUOUS
10
4.05941
20
-4.84494
11
4.06691
21
-4.84869
0
LINE
8
BLACK
6
CONTINUOUS
10
4.06691
20
-4.84869
11
4.07066
21
-4.85619
0
LINE
8
BLACK
6
CONTINUOUS
10
4.07066
20
-4.85619
11
4.07066
21
-4.89743
0
LINE
8
BLACK
6
CONTINUOUS
10
4.07066
20
-4.85619
11
4.07441
21
-4.84869
0
LINE
8
BLACK
6
CONTINUOUS
10
4.07441
20
-4.84869
11
4.08191
21
-4.84494
0
LINE
8
BLACK
6
CONTINUOUS
10
4.08191
20
-4.84494
11
4.09316
21
-4.84494
0
LINE
8
BLACK
6
CONTINUOUS
10
4.09316
20
-4.84494
11
4.10066
21
-4.84869
0
LINE
8
BLACK
6
CONTINUOUS
10
4.10066
20
-4.84869
11
4.10441
21
-4.85619
0
LINE
8
BLACK
6
CONTINUOUS
10
4.10441
20
-4.85619
11
4.10441
21
-4.89743
0
LINE
8
BLACK
6
CONTINUOUS
10
4.1419
20
-4.89743
11
4.1419
21
-4.84494
0
LINE
8
BLACK
6
CONTINUOUS
10
4.1419
20
-4.85244
11
4.14565
21
-4.84869
0
LINE
8
BLACK
6
CONTINUOUS
10
4.14565
20
-4.84869
11
4.15315
21
-4.84494
0
LINE
8
BLACK
6
CONTINUOUS
10
4.15315
20
-4.84494
11
4.1644
21
-4.84494
0
LINE
8
BLACK
6
CONTINUOUS
10
4.1644
20
-4.84494
11
4.1719
21
-4.84869
0
LINE
8
BLACK
6
CONTINUOUS
10
4.1719
20
-4.84869
11
4.17565
21
-4.85619
0
LINE
8
BLACK
6
CONTINUOUS
10
4.17565
20
-4.85619
11
4.17565
21
-4.89743
0
LINE
8
BLACK
6
CONTINUOUS
10
4.17565
20
-4.85619
11
4.1794
21
-4.84869
0
LINE
8
BLACK
6
CONTINUOUS
10
4.1794
20
-4.84869
11
4.1869
21
-4.84494
0
LINE
8
BLACK
6
CONTINUOUS
10
4.1869
20
-4.84494
11
4.19814
21
-4.84494
0
LINE
8
BLACK
6
CONTINUOUS
10
4.19814
20
-4.84494
11
4.20564
21
-4.84869
0
LINE
8
BLACK
6
CONTINUOUS
10
4.20564
20
-4.84869
11
4.20939
21
-4.85619
0
LINE
8
BLACK
6
CONTINUOUS
10
4.20939
20
-4.85619
11
4.20939
21
-4.89743
0
LINE
8
BLACK
6
CONTINUOUS
10
4.36312
20
-4.81494
11
4.29563
21
-4.91618
0
LINE
8
BLACK
6
CONTINUOUS
10
4.46436
20
-4.81869
11
4.47186
21
-4.81869
0
LINE
8
BLACK
6
CONTINUOUS
10
4.47186
20
-4.81869
11
4.47936
21
-4.82244
0
LINE
8
BLACK
6
CONTINUOUS
10
4.47936
20
-4.82244
11
4.48311
21
-4.82619
0
LINE
8
BLACK
6
CONTINUOUS
10
4.48311
20
-4.82619
11
4.48686
21
-4.83369
0
LINE
8
BLACK
6
CONTINUOUS
10
4.48686
20
-4.83369
11
4.49061
21
-4.84869
0
LINE
8
BLACK
6
CONTINUOUS
10
4.49061
20
-4.84869
11
4.49061
21
-4.86744
0
LINE
8
BLACK
6
CONTINUOUS
10
4.49061
20
-4.86744
11
4.48686
21
-4.88243
0
LINE
8
BLACK
6
CONTINUOUS
10
4.48686
20
-4.88243
11
4.48311
21
-4.88993
0
LINE
8
BLACK
6
CONTINUOUS
10
4.48311
20
-4.88993
11
4.47936
21
-4.89368
0
LINE
8
BLACK
6
CONTINUOUS
10
4.47936
20
-4.89368
11
4.47186
21
-4.89743
0
LINE
8
BLACK
6
CONTINUOUS
10
4.47186
20
-4.89743
11
4.46436
21
-4.89743
0
LINE
8
BLACK
6
CONTINUOUS
10
4.46436
20
-4.89743
11
4.45686
21
-4.89368
0
LINE
8
BLACK
6
CONTINUOUS
10
4.45686
20
-4.89368
11
4.45311
21
-4.88993
0
LINE
8
BLACK
6
CONTINUOUS
10
4.45311
20
-4.88993
11
4.44936
21
-4.88243
0
LINE
8
BLACK
6
CONTINUOUS
10
4.44936
20
-4.88243
11
4.44561
21
-4.86744
0
LINE
8
BLACK
6
CONTINUOUS
10
4.44561
20
-4.86744
11
4.44561
21
-4.84869
0
LINE
8
BLACK
6
CONTINUOUS
10
4.44561
20
-4.84869
11
4.44936
21
-4.83369
0
LINE
8
BLACK
6
CONTINUOUS
10
4.44936
20
-4.83369
11
4.45311
21
-4.82619
0
LINE
8
BLACK
6
CONTINUOUS
10
4.45311
20
-4.82619
11
4.45686
21
-4.82244
0
LINE
8
BLACK
6
CONTINUOUS
10
4.45686
20
-4.82244
11
4.46436
21
-4.81869
0
LINE
8
BLACK
6
CONTINUOUS
10
4.52435
20
-4.88993
11
4.5281
21
-4.89368
0
LINE
8
BLACK
6
CONTINUOUS
10
4.5281
20
-4.89368
11
4.52435
21
-4.89743
0
LINE
8
BLACK
6
CONTINUOUS
10
4.52435
20
-4.89743
11
4.5206
21
-4.89368
0
LINE
8
BLACK
6
CONTINUOUS
10
4.5206
20
-4.89368
11
4.52435
21
-4.88993
0
LINE
8
BLACK
6
CONTINUOUS
10
4.52435
20
-4.88993
11
4.52435
21
-4.89743
0
LINE
8
BLACK
6
CONTINUOUS
10
4.57685
20
-4.81869
11
4.58435
21
-4.81869
0
LINE
8
BLACK
6
CONTINUOUS
10
4.58435
20
-4.81869
11
4.59184
21
-4.82244
0
LINE
8
BLACK
6
CONTINUOUS
10
4.59184
20
-4.82244
11
4.59559
21
-4.82619
0
LINE
8
BLACK
6
CONTINUOUS
10
4.59559
20
-4.82619
11
4.59934
21
-4.83369
0
LINE
8
BLACK
6
CONTINUOUS
10
4.59934
20
-4.83369
11
4.60309
21
-4.84869
0
LINE
8
BLACK
6
CONTINUOUS
10
4.60309
20
-4.84869
11
4.60309
21
-4.86744
0
LINE
8
BLACK
6
CONTINUOUS
10
4.60309
20
-4.86744
11
4.59934
21
-4.88243
0
LINE
8
BLACK
6
CONTINUOUS
10
4.59934
20
-4.88243
11
4.59559
21
-4.88993
0
LINE
8
BLACK
6
CONTINUOUS
10
4.59559
20
-4.88993
11
4.59184
21
-4.89368
0
LINE
8
BLACK
6
CONTINUOUS
10
4.59184
20
-4.89368
11
4.58435
21
-4.89743
0
LINE
8
BLACK
6
CONTINUOUS
10
4.58435
20
-4.89743
11
4.57685
21
-4.89743
0
LINE
8
BLACK
6
CONTINUOUS
10
4.57685
20
-4.89743
11
4.56935
21
-4.89368
0
LINE
8
BLACK
6
CONTINUOUS
10
4.56935
20
-4.89368
11
4.5656
21
-4.88993
0
LINE
8
BLACK
6
CONTINUOUS
10
4.5656
20
-4.88993
11
4.56185
21
-4.88243
0
LINE
8
BLACK
6
CONTINUOUS
10
4.56185
20
-4.88243
11
4.5581
21
-4.86744
0
LINE
8
BLACK
6
CONTINUOUS
10
4.5581
20
-4.86744
11
4.5581
21
-4.84869
0
LINE
8
BLACK
6
CONTINUOUS
10
4.5581
20
-4.84869
11
4.56185
21
-4.83369
0
LINE
8
BLACK
6
CONTINUOUS
10
4.56185
20
-4.83369
11
4.5656
21
-4.82619
0
LINE
8
BLACK
6
CONTINUOUS
10
4.5656
20
-4.82619
11
4.56935
21
-4.82244
0
LINE
8
BLACK
6
CONTINUOUS
10
4.56935
20
-4.82244
11
4.57685
21
-4.81869
0
LINE
8
BLACK
6
CONTINUOUS
10
4.62934
20
-4.81869
11
4.67808
21
-4.81869
0
LINE
8
BLACK
6
CONTINUOUS
10
4.67808
20
-4.81869
11
4.65184
21
-4.84869
0
LINE
8
BLACK
6
CONTINUOUS
10
4.65184
20
-4.84869
11
4.66309
21
-4.84869
0
LINE
8
BLACK
6
CONTINUOUS
10
4.66309
20
-4.84869
11
4.67058
21
-4.85244
0
LINE
8
BLACK
6
CONTINUOUS
10
4.67058
20
-4.85244
11
4.67433
21
-4.85619
0
LINE
8
BLACK
6
CONTINUOUS
10
4.67433
20
-4.85619
11
4.67808
21
-4.86369
0
LINE
8
BLACK
6
CONTINUOUS
10
4.67808
20
-4.86369
11
4.67808
21
-4.88243
0
LINE
8
BLACK
6
CONTINUOUS
10
4.67808
20
-4.88243
11
4.67433
21
-4.88993
0
LINE
8
BLACK
6
CONTINUOUS
10
4.67433
20
-4.88993
11
4.67058
21
-4.89368
0
LINE
8
BLACK
6
CONTINUOUS
10
4.67058
20
-4.89368
11
4.66309
21
-4.89743
0
LINE
8
BLACK
6
CONTINUOUS
10
4.66309
20
-4.89743
11
4.64059
21
-4.89743
0
LINE
8
BLACK
6
CONTINUOUS
10
4.64059
20
-4.89743
11
4.63309
21
-4.89368
0
LINE
8
BLACK
6
CONTINUOUS
10
4.63309
20
-4.89368
11
4.62934
21
-4.88993
0
LINE
8
BLACK
6
CONTINUOUS
10
4.70433
20
-4.81869
11
4.75682
21
-4.81869
0
LINE
8
BLACK
6
CONTINUOUS
10
4.75682
20
-4.81869
11
4.72308
21
-4.89743
0
LINE
8
BLACK
6
CONTINUOUS
10
4.82057
20
-4.84494
11
4.82057
21
-4.89743
0
LINE
8
BLACK
6
CONTINUOUS
10
4.80182
20
-4.81494
11
4.78307
21
-4.87118
0
LINE
8
BLACK
6
CONTINUOUS
10
4.78307
20
-4.87118
11
4.83181
21
-4.87118
0
LINE
8
BLACK
6
CONTINUOUS
10
4.85806
20
-4.81869
11
4.85806
21
-4.83369
0
LINE
8
BLACK
6
CONTINUOUS
10
4.88806
20
-4.81869
11
4.88806
21
-4.83369
0
LINE
8
BLACK
6
CONTINUOUS
10
5.00429
20
-4.92743
11
5.00054
21
-4.92368
0
LINE
8
BLACK
6
CONTINUOUS
10
5.00054
20
-4.92368
11
4.99304
21
-4.91243
0
LINE
8
BLACK
6
CONTINUOUS
10
4.99304
20
-4.91243
11
4.9893
21
-4.90493
0
LINE
8
BLACK
6
CONTINUOUS
10
4.9893
20
-4.90493
11
4.98555
21
-4.89368
0
LINE
8
BLACK
6
CONTINUOUS
10
4.98555
20
-4.89368
11
4.9818
21
-4.87493
0
LINE
8
BLACK
6
CONTINUOUS
10
4.9818
20
-4.87493
11
4.9818
21
-4.85994
0
LINE
8
BLACK
6
CONTINUOUS
10
4.9818
20
-4.85994
11
4.98555
21
-4.84119
0
LINE
8
BLACK
6
CONTINUOUS
10
4.98555
20
-4.84119
11
4.9893
21
-4.82994
0
LINE
8
BLACK
6
CONTINUOUS
10
4.9893
20
-4.82994
11
4.99304
21
-4.82244
0
LINE
8
BLACK
6
CONTINUOUS
10
4.99304
20
-4.82244
11
5.00054
21
-4.81119
0
LINE
8
BLACK
6
CONTINUOUS
10
5.00054
20
-4.81119
11
5.00429
21
-4.80744
0
LINE
8
BLACK
6
CONTINUOUS
10
5.02679
20
-4.81869
11
5.07928
21
-4.81869
0
LINE
8
BLACK
6
CONTINUOUS
10
5.07928
20
-4.81869
11
5.04554
21
-4.89743
0
LINE
8
BLACK
6
CONTINUOUS
10
5.16927
20
-4.89743
11
5.16927
21
-4.81869
0
LINE
8
BLACK
6
CONTINUOUS
10
5.20302
20
-4.89743
11
5.20302
21
-4.85619
0
LINE
8
BLACK
6
CONTINUOUS
10
5.20302
20
-4.85619
11
5.19927
21
-4.84869
0
LINE
8
BLACK
6
CONTINUOUS
10
5.19927
20
-4.84869
11
5.19177
21
-4.84494
0
LINE
8
BLACK
6
CONTINUOUS
10
5.19177
20
-4.84494
11
5.18052
21
-4.84494
0
LINE
8
BLACK
6
CONTINUOUS
10
5.18052
20
-4.84494
11
5.17302
21
-4.84869
0
LINE
8
BLACK
6
CONTINUOUS
10
5.17302
20
-4.84869
11
5.16927
21
-4.85244
0
LINE
8
BLACK
6
CONTINUOUS
10
5.25176
20
-4.89743
11
5.24426
21
-4.89368
0
LINE
8
BLACK
6
CONTINUOUS
10
5.24426
20
-4.89368
11
5.24051
21
-4.88993
0
LINE
8
BLACK
6
CONTINUOUS
10
5.24051
20
-4.88993
11
5.23676
21
-4.88243
0
LINE
8
BLACK
6
CONTINUOUS
10
5.23676
20
-4.88243
11
5.23676
21
-4.85994
0
LINE
8
BLACK
6
CONTINUOUS
10
5.23676
20
-4.85994
11
5.24051
21
-4.85244
0
LINE
8
BLACK
6
CONTINUOUS
10
5.24051
20
-4.85244
11
5.24426
21
-4.84869
0
LINE
8
BLACK
6
CONTINUOUS
10
5.24426
20
-4.84869
11
5.25176
21
-4.84494
0
LINE
8
BLACK
6
CONTINUOUS
10
5.25176
20
-4.84494
11
5.26301
21
-4.84494
0
LINE
8
BLACK
6
CONTINUOUS
10
5.26301
20
-4.84494
11
5.27051
21
-4.84869
0
LINE
8
BLACK
6
CONTINUOUS
10
5.27051
20
-4.84869
11
5.27426
21
-4.85244
0
LINE
8
BLACK
6
CONTINUOUS
10
5.27426
20
-4.85244
11
5.27801
21
-4.85994
0
LINE
8
BLACK
6
CONTINUOUS
10
5.27801
20
-4.85994
11
5.27801
21
-4.88243
0
LINE
8
BLACK
6
CONTINUOUS
10
5.27801
20
-4.88243
11
5.27426
21
-4.88993
0
LINE
8
BLACK
6
CONTINUOUS
10
5.27426
20
-4.88993
11
5.27051
21
-4.89368
0
LINE
8
BLACK
6
CONTINUOUS
10
5.27051
20
-4.89368
11
5.26301
21
-4.89743
0
LINE
8
BLACK
6
CONTINUOUS
10
5.26301
20
-4.89743
11
5.25176
21
-4.89743
0
LINE
8
BLACK
6
CONTINUOUS
10
5.323
20
-4.89743
11
5.3155
21
-4.89368
0
LINE
8
BLACK
6
CONTINUOUS
10
5.3155
20
-4.89368
11
5.31175
21
-4.88618
0
LINE
8
BLACK
6
CONTINUOUS
10
5.31175
20
-4.88618
11
5.31175
21
-4.81869
0
LINE
8
BLACK
6
CONTINUOUS
10
5.383
20
-4.89368
11
5.3755
21
-4.89743
0
LINE
8
BLACK
6
CONTINUOUS
10
5.3755
20
-4.89743
11
5.3605
21
-4.89743
0
LINE
8
BLACK
6
CONTINUOUS
10
5.3605
20
-4.89743
11
5.353
21
-4.89368
0
LINE
8
BLACK
6
CONTINUOUS
10
5.353
20
-4.89368
11
5.34925
21
-4.88618
0
LINE
8
BLACK
6
CONTINUOUS
10
5.34925
20
-4.88618
11
5.34925
21
-4.85619
0
LINE
8
BLACK
6
CONTINUOUS
10
5.34925
20
-4.85619
11
5.353
21
-4.84869
0
LINE
8
BLACK
6
CONTINUOUS
10
5.353
20
-4.84869
11
5.3605
21
-4.84494
0
LINE
8
BLACK
6
CONTINUOUS
10
5.3605
20
-4.84494
11
5.3755
21
-4.84494
0
LINE
8
BLACK
6
CONTINUOUS
10
5.3755
20
-4.84494
11
5.383
21
-4.84869
0
LINE
8
BLACK
6
CONTINUOUS
10
5.383
20
-4.84869
11
5.38675
21
-4.85619
0
LINE
8
BLACK
6
CONTINUOUS
10
5.38675
20
-4.85619
11
5.38675
21
-4.86369
0
LINE
8
BLACK
6
CONTINUOUS
10
5.38675
20
-4.86369
11
5.34925
21
-4.87118
0
LINE
8
BLACK
6
CONTINUOUS
10
5.41674
20
-4.89368
11
5.42424
21
-4.89743
0
LINE
8
BLACK
6
CONTINUOUS
10
5.42424
20
-4.89743
11
5.43924
21
-4.89743
0
LINE
8
BLACK
6
CONTINUOUS
10
5.43924
20
-4.89743
11
5.44674
21
-4.89368
0
LINE
8
BLACK
6
CONTINUOUS
10
5.44674
20
-4.89368
11
5.45049
21
-4.88618
0
LINE
8
BLACK
6
CONTINUOUS
10
5.45049
20
-4.88618
11
5.45049
21
-4.88243
0
LINE
8
BLACK
6
CONTINUOUS
10
5.45049
20
-4.88243
11
5.44674
21
-4.87493
0
LINE
8
BLACK
6
CONTINUOUS
10
5.44674
20
-4.87493
11
5.43924
21
-4.87118
0
LINE
8
BLACK
6
CONTINUOUS
10
5.43924
20
-4.87118
11
5.42799
21
-4.87118
0
LINE
8
BLACK
6
CONTINUOUS
10
5.42799
20
-4.87118
11
5.42049
21
-4.86744
0
LINE
8
BLACK
6
CONTINUOUS
10
5.42049
20
-4.86744
11
5.41674
21
-4.85994
0
LINE
8
BLACK
6
CONTINUOUS
10
5.41674
20
-4.85994
11
5.41674
21
-4.85619
0
LINE
8
BLACK
6
CONTINUOUS
10
5.41674
20
-4.85619
11
5.42049
21
-4.84869
0
LINE
8
BLACK
6
CONTINUOUS
10
5.42049
20
-4.84869
11
5.42799
21
-4.84494
0
LINE
8
BLACK
6
CONTINUOUS
10
5.42799
20
-4.84494
11
5.43924
21
-4.84494
0
LINE
8
BLACK
6
CONTINUOUS
10
5.43924
20
-4.84494
11
5.44674
21
-4.84869
0
LINE
8
BLACK
6
CONTINUOUS
10
5.47673
20
-4.92743
11
5.48048
21
-4.92368
0
LINE
8
BLACK
6
CONTINUOUS
10
5.48048
20
-4.92368
11
5.48798
21
-4.91243
0
LINE
8
BLACK
6
CONTINUOUS
10
5.48798
20
-4.91243
11
5.49173
21
-4.90493
0
LINE
8
BLACK
6
CONTINUOUS
10
5.49173
20
-4.90493
11
5.49548
21
-4.89368
0
LINE
8
BLACK
6
CONTINUOUS
10
5.49548
20
-4.89368
11
5.49923
21
-4.87493
0
LINE
8
BLACK
6
CONTINUOUS
10
5.49923
20
-4.87493
11
5.49923
21
-4.85994
0
LINE
8
BLACK
6
CONTINUOUS
10
5.49923
20
-4.85994
11
5.49548
21
-4.84119
0
LINE
8
BLACK
6
CONTINUOUS
10
5.49548
20
-4.84119
11
5.49173
21
-4.82994
0
LINE
8
BLACK
6
CONTINUOUS
10
5.49173
20
-4.82994
11
5.48798
21
-4.82244
0
LINE
8
BLACK
6
CONTINUOUS
10
5.48798
20
-4.82244
11
5.48048
21
-4.81119
0
LINE
8
BLACK
6
CONTINUOUS
10
5.48048
20
-4.81119
11
5.47673
21
-4.80744
0
LINE
8
BLACK
6
CONTINUOUS
10
3.59227
20
-4.97967
11
3.59227
21
-4.95183
0
LINE
8
BLACK
6
CONTINUOUS
10
3.59227
20
-4.95183
11
3.56443
21
-4.95183
0
LINE
8
BLACK
6
CONTINUOUS
10
3.56443
20
-4.95183
11
3.56443
21
-4.97967
0
LINE
8
BLACK
6
CONTINUOUS
10
3.56443
20
-4.97967
11
3.59227
21
-4.97967
0
LINE
8
BLACK
6
CONTINUOUS
10
3.7407
20
-5.00137
11
3.69571
21
-5.00137
0
LINE
8
BLACK
6
CONTINUOUS
10
3.7182
20
-5.00137
11
3.7182
21
-4.92263
0
LINE
8
BLACK
6
CONTINUOUS
10
3.7182
20
-4.92263
11
3.7107
21
-4.93388
0
LINE
8
BLACK
6
CONTINUOUS
10
3.7107
20
-4.93388
11
3.70321
21
-4.94138
0
LINE
8
BLACK
6
CONTINUOUS
10
3.70321
20
-4.94138
11
3.69571
21
-4.94513
0
LINE
8
BLACK
6
CONTINUOUS
10
3.77445
20
-4.99387
11
3.7782
21
-4.99762
0
LINE
8
BLACK
6
CONTINUOUS
10
3.7782
20
-4.99762
11
3.77445
21
-5.00137
0
LINE
8
BLACK
6
CONTINUOUS
10
3.77445
20
-5.00137
11
3.7707
21
-4.99762
0
LINE
8
BLACK
6
CONTINUOUS
10
3.7707
20
-4.99762
11
3.77445
21
-4.99387
0
LINE
8
BLACK
6
CONTINUOUS
10
3.77445
20
-4.99387
11
3.77445
21
-5.00137
0
LINE
8
BLACK
6
CONTINUOUS
10
3.82694
20
-4.92263
11
3.83444
21
-4.92263
0
LINE
8
BLACK
6
CONTINUOUS
10
3.83444
20
-4.92263
11
3.84194
21
-4.92638
0
LINE
8
BLACK
6
CONTINUOUS
10
3.84194
20
-4.92638
11
3.84569
21
-4.93013
0
LINE
8
BLACK
6
CONTINUOUS
10
3.84569
20
-4.93013
11
3.84944
21
-4.93763
0
LINE
8
BLACK
6
CONTINUOUS
10
3.84944
20
-4.93763
11
3.85319
21
-4.95262
0
LINE
8
BLACK
6
CONTINUOUS
10
3.85319
20
-4.95262
11
3.85319
21
-4.97137
0
LINE
8
BLACK
6
CONTINUOUS
10
3.85319
20
-4.97137
11
3.84944
21
-4.98637
0
LINE
8
BLACK
6
CONTINUOUS
10
3.84944
20
-4.98637
11
3.84569
21
-4.99387
0
LINE
8
BLACK
6
CONTINUOUS
10
3.84569
20
-4.99387
11
3.84194
21
-4.99762
0
LINE
8
BLACK
6
CONTINUOUS
10
3.84194
20
-4.99762
11
3.83444
21
-5.00137
0
LINE
8
BLACK
6
CONTINUOUS
10
3.83444
20
-5.00137
11
3.82694
21
-5.00137
0
LINE
8
BLACK
6
CONTINUOUS
10
3.82694
20
-5.00137
11
3.81944
21
-4.99762
0
LINE
8
BLACK
6
CONTINUOUS
10
3.81944
20
-4.99762
11
3.81569
21
-4.99387
0
LINE
8
BLACK
6
CONTINUOUS
10
3.81569
20
-4.99387
11
3.81194
21
-4.98637
0
LINE
8
BLACK
6
CONTINUOUS
10
3.81194
20
-4.98637
11
3.80819
21
-4.97137
0
LINE
8
BLACK
6
CONTINUOUS
10
3.80819
20
-4.97137
11
3.80819
21
-4.95262
0
LINE
8
BLACK
6
CONTINUOUS
10
3.80819
20
-4.95262
11
3.81194
21
-4.93763
0
LINE
8
BLACK
6
CONTINUOUS
10
3.81194
20
-4.93763
11
3.81569
21
-4.93013
0
LINE
8
BLACK
6
CONTINUOUS
10
3.81569
20
-4.93013
11
3.81944
21
-4.92638
0
LINE
8
BLACK
6
CONTINUOUS
10
3.81944
20
-4.92638
11
3.82694
21
-4.92263
0
LINE
8
BLACK
6
CONTINUOUS
10
3.90193
20
-4.92263
11
3.90943
21
-4.92263
0
LINE
8
BLACK
6
CONTINUOUS
10
3.90943
20
-4.92263
11
3.91693
21
-4.92638
0
LINE
8
BLACK
6
CONTINUOUS
10
3.91693
20
-4.92638
11
3.92068
21
-4.93013
0
LINE
8
BLACK
6
CONTINUOUS
10
3.92068
20
-4.93013
11
3.92443
21
-4.93763
0
LINE
8
BLACK
6
CONTINUOUS
10
3.92443
20
-4.93763
11
3.92818
21
-4.95262
0
LINE
8
BLACK
6
CONTINUOUS
10
3.92818
20
-4.95262
11
3.92818
21
-4.97137
0
LINE
8
BLACK
6
CONTINUOUS
10
3.92818
20
-4.97137
11
3.92443
21
-4.98637
0
LINE
8
BLACK
6
CONTINUOUS
10
3.92443
20
-4.98637
11
3.92068
21
-4.99387
0
LINE
8
BLACK
6
CONTINUOUS
10
3.92068
20
-4.99387
11
3.91693
21
-4.99762
0
LINE
8
BLACK
6
CONTINUOUS
10
3.91693
20
-4.99762
11
3.90943
21
-5.00137
0
LINE
8
BLACK
6
CONTINUOUS
10
3.90943
20
-5.00137
11
3.90193
21
-5.00137
0
LINE
8
BLACK
6
CONTINUOUS
10
3.90193
20
-5.00137
11
3.89443
21
-4.99762
0
LINE
8
BLACK
6
CONTINUOUS
10
3.89443
20
-4.99762
11
3.89068
21
-4.99387
0
LINE
8
BLACK
6
CONTINUOUS
10
3.89068
20
-4.99387
11
3.88693
21
-4.98637
0
LINE
8
BLACK
6
CONTINUOUS
10
3.88693
20
-4.98637
11
3.88318
21
-4.97137
0
LINE
8
BLACK
6
CONTINUOUS
10
3.88318
20
-4.97137
11
3.88318
21
-4.95262
0
LINE
8
BLACK
6
CONTINUOUS
10
3.88318
20
-4.95262
11
3.88693
21
-4.93763
0
LINE
8
BLACK
6
CONTINUOUS
10
3.88693
20
-4.93763
11
3.89068
21
-4.93013
0
LINE
8
BLACK
6
CONTINUOUS
10
3.89068
20
-4.93013
11
3.89443
21
-4.92638
0
LINE
8
BLACK
6
CONTINUOUS
10
3.89443
20
-4.92638
11
3.90193
21
-4.92263
0
LINE
8
BLACK
6
CONTINUOUS
10
3.97692
20
-4.92263
11
3.98442
21
-4.92263
0
LINE
8
BLACK
6
CONTINUOUS
10
3.98442
20
-4.92263
11
3.99192
21
-4.92638
0
LINE
8
BLACK
6
CONTINUOUS
10
3.99192
20
-4.92638
11
3.99567
21
-4.93013
0
LINE
8
BLACK
6
CONTINUOUS
10
3.99567
20
-4.93013
11
3.99942
21
-4.93763
0
LINE
8
BLACK
6
CONTINUOUS
10
3.99942
20
-4.93763
11
4.00317
21
-4.95262
0
LINE
8
BLACK
6
CONTINUOUS
10
4.00317
20
-4.95262
11
4.00317
21
-4.97137
0
LINE
8
BLACK
6
CONTINUOUS
10
4.00317
20
-4.97137
11
3.99942
21
-4.98637
0
LINE
8
BLACK
6
CONTINUOUS
10
3.99942
20
-4.98637
11
3.99567
21
-4.99387
0
LINE
8
BLACK
6
CONTINUOUS
10
3.99567
20
-4.99387
11
3.99192
21
-4.99762
0
LINE
8
BLACK
6
CONTINUOUS
10
3.99192
20
-4.99762
11
3.98442
21
-5.00137
0
LINE
8
BLACK
6
CONTINUOUS
10
3.98442
20
-5.00137
11
3.97692
21
-5.00137
0
LINE
8
BLACK
6
CONTINUOUS
10
3.97692
20
-5.00137
11
3.96942
21
-4.99762
0
LINE
8
BLACK
6
CONTINUOUS
10
3.96942
20
-4.99762
11
3.96567
21
-4.99387
0
LINE
8
BLACK
6
CONTINUOUS
10
3.96567
20
-4.99387
11
3.96192
21
-4.98637
0
LINE
8
BLACK
6
CONTINUOUS
10
3.96192
20
-4.98637
11
3.95817
21
-4.97137
0
LINE
8
BLACK
6
CONTINUOUS
10
3.95817
20
-4.97137
11
3.95817
21
-4.95262
0
LINE
8
BLACK
6
CONTINUOUS
10
3.95817
20
-4.95262
11
3.96192
21
-4.93763
0
LINE
8
BLACK
6
CONTINUOUS
10
3.96192
20
-4.93763
11
3.96567
21
-4.93013
0
LINE
8
BLACK
6
CONTINUOUS
10
3.96567
20
-4.93013
11
3.96942
21
-4.92638
0
LINE
8
BLACK
6
CONTINUOUS
10
3.96942
20
-4.92638
11
3.97692
21
-4.92263
0
LINE
8
BLACK
6
CONTINUOUS
10
4.03691
20
-5.00137
11
4.03691
21
-4.94888
0
LINE
8
BLACK
6
CONTINUOUS
10
4.03691
20
-4.95637
11
4.04066
21
-4.95262
0
LINE
8
BLACK
6
CONTINUOUS
10
4.04066
20
-4.95262
11
4.04816
21
-4.94888
0
LINE
8
BLACK
6
CONTINUOUS
10
4.04816
20
-4.94888
11
4.05941
21
-4.94888
0
LINE
8
BLACK
6
CONTINUOUS
10
4.05941
20
-4.94888
11
4.06691
21
-4.95262
0
LINE
8
BLACK
6
CONTINUOUS
10
4.06691
20
-4.95262
11
4.07066
21
-4.96012
0
LINE
8
BLACK
6
CONTINUOUS
10
4.07066
20
-4.96012
11
4.07066
21
-5.00137
0
LINE
8
BLACK
6
CONTINUOUS
10
4.07066
20
-4.96012
11
4.07441
21
-4.95262
0
LINE
8
BLACK
6
CONTINUOUS
10
4.07441
20
-4.95262
11
4.08191
21
-4.94888
0
LINE
8
BLACK
6
CONTINUOUS
10
4.08191
20
-4.94888
11
4.09316
21
-4.94888
0
LINE
8
BLACK
6
CONTINUOUS
10
4.09316
20
-4.94888
11
4.10066
21
-4.95262
0
LINE
8
BLACK
6
CONTINUOUS
10
4.10066
20
-4.95262
11
4.10441
21
-4.96012
0
LINE
8
BLACK
6
CONTINUOUS
10
4.10441
20
-4.96012
11
4.10441
21
-5.00137
0
LINE
8
BLACK
6
CONTINUOUS
10
4.1419
20
-5.00137
11
4.1419
21
-4.94888
0
LINE
8
BLACK
6
CONTINUOUS
10
4.1419
20
-4.95637
11
4.14565
21
-4.95262
0
LINE
8
BLACK
6
CONTINUOUS
10
4.14565
20
-4.95262
11
4.15315
21
-4.94888
0
LINE
8
BLACK
6
CONTINUOUS
10
4.15315
20
-4.94888
11
4.1644
21
-4.94888
0
LINE
8
BLACK
6
CONTINUOUS
10
4.1644
20
-4.94888
11
4.1719
21
-4.95262
0
LINE
8
BLACK
6
CONTINUOUS
10
4.1719
20
-4.95262
11
4.17565
21
-4.96012
0
LINE
8
BLACK
6
CONTINUOUS
10
4.17565
20
-4.96012
11
4.17565
21
-5.00137
0
LINE
8
BLACK
6
CONTINUOUS
10
4.17565
20
-4.96012
11
4.1794
21
-4.95262
0
LINE
8
BLACK
6
CONTINUOUS
10
4.1794
20
-4.95262
11
4.1869
21
-4.94888
0
LINE
8
BLACK
6
CONTINUOUS
10
4.1869
20
-4.94888
11
4.19814
21
-4.94888
0
LINE
8
BLACK
6
CONTINUOUS
10
4.19814
20
-4.94888
11
4.20564
21
-4.95262
0
LINE
8
BLACK
6
CONTINUOUS
10
4.20564
20
-4.95262
11
4.20939
21
-4.96012
0
LINE
8
BLACK
6
CONTINUOUS
10
4.20939
20
-4.96012
11
4.20939
21
-5.00137
0
LINE
8
BLACK
6
CONTINUOUS
10
4.36312
20
-4.91888
11
4.29563
21
-5.02012
0
LINE
8
BLACK
6
CONTINUOUS
10
4.46436
20
-4.92263
11
4.47186
21
-4.92263
0
LINE
8
BLACK
6
CONTINUOUS
10
4.47186
20
-4.92263
11
4.47936
21
-4.92638
0
LINE
8
BLACK
6
CONTINUOUS
10
4.47936
20
-4.92638
11
4.48311
21
-4.93013
0
LINE
8
BLACK
6
CONTINUOUS
10
4.48311
20
-4.93013
11
4.48686
21
-4.93763
0
LINE
8
BLACK
6
CONTINUOUS
10
4.48686
20
-4.93763
11
4.49061
21
-4.95262
0
LINE
8
BLACK
6
CONTINUOUS
10
4.49061
20
-4.95262
11
4.49061
21
-4.97137
0
LINE
8
BLACK
6
CONTINUOUS
10
4.49061
20
-4.97137
11
4.48686
21
-4.98637
0
LINE
8
BLACK
6
CONTINUOUS
10
4.48686
20
-4.98637
11
4.48311
21
-4.99387
0
LINE
8
BLACK
6
CONTINUOUS
10
4.48311
20
-4.99387
11
4.47936
21
-4.99762
0
LINE
8
BLACK
6
CONTINUOUS
10
4.47936
20
-4.99762
11
4.47186
21
-5.00137
0
LINE
8
BLACK
6
CONTINUOUS
10
4.47186
20
-5.00137
11
4.46436
21
-5.00137
0
LINE
8
BLACK
6
CONTINUOUS
10
4.46436
20
-5.00137
11
4.45686
21
-4.99762
0
LINE
8
BLACK
6
CONTINUOUS
10
4.45686
20
-4.99762
11
4.45311
21
-4.99387
0
LINE
8
BLACK
6
CONTINUOUS
10
4.45311
20
-4.99387
11
4.44936
21
-4.98637
0
LINE
8
BLACK
6
CONTINUOUS
10
4.44936
20
-4.98637
11
4.44561
21
-4.97137
0
LINE
8
BLACK
6
CONTINUOUS
10
4.44561
20
-4.97137
11
4.44561
21
-4.95262
0
LINE
8
BLACK
6
CONTINUOUS
10
4.44561
20
-4.95262
11
4.44936
21
-4.93763
0
LINE
8
BLACK
6
CONTINUOUS
10
4.44936
20
-4.93763
11
4.45311
21
-4.93013
0
LINE
8
BLACK
6
CONTINUOUS
10
4.45311
20
-4.93013
11
4.45686
21
-4.92638
0
LINE
8
BLACK
6
CONTINUOUS
10
4.45686
20
-4.92638
11
4.46436
21
-4.92263
0
LINE
8
BLACK
6
CONTINUOUS
10
4.52435
20
-4.99387
11
4.5281
21
-4.99762
0
LINE
8
BLACK
6
CONTINUOUS
10
4.5281
20
-4.99762
11
4.52435
21
-5.00137
0
LINE
8
BLACK
6
CONTINUOUS
10
4.52435
20
-5.00137
11
4.5206
21
-4.99762
0
LINE
8
BLACK
6
CONTINUOUS
10
4.5206
20
-4.99762
11
4.52435
21
-4.99387
0
LINE
8
BLACK
6
CONTINUOUS
10
4.52435
20
-4.99387
11
4.52435
21
-5.00137
0
LINE
8
BLACK
6
CONTINUOUS
10
4.57685
20
-4.92263
11
4.58435
21
-4.92263
0
LINE
8
BLACK
6
CONTINUOUS
10
4.58435
20
-4.92263
11
4.59184
21
-4.92638
0
LINE
8
BLACK
6
CONTINUOUS
10
4.59184
20
-4.92638
11
4.59559
21
-4.93013
0
LINE
8
BLACK
6
CONTINUOUS
10
4.59559
20
-4.93013
11
4.59934
21
-4.93763
0
LINE
8
BLACK
6
CONTINUOUS
10
4.59934
20
-4.93763
11
4.60309
21
-4.95262
0
LINE
8
BLACK
6
CONTINUOUS
10
4.60309
20
-4.95262
11
4.60309
21
-4.97137
0
LINE
8
BLACK
6
CONTINUOUS
10
4.60309
20
-4.97137
11
4.59934
21
-4.98637
0
LINE
8
BLACK
6
CONTINUOUS
10
4.59934
20
-4.98637
11
4.59559
21
-4.99387
0
LINE
8
BLACK
6
CONTINUOUS
10
4.59559
20
-4.99387
11
4.59184
21
-4.99762
0
LINE
8
BLACK
6
CONTINUOUS
10
4.59184
20
-4.99762
11
4.58435
21
-5.00137
0
LINE
8
BLACK
6
CONTINUOUS
10
4.58435
20
-5.00137
11
4.57685
21
-5.00137
0
LINE
8
BLACK
6
CONTINUOUS
10
4.57685
20
-5.00137
11
4.56935
21
-4.99762
0
LINE
8
BLACK
6
CONTINUOUS
10
4.56935
20
-4.99762
11
4.5656
21
-4.99387
0
LINE
8
BLACK
6
CONTINUOUS
10
4.5656
20
-4.99387
11
4.56185
21
-4.98637
0
LINE
8
BLACK
6
CONTINUOUS
10
4.56185
20
-4.98637
11
4.5581
21
-4.97137
0
LINE
8
BLACK
6
CONTINUOUS
10
4.5581
20
-4.97137
11
4.5581
21
-4.95262
0
LINE
8
BLACK
6
CONTINUOUS
10
4.5581
20
-4.95262
11
4.56185
21
-4.93763
0
LINE
8
BLACK
6
CONTINUOUS
10
4.56185
20
-4.93763
11
4.5656
21
-4.93013
0
LINE
8
BLACK
6
CONTINUOUS
10
4.5656
20
-4.93013
11
4.56935
21
-4.92638
0
LINE
8
BLACK
6
CONTINUOUS
10
4.56935
20
-4.92638
11
4.57685
21
-4.92263
0
LINE
8
BLACK
6
CONTINUOUS
10
4.62934
20
-4.92263
11
4.67808
21
-4.92263
0
LINE
8
BLACK
6
CONTINUOUS
10
4.67808
20
-4.92263
11
4.65184
21
-4.95262
0
LINE
8
BLACK
6
CONTINUOUS
10
4.65184
20
-4.95262
11
4.66309
21
-4.95262
0
LINE
8
BLACK
6
CONTINUOUS
10
4.66309
20
-4.95262
11
4.67058
21
-4.95637
0
LINE
8
BLACK
6
CONTINUOUS
10
4.67058
20
-4.95637
11
4.67433
21
-4.96012
0
LINE
8
BLACK
6
CONTINUOUS
10
4.67433
20
-4.96012
11
4.67808
21
-4.96762
0
LINE
8
BLACK
6
CONTINUOUS
10
4.67808
20
-4.96762
11
4.67808
21
-4.98637
0
LINE
8
BLACK
6
CONTINUOUS
10
4.67808
20
-4.98637
11
4.67433
21
-4.99387
0
LINE
8
BLACK
6
CONTINUOUS
10
4.67433
20
-4.99387
11
4.67058
21
-4.99762
0
LINE
8
BLACK
6
CONTINUOUS
10
4.67058
20
-4.99762
11
4.66309
21
-5.00137
0
LINE
8
BLACK
6
CONTINUOUS
10
4.66309
20
-5.00137
11
4.64059
21
-5.00137
0
LINE
8
BLACK
6
CONTINUOUS
10
4.64059
20
-5.00137
11
4.63309
21
-4.99762
0
LINE
8
BLACK
6
CONTINUOUS
10
4.63309
20
-4.99762
11
4.62934
21
-4.99387
0
LINE
8
BLACK
6
CONTINUOUS
10
4.71558
20
-5.00137
11
4.73058
21
-5.00137
0
LINE
8
BLACK
6
CONTINUOUS
10
4.73058
20
-5.00137
11
4.73808
21
-4.99762
0
LINE
8
BLACK
6
CONTINUOUS
10
4.73808
20
-4.99762
11
4.74183
21
-4.99387
0
LINE
8
BLACK
6
CONTINUOUS
10
4.74183
20
-4.99387
11
4.74933
21
-4.98262
0
LINE
8
BLACK
6
CONTINUOUS
10
4.74933
20
-4.98262
11
4.75307
21
-4.96762
0
LINE
8
BLACK
6
CONTINUOUS
10
4.75307
20
-4.96762
11
4.75307
21
-4.93763
0
LINE
8
BLACK
6
CONTINUOUS
10
4.75307
20
-4.93763
11
4.74933
21
-4.93013
0
LINE
8
BLACK
6
CONTINUOUS
10
4.74933
20
-4.93013
11
4.74558
21
-4.92638
0
LINE
8
BLACK
6
CONTINUOUS
10
4.74558
20
-4.92638
11
4.73808
21
-4.92263
0
LINE
8
BLACK
6
CONTINUOUS
10
4.73808
20
-4.92263
11
4.72308
21
-4.92263
0
LINE
8
BLACK
6
CONTINUOUS
10
4.72308
20
-4.92263
11
4.71558
21
-4.92638
0
LINE
8
BLACK
6
CONTINUOUS
10
4.71558
20
-4.92638
11
4.71183
21
-4.93013
0
LINE
8
BLACK
6
CONTINUOUS
10
4.71183
20
-4.93013
11
4.70808
21
-4.93763
0
LINE
8
BLACK
6
CONTINUOUS
10
4.70808
20
-4.93763
11
4.70808
21
-4.95637
0
LINE
8
BLACK
6
CONTINUOUS
10
4.70808
20
-4.95637
11
4.71183
21
-4.96387
0
LINE
8
BLACK
6
CONTINUOUS
10
4.71183
20
-4.96387
11
4.71558
21
-4.96762
0
LINE
8
BLACK
6
CONTINUOUS
10
4.71558
20
-4.96762
11
4.72308
21
-4.97137
0
LINE
8
BLACK
6
CONTINUOUS
10
4.72308
20
-4.97137
11
4.73808
21
-4.97137
0
LINE
8
BLACK
6
CONTINUOUS
10
4.73808
20
-4.97137
11
4.74558
21
-4.96762
0
LINE
8
BLACK
6
CONTINUOUS
10
4.74558
20
-4.96762
11
4.74933
21
-4.96387
0
LINE
8
BLACK
6
CONTINUOUS
10
4.74933
20
-4.96387
11
4.75307
21
-4.95637
0
LINE
8
BLACK
6
CONTINUOUS
10
4.82057
20
-4.94888
11
4.82057
21
-5.00137
0
LINE
8
BLACK
6
CONTINUOUS
10
4.80182
20
-4.91888
11
4.78307
21
-4.97512
0
LINE
8
BLACK
6
CONTINUOUS
10
4.78307
20
-4.97512
11
4.83181
21
-4.97512
0
LINE
8
BLACK
6
CONTINUOUS
10
4.85806
20
-4.92263
11
4.85806
21
-4.93763
0
LINE
8
BLACK
6
CONTINUOUS
10
4.88806
20
-4.92263
11
4.88806
21
-4.93763
0
LINE
8
BLACK
6
CONTINUOUS
10
5.00429
20
-5.03136
11
5.00054
21
-5.02762
0
LINE
8
BLACK
6
CONTINUOUS
10
5.00054
20
-5.02762
11
4.99304
21
-5.01637
0
LINE
8
BLACK
6
CONTINUOUS
10
4.99304
20
-5.01637
11
4.9893
21
-5.00887
0
LINE
8
BLACK
6
CONTINUOUS
10
4.9893
20
-5.00887
11
4.98555
21
-4.99762
0
LINE
8
BLACK
6
CONTINUOUS
10
4.98555
20
-4.99762
11
4.9818
21
-4.97887
0
LINE
8
BLACK
6
CONTINUOUS
10
4.9818
20
-4.97887
11
4.9818
21
-4.96387
0
LINE
8
BLACK
6
CONTINUOUS
10
4.9818
20
-4.96387
11
4.98555
21
-4.94513
0
LINE
8
BLACK
6
CONTINUOUS
10
4.98555
20
-4.94513
11
4.9893
21
-4.93388
0
LINE
8
BLACK
6
CONTINUOUS
10
4.9893
20
-4.93388
11
4.99304
21
-4.92638
0
LINE
8
BLACK
6
CONTINUOUS
10
4.99304
20
-4.92638
11
5.00054
21
-4.91513
0
LINE
8
BLACK
6
CONTINUOUS
10
5.00054
20
-4.91513
11
5.00429
21
-4.91138
0
LINE
8
BLACK
6
CONTINUOUS
10
5.03054
20
-4.93013
11
5.03429
21
-4.92638
0
LINE
8
BLACK
6
CONTINUOUS
10
5.03429
20
-4.92638
11
5.04179
21
-4.92263
0
LINE
8
BLACK
6
CONTINUOUS
10
5.04179
20
-4.92263
11
5.06054
21
-4.92263
0
LINE
8
BLACK
6
CONTINUOUS
10
5.06054
20
-4.92263
11
5.06804
21
-4.92638
0
LINE
8
BLACK
6
CONTINUOUS
10
5.06804
20
-4.92638
11
5.07178
21
-4.93013
0
LINE
8
BLACK
6
CONTINUOUS
10
5.07178
20
-4.93013
11
5.07553
21
-4.93763
0
LINE
8
BLACK
6
CONTINUOUS
10
5.07553
20
-4.93763
11
5.07553
21
-4.94513
0
LINE
8
BLACK
6
CONTINUOUS
10
5.07553
20
-4.94513
11
5.07178
21
-4.95637
0
LINE
8
BLACK
6
CONTINUOUS
10
5.07178
20
-4.95637
11
5.02679
21
-5.00137
0
LINE
8
BLACK
6
CONTINUOUS
10
5.02679
20
-5.00137
11
5.07553
21
-5.00137
0
LINE
8
BLACK
6
CONTINUOUS
10
5.16927
20
-5.00137
11
5.16927
21
-4.92263
0
LINE
8
BLACK
6
CONTINUOUS
10
5.20302
20
-5.00137
11
5.20302
21
-4.96012
0
LINE
8
BLACK
6
CONTINUOUS
10
5.20302
20
-4.96012
11
5.19927
21
-4.95262
0
LINE
8
BLACK
6
CONTINUOUS
10
5.19927
20
-4.95262
11
5.19177
21
-4.94888
0
LINE
8
BLACK
6
CONTINUOUS
10
5.19177
20
-4.94888
11
5.18052
21
-4.94888
0
LINE
8
BLACK
6
CONTINUOUS
10
5.18052
20
-4.94888
11
5.17302
21
-4.95262
0
LINE
8
BLACK
6
CONTINUOUS
10
5.17302
20
-4.95262
11
5.16927
21
-4.95637
0
LINE
8
BLACK
6
CONTINUOUS
10
5.25176
20
-5.00137
11
5.24426
21
-4.99762
0
LINE
8
BLACK
6
CONTINUOUS
10
5.24426
20
-4.99762
11
5.24051
21
-4.99387
0
LINE
8
BLACK
6
CONTINUOUS
10
5.24051
20
-4.99387
11
5.23676
21
-4.98637
0
LINE
8
BLACK
6
CONTINUOUS
10
5.23676
20
-4.98637
11
5.23676
21
-4.96387
0
LINE
8
BLACK
6
CONTINUOUS
10
5.23676
20
-4.96387
11
5.24051
21
-4.95637
0
LINE
8
BLACK
6
CONTINUOUS
10
5.24051
20
-4.95637
11
5.24426
21
-4.95262
0
LINE
8
BLACK
6
CONTINUOUS
10
5.24426
20
-4.95262
11
5.25176
21
-4.94888
0
LINE
8
BLACK
6
CONTINUOUS
10
5.25176
20
-4.94888
11
5.26301
21
-4.94888
0
LINE
8
BLACK
6
CONTINUOUS
10
5.26301
20
-4.94888
11
5.27051
21
-4.95262
0
LINE
8
BLACK
6
CONTINUOUS
10
5.27051
20
-4.95262
11
5.27426
21
-4.95637
0
LINE
8
BLACK
6
CONTINUOUS
10
5.27426
20
-4.95637
11
5.27801
21
-4.96387
0
LINE
8
BLACK
6
CONTINUOUS
10
5.27801
20
-4.96387
11
5.27801
21
-4.98637
0
LINE
8
BLACK
6
CONTINUOUS
10
5.27801
20
-4.98637
11
5.27426
21
-4.99387
0
LINE
8
BLACK
6
CONTINUOUS
10
5.27426
20
-4.99387
11
5.27051
21
-4.99762
0
LINE
8
BLACK
6
CONTINUOUS
10
5.27051
20
-4.99762
11
5.26301
21
-5.00137
0
LINE
8
BLACK
6
CONTINUOUS
10
5.26301
20
-5.00137
11
5.25176
21
-5.00137
0
LINE
8
BLACK
6
CONTINUOUS
10
5.323
20
-5.00137
11
5.3155
21
-4.99762
0
LINE
8
BLACK
6
CONTINUOUS
10
5.3155
20
-4.99762
11
5.31175
21
-4.99012
0
LINE
8
BLACK
6
CONTINUOUS
10
5.31175
20
-4.99012
11
5.31175
21
-4.92263
0
LINE
8
BLACK
6
CONTINUOUS
10
5.383
20
-4.99762
11
5.3755
21
-5.00137
0
LINE
8
BLACK
6
CONTINUOUS
10
5.3755
20
-5.00137
11
5.3605
21
-5.00137
0
LINE
8
BLACK
6
CONTINUOUS
10
5.3605
20
-5.00137
11
5.353
21
-4.99762
0
LINE
8
BLACK
6
CONTINUOUS
10
5.353
20
-4.99762
11
5.34925
21
-4.99012
0
LINE
8
BLACK
6
CONTINUOUS
10
5.34925
20
-4.99012
11
5.34925
21
-4.96012
0
LINE
8
BLACK
6
CONTINUOUS
10
5.34925
20
-4.96012
11
5.353
21
-4.95262
0
LINE
8
BLACK
6
CONTINUOUS
10
5.353
20
-4.95262
11
5.3605
21
-4.94888
0
LINE
8
BLACK
6
CONTINUOUS
10
5.3605
20
-4.94888
11
5.3755
21
-4.94888
0
LINE
8
BLACK
6
CONTINUOUS
10
5.3755
20
-4.94888
11
5.383
21
-4.95262
0
LINE
8
BLACK
6
CONTINUOUS
10
5.383
20
-4.95262
11
5.38675
21
-4.96012
0
LINE
8
BLACK
6
CONTINUOUS
10
5.38675
20
-4.96012
11
5.38675
21
-4.96762
0
LINE
8
BLACK
6
CONTINUOUS
10
5.38675
20
-4.96762
11
5.34925
21
-4.97512
0
LINE
8
BLACK
6
CONTINUOUS
10
5.41674
20
-4.99762
11
5.42424
21
-5.00137
0
LINE
8
BLACK
6
CONTINUOUS
10
5.42424
20
-5.00137
11
5.43924
21
-5.00137
0
LINE
8
BLACK
6
CONTINUOUS
10
5.43924
20
-5.00137
11
5.44674
21
-4.99762
0
LINE
8
BLACK
6
CONTINUOUS
10
5.44674
20
-4.99762
11
5.45049
21
-4.99012
0
LINE
8
BLACK
6
CONTINUOUS
10
5.45049
20
-4.99012
11
5.45049
21
-4.98637
0
LINE
8
BLACK
6
CONTINUOUS
10
5.45049
20
-4.98637
11
5.44674
21
-4.97887
0
LINE
8
BLACK
6
CONTINUOUS
10
5.44674
20
-4.97887
11
5.43924
21
-4.97512
0
LINE
8
BLACK
6
CONTINUOUS
10
5.43924
20
-4.97512
11
5.42799
21
-4.97512
0
LINE
8
BLACK
6
CONTINUOUS
10
5.42799
20
-4.97512
11
5.42049
21
-4.97137
0
LINE
8
BLACK
6
CONTINUOUS
10
5.42049
20
-4.97137
11
5.41674
21
-4.96387
0
LINE
8
BLACK
6
CONTINUOUS
10
5.41674
20
-4.96387
11
5.41674
21
-4.96012
0
LINE
8
BLACK
6
CONTINUOUS
10
5.41674
20
-4.96012
11
5.42049
21
-4.95262
0
LINE
8
BLACK
6
CONTINUOUS
10
5.42049
20
-4.95262
11
5.42799
21
-4.94888
0
LINE
8
BLACK
6
CONTINUOUS
10
5.42799
20
-4.94888
11
5.43924
21
-4.94888
0
LINE
8
BLACK
6
CONTINUOUS
10
5.43924
20
-4.94888
11
5.44674
21
-4.95262
0
LINE
8
BLACK
6
CONTINUOUS
10
5.47673
20
-5.03136
11
5.48048
21
-5.02762
0
LINE
8
BLACK
6
CONTINUOUS
10
5.48048
20
-5.02762
11
5.48798
21
-5.01637
0
LINE
8
BLACK
6
CONTINUOUS
10
5.48798
20
-5.01637
11
5.49173
21
-5.00887
0
LINE
8
BLACK
6
CONTINUOUS
10
5.49173
20
-5.00887
11
5.49548
21
-4.99762
0
LINE
8
BLACK
6
CONTINUOUS
10
5.49548
20
-4.99762
11
5.49923
21
-4.97887
0
LINE
8
BLACK
6
CONTINUOUS
10
5.49923
20
-4.97887
11
5.49923
21
-4.96387
0
LINE
8
BLACK
6
CONTINUOUS
10
5.49923
20
-4.96387
11
5.49548
21
-4.94513
0
LINE
8
BLACK
6
CONTINUOUS
10
5.49548
20
-4.94513
11
5.49173
21
-4.93388
0
LINE
8
BLACK
6
CONTINUOUS
10
5.49173
20
-4.93388
11
5.48798
21
-4.92638
0
LINE
8
BLACK
6
CONTINUOUS
10
5.48798
20
-4.92638
11
5.48048
21
-4.91513
0
LINE
8
BLACK
6
CONTINUOUS
10
5.48048
20
-4.91513
11
5.47673
21
-4.91138
0
LINE
8
BLACK
6
CONTINUOUS
10
3.57756
20
-5.09016
11
3.59803
21
-5.06969
0
LINE
8
BLACK
6
CONTINUOUS
10
3.59803
20
-5.06969
11
3.57756
21
-5.04921
0
LINE
8
BLACK
6
CONTINUOUS
10
3.57756
20
-5.04921
11
3.55709
21
-5.06969
0
LINE
8
BLACK
6
CONTINUOUS
10
3.55709
20
-5.06969
11
3.57756
21
-5.09016
0
LINE
8
BLACK
6
CONTINUOUS
10
3.7407
20
-5.10531
11
3.69571
21
-5.10531
0
LINE
8
BLACK
6
CONTINUOUS
10
3.7182
20
-5.10531
11
3.7182
21
-5.02657
0
LINE
8
BLACK
6
CONTINUOUS
10
3.7182
20
-5.02657
11
3.7107
21
-5.03781
0
LINE
8
BLACK
6
CONTINUOUS
10
3.7107
20
-5.03781
11
3.70321
21
-5.04531
0
LINE
8
BLACK
6
CONTINUOUS
10
3.70321
20
-5.04531
11
3.69571
21
-5.04906
0
LINE
8
BLACK
6
CONTINUOUS
10
3.77445
20
-5.09781
11
3.7782
21
-5.10156
0
LINE
8
BLACK
6
CONTINUOUS
10
3.7782
20
-5.10156
11
3.77445
21
-5.10531
0
LINE
8
BLACK
6
CONTINUOUS
10
3.77445
20
-5.10531
11
3.7707
21
-5.10156
0
LINE
8
BLACK
6
CONTINUOUS
10
3.7707
20
-5.10156
11
3.77445
21
-5.09781
0
LINE
8
BLACK
6
CONTINUOUS
10
3.77445
20
-5.09781
11
3.77445
21
-5.10531
0
LINE
8
BLACK
6
CONTINUOUS
10
3.82694
20
-5.02657
11
3.83444
21
-5.02657
0
LINE
8
BLACK
6
CONTINUOUS
10
3.83444
20
-5.02657
11
3.84194
21
-5.03031
0
LINE
8
BLACK
6
CONTINUOUS
10
3.84194
20
-5.03031
11
3.84569
21
-5.03406
0
LINE
8
BLACK
6
CONTINUOUS
10
3.84569
20
-5.03406
11
3.84944
21
-5.04156
0
LINE
8
BLACK
6
CONTINUOUS
10
3.84944
20
-5.04156
11
3.85319
21
-5.05656
0
LINE
8
BLACK
6
CONTINUOUS
10
3.85319
20
-5.05656
11
3.85319
21
-5.07531
0
LINE
8
BLACK
6
CONTINUOUS
10
3.85319
20
-5.07531
11
3.84944
21
-5.09031
0
LINE
8
BLACK
6
CONTINUOUS
10
3.84944
20
-5.09031
11
3.84569
21
-5.09781
0
LINE
8
BLACK
6
CONTINUOUS
10
3.84569
20
-5.09781
11
3.84194
21
-5.10156
0
LINE
8
BLACK
6
CONTINUOUS
10
3.84194
20
-5.10156
11
3.83444
21
-5.10531
0
LINE
8
BLACK
6
CONTINUOUS
10
3.83444
20
-5.10531
11
3.82694
21
-5.10531
0
LINE
8
BLACK
6
CONTINUOUS
10
3.82694
20
-5.10531
11
3.81944
21
-5.10156
0
LINE
8
BLACK
6
CONTINUOUS
10
3.81944
20
-5.10156
11
3.81569
21
-5.09781
0
LINE
8
BLACK
6
CONTINUOUS
10
3.81569
20
-5.09781
11
3.81194
21
-5.09031
0
LINE
8
BLACK
6
CONTINUOUS
10
3.81194
20
-5.09031
11
3.80819
21
-5.07531
0
LINE
8
BLACK
6
CONTINUOUS
10
3.80819
20
-5.07531
11
3.80819
21
-5.05656
0
LINE
8
BLACK
6
CONTINUOUS
10
3.80819
20
-5.05656
11
3.81194
21
-5.04156
0
LINE
8
BLACK
6
CONTINUOUS
10
3.81194
20
-5.04156
11
3.81569
21
-5.03406
0
LINE
8
BLACK
6
CONTINUOUS
10
3.81569
20
-5.03406
11
3.81944
21
-5.03031
0
LINE
8
BLACK
6
CONTINUOUS
10
3.81944
20
-5.03031
11
3.82694
21
-5.02657
0
LINE
8
BLACK
6
CONTINUOUS
10
3.92068
20
-5.05281
11
3.92068
21
-5.10531
0
LINE
8
BLACK
6
CONTINUOUS
10
3.90193
20
-5.02282
11
3.88318
21
-5.07906
0
LINE
8
BLACK
6
CONTINUOUS
10
3.88318
20
-5.07906
11
3.93193
21
-5.07906
0
LINE
8
BLACK
6
CONTINUOUS
10
3.97692
20
-5.02657
11
3.98442
21
-5.02657
0
LINE
8
BLACK
6
CONTINUOUS
10
3.98442
20
-5.02657
11
3.99192
21
-5.03031
0
LINE
8
BLACK
6
CONTINUOUS
10
3.99192
20
-5.03031
11
3.99567
21
-5.03406
0
LINE
8
BLACK
6
CONTINUOUS
10
3.99567
20
-5.03406
11
3.99942
21
-5.04156
0
LINE
8
BLACK
6
CONTINUOUS
10
3.99942
20
-5.04156
11
4.00317
21
-5.05656
0
LINE
8
BLACK
6
CONTINUOUS
10
4.00317
20
-5.05656
11
4.00317
21
-5.07531
0
LINE
8
BLACK
6
CONTINUOUS
10
4.00317
20
-5.07531
11
3.99942
21
-5.09031
0
LINE
8
BLACK
6
CONTINUOUS
10
3.99942
20
-5.09031
11
3.99567
21
-5.09781
0
LINE
8
BLACK
6
CONTINUOUS
10
3.99567
20
-5.09781
11
3.99192
21
-5.10156
0
LINE
8
BLACK
6
CONTINUOUS
10
3.99192
20
-5.10156
11
3.98442
21
-5.10531
0
LINE
8
BLACK
6
CONTINUOUS
10
3.98442
20
-5.10531
11
3.97692
21
-5.10531
0
LINE
8
BLACK
6
CONTINUOUS
10
3.97692
20
-5.10531
11
3.96942
21
-5.10156
0
LINE
8
BLACK
6
CONTINUOUS
10
3.96942
20
-5.10156
11
3.96567
21
-5.09781
0
LINE
8
BLACK
6
CONTINUOUS
10
3.96567
20
-5.09781
11
3.96192
21
-5.09031
0
LINE
8
BLACK
6
CONTINUOUS
10
3.96192
20
-5.09031
11
3.95817
21
-5.07531
0
LINE
8
BLACK
6
CONTINUOUS
10
3.95817
20
-5.07531
11
3.95817
21
-5.05656
0
LINE
8
BLACK
6
CONTINUOUS
10
3.95817
20
-5.05656
11
3.96192
21
-5.04156
0
LINE
8
BLACK
6
CONTINUOUS
10
3.96192
20
-5.04156
11
3.96567
21
-5.03406
0
LINE
8
BLACK
6
CONTINUOUS
10
3.96567
20
-5.03406
11
3.96942
21
-5.03031
0
LINE
8
BLACK
6
CONTINUOUS
10
3.96942
20
-5.03031
11
3.97692
21
-5.02657
0
LINE
8
BLACK
6
CONTINUOUS
10
4.03691
20
-5.10531
11
4.03691
21
-5.05281
0
LINE
8
BLACK
6
CONTINUOUS
10
4.03691
20
-5.06031
11
4.04066
21
-5.05656
0
LINE
8
BLACK
6
CONTINUOUS
10
4.04066
20
-5.05656
11
4.04816
21
-5.05281
0
LINE
8
BLACK
6
CONTINUOUS
10
4.04816
20
-5.05281
11
4.05941
21
-5.05281
0
LINE
8
BLACK
6
CONTINUOUS
10
4.05941
20
-5.05281
11
4.06691
21
-5.05656
0
LINE
8
BLACK
6
CONTINUOUS
10
4.06691
20
-5.05656
11
4.07066
21
-5.06406
0
LINE
8
BLACK
6
CONTINUOUS
10
4.07066
20
-5.06406
11
4.07066
21
-5.10531
0
LINE
8
BLACK
6
CONTINUOUS
10
4.07066
20
-5.06406
11
4.07441
21
-5.05656
0
LINE
8
BLACK
6
CONTINUOUS
10
4.07441
20
-5.05656
11
4.08191
21
-5.05281
0
LINE
8
BLACK
6
CONTINUOUS
10
4.08191
20
-5.05281
11
4.09316
21
-5.05281
0
LINE
8
BLACK
6
CONTINUOUS
10
4.09316
20
-5.05281
11
4.10066
21
-5.05656
0
LINE
8
BLACK
6
CONTINUOUS
10
4.10066
20
-5.05656
11
4.10441
21
-5.06406
0
LINE
8
BLACK
6
CONTINUOUS
10
4.10441
20
-5.06406
11
4.10441
21
-5.10531
0
LINE
8
BLACK
6
CONTINUOUS
10
4.1419
20
-5.10531
11
4.1419
21
-5.05281
0
LINE
8
BLACK
6
CONTINUOUS
10
4.1419
20
-5.06031
11
4.14565
21
-5.05656
0
LINE
8
BLACK
6
CONTINUOUS
10
4.14565
20
-5.05656
11
4.15315
21
-5.05281
0
LINE
8
BLACK
6
CONTINUOUS
10
4.15315
20
-5.05281
11
4.1644
21
-5.05281
0
LINE
8
BLACK
6
CONTINUOUS
10
4.1644
20
-5.05281
11
4.1719
21
-5.05656
0
LINE
8
BLACK
6
CONTINUOUS
10
4.1719
20
-5.05656
11
4.17565
21
-5.06406
0
LINE
8
BLACK
6
CONTINUOUS
10
4.17565
20
-5.06406
11
4.17565
21
-5.10531
0
LINE
8
BLACK
6
CONTINUOUS
10
4.17565
20
-5.06406
11
4.1794
21
-5.05656
0
LINE
8
BLACK
6
CONTINUOUS
10
4.1794
20
-5.05656
11
4.1869
21
-5.05281
0
LINE
8
BLACK
6
CONTINUOUS
10
4.1869
20
-5.05281
11
4.19814
21
-5.05281
0
LINE
8
BLACK
6
CONTINUOUS
10
4.19814
20
-5.05281
11
4.20564
21
-5.05656
0
LINE
8
BLACK
6
CONTINUOUS
10
4.20564
20
-5.05656
11
4.20939
21
-5.06406
0
LINE
8
BLACK
6
CONTINUOUS
10
4.20939
20
-5.06406
11
4.20939
21
-5.10531
0
LINE
8
BLACK
6
CONTINUOUS
10
4.36312
20
-5.02282
11
4.29563
21
-5.12405
0
LINE
8
BLACK
6
CONTINUOUS
10
4.46436
20
-5.02657
11
4.47186
21
-5.02657
0
LINE
8
BLACK
6
CONTINUOUS
10
4.47186
20
-5.02657
11
4.47936
21
-5.03031
0
LINE
8
BLACK
6
CONTINUOUS
10
4.47936
20
-5.03031
11
4.48311
21
-5.03406
0
LINE
8
BLACK
6
CONTINUOUS
10
4.48311
20
-5.03406
11
4.48686
21
-5.04156
0
LINE
8
BLACK
6
CONTINUOUS
10
4.48686
20
-5.04156
11
4.49061
21
-5.05656
0
LINE
8
BLACK
6
CONTINUOUS
10
4.49061
20
-5.05656
11
4.49061
21
-5.07531
0
LINE
8
BLACK
6
CONTINUOUS
10
4.49061
20
-5.07531
11
4.48686
21
-5.09031
0
LINE
8
BLACK
6
CONTINUOUS
10
4.48686
20
-5.09031
11
4.48311
21
-5.09781
0
LINE
8
BLACK
6
CONTINUOUS
10
4.48311
20
-5.09781
11
4.47936
21
-5.10156
0
LINE
8
BLACK
6
CONTINUOUS
10
4.47936
20
-5.10156
11
4.47186
21
-5.10531
0
LINE
8
BLACK
6
CONTINUOUS
10
4.47186
20
-5.10531
11
4.46436
21
-5.10531
0
LINE
8
BLACK
6
CONTINUOUS
10
4.46436
20
-5.10531
11
4.45686
21
-5.10156
0
LINE
8
BLACK
6
CONTINUOUS
10
4.45686
20
-5.10156
11
4.45311
21
-5.09781
0
LINE
8
BLACK
6
CONTINUOUS
10
4.45311
20
-5.09781
11
4.44936
21
-5.09031
0
LINE
8
BLACK
6
CONTINUOUS
10
4.44936
20
-5.09031
11
4.44561
21
-5.07531
0
LINE
8
BLACK
6
CONTINUOUS
10
4.44561
20
-5.07531
11
4.44561
21
-5.05656
0
LINE
8
BLACK
6
CONTINUOUS
10
4.44561
20
-5.05656
11
4.44936
21
-5.04156
0
LINE
8
BLACK
6
CONTINUOUS
10
4.44936
20
-5.04156
11
4.45311
21
-5.03406
0
LINE
8
BLACK
6
CONTINUOUS
10
4.45311
20
-5.03406
11
4.45686
21
-5.03031
0
LINE
8
BLACK
6
CONTINUOUS
10
4.45686
20
-5.03031
11
4.46436
21
-5.02657
0
LINE
8
BLACK
6
CONTINUOUS
10
4.52435
20
-5.09781
11
4.5281
21
-5.10156
0
LINE
8
BLACK
6
CONTINUOUS
10
4.5281
20
-5.10156
11
4.52435
21
-5.10531
0
LINE
8
BLACK
6
CONTINUOUS
10
4.52435
20
-5.10531
11
4.5206
21
-5.10156
0
LINE
8
BLACK
6
CONTINUOUS
10
4.5206
20
-5.10156
11
4.52435
21
-5.09781
0
LINE
8
BLACK
6
CONTINUOUS
10
4.52435
20
-5.09781
11
4.52435
21
-5.10531
0
LINE
8
BLACK
6
CONTINUOUS
10
4.57685
20
-5.02657
11
4.58435
21
-5.02657
0
LINE
8
BLACK
6
CONTINUOUS
10
4.58435
20
-5.02657
11
4.59184
21
-5.03031
0
LINE
8
BLACK
6
CONTINUOUS
10
4.59184
20
-5.03031
11
4.59559
21
-5.03406
0
LINE
8
BLACK
6
CONTINUOUS
10
4.59559
20
-5.03406
11
4.59934
21
-5.04156
0
LINE
8
BLACK
6
CONTINUOUS
10
4.59934
20
-5.04156
11
4.60309
21
-5.05656
0
LINE
8
BLACK
6
CONTINUOUS
10
4.60309
20
-5.05656
11
4.60309
21
-5.07531
0
LINE
8
BLACK
6
CONTINUOUS
10
4.60309
20
-5.07531
11
4.59934
21
-5.09031
0
LINE
8
BLACK
6
CONTINUOUS
10
4.59934
20
-5.09031
11
4.59559
21
-5.09781
0
LINE
8
BLACK
6
CONTINUOUS
10
4.59559
20
-5.09781
11
4.59184
21
-5.10156
0
LINE
8
BLACK
6
CONTINUOUS
10
4.59184
20
-5.10156
11
4.58435
21
-5.10531
0
LINE
8
BLACK
6
CONTINUOUS
10
4.58435
20
-5.10531
11
4.57685
21
-5.10531
0
LINE
8
BLACK
6
CONTINUOUS
10
4.57685
20
-5.10531
11
4.56935
21
-5.10156
0
LINE
8
BLACK
6
CONTINUOUS
10
4.56935
20
-5.10156
11
4.5656
21
-5.09781
0
LINE
8
BLACK
6
CONTINUOUS
10
4.5656
20
-5.09781
11
4.56185
21
-5.09031
0
LINE
8
BLACK
6
CONTINUOUS
10
4.56185
20
-5.09031
11
4.5581
21
-5.07531
0
LINE
8
BLACK
6
CONTINUOUS
10
4.5581
20
-5.07531
11
4.5581
21
-5.05656
0
LINE
8
BLACK
6
CONTINUOUS
10
4.5581
20
-5.05656
11
4.56185
21
-5.04156
0
LINE
8
BLACK
6
CONTINUOUS
10
4.56185
20
-5.04156
11
4.5656
21
-5.03406
0
LINE
8
BLACK
6
CONTINUOUS
10
4.5656
20
-5.03406
11
4.56935
21
-5.03031
0
LINE
8
BLACK
6
CONTINUOUS
10
4.56935
20
-5.03031
11
4.57685
21
-5.02657
0
LINE
8
BLACK
6
CONTINUOUS
10
4.67058
20
-5.05281
11
4.67058
21
-5.10531
0
LINE
8
BLACK
6
CONTINUOUS
10
4.65184
20
-5.02282
11
4.63309
21
-5.07906
0
LINE
8
BLACK
6
CONTINUOUS
10
4.63309
20
-5.07906
11
4.68183
21
-5.07906
0
LINE
8
BLACK
6
CONTINUOUS
10
4.72683
20
-5.02657
11
4.73433
21
-5.02657
0
LINE
8
BLACK
6
CONTINUOUS
10
4.73433
20
-5.02657
11
4.74183
21
-5.03031
0
LINE
8
BLACK
6
CONTINUOUS
10
4.74183
20
-5.03031
11
4.74558
21
-5.03406
0
LINE
8
BLACK
6
CONTINUOUS
10
4.74558
20
-5.03406
11
4.74933
21
-5.04156
0
LINE
8
BLACK
6
CONTINUOUS
10
4.74933
20
-5.04156
11
4.75307
21
-5.05656
0
LINE
8
BLACK
6
CONTINUOUS
10
4.75307
20
-5.05656
11
4.75307
21
-5.07531
0
LINE
8
BLACK
6
CONTINUOUS
10
4.75307
20
-5.07531
11
4.74933
21
-5.09031
0
LINE
8
BLACK
6
CONTINUOUS
10
4.74933
20
-5.09031
11
4.74558
21
-5.09781
0
LINE
8
BLACK
6
CONTINUOUS
10
4.74558
20
-5.09781
11
4.74183
21
-5.10156
0
LINE
8
BLACK
6
CONTINUOUS
10
4.74183
20
-5.10156
11
4.73433
21
-5.10531
0
LINE
8
BLACK
6
CONTINUOUS
10
4.73433
20
-5.10531
11
4.72683
21
-5.10531
0
LINE
8
BLACK
6
CONTINUOUS
10
4.72683
20
-5.10531
11
4.71933
21
-5.10156
0
LINE
8
BLACK
6
CONTINUOUS
10
4.71933
20
-5.10156
11
4.71558
21
-5.09781
0
LINE
8
BLACK
6
CONTINUOUS
10
4.71558
20
-5.09781
11
4.71183
21
-5.09031
0
LINE
8
BLACK
6
CONTINUOUS
10
4.71183
20
-5.09031
11
4.70808
21
-5.07531
0
LINE
8
BLACK
6
CONTINUOUS
10
4.70808
20
-5.07531
11
4.70808
21
-5.05656
0
LINE
8
BLACK
6
CONTINUOUS
10
4.70808
20
-5.05656
11
4.71183
21
-5.04156
0
LINE
8
BLACK
6
CONTINUOUS
10
4.71183
20
-5.04156
11
4.71558
21
-5.03406
0
LINE
8
BLACK
6
CONTINUOUS
10
4.71558
20
-5.03406
11
4.71933
21
-5.03031
0
LINE
8
BLACK
6
CONTINUOUS
10
4.71933
20
-5.03031
11
4.72683
21
-5.02657
0
LINE
8
BLACK
6
CONTINUOUS
10
4.79057
20
-5.10531
11
4.80557
21
-5.10531
0
LINE
8
BLACK
6
CONTINUOUS
10
4.80557
20
-5.10531
11
4.81307
21
-5.10156
0
LINE
8
BLACK
6
CONTINUOUS
10
4.81307
20
-5.10156
11
4.81682
21
-5.09781
0
LINE
8
BLACK
6
CONTINUOUS
10
4.81682
20
-5.09781
11
4.82432
21
-5.08656
0
LINE
8
BLACK
6
CONTINUOUS
10
4.82432
20
-5.08656
11
4.82807
21
-5.07156
0
LINE
8
BLACK
6
CONTINUOUS
10
4.82807
20
-5.07156
11
4.82807
21
-5.04156
0
LINE
8
BLACK
6
CONTINUOUS
10
4.82807
20
-5.04156
11
4.82432
21
-5.03406
0
LINE
8
BLACK
6
CONTINUOUS
10
4.82432
20
-5.03406
11
4.82057
21
-5.03031
0
LINE
8
BLACK
6
CONTINUOUS
10
4.82057
20
-5.03031
11
4.81307
21
-5.02657
0
LINE
8
BLACK
6
CONTINUOUS
10
4.81307
20
-5.02657
11
4.79807
21
-5.02657
0
LINE
8
BLACK
6
CONTINUOUS
10
4.79807
20
-5.02657
11
4.79057
21
-5.03031
0
LINE
8
BLACK
6
CONTINUOUS
10
4.79057
20
-5.03031
11
4.78682
21
-5.03406
0
LINE
8
BLACK
6
CONTINUOUS
10
4.78682
20
-5.03406
11
4.78307
21
-5.04156
0
LINE
8
BLACK
6
CONTINUOUS
10
4.78307
20
-5.04156
11
4.78307
21
-5.06031
0
LINE
8
BLACK
6
CONTINUOUS
10
4.78307
20
-5.06031
11
4.78682
21
-5.06781
0
LINE
8
BLACK
6
CONTINUOUS
10
4.78682
20
-5.06781
11
4.79057
21
-5.07156
0
LINE
8
BLACK
6
CONTINUOUS
10
4.79057
20
-5.07156
11
4.79807
21
-5.07531
0
LINE
8
BLACK
6
CONTINUOUS
10
4.79807
20
-5.07531
11
4.81307
21
-5.07531
0
LINE
8
BLACK
6
CONTINUOUS
10
4.81307
20
-5.07531
11
4.82057
21
-5.07156
0
LINE
8
BLACK
6
CONTINUOUS
10
4.82057
20
-5.07156
11
4.82432
21
-5.06781
0
LINE
8
BLACK
6
CONTINUOUS
10
4.82432
20
-5.06781
11
4.82807
21
-5.06031
0
LINE
8
BLACK
6
CONTINUOUS
10
4.85806
20
-5.02657
11
4.85806
21
-5.04156
0
LINE
8
BLACK
6
CONTINUOUS
10
4.88806
20
-5.02657
11
4.88806
21
-5.04156
0
LINE
8
BLACK
6
CONTINUOUS
10
5.00429
20
-5.1353
11
5.00054
21
-5.13155
0
LINE
8
BLACK
6
CONTINUOUS
10
5.00054
20
-5.13155
11
4.99304
21
-5.1203
0
LINE
8
BLACK
6
CONTINUOUS
10
4.99304
20
-5.1203
11
4.9893
21
-5.1128
0
LINE
8
BLACK
6
CONTINUOUS
10
4.9893
20
-5.1128
11
4.98555
21
-5.10156
0
LINE
8
BLACK
6
CONTINUOUS
10
4.98555
20
-5.10156
11
4.9818
21
-5.08281
0
LINE
8
BLACK
6
CONTINUOUS
10
4.9818
20
-5.08281
11
4.9818
21
-5.06781
0
LINE
8
BLACK
6
CONTINUOUS
10
4.9818
20
-5.06781
11
4.98555
21
-5.04906
0
LINE
8
BLACK
6
CONTINUOUS
10
4.98555
20
-5.04906
11
4.9893
21
-5.03781
0
LINE
8
BLACK
6
CONTINUOUS
10
4.9893
20
-5.03781
11
4.99304
21
-5.03031
0
LINE
8
BLACK
6
CONTINUOUS
10
4.99304
20
-5.03031
11
5.00054
21
-5.01907
0
LINE
8
BLACK
6
CONTINUOUS
10
5.00054
20
-5.01907
11
5.00429
21
-5.01532
0
LINE
8
BLACK
6
CONTINUOUS
10
5.02679
20
-5.02657
11
5.07553
21
-5.02657
0
LINE
8
BLACK
6
CONTINUOUS
10
5.07553
20
-5.02657
11
5.04929
21
-5.05656
0
LINE
8
BLACK
6
CONTINUOUS
10
5.04929
20
-5.05656
11
5.06054
21
-5.05656
0
LINE
8
BLACK
6
CONTINUOUS
10
5.06054
20
-5.05656
11
5.06804
21
-5.06031
0
LINE
8
BLACK
6
CONTINUOUS
10
5.06804
20
-5.06031
11
5.07178
21
-5.06406
0
LINE
8
BLACK
6
CONTINUOUS
10
5.07178
20
-5.06406
11
5.07553
21
-5.07156
0
LINE
8
BLACK
6
CONTINUOUS
10
5.07553
20
-5.07156
11
5.07553
21
-5.09031
0
LINE
8
BLACK
6
CONTINUOUS
10
5.07553
20
-5.09031
11
5.07178
21
-5.09781
0
LINE
8
BLACK
6
CONTINUOUS
10
5.07178
20
-5.09781
11
5.06804
21
-5.10156
0
LINE
8
BLACK
6
CONTINUOUS
10
5.06804
20
-5.10156
11
5.06054
21
-5.10531
0
LINE
8
BLACK
6
CONTINUOUS
10
5.06054
20
-5.10531
11
5.03804
21
-5.10531
0
LINE
8
BLACK
6
CONTINUOUS
10
5.03804
20
-5.10531
11
5.03054
21
-5.10156
0
LINE
8
BLACK
6
CONTINUOUS
10
5.03054
20
-5.10156
11
5.02679
21
-5.09781
0
LINE
8
BLACK
6
CONTINUOUS
10
5.12053
20
-5.06031
11
5.11303
21
-5.05656
0
LINE
8
BLACK
6
CONTINUOUS
10
5.11303
20
-5.05656
11
5.10928
21
-5.05281
0
LINE
8
BLACK
6
CONTINUOUS
10
5.10928
20
-5.05281
11
5.10553
21
-5.04531
0
LINE
8
BLACK
6
CONTINUOUS
10
5.10553
20
-5.04531
11
5.10553
21
-5.04156
0
LINE
8
BLACK
6
CONTINUOUS
10
5.10553
20
-5.04156
11
5.10928
21
-5.03406
0
LINE
8
BLACK
6
CONTINUOUS
10
5.10928
20
-5.03406
11
5.11303
21
-5.03031
0
LINE
8
BLACK
6
CONTINUOUS
10
5.11303
20
-5.03031
11
5.12053
21
-5.02657
0
LINE
8
BLACK
6
CONTINUOUS
10
5.12053
20
-5.02657
11
5.13553
21
-5.02657
0
LINE
8
BLACK
6
CONTINUOUS
10
5.13553
20
-5.02657
11
5.14303
21
-5.03031
0
LINE
8
BLACK
6
CONTINUOUS
10
5.14303
20
-5.03031
11
5.14678
21
-5.03406
0
LINE
8
BLACK
6
CONTINUOUS
10
5.14678
20
-5.03406
11
5.15052
21
-5.04156
0
LINE
8
BLACK
6
CONTINUOUS
10
5.15052
20
-5.04156
11
5.15052
21
-5.04531
0
LINE
8
BLACK
6
CONTINUOUS
10
5.15052
20
-5.04531
11
5.14678
21
-5.05281
0
LINE
8
BLACK
6
CONTINUOUS
10
5.14678
20
-5.05281
11
5.14303
21
-5.05656
0
LINE
8
BLACK
6
CONTINUOUS
10
5.14303
20
-5.05656
11
5.13553
21
-5.06031
0
LINE
8
BLACK
6
CONTINUOUS
10
5.13553
20
-5.06031
11
5.12053
21
-5.06031
0
LINE
8
BLACK
6
CONTINUOUS
10
5.12053
20
-5.06031
11
5.11303
21
-5.06406
0
LINE
8
BLACK
6
CONTINUOUS
10
5.11303
20
-5.06406
11
5.10928
21
-5.06781
0
LINE
8
BLACK
6
CONTINUOUS
10
5.10928
20
-5.06781
11
5.10553
21
-5.07531
0
LINE
8
BLACK
6
CONTINUOUS
10
5.10553
20
-5.07531
11
5.10553
21
-5.09031
0
LINE
8
BLACK
6
CONTINUOUS
10
5.10553
20
-5.09031
11
5.10928
21
-5.09781
0
LINE
8
BLACK
6
CONTINUOUS
10
5.10928
20
-5.09781
11
5.11303
21
-5.10156
0
LINE
8
BLACK
6
CONTINUOUS
10
5.11303
20
-5.10156
11
5.12053
21
-5.10531
0
LINE
8
BLACK
6
CONTINUOUS
10
5.12053
20
-5.10531
11
5.13553
21
-5.10531
0
LINE
8
BLACK
6
CONTINUOUS
10
5.13553
20
-5.10531
11
5.14303
21
-5.10156
0
LINE
8
BLACK
6
CONTINUOUS
10
5.14303
20
-5.10156
11
5.14678
21
-5.09781
0
LINE
8
BLACK
6
CONTINUOUS
10
5.14678
20
-5.09781
11
5.15052
21
-5.09031
0
LINE
8
BLACK
6
CONTINUOUS
10
5.15052
20
-5.09031
11
5.15052
21
-5.07531
0
LINE
8
BLACK
6
CONTINUOUS
10
5.15052
20
-5.07531
11
5.14678
21
-5.06781
0
LINE
8
BLACK
6
CONTINUOUS
10
5.14678
20
-5.06781
11
5.14303
21
-5.06406
0
LINE
8
BLACK
6
CONTINUOUS
10
5.14303
20
-5.06406
11
5.13553
21
-5.06031
0
LINE
8
BLACK
6
CONTINUOUS
10
5.24426
20
-5.10531
11
5.24426
21
-5.02657
0
LINE
8
BLACK
6
CONTINUOUS
10
5.27801
20
-5.10531
11
5.27801
21
-5.06406
0
LINE
8
BLACK
6
CONTINUOUS
10
5.27801
20
-5.06406
11
5.27426
21
-5.05656
0
LINE
8
BLACK
6
CONTINUOUS
10
5.27426
20
-5.05656
11
5.26676
21
-5.05281
0
LINE
8
BLACK
6
CONTINUOUS
10
5.26676
20
-5.05281
11
5.25551
21
-5.05281
0
LINE
8
BLACK
6
CONTINUOUS
10
5.25551
20
-5.05281
11
5.24801
21
-5.05656
0
LINE
8
BLACK
6
CONTINUOUS
10
5.24801
20
-5.05656
11
5.24426
21
-5.06031
0
LINE
8
BLACK
6
CONTINUOUS
10
5.32675
20
-5.10531
11
5.31925
21
-5.10156
0
LINE
8
BLACK
6
CONTINUOUS
10
5.31925
20
-5.10156
11
5.3155
21
-5.09781
0
LINE
8
BLACK
6
CONTINUOUS
10
5.3155
20
-5.09781
11
5.31175
21
-5.09031
0
LINE
8
BLACK
6
CONTINUOUS
10
5.31175
20
-5.09031
11
5.31175
21
-5.06781
0
LINE
8
BLACK
6
CONTINUOUS
10
5.31175
20
-5.06781
11
5.3155
21
-5.06031
0
LINE
8
BLACK
6
CONTINUOUS
10
5.3155
20
-5.06031
11
5.31925
21
-5.05656
0
LINE
8
BLACK
6
CONTINUOUS
10
5.31925
20
-5.05656
11
5.32675
21
-5.05281
0
LINE
8
BLACK
6
CONTINUOUS
10
5.32675
20
-5.05281
11
5.338
21
-5.05281
0
LINE
8
BLACK
6
CONTINUOUS
10
5.338
20
-5.05281
11
5.3455
21
-5.05656
0
LINE
8
BLACK
6
CONTINUOUS
10
5.3455
20
-5.05656
11
5.34925
21
-5.06031
0
LINE
8
BLACK
6
CONTINUOUS
10
5.34925
20
-5.06031
11
5.353
21
-5.06781
0
LINE
8
BLACK
6
CONTINUOUS
10
5.353
20
-5.06781
11
5.353
21
-5.09031
0
LINE
8
BLACK
6
CONTINUOUS
10
5.353
20
-5.09031
11
5.34925
21
-5.09781
0
LINE
8
BLACK
6
CONTINUOUS
10
5.34925
20
-5.09781
11
5.3455
21
-5.10156
0
LINE
8
BLACK
6
CONTINUOUS
10
5.3455
20
-5.10156
11
5.338
21
-5.10531
0
LINE
8
BLACK
6
CONTINUOUS
10
5.338
20
-5.10531
11
5.32675
21
-5.10531
0
LINE
8
BLACK
6
CONTINUOUS
10
5.39799
20
-5.10531
11
5.39049
21
-5.10156
0
LINE
8
BLACK
6
CONTINUOUS
10
5.39049
20
-5.10156
11
5.38675
21
-5.09406
0
LINE
8
BLACK
6
CONTINUOUS
10
5.38675
20
-5.09406
11
5.38675
21
-5.02657
0
LINE
8
BLACK
6
CONTINUOUS
10
5.45799
20
-5.10156
11
5.45049
21
-5.10531
0
LINE
8
BLACK
6
CONTINUOUS
10
5.45049
20
-5.10531
11
5.43549
21
-5.10531
0
LINE
8
BLACK
6
CONTINUOUS
10
5.43549
20
-5.10531
11
5.42799
21
-5.10156
0
LINE
8
BLACK
6
CONTINUOUS
10
5.42799
20
-5.10156
11
5.42424
21
-5.09406
0
LINE
8
BLACK
6
CONTINUOUS
10
5.42424
20
-5.09406
11
5.42424
21
-5.06406
0
LINE
8
BLACK
6
CONTINUOUS
10
5.42424
20
-5.06406
11
5.42799
21
-5.05656
0
LINE
8
BLACK
6
CONTINUOUS
10
5.42799
20
-5.05656
11
5.43549
21
-5.05281
0
LINE
8
BLACK
6
CONTINUOUS
10
5.43549
20
-5.05281
11
5.45049
21
-5.05281
0
LINE
8
BLACK
6
CONTINUOUS
10
5.45049
20
-5.05281
11
5.45799
21
-5.05656
0
LINE
8
BLACK
6
CONTINUOUS
10
5.45799
20
-5.05656
11
5.46174
21
-5.06406
0
LINE
8
BLACK
6
CONTINUOUS
10
5.46174
20
-5.06406
11
5.46174
21
-5.07156
0
LINE
8
BLACK
6
CONTINUOUS
10
5.46174
20
-5.07156
11
5.42424
21
-5.07906
0
LINE
8
BLACK
6
CONTINUOUS
10
5.49173
20
-5.10156
11
5.49923
21
-5.10531
0
LINE
8
BLACK
6
CONTINUOUS
10
5.49923
20
-5.10531
11
5.51423
21
-5.10531
0
LINE
8
BLACK
6
CONTINUOUS
10
5.51423
20
-5.10531
11
5.52173
21
-5.10156
0
LINE
8
BLACK
6
CONTINUOUS
10
5.52173
20
-5.10156
11
5.52548
21
-5.09406
0
LINE
8
BLACK
6
CONTINUOUS
10
5.52548
20
-5.09406
11
5.52548
21
-5.09031
0
LINE
8
BLACK
6
CONTINUOUS
10
5.52548
20
-5.09031
11
5.52173
21
-5.08281
0
LINE
8
BLACK
6
CONTINUOUS
10
5.52173
20
-5.08281
11
5.51423
21
-5.07906
0
LINE
8
BLACK
6
CONTINUOUS
10
5.51423
20
-5.07906
11
5.50298
21
-5.07906
0
LINE
8
BLACK
6
CONTINUOUS
10
5.50298
20
-5.07906
11
5.49548
21
-5.07531
0
LINE
8
BLACK
6
CONTINUOUS
10
5.49548
20
-5.07531
11
5.49173
21
-5.06781
0
LINE
8
BLACK
6
CONTINUOUS
10
5.49173
20
-5.06781
11
5.49173
21
-5.06406
0
LINE
8
BLACK
6
CONTINUOUS
10
5.49173
20
-5.06406
11
5.49548
21
-5.05656
0
LINE
8
BLACK
6
CONTINUOUS
10
5.49548
20
-5.05656
11
5.50298
21
-5.05281
0
LINE
8
BLACK
6
CONTINUOUS
10
5.50298
20
-5.05281
11
5.51423
21
-5.05281
0
LINE
8
BLACK
6
CONTINUOUS
10
5.51423
20
-5.05281
11
5.52173
21
-5.05656
0
LINE
8
BLACK
6
CONTINUOUS
10
5.55172
20
-5.1353
11
5.55547
21
-5.13155
0
LINE
8
BLACK
6
CONTINUOUS
10
5.55547
20
-5.13155
11
5.56297
21
-5.1203
0
LINE
8
BLACK
6
CONTINUOUS
10
5.56297
20
-5.1203
11
5.56672
21
-5.1128
0
LINE
8
BLACK
6
CONTINUOUS
10
5.56672
20
-5.1128
11
5.57047
21
-5.10156
0
LINE
8
BLACK
6
CONTINUOUS
10
5.57047
20
-5.10156
11
5.57422
21
-5.08281
0
LINE
8
BLACK
6
CONTINUOUS
10
5.57422
20
-5.08281
11
5.57422
21
-5.06781
0
LINE
8
BLACK
6
CONTINUOUS
10
5.57422
20
-5.06781
11
5.57047
21
-5.04906
0
LINE
8
BLACK
6
CONTINUOUS
10
5.57047
20
-5.04906
11
5.56672
21
-5.03781
0
LINE
8
BLACK
6
CONTINUOUS
10
5.56672
20
-5.03781
11
5.56297
21
-5.03031
0
LINE
8
BLACK
6
CONTINUOUS
10
5.56297
20
-5.03031
11
5.55547
21
-5.01907
0
LINE
8
BLACK
6
CONTINUOUS
10
5.55547
20
-5.01907
11
5.55172
21
-5.01532
0
LINE
8
BLACK
6
CONTINUOUS
10
3.55472
20
-5.15197
11
3.59803
21
-5.19528
0
LINE
8
BLACK
6
CONTINUOUS
10
3.59803
20
-5.15197
11
3.55472
21
-5.19528
0
CIRCLE
8
BLACK
10
3.57638
20
-5.17362
40
0.0216535
0
LINE
8
BLACK
6
CONTINUOUS
10
3.7407
20
-5.20924
11
3.69571
21
-5.20924
0
LINE
8
BLACK
6
CONTINUOUS
10
3.7182
20
-5.20924
11
3.7182
21
-5.1305
0
LINE
8
BLACK
6
CONTINUOUS
10
3.7182
20
-5.1305
11
3.7107
21
-5.14175
0
LINE
8
BLACK
6
CONTINUOUS
10
3.7107
20
-5.14175
11
3.70321
21
-5.14925
0
LINE
8
BLACK
6
CONTINUOUS
10
3.70321
20
-5.14925
11
3.69571
21
-5.153
0
LINE
8
BLACK
6
CONTINUOUS
10
3.77445
20
-5.20174
11
3.7782
21
-5.20549
0
LINE
8
BLACK
6
CONTINUOUS
10
3.7782
20
-5.20549
11
3.77445
21
-5.20924
0
LINE
8
BLACK
6
CONTINUOUS
10
3.77445
20
-5.20924
11
3.7707
21
-5.20549
0
LINE
8
BLACK
6
CONTINUOUS
10
3.7707
20
-5.20549
11
3.77445
21
-5.20174
0
LINE
8
BLACK
6
CONTINUOUS
10
3.77445
20
-5.20174
11
3.77445
21
-5.20924
0
LINE
8
BLACK
6
CONTINUOUS
10
3.85319
20
-5.20924
11
3.80819
21
-5.20924
0
LINE
8
BLACK
6
CONTINUOUS
10
3.83069
20
-5.20924
11
3.83069
21
-5.1305
0
LINE
8
BLACK
6
CONTINUOUS
10
3.83069
20
-5.1305
11
3.82319
21
-5.14175
0
LINE
8
BLACK
6
CONTINUOUS
10
3.82319
20
-5.14175
11
3.81569
21
-5.14925
0
LINE
8
BLACK
6
CONTINUOUS
10
3.81569
20
-5.14925
11
3.80819
21
-5.153
0
LINE
8
BLACK
6
CONTINUOUS
10
3.90193
20
-5.1305
11
3.90943
21
-5.1305
0
LINE
8
BLACK
6
CONTINUOUS
10
3.90943
20
-5.1305
11
3.91693
21
-5.13425
0
LINE
8
BLACK
6
CONTINUOUS
10
3.91693
20
-5.13425
11
3.92068
21
-5.138
0
LINE
8
BLACK
6
CONTINUOUS
10
3.92068
20
-5.138
11
3.92443
21
-5.1455
0
LINE
8
BLACK
6
CONTINUOUS
10
3.92443
20
-5.1455
11
3.92818
21
-5.1605
0
LINE
8
BLACK
6
CONTINUOUS
10
3.92818
20
-5.1605
11
3.92818
21
-5.17925
0
LINE
8
BLACK
6
CONTINUOUS
10
3.92818
20
-5.17925
11
3.92443
21
-5.19424
0
LINE
8
BLACK
6
CONTINUOUS
10
3.92443
20
-5.19424
11
3.92068
21
-5.20174
0
LINE
8
BLACK
6
CONTINUOUS
10
3.92068
20
-5.20174
11
3.91693
21
-5.20549
0
LINE
8
BLACK
6
CONTINUOUS
10
3.91693
20
-5.20549
11
3.90943
21
-5.20924
0
LINE
8
BLACK
6
CONTINUOUS
10
3.90943
20
-5.20924
11
3.90193
21
-5.20924
0
LINE
8
BLACK
6
CONTINUOUS
10
3.90193
20
-5.20924
11
3.89443
21
-5.20549
0
LINE
8
BLACK
6
CONTINUOUS
10
3.89443
20
-5.20549
11
3.89068
21
-5.20174
0
LINE
8
BLACK
6
CONTINUOUS
10
3.89068
20
-5.20174
11
3.88693
21
-5.19424
0
LINE
8
BLACK
6
CONTINUOUS
10
3.88693
20
-5.19424
11
3.88318
21
-5.17925
0
LINE
8
BLACK
6
CONTINUOUS
10
3.88318
20
-5.17925
11
3.88318
21
-5.1605
0
LINE
8
BLACK
6
CONTINUOUS
10
3.88318
20
-5.1605
11
3.88693
21
-5.1455
0
LINE
8
BLACK
6
CONTINUOUS
10
3.88693
20
-5.1455
11
3.89068
21
-5.138
0
LINE
8
BLACK
6
CONTINUOUS
10
3.89068
20
-5.138
11
3.89443
21
-5.13425
0
LINE
8
BLACK
6
CONTINUOUS
10
3.89443
20
-5.13425
11
3.90193
21
-5.1305
0
LINE
8
BLACK
6
CONTINUOUS
10
3.97692
20
-5.1305
11
3.98442
21
-5.1305
0
LINE
8
BLACK
6
CONTINUOUS
10
3.98442
20
-5.1305
11
3.99192
21
-5.13425
0
LINE
8
BLACK
6
CONTINUOUS
10
3.99192
20
-5.13425
11
3.99567
21
-5.138
0
LINE
8
BLACK
6
CONTINUOUS
10
3.99567
20
-5.138
11
3.99942
21
-5.1455
0
LINE
8
BLACK
6
CONTINUOUS
10
3.99942
20
-5.1455
11
4.00317
21
-5.1605
0
LINE
8
BLACK
6
CONTINUOUS
10
4.00317
20
-5.1605
11
4.00317
21
-5.17925
0
LINE
8
BLACK
6
CONTINUOUS
10
4.00317
20
-5.17925
11
3.99942
21
-5.19424
0
LINE
8
BLACK
6
CONTINUOUS
10
3.99942
20
-5.19424
11
3.99567
21
-5.20174
0
LINE
8
BLACK
6
CONTINUOUS
10
3.99567
20
-5.20174
11
3.99192
21
-5.20549
0
LINE
8
BLACK
6
CONTINUOUS
10
3.99192
20
-5.20549
11
3.98442
21
-5.20924
0
LINE
8
BLACK
6
CONTINUOUS
10
3.98442
20
-5.20924
11
3.97692
21
-5.20924
0
LINE
8
BLACK
6
CONTINUOUS
10
3.97692
20
-5.20924
11
3.96942
21
-5.20549
0
LINE
8
BLACK
6
CONTINUOUS
10
3.96942
20
-5.20549
11
3.96567
21
-5.20174
0
LINE
8
BLACK
6
CONTINUOUS
10
3.96567
20
-5.20174
11
3.96192
21
-5.19424
0
LINE
8
BLACK
6
CONTINUOUS
10
3.96192
20
-5.19424
11
3.95817
21
-5.17925
0
LINE
8
BLACK
6
CONTINUOUS
10
3.95817
20
-5.17925
11
3.95817
21
-5.1605
0
LINE
8
BLACK
6
CONTINUOUS
10
3.95817
20
-5.1605
11
3.96192
21
-5.1455
0
LINE
8
BLACK
6
CONTINUOUS
10
3.96192
20
-5.1455
11
3.96567
21
-5.138
0
LINE
8
BLACK
6
CONTINUOUS
10
3.96567
20
-5.138
11
3.96942
21
-5.13425
0
LINE
8
BLACK
6
CONTINUOUS
10
3.96942
20
-5.13425
11
3.97692
21
-5.1305
0
LINE
8
BLACK
6
CONTINUOUS
10
4.03691
20
-5.20924
11
4.03691
21
-5.15675
0
LINE
8
BLACK
6
CONTINUOUS
10
4.03691
20
-5.16425
11
4.04066
21
-5.1605
0
LINE
8
BLACK
6
CONTINUOUS
10
4.04066
20
-5.1605
11
4.04816
21
-5.15675
0
LINE
8
BLACK
6
CONTINUOUS
10
4.04816
20
-5.15675
11
4.05941
21
-5.15675
0
LINE
8
BLACK
6
CONTINUOUS
10
4.05941
20
-5.15675
11
4.06691
21
-5.1605
0
LINE
8
BLACK
6
CONTINUOUS
10
4.06691
20
-5.1605
11
4.07066
21
-5.168
0
LINE
8
BLACK
6
CONTINUOUS
10
4.07066
20
-5.168
11
4.07066
21
-5.20924
0
LINE
8
BLACK
6
CONTINUOUS
10
4.07066
20
-5.168
11
4.07441
21
-5.1605
0
LINE
8
BLACK
6
CONTINUOUS
10
4.07441
20
-5.1605
11
4.08191
21
-5.15675
0
LINE
8
BLACK
6
CONTINUOUS
10
4.08191
20
-5.15675
11
4.09316
21
-5.15675
0
LINE
8
BLACK
6
CONTINUOUS
10
4.09316
20
-5.15675
11
4.10066
21
-5.1605
0
LINE
8
BLACK
6
CONTINUOUS
10
4.10066
20
-5.1605
11
4.10441
21
-5.168
0
LINE
8
BLACK
6
CONTINUOUS
10
4.10441
20
-5.168
11
4.10441
21
-5.20924
0
LINE
8
BLACK
6
CONTINUOUS
10
4.1419
20
-5.20924
11
4.1419
21
-5.15675
0
LINE
8
BLACK
6
CONTINUOUS
10
4.1419
20
-5.16425
11
4.14565
21
-5.1605
0
LINE
8
BLACK
6
CONTINUOUS
10
4.14565
20
-5.1605
11
4.15315
21
-5.15675
0
LINE
8
BLACK
6
CONTINUOUS
10
4.15315
20
-5.15675
11
4.1644
21
-5.15675
0
LINE
8
BLACK
6
CONTINUOUS
10
4.1644
20
-5.15675
11
4.1719
21
-5.1605
0
LINE
8
BLACK
6
CONTINUOUS
10
4.1719
20
-5.1605
11
4.17565
21
-5.168
0
LINE
8
BLACK
6
CONTINUOUS
10
4.17565
20
-5.168
11
4.17565
21
-5.20924
0
LINE
8
BLACK
6
CONTINUOUS
10
4.17565
20
-5.168
11
4.1794
21
-5.1605
0
LINE
8
BLACK
6
CONTINUOUS
10
4.1794
20
-5.1605
11
4.1869
21
-5.15675
0
LINE
8
BLACK
6
CONTINUOUS
10
4.1869
20
-5.15675
11
4.19814
21
-5.15675
0
LINE
8
BLACK
6
CONTINUOUS
10
4.19814
20
-5.15675
11
4.20564
21
-5.1605
0
LINE
8
BLACK
6
CONTINUOUS
10
4.20564
20
-5.1605
11
4.20939
21
-5.168
0
LINE
8
BLACK
6
CONTINUOUS
10
4.20939
20
-5.168
11
4.20939
21
-5.20924
0
LINE
8
BLACK
6
CONTINUOUS
10
4.36312
20
-5.12675
11
4.29563
21
-5.22799
0
LINE
8
BLACK
6
CONTINUOUS
10
4.46436
20
-5.1305
11
4.47186
21
-5.1305
0
LINE
8
BLACK
6
CONTINUOUS
10
4.47186
20
-5.1305
11
4.47936
21
-5.13425
0
LINE
8
BLACK
6
CONTINUOUS
10
4.47936
20
-5.13425
11
4.48311
21
-5.138
0
LINE
8
BLACK
6
CONTINUOUS
10
4.48311
20
-5.138
11
4.48686
21
-5.1455
0
LINE
8
BLACK
6
CONTINUOUS
10
4.48686
20
-5.1455
11
4.49061
21
-5.1605
0
LINE
8
BLACK
6
CONTINUOUS
10
4.49061
20
-5.1605
11
4.49061
21
-5.17925
0
LINE
8
BLACK
6
CONTINUOUS
10
4.49061
20
-5.17925
11
4.48686
21
-5.19424
0
LINE
8
BLACK
6
CONTINUOUS
10
4.48686
20
-5.19424
11
4.48311
21
-5.20174
0
LINE
8
BLACK
6
CONTINUOUS
10
4.48311
20
-5.20174
11
4.47936
21
-5.20549
0
LINE
8
BLACK
6
CONTINUOUS
10
4.47936
20
-5.20549
11
4.47186
21
-5.20924
0
LINE
8
BLACK
6
CONTINUOUS
10
4.47186
20
-5.20924
11
4.46436
21
-5.20924
0
LINE
8
BLACK
6
CONTINUOUS
10
4.46436
20
-5.20924
11
4.45686
21
-5.20549
0
LINE
8
BLACK
6
CONTINUOUS
10
4.45686
20
-5.20549
11
4.45311
21
-5.20174
0
LINE
8
BLACK
6
CONTINUOUS
10
4.45311
20
-5.20174
11
4.44936
21
-5.19424
0
LINE
8
BLACK
6
CONTINUOUS
10
4.44936
20
-5.19424
11
4.44561
21
-5.17925
0
LINE
8
BLACK
6
CONTINUOUS
10
4.44561
20
-5.17925
11
4.44561
21
-5.1605
0
LINE
8
BLACK
6
CONTINUOUS
10
4.44561
20
-5.1605
11
4.44936
21
-5.1455
0
LINE
8
BLACK
6
CONTINUOUS
10
4.44936
20
-5.1455
11
4.45311
21
-5.138
0
LINE
8
BLACK
6
CONTINUOUS
10
4.45311
20
-5.138
11
4.45686
21
-5.13425
0
LINE
8
BLACK
6
CONTINUOUS
10
4.45686
20
-5.13425
11
4.46436
21
-5.1305
0
LINE
8
BLACK
6
CONTINUOUS
10
4.52435
20
-5.20174
11
4.5281
21
-5.20549
0
LINE
8
BLACK
6
CONTINUOUS
10
4.5281
20
-5.20549
11
4.52435
21
-5.20924
0
LINE
8
BLACK
6
CONTINUOUS
10
4.52435
20
-5.20924
11
4.5206
21
-5.20549
0
LINE
8
BLACK
6
CONTINUOUS
10
4.5206
20
-5.20549
11
4.52435
21
-5.20174
0
LINE
8
BLACK
6
CONTINUOUS
10
4.52435
20
-5.20174
11
4.52435
21
-5.20924
0
LINE
8
BLACK
6
CONTINUOUS
10
4.57685
20
-5.1305
11
4.58435
21
-5.1305
0
LINE
8
BLACK
6
CONTINUOUS
10
4.58435
20
-5.1305
11
4.59184
21
-5.13425
0
LINE
8
BLACK
6
CONTINUOUS
10
4.59184
20
-5.13425
11
4.59559
21
-5.138
0
LINE
8
BLACK
6
CONTINUOUS
10
4.59559
20
-5.138
11
4.59934
21
-5.1455
0
LINE
8
BLACK
6
CONTINUOUS
10
4.59934
20
-5.1455
11
4.60309
21
-5.1605
0
LINE
8
BLACK
6
CONTINUOUS
10
4.60309
20
-5.1605
11
4.60309
21
-5.17925
0
LINE
8
BLACK
6
CONTINUOUS
10
4.60309
20
-5.17925
11
4.59934
21
-5.19424
0
LINE
8
BLACK
6
CONTINUOUS
10
4.59934
20
-5.19424
11
4.59559
21
-5.20174
0
LINE
8
BLACK
6
CONTINUOUS
10
4.59559
20
-5.20174
11
4.59184
21
-5.20549
0
LINE
8
BLACK
6
CONTINUOUS
10
4.59184
20
-5.20549
11
4.58435
21
-5.20924
0
LINE
8
BLACK
6
CONTINUOUS
10
4.58435
20
-5.20924
11
4.57685
21
-5.20924
0
LINE
8
BLACK
6
CONTINUOUS
10
4.57685
20
-5.20924
11
4.56935
21
-5.20549
0
LINE
8
BLACK
6
CONTINUOUS
10
4.56935
20
-5.20549
11
4.5656
21
-5.20174
0
LINE
8
BLACK
6
CONTINUOUS
10
4.5656
20
-5.20174
11
4.56185
21
-5.19424
0
LINE
8
BLACK
6
CONTINUOUS
10
4.56185
20
-5.19424
11
4.5581
21
-5.17925
0
LINE
8
BLACK
6
CONTINUOUS
10
4.5581
20
-5.17925
11
4.5581
21
-5.1605
0
LINE
8
BLACK
6
CONTINUOUS
10
4.5581
20
-5.1605
11
4.56185
21
-5.1455
0
LINE
8
BLACK
6
CONTINUOUS
10
4.56185
20
-5.1455
11
4.5656
21
-5.138
0
LINE
8
BLACK
6
CONTINUOUS
10
4.5656
20
-5.138
11
4.56935
21
-5.13425
0
LINE
8
BLACK
6
CONTINUOUS
10
4.56935
20
-5.13425
11
4.57685
21
-5.1305
0
LINE
8
BLACK
6
CONTINUOUS
10
4.67058
20
-5.15675
11
4.67058
21
-5.20924
0
LINE
8
BLACK
6
CONTINUOUS
10
4.65184
20
-5.12675
11
4.63309
21
-5.183
0
LINE
8
BLACK
6
CONTINUOUS
10
4.63309
20
-5.183
11
4.68183
21
-5.183
0
LINE
8
BLACK
6
CONTINUOUS
10
4.70433
20
-5.1305
11
4.75307
21
-5.1305
0
LINE
8
BLACK
6
CONTINUOUS
10
4.75307
20
-5.1305
11
4.72683
21
-5.1605
0
LINE
8
BLACK
6
CONTINUOUS
10
4.72683
20
-5.1605
11
4.73808
21
-5.1605
0
LINE
8
BLACK
6
CONTINUOUS
10
4.73808
20
-5.1605
11
4.74558
21
-5.16425
0
LINE
8
BLACK
6
CONTINUOUS
10
4.74558
20
-5.16425
11
4.74933
21
-5.168
0
LINE
8
BLACK
6
CONTINUOUS
10
4.74933
20
-5.168
11
4.75307
21
-5.1755
0
LINE
8
BLACK
6
CONTINUOUS
10
4.75307
20
-5.1755
11
4.75307
21
-5.19424
0
LINE
8
BLACK
6
CONTINUOUS
10
4.75307
20
-5.19424
11
4.74933
21
-5.20174
0
LINE
8
BLACK
6
CONTINUOUS
10
4.74933
20
-5.20174
11
4.74558
21
-5.20549
0
LINE
8
BLACK
6
CONTINUOUS
10
4.74558
20
-5.20549
11
4.73808
21
-5.20924
0
LINE
8
BLACK
6
CONTINUOUS
10
4.73808
20
-5.20924
11
4.71558
21
-5.20924
0
LINE
8
BLACK
6
CONTINUOUS
10
4.71558
20
-5.20924
11
4.70808
21
-5.20549
0
LINE
8
BLACK
6
CONTINUOUS
10
4.70808
20
-5.20549
11
4.70433
21
-5.20174
0
LINE
8
BLACK
6
CONTINUOUS
10
4.77932
20
-5.1305
11
4.82807
21
-5.1305
0
LINE
8
BLACK
6
CONTINUOUS
10
4.82807
20
-5.1305
11
4.80182
21
-5.1605
0
LINE
8
BLACK
6
CONTINUOUS
10
4.80182
20
-5.1605
11
4.81307
21
-5.1605
0
LINE
8
BLACK
6
CONTINUOUS
10
4.81307
20
-5.1605
11
4.82057
21
-5.16425
0
LINE
8
BLACK
6
CONTINUOUS
10
4.82057
20
-5.16425
11
4.82432
21
-5.168
0
LINE
8
BLACK
6
CONTINUOUS
10
4.82432
20
-5.168
11
4.82807
21
-5.1755
0
LINE
8
BLACK
6
CONTINUOUS
10
4.82807
20
-5.1755
11
4.82807
21
-5.19424
0
LINE
8
BLACK
6
CONTINUOUS
10
4.82807
20
-5.19424
11
4.82432
21
-5.20174
0
LINE
8
BLACK
6
CONTINUOUS
10
4.82432
20
-5.20174
11
4.82057
21
-5.20549
0
LINE
8
BLACK
6
CONTINUOUS
10
4.82057
20
-5.20549
11
4.81307
21
-5.20924
0
LINE
8
BLACK
6
CONTINUOUS
10
4.81307
20
-5.20924
11
4.79057
21
-5.20924
0
LINE
8
BLACK
6
CONTINUOUS
10
4.79057
20
-5.20924
11
4.78307
21
-5.20549
0
LINE
8
BLACK
6
CONTINUOUS
10
4.78307
20
-5.20549
11
4.77932
21
-5.20174
0
LINE
8
BLACK
6
CONTINUOUS
10
4.85806
20
-5.1305
11
4.85806
21
-5.1455
0
LINE
8
BLACK
6
CONTINUOUS
10
4.88806
20
-5.1305
11
4.88806
21
-5.1455
0
LINE
8
BLACK
6
CONTINUOUS
10
5.00429
20
-5.23924
11
5.00054
21
-5.23549
0
LINE
8
BLACK
6
CONTINUOUS
10
5.00054
20
-5.23549
11
4.99304
21
-5.22424
0
LINE
8
BLACK
6
CONTINUOUS
10
4.99304
20
-5.22424
11
4.9893
21
-5.21674
0
LINE
8
BLACK
6
CONTINUOUS
10
4.9893
20
-5.21674
11
4.98555
21
-5.20549
0
LINE
8
BLACK
6
CONTINUOUS
10
4.98555
20
-5.20549
11
4.9818
21
-5.18675
0
LINE
8
BLACK
6
CONTINUOUS
10
4.9818
20
-5.18675
11
4.9818
21
-5.17175
0
LINE
8
BLACK
6
CONTINUOUS
10
4.9818
20
-5.17175
11
4.98555
21
-5.153
0
LINE
8
BLACK
6
CONTINUOUS
10
4.98555
20
-5.153
11
4.9893
21
-5.14175
0
LINE
8
BLACK
6
CONTINUOUS
10
4.9893
20
-5.14175
11
4.99304
21
-5.13425
0
LINE
8
BLACK
6
CONTINUOUS
10
4.99304
20
-5.13425
11
5.00054
21
-5.123
0
LINE
8
BLACK
6
CONTINUOUS
10
5.00054
20
-5.123
11
5.00429
21
-5.11925
0
LINE
8
BLACK
6
CONTINUOUS
10
5.07553
20
-5.20924
11
5.03054
21
-5.20924
0
LINE
8
BLACK
6
CONTINUOUS
10
5.05304
20
-5.20924
11
5.05304
21
-5.1305
0
LINE
8
BLACK
6
CONTINUOUS
10
5.05304
20
-5.1305
11
5.04554
21
-5.14175
0
LINE
8
BLACK
6
CONTINUOUS
10
5.04554
20
-5.14175
11
5.03804
21
-5.14925
0
LINE
8
BLACK
6
CONTINUOUS
10
5.03804
20
-5.14925
11
5.03054
21
-5.153
0
LINE
8
BLACK
6
CONTINUOUS
10
5.12428
20
-5.1305
11
5.13178
21
-5.1305
0
LINE
8
BLACK
6
CONTINUOUS
10
5.13178
20
-5.1305
11
5.13928
21
-5.13425
0
LINE
8
BLACK
6
CONTINUOUS
10
5.13928
20
-5.13425
11
5.14303
21
-5.138
0
LINE
8
BLACK
6
CONTINUOUS
10
5.14303
20
-5.138
11
5.14678
21
-5.1455
0
LINE
8
BLACK
6
CONTINUOUS
10
5.14678
20
-5.1455
11
5.15052
21
-5.1605
0
LINE
8
BLACK
6
CONTINUOUS
10
5.15052
20
-5.1605
11
5.15052
21
-5.17925
0
LINE
8
BLACK
6
CONTINUOUS
10
5.15052
20
-5.17925
11
5.14678
21
-5.19424
0
LINE
8
BLACK
6
CONTINUOUS
10
5.14678
20
-5.19424
11
5.14303
21
-5.20174
0
LINE
8
BLACK
6
CONTINUOUS
10
5.14303
20
-5.20174
11
5.13928
21
-5.20549
0
LINE
8
BLACK
6
CONTINUOUS
10
5.13928
20
-5.20549
11
5.13178
21
-5.20924
0
LINE
8
BLACK
6
CONTINUOUS
10
5.13178
20
-5.20924
11
5.12428
21
-5.20924
0
LINE
8
BLACK
6
CONTINUOUS
10
5.12428
20
-5.20924
11
5.11678
21
-5.20549
0
LINE
8
BLACK
6
CONTINUOUS
10
5.11678
20
-5.20549
11
5.11303
21
-5.20174
0
LINE
8
BLACK
6
CONTINUOUS
10
5.11303
20
-5.20174
11
5.10928
21
-5.19424
0
LINE
8
BLACK
6
CONTINUOUS
10
5.10928
20
-5.19424
11
5.10553
21
-5.17925
0
LINE
8
BLACK
6
CONTINUOUS
10
5.10553
20
-5.17925
11
5.10553
21
-5.1605
0
LINE
8
BLACK
6
CONTINUOUS
10
5.10553
20
-5.1605
11
5.10928
21
-5.1455
0
LINE
8
BLACK
6
CONTINUOUS
10
5.10928
20
-5.1455
11
5.11303
21
-5.138
0
LINE
8
BLACK
6
CONTINUOUS
10
5.11303
20
-5.138
11
5.11678
21
-5.13425
0
LINE
8
BLACK
6
CONTINUOUS
10
5.11678
20
-5.13425
11
5.12428
21
-5.1305
0
LINE
8
BLACK
6
CONTINUOUS
10
5.24426
20
-5.20924
11
5.24426
21
-5.1305
0
LINE
8
BLACK
6
CONTINUOUS
10
5.27801
20
-5.20924
11
5.27801
21
-5.168
0
LINE
8
BLACK
6
CONTINUOUS
10
5.27801
20
-5.168
11
5.27426
21
-5.1605
0
LINE
8
BLACK
6
CONTINUOUS
10
5.27426
20
-5.1605
11
5.26676
21
-5.15675
0
LINE
8
BLACK
6
CONTINUOUS
10
5.26676
20
-5.15675
11
5.25551
21
-5.15675
0
LINE
8
BLACK
6
CONTINUOUS
10
5.25551
20
-5.15675
11
5.24801
21
-5.1605
0
LINE
8
BLACK
6
CONTINUOUS
10
5.24801
20
-5.1605
11
5.24426
21
-5.16425
0
LINE
8
BLACK
6
CONTINUOUS
10
5.32675
20
-5.20924
11
5.31925
21
-5.20549
0
LINE
8
BLACK
6
CONTINUOUS
10
5.31925
20
-5.20549
11
5.3155
21
-5.20174
0
LINE
8
BLACK
6
CONTINUOUS
10
5.3155
20
-5.20174
11
5.31175
21
-5.19424
0
LINE
8
BLACK
6
CONTINUOUS
10
5.31175
20
-5.19424
11
5.31175
21
-5.17175
0
LINE
8
BLACK
6
CONTINUOUS
10
5.31175
20
-5.17175
11
5.3155
21
-5.16425
0
LINE
8
BLACK
6
CONTINUOUS
10
5.3155
20
-5.16425
11
5.31925
21
-5.1605
0
LINE
8
BLACK
6
CONTINUOUS
10
5.31925
20
-5.1605
11
5.32675
21
-5.15675
0
LINE
8
BLACK
6
CONTINUOUS
10
5.32675
20
-5.15675
11
5.338
21
-5.15675
0
LINE
8
BLACK
6
CONTINUOUS
10
5.338
20
-5.15675
11
5.3455
21
-5.1605
0
LINE
8
BLACK
6
CONTINUOUS
10
5.3455
20
-5.1605
11
5.34925
21
-5.16425
0
LINE
8
BLACK
6
CONTINUOUS
10
5.34925
20
-5.16425
11
5.353
21
-5.17175
0
LINE
8
BLACK
6
CONTINUOUS
10
5.353
20
-5.17175
11
5.353
21
-5.19424
0
LINE
8
BLACK
6
CONTINUOUS
10
5.353
20
-5.19424
11
5.34925
21
-5.20174
0
LINE
8
BLACK
6
CONTINUOUS
10
5.34925
20
-5.20174
11
5.3455
21
-5.20549
0
LINE
8
BLACK
6
CONTINUOUS
10
5.3455
20
-5.20549
11
5.338
21
-5.20924
0
LINE
8
BLACK
6
CONTINUOUS
10
5.338
20
-5.20924
11
5.32675
21
-5.20924
0
LINE
8
BLACK
6
CONTINUOUS
10
5.39799
20
-5.20924
11
5.39049
21
-5.20549
0
LINE
8
BLACK
6
CONTINUOUS
10
5.39049
20
-5.20549
11
5.38675
21
-5.19799
0
LINE
8
BLACK
6
CONTINUOUS
10
5.38675
20
-5.19799
11
5.38675
21
-5.1305
0
LINE
8
BLACK
6
CONTINUOUS
10
5.45799
20
-5.20549
11
5.45049
21
-5.20924
0
LINE
8
BLACK
6
CONTINUOUS
10
5.45049
20
-5.20924
11
5.43549
21
-5.20924
0
LINE
8
BLACK
6
CONTINUOUS
10
5.43549
20
-5.20924
11
5.42799
21
-5.20549
0
LINE
8
BLACK
6
CONTINUOUS
10
5.42799
20
-5.20549
11
5.42424
21
-5.19799
0
LINE
8
BLACK
6
CONTINUOUS
10
5.42424
20
-5.19799
11
5.42424
21
-5.168
0
LINE
8
BLACK
6
CONTINUOUS
10
5.42424
20
-5.168
11
5.42799
21
-5.1605
0
LINE
8
BLACK
6
CONTINUOUS
10
5.42799
20
-5.1605
11
5.43549
21
-5.15675
0
LINE
8
BLACK
6
CONTINUOUS
10
5.43549
20
-5.15675
11
5.45049
21
-5.15675
0
LINE
8
BLACK
6
CONTINUOUS
10
5.45049
20
-5.15675
11
5.45799
21
-5.1605
0
LINE
8
BLACK
6
CONTINUOUS
10
5.45799
20
-5.1605
11
5.46174
21
-5.168
0
LINE
8
BLACK
6
CONTINUOUS
10
5.46174
20
-5.168
11
5.46174
21
-5.1755
0
LINE
8
BLACK
6
CONTINUOUS
10
5.46174
20
-5.1755
11
5.42424
21
-5.183
0
LINE
8
BLACK
6
CONTINUOUS
10
5.49173
20
-5.20549
11
5.49923
21
-5.20924
0
LINE
8
BLACK
6
CONTINUOUS
10
5.49923
20
-5.20924
11
5.51423
21
-5.20924
0
LINE
8
BLACK
6
CONTINUOUS
10
5.51423
20
-5.20924
11
5.52173
21
-5.20549
0
LINE
8
BLACK
6
CONTINUOUS
10
5.52173
20
-5.20549
11
5.52548
21
-5.19799
0
LINE
8
BLACK
6
CONTINUOUS
10
5.52548
20
-5.19799
11
5.52548
21
-5.19424
0
LINE
8
BLACK
6
CONTINUOUS
10
5.52548
20
-5.19424
11
5.52173
21
-5.18675
0
LINE
8
BLACK
6
CONTINUOUS
10
5.52173
20
-5.18675
11
5.51423
21
-5.183
0
LINE
8
BLACK
6
CONTINUOUS
10
5.51423
20
-5.183
11
5.50298
21
-5.183
0
LINE
8
BLACK
6
CONTINUOUS
10
5.50298
20
-5.183
11
5.49548
21
-5.17925
0
LINE
8
BLACK
6
CONTINUOUS
10
5.49548
20
-5.17925
11
5.49173
21
-5.17175
0
LINE
8
BLACK
6
CONTINUOUS
10
5.49173
20
-5.17175
11
5.49173
21
-5.168
0
LINE
8
BLACK
6
CONTINUOUS
10
5.49173
20
-5.168
11
5.49548
21
-5.1605
0
LINE
8
BLACK
6
CONTINUOUS
10
5.49548
20
-5.1605
11
5.50298
21
-5.15675
0
LINE
8
BLACK
6
CONTINUOUS
10
5.50298
20
-5.15675
11
5.51423
21
-5.15675
0
LINE
8
BLACK
6
CONTINUOUS
10
5.51423
20
-5.15675
11
5.52173
21
-5.1605
0
LINE
8
BLACK
6
CONTINUOUS
10
5.55172
20
-5.23924
11
5.55547
21
-5.23549
0
LINE
8
BLACK
6
CONTINUOUS
10
5.55547
20
-5.23549
11
5.56297
21
-5.22424
0
LINE
8
BLACK
6
CONTINUOUS
10
5.56297
20
-5.22424
11
5.56672
21
-5.21674
0
LINE
8
BLACK
6
CONTINUOUS
10
5.56672
20
-5.21674
11
5.57047
21
-5.20549
0
LINE
8
BLACK
6
CONTINUOUS
10
5.57047
20
-5.20549
11
5.57422
21
-5.18675
0
LINE
8
BLACK
6
CONTINUOUS
10
5.57422
20
-5.18675
11
5.57422
21
-5.17175
0
LINE
8
BLACK
6
CONTINUOUS
10
5.57422
20
-5.17175
11
5.57047
21
-5.153
0
LINE
8
BLACK
6
CONTINUOUS
10
5.57047
20
-5.153
11
5.56672
21
-5.14175
0
LINE
8
BLACK
6
CONTINUOUS
10
5.56672
20
-5.14175
11
5.56297
21
-5.13425
0
LINE
8
BLACK
6
CONTINUOUS
10
5.56297
20
-5.13425
11
5.55547
21
-5.123
0
LINE
8
BLACK
6
CONTINUOUS
10
5.55547
20
-5.123
11
5.55172
21
-5.11925
0
LINE
8
BLACK
6
CONTINUOUS
10
3.54291
20
-5.25
11
3.59803
21
-5.30512
0
LINE
8
BLACK
6
CONTINUOUS
10
3.59803
20
-5.25
11
3.54291
21
-5.30512
0
LINE
8
BLACK
6
CONTINUOUS
10
3.57047
20
-5.25
11
3.57047
21
-5.30512
0
LINE
8
BLACK
6
CONTINUOUS
10
3.54291
20
-5.27756
11
3.59803
21
-5.27756
0
LINE
8
BLACK
6
CONTINUOUS
10
3.7407
20
-5.31318
11
3.69571
21
-5.31318
0
LINE
8
BLACK
6
CONTINUOUS
10
3.7182
20
-5.31318
11
3.7182
21
-5.23444
0
LINE
8
BLACK
6
CONTINUOUS
10
3.7182
20
-5.23444
11
3.7107
21
-5.24569
0
LINE
8
BLACK
6
CONTINUOUS
10
3.7107
20
-5.24569
11
3.70321
21
-5.25319
0
LINE
8
BLACK
6
CONTINUOUS
10
3.70321
20
-5.25319
11
3.69571
21
-5.25694
0
LINE
8
BLACK
6
CONTINUOUS
10
3.77445
20
-5.30568
11
3.7782
21
-5.30943
0
LINE
8
BLACK
6
CONTINUOUS
10
3.7782
20
-5.30943
11
3.77445
21
-5.31318
0
LINE
8
BLACK
6
CONTINUOUS
10
3.77445
20
-5.31318
11
3.7707
21
-5.30943
0
LINE
8
BLACK
6
CONTINUOUS
10
3.7707
20
-5.30943
11
3.77445
21
-5.30568
0
LINE
8
BLACK
6
CONTINUOUS
10
3.77445
20
-5.30568
11
3.77445
21
-5.31318
0
LINE
8
BLACK
6
CONTINUOUS
10
3.84569
20
-5.26069
11
3.84569
21
-5.31318
0
LINE
8
BLACK
6
CONTINUOUS
10
3.82694
20
-5.23069
11
3.80819
21
-5.28693
0
LINE
8
BLACK
6
CONTINUOUS
10
3.80819
20
-5.28693
11
3.85694
21
-5.28693
0
LINE
8
BLACK
6
CONTINUOUS
10
3.90193
20
-5.23444
11
3.90943
21
-5.23444
0
LINE
8
BLACK
6
CONTINUOUS
10
3.90943
20
-5.23444
11
3.91693
21
-5.23819
0
LINE
8
BLACK
6
CONTINUOUS
10
3.91693
20
-5.23819
11
3.92068
21
-5.24194
0
LINE
8
BLACK
6
CONTINUOUS
10
3.92068
20
-5.24194
11
3.92443
21
-5.24944
0
LINE
8
BLACK
6
CONTINUOUS
10
3.92443
20
-5.24944
11
3.92818
21
-5.26444
0
LINE
8
BLACK
6
CONTINUOUS
10
3.92818
20
-5.26444
11
3.92818
21
-5.28318
0
LINE
8
BLACK
6
CONTINUOUS
10
3.92818
20
-5.28318
11
3.92443
21
-5.29818
0
LINE
8
BLACK
6
CONTINUOUS
10
3.92443
20
-5.29818
11
3.92068
21
-5.30568
0
LINE
8
BLACK
6
CONTINUOUS
10
3.92068
20
-5.30568
11
3.91693
21
-5.30943
0
LINE
8
BLACK
6
CONTINUOUS
10
3.91693
20
-5.30943
11
3.90943
21
-5.31318
0
LINE
8
BLACK
6
CONTINUOUS
10
3.90943
20
-5.31318
11
3.90193
21
-5.31318
0
LINE
8
BLACK
6
CONTINUOUS
10
3.90193
20
-5.31318
11
3.89443
21
-5.30943
0
LINE
8
BLACK
6
CONTINUOUS
10
3.89443
20
-5.30943
11
3.89068
21
-5.30568
0
LINE
8
BLACK
6
CONTINUOUS
10
3.89068
20
-5.30568
11
3.88693
21
-5.29818
0
LINE
8
BLACK
6
CONTINUOUS
10
3.88693
20
-5.29818
11
3.88318
21
-5.28318
0
LINE
8
BLACK
6
CONTINUOUS
10
3.88318
20
-5.28318
11
3.88318
21
-5.26444
0
LINE
8
BLACK
6
CONTINUOUS
10
3.88318
20
-5.26444
11
3.88693
21
-5.24944
0
LINE
8
BLACK
6
CONTINUOUS
10
3.88693
20
-5.24944
11
3.89068
21
-5.24194
0
LINE
8
BLACK
6
CONTINUOUS
10
3.89068
20
-5.24194
11
3.89443
21
-5.23819
0
LINE
8
BLACK
6
CONTINUOUS
10
3.89443
20
-5.23819
11
3.90193
21
-5.23444
0
LINE
8
BLACK
6
CONTINUOUS
10
3.97692
20
-5.23444
11
3.98442
21
-5.23444
0
LINE
8
BLACK
6
CONTINUOUS
10
3.98442
20
-5.23444
11
3.99192
21
-5.23819
0
LINE
8
BLACK
6
CONTINUOUS
10
3.99192
20
-5.23819
11
3.99567
21
-5.24194
0
LINE
8
BLACK
6
CONTINUOUS
10
3.99567
20
-5.24194
11
3.99942
21
-5.24944
0
LINE
8
BLACK
6
CONTINUOUS
10
3.99942
20
-5.24944
11
4.00317
21
-5.26444
0
LINE
8
BLACK
6
CONTINUOUS
10
4.00317
20
-5.26444
11
4.00317
21
-5.28318
0
LINE
8
BLACK
6
CONTINUOUS
10
4.00317
20
-5.28318
11
3.99942
21
-5.29818
0
LINE
8
BLACK
6
CONTINUOUS
10
3.99942
20
-5.29818
11
3.99567
21
-5.30568
0
LINE
8
BLACK
6
CONTINUOUS
10
3.99567
20
-5.30568
11
3.99192
21
-5.30943
0
LINE
8
BLACK
6
CONTINUOUS
10
3.99192
20
-5.30943
11
3.98442
21
-5.31318
0
LINE
8
BLACK
6
CONTINUOUS
10
3.98442
20
-5.31318
11
3.97692
21
-5.31318
0
LINE
8
BLACK
6
CONTINUOUS
10
3.97692
20
-5.31318
11
3.96942
21
-5.30943
0
LINE
8
BLACK
6
CONTINUOUS
10
3.96942
20
-5.30943
11
3.96567
21
-5.30568
0
LINE
8
BLACK
6
CONTINUOUS
10
3.96567
20
-5.30568
11
3.96192
21
-5.29818
0
LINE
8
BLACK
6
CONTINUOUS
10
3.96192
20
-5.29818
11
3.95817
21
-5.28318
0
LINE
8
BLACK
6
CONTINUOUS
10
3.95817
20
-5.28318
11
3.95817
21
-5.26444
0
LINE
8
BLACK
6
CONTINUOUS
10
3.95817
20
-5.26444
11
3.96192
21
-5.24944
0
LINE
8
BLACK
6
CONTINUOUS
10
3.96192
20
-5.24944
11
3.96567
21
-5.24194
0
LINE
8
BLACK
6
CONTINUOUS
10
3.96567
20
-5.24194
11
3.96942
21
-5.23819
0
LINE
8
BLACK
6
CONTINUOUS
10
3.96942
20
-5.23819
11
3.97692
21
-5.23444
0
LINE
8
BLACK
6
CONTINUOUS
10
4.03691
20
-5.31318
11
4.03691
21
-5.26069
0
LINE
8
BLACK
6
CONTINUOUS
10
4.03691
20
-5.26819
11
4.04066
21
-5.26444
0
LINE
8
BLACK
6
CONTINUOUS
10
4.04066
20
-5.26444
11
4.04816
21
-5.26069
0
LINE
8
BLACK
6
CONTINUOUS
10
4.04816
20
-5.26069
11
4.05941
21
-5.26069
0
LINE
8
BLACK
6
CONTINUOUS
10
4.05941
20
-5.26069
11
4.06691
21
-5.26444
0
LINE
8
BLACK
6
CONTINUOUS
10
4.06691
20
-5.26444
11
4.07066
21
-5.27193
0
LINE
8
BLACK
6
CONTINUOUS
10
4.07066
20
-5.27193
11
4.07066
21
-5.31318
0
LINE
8
BLACK
6
CONTINUOUS
10
4.07066
20
-5.27193
11
4.07441
21
-5.26444
0
LINE
8
BLACK
6
CONTINUOUS
10
4.07441
20
-5.26444
11
4.08191
21
-5.26069
0
LINE
8
BLACK
6
CONTINUOUS
10
4.08191
20
-5.26069
11
4.09316
21
-5.26069
0
LINE
8
BLACK
6
CONTINUOUS
10
4.09316
20
-5.26069
11
4.10066
21
-5.26444
0
LINE
8
BLACK
6
CONTINUOUS
10
4.10066
20
-5.26444
11
4.10441
21
-5.27193
0
LINE
8
BLACK
6
CONTINUOUS
10
4.10441
20
-5.27193
11
4.10441
21
-5.31318
0
LINE
8
BLACK
6
CONTINUOUS
10
4.1419
20
-5.31318
11
4.1419
21
-5.26069
0
LINE
8
BLACK
6
CONTINUOUS
10
4.1419
20
-5.26819
11
4.14565
21
-5.26444
0
LINE
8
BLACK
6
CONTINUOUS
10
4.14565
20
-5.26444
11
4.15315
21
-5.26069
0
LINE
8
BLACK
6
CONTINUOUS
10
4.15315
20
-5.26069
11
4.1644
21
-5.26069
0
LINE
8
BLACK
6
CONTINUOUS
10
4.1644
20
-5.26069
11
4.1719
21
-5.26444
0
LINE
8
BLACK
6
CONTINUOUS
10
4.1719
20
-5.26444
11
4.17565
21
-5.27193
0
LINE
8
BLACK
6
CONTINUOUS
10
4.17565
20
-5.27193
11
4.17565
21
-5.31318
0
LINE
8
BLACK
6
CONTINUOUS
10
4.17565
20
-5.27193
11
4.1794
21
-5.26444
0
LINE
8
BLACK
6
CONTINUOUS
10
4.1794
20
-5.26444
11
4.1869
21
-5.26069
0
LINE
8
BLACK
6
CONTINUOUS
10
4.1869
20
-5.26069
11
4.19814
21
-5.26069
0
LINE
8
BLACK
6
CONTINUOUS
10
4.19814
20
-5.26069
11
4.20564
21
-5.26444
0
LINE
8
BLACK
6
CONTINUOUS
10
4.20564
20
-5.26444
11
4.20939
21
-5.27193
0
LINE
8
BLACK
6
CONTINUOUS
10
4.20939
20
-5.27193
11
4.20939
21
-5.31318
0
LINE
8
BLACK
6
CONTINUOUS
10
4.36312
20
-5.23069
11
4.29563
21
-5.33193
0
LINE
8
BLACK
6
CONTINUOUS
10
4.46436
20
-5.23444
11
4.47186
21
-5.23444
0
LINE
8
BLACK
6
CONTINUOUS
10
4.47186
20
-5.23444
11
4.47936
21
-5.23819
0
LINE
8
BLACK
6
CONTINUOUS
10
4.47936
20
-5.23819
11
4.48311
21
-5.24194
0
LINE
8
BLACK
6
CONTINUOUS
10
4.48311
20
-5.24194
11
4.48686
21
-5.24944
0
LINE
8
BLACK
6
CONTINUOUS
10
4.48686
20
-5.24944
11
4.49061
21
-5.26444
0
LINE
8
BLACK
6
CONTINUOUS
10
4.49061
20
-5.26444
11
4.49061
21
-5.28318
0
LINE
8
BLACK
6
CONTINUOUS
10
4.49061
20
-5.28318
11
4.48686
21
-5.29818
0
LINE
8
BLACK
6
CONTINUOUS
10
4.48686
20
-5.29818
11
4.48311
21
-5.30568
0
LINE
8
BLACK
6
CONTINUOUS
10
4.48311
20
-5.30568
11
4.47936
21
-5.30943
0
LINE
8
BLACK
6
CONTINUOUS
10
4.47936
20
-5.30943
11
4.47186
21
-5.31318
0
LINE
8
BLACK
6
CONTINUOUS
10
4.47186
20
-5.31318
11
4.46436
21
-5.31318
0
LINE
8
BLACK
6
CONTINUOUS
10
4.46436
20
-5.31318
11
4.45686
21
-5.30943
0
LINE
8
BLACK
6
CONTINUOUS
10
4.45686
20
-5.30943
11
4.45311
21
-5.30568
0
LINE
8
BLACK
6
CONTINUOUS
10
4.45311
20
-5.30568
11
4.44936
21
-5.29818
0
LINE
8
BLACK
6
CONTINUOUS
10
4.44936
20
-5.29818
11
4.44561
21
-5.28318
0
LINE
8
BLACK
6
CONTINUOUS
10
4.44561
20
-5.28318
11
4.44561
21
-5.26444
0
LINE
8
BLACK
6
CONTINUOUS
10
4.44561
20
-5.26444
11
4.44936
21
-5.24944
0
LINE
8
BLACK
6
CONTINUOUS
10
4.44936
20
-5.24944
11
4.45311
21
-5.24194
0
LINE
8
BLACK
6
CONTINUOUS
10
4.45311
20
-5.24194
11
4.45686
21
-5.23819
0
LINE
8
BLACK
6
CONTINUOUS
10
4.45686
20
-5.23819
11
4.46436
21
-5.23444
0
LINE
8
BLACK
6
CONTINUOUS
10
4.52435
20
-5.30568
11
4.5281
21
-5.30943
0
LINE
8
BLACK
6
CONTINUOUS
10
4.5281
20
-5.30943
11
4.52435
21
-5.31318
0
LINE
8
BLACK
6
CONTINUOUS
10
4.52435
20
-5.31318
11
4.5206
21
-5.30943
0
LINE
8
BLACK
6
CONTINUOUS
10
4.5206
20
-5.30943
11
4.52435
21
-5.30568
0
LINE
8
BLACK
6
CONTINUOUS
10
4.52435
20
-5.30568
11
4.52435
21
-5.31318
0
LINE
8
BLACK
6
CONTINUOUS
10
4.57685
20
-5.23444
11
4.58435
21
-5.23444
0
LINE
8
BLACK
6
CONTINUOUS
10
4.58435
20
-5.23444
11
4.59184
21
-5.23819
0
LINE
8
BLACK
6
CONTINUOUS
10
4.59184
20
-5.23819
11
4.59559
21
-5.24194
0
LINE
8
BLACK
6
CONTINUOUS
10
4.59559
20
-5.24194
11
4.59934
21
-5.24944
0
LINE
8
BLACK
6
CONTINUOUS
10
4.59934
20
-5.24944
11
4.60309
21
-5.26444
0
LINE
8
BLACK
6
CONTINUOUS
10
4.60309
20
-5.26444
11
4.60309
21
-5.28318
0
LINE
8
BLACK
6
CONTINUOUS
10
4.60309
20
-5.28318
11
4.59934
21
-5.29818
0
LINE
8
BLACK
6
CONTINUOUS
10
4.59934
20
-5.29818
11
4.59559
21
-5.30568
0
LINE
8
BLACK
6
CONTINUOUS
10
4.59559
20
-5.30568
11
4.59184
21
-5.30943
0
LINE
8
BLACK
6
CONTINUOUS
10
4.59184
20
-5.30943
11
4.58435
21
-5.31318
0
LINE
8
BLACK
6
CONTINUOUS
10
4.58435
20
-5.31318
11
4.57685
21
-5.31318
0
LINE
8
BLACK
6
CONTINUOUS
10
4.57685
20
-5.31318
11
4.56935
21
-5.30943
0
LINE
8
BLACK
6
CONTINUOUS
10
4.56935
20
-5.30943
11
4.5656
21
-5.30568
0
LINE
8
BLACK
6
CONTINUOUS
10
4.5656
20
-5.30568
11
4.56185
21
-5.29818
0
LINE
8
BLACK
6
CONTINUOUS
10
4.56185
20
-5.29818
11
4.5581
21
-5.28318
0
LINE
8
BLACK
6
CONTINUOUS
10
4.5581
20
-5.28318
11
4.5581
21
-5.26444
0
LINE
8
BLACK
6
CONTINUOUS
10
4.5581
20
-5.26444
11
4.56185
21
-5.24944
0
LINE
8
BLACK
6
CONTINUOUS
10
4.56185
20
-5.24944
11
4.5656
21
-5.24194
0
LINE
8
BLACK
6
CONTINUOUS
10
4.5656
20
-5.24194
11
4.56935
21
-5.23819
0
LINE
8
BLACK
6
CONTINUOUS
10
4.56935
20
-5.23819
11
4.57685
21
-5.23444
0
LINE
8
BLACK
6
CONTINUOUS
10
4.67433
20
-5.23444
11
4.63684
21
-5.23444
0
LINE
8
BLACK
6
CONTINUOUS
10
4.63684
20
-5.23444
11
4.63309
21
-5.27193
0
LINE
8
BLACK
6
CONTINUOUS
10
4.63309
20
-5.27193
11
4.63684
21
-5.26819
0
LINE
8
BLACK
6
CONTINUOUS
10
4.63684
20
-5.26819
11
4.64434
21
-5.26444
0
LINE
8
BLACK
6
CONTINUOUS
10
4.64434
20
-5.26444
11
4.66309
21
-5.26444
0
LINE
8
BLACK
6
CONTINUOUS
10
4.66309
20
-5.26444
11
4.67058
21
-5.26819
0
LINE
8
BLACK
6
CONTINUOUS
10
4.67058
20
-5.26819
11
4.67433
21
-5.27193
0
LINE
8
BLACK
6
CONTINUOUS
10
4.67433
20
-5.27193
11
4.67808
21
-5.27943
0
LINE
8
BLACK
6
CONTINUOUS
10
4.67808
20
-5.27943
11
4.67808
21
-5.29818
0
LINE
8
BLACK
6
CONTINUOUS
10
4.67808
20
-5.29818
11
4.67433
21
-5.30568
0
LINE
8
BLACK
6
CONTINUOUS
10
4.67433
20
-5.30568
11
4.67058
21
-5.30943
0
LINE
8
BLACK
6
CONTINUOUS
10
4.67058
20
-5.30943
11
4.66309
21
-5.31318
0
LINE
8
BLACK
6
CONTINUOUS
10
4.66309
20
-5.31318
11
4.64434
21
-5.31318
0
LINE
8
BLACK
6
CONTINUOUS
10
4.64434
20
-5.31318
11
4.63684
21
-5.30943
0
LINE
8
BLACK
6
CONTINUOUS
10
4.63684
20
-5.30943
11
4.63309
21
-5.30568
0
LINE
8
BLACK
6
CONTINUOUS
10
4.74933
20
-5.23444
11
4.71183
21
-5.23444
0
LINE
8
BLACK
6
CONTINUOUS
10
4.71183
20
-5.23444
11
4.70808
21
-5.27193
0
LINE
8
BLACK
6
CONTINUOUS
10
4.70808
20
-5.27193
11
4.71183
21
-5.26819
0
LINE
8
BLACK
6
CONTINUOUS
10
4.71183
20
-5.26819
11
4.71933
21
-5.26444
0
LINE
8
BLACK
6
CONTINUOUS
10
4.71933
20
-5.26444
11
4.73808
21
-5.26444
0
LINE
8
BLACK
6
CONTINUOUS
10
4.73808
20
-5.26444
11
4.74558
21
-5.26819
0
LINE
8
BLACK
6
CONTINUOUS
10
4.74558
20
-5.26819
11
4.74933
21
-5.27193
0
LINE
8
BLACK
6
CONTINUOUS
10
4.74933
20
-5.27193
11
4.75307
21
-5.27943
0
LINE
8
BLACK
6
CONTINUOUS
10
4.75307
20
-5.27943
11
4.75307
21
-5.29818
0
LINE
8
BLACK
6
CONTINUOUS
10
4.75307
20
-5.29818
11
4.74933
21
-5.30568
0
LINE
8
BLACK
6
CONTINUOUS
10
4.74933
20
-5.30568
11
4.74558
21
-5.30943
0
LINE
8
BLACK
6
CONTINUOUS
10
4.74558
20
-5.30943
11
4.73808
21
-5.31318
0
LINE
8
BLACK
6
CONTINUOUS
10
4.73808
20
-5.31318
11
4.71933
21
-5.31318
0
LINE
8
BLACK
6
CONTINUOUS
10
4.71933
20
-5.31318
11
4.71183
21
-5.30943
0
LINE
8
BLACK
6
CONTINUOUS
10
4.71183
20
-5.30943
11
4.70808
21
-5.30568
0
LINE
8
BLACK
6
CONTINUOUS
10
4.82807
20
-5.31318
11
4.78307
21
-5.31318
0
LINE
8
BLACK
6
CONTINUOUS
10
4.80557
20
-5.31318
11
4.80557
21
-5.23444
0
LINE
8
BLACK
6
CONTINUOUS
10
4.80557
20
-5.23444
11
4.79807
21
-5.24569
0
LINE
8
BLACK
6
CONTINUOUS
10
4.79807
20
-5.24569
11
4.79057
21
-5.25319
0
LINE
8
BLACK
6
CONTINUOUS
10
4.79057
20
-5.25319
11
4.78307
21
-5.25694
0
LINE
8
BLACK
6
CONTINUOUS
10
4.85806
20
-5.23444
11
4.85806
21
-5.24944
0
LINE
8
BLACK
6
CONTINUOUS
10
4.88806
20
-5.23444
11
4.88806
21
-5.24944
0
LINE
8
BLACK
6
CONTINUOUS
10
5.00429
20
-5.34318
11
5.00054
21
-5.33943
0
LINE
8
BLACK
6
CONTINUOUS
10
5.00054
20
-5.33943
11
4.99304
21
-5.32818
0
LINE
8
BLACK
6
CONTINUOUS
10
4.99304
20
-5.32818
11
4.9893
21
-5.32068
0
LINE
8
BLACK
6
CONTINUOUS
10
4.9893
20
-5.32068
11
4.98555
21
-5.30943
0
LINE
8
BLACK
6
CONTINUOUS
10
4.98555
20
-5.30943
11
4.9818
21
-5.29068
0
LINE
8
BLACK
6
CONTINUOUS
10
4.9818
20
-5.29068
11
4.9818
21
-5.27568
0
LINE
8
BLACK
6
CONTINUOUS
10
4.9818
20
-5.27568
11
4.98555
21
-5.25694
0
LINE
8
BLACK
6
CONTINUOUS
10
4.98555
20
-5.25694
11
4.9893
21
-5.24569
0
LINE
8
BLACK
6
CONTINUOUS
10
4.9893
20
-5.24569
11
4.99304
21
-5.23819
0
LINE
8
BLACK
6
CONTINUOUS
10
4.99304
20
-5.23819
11
5.00054
21
-5.22694
0
LINE
8
BLACK
6
CONTINUOUS
10
5.00054
20
-5.22694
11
5.00429
21
-5.22319
0
LINE
8
BLACK
6
CONTINUOUS
10
5.03054
20
-5.24194
11
5.03429
21
-5.23819
0
LINE
8
BLACK
6
CONTINUOUS
10
5.03429
20
-5.23819
11
5.04179
21
-5.23444
0
LINE
8
BLACK
6
CONTINUOUS
10
5.04179
20
-5.23444
11
5.06054
21
-5.23444
0
LINE
8
BLACK
6
CONTINUOUS
10
5.06054
20
-5.23444
11
5.06804
21
-5.23819
0
LINE
8
BLACK
6
CONTINUOUS
10
5.06804
20
-5.23819
11
5.07178
21
-5.24194
0
LINE
8
BLACK
6
CONTINUOUS
10
5.07178
20
-5.24194
11
5.07553
21
-5.24944
0
LINE
8
BLACK
6
CONTINUOUS
10
5.07553
20
-5.24944
11
5.07553
21
-5.25694
0
LINE
8
BLACK
6
CONTINUOUS
10
5.07553
20
-5.25694
11
5.07178
21
-5.26819
0
LINE
8
BLACK
6
CONTINUOUS
10
5.07178
20
-5.26819
11
5.02679
21
-5.31318
0
LINE
8
BLACK
6
CONTINUOUS
10
5.02679
20
-5.31318
11
5.07553
21
-5.31318
0
LINE
8
BLACK
6
CONTINUOUS
10
5.15052
20
-5.31318
11
5.10553
21
-5.31318
0
LINE
8
BLACK
6
CONTINUOUS
10
5.12803
20
-5.31318
11
5.12803
21
-5.23444
0
LINE
8
BLACK
6
CONTINUOUS
10
5.12803
20
-5.23444
11
5.12053
21
-5.24569
0
LINE
8
BLACK
6
CONTINUOUS
10
5.12053
20
-5.24569
11
5.11303
21
-5.25319
0
LINE
8
BLACK
6
CONTINUOUS
10
5.11303
20
-5.25319
11
5.10553
21
-5.25694
0
LINE
8
BLACK
6
CONTINUOUS
10
5.24426
20
-5.31318
11
5.24426
21
-5.23444
0
LINE
8
BLACK
6
CONTINUOUS
10
5.27801
20
-5.31318
11
5.27801
21
-5.27193
0
LINE
8
BLACK
6
CONTINUOUS
10
5.27801
20
-5.27193
11
5.27426
21
-5.26444
0
LINE
8
BLACK
6
CONTINUOUS
10
5.27426
20
-5.26444
11
5.26676
21
-5.26069
0
LINE
8
BLACK
6
CONTINUOUS
10
5.26676
20
-5.26069
11
5.25551
21
-5.26069
0
LINE
8
BLACK
6
CONTINUOUS
10
5.25551
20
-5.26069
11
5.24801
21
-5.26444
0
LINE
8
BLACK
6
CONTINUOUS
10
5.24801
20
-5.26444
11
5.24426
21
-5.26819
0
LINE
8
BLACK
6
CONTINUOUS
10
5.32675
20
-5.31318
11
5.31925
21
-5.30943
0
LINE
8
BLACK
6
CONTINUOUS
10
5.31925
20
-5.30943
11
5.3155
21
-5.30568
0
LINE
8
BLACK
6
CONTINUOUS
10
5.3155
20
-5.30568
11
5.31175
21
-5.29818
0
LINE
8
BLACK
6
CONTINUOUS
10
5.31175
20
-5.29818
11
5.31175
21
-5.27568
0
LINE
8
BLACK
6
CONTINUOUS
10
5.31175
20
-5.27568
11
5.3155
21
-5.26819
0
LINE
8
BLACK
6
CONTINUOUS
10
5.3155
20
-5.26819
11
5.31925
21
-5.26444
0
LINE
8
BLACK
6
CONTINUOUS
10
5.31925
20
-5.26444
11
5.32675
21
-5.26069
0
LINE
8
BLACK
6
CONTINUOUS
10
5.32675
20
-5.26069
11
5.338
21
-5.26069
0
LINE
8
BLACK
6
CONTINUOUS
10
5.338
20
-5.26069
11
5.3455
21
-5.26444
0
LINE
8
BLACK
6
CONTINUOUS
10
5.3455
20
-5.26444
11
5.34925
21
-5.26819
0
LINE
8
BLACK
6
CONTINUOUS
10
5.34925
20
-5.26819
11
5.353
21
-5.27568
0
LINE
8
BLACK
6
CONTINUOUS
10
5.353
20
-5.27568
11
5.353
21
-5.29818
0
LINE
8
BLACK
6
CONTINUOUS
10
5.353
20
-5.29818
11
5.34925
21
-5.30568
0
LINE
8
BLACK
6
CONTINUOUS
10
5.34925
20
-5.30568
11
5.3455
21
-5.30943
0
LINE
8
BLACK
6
CONTINUOUS
10
5.3455
20
-5.30943
11
5.338
21
-5.31318
0
LINE
8
BLACK
6
CONTINUOUS
10
5.338
20
-5.31318
11
5.32675
21
-5.31318
0
LINE
8
BLACK
6
CONTINUOUS
10
5.39799
20
-5.31318
11
5.39049
21
-5.30943
0
LINE
8
BLACK
6
CONTINUOUS
10
5.39049
20
-5.30943
11
5.38675
21
-5.30193
0
LINE
8
BLACK
6
CONTINUOUS
10
5.38675
20
-5.30193
11
5.38675
21
-5.23444
0
LINE
8
BLACK
6
CONTINUOUS
10
5.45799
20
-5.30943
11
5.45049
21
-5.31318
0
LINE
8
BLACK
6
CONTINUOUS
10
5.45049
20
-5.31318
11
5.43549
21
-5.31318
0
LINE
8
BLACK
6
CONTINUOUS
10
5.43549
20
-5.31318
11
5.42799
21
-5.30943
0
LINE
8
BLACK
6
CONTINUOUS
10
5.42799
20
-5.30943
11
5.42424
21
-5.30193
0
LINE
8
BLACK
6
CONTINUOUS
10
5.42424
20
-5.30193
11
5.42424
21
-5.27193
0
LINE
8
BLACK
6
CONTINUOUS
10
5.42424
20
-5.27193
11
5.42799
21
-5.26444
0
LINE
8
BLACK
6
CONTINUOUS
10
5.42799
20
-5.26444
11
5.43549
21
-5.26069
0
LINE
8
BLACK
6
CONTINUOUS
10
5.43549
20
-5.26069
11
5.45049
21
-5.26069
0
LINE
8
BLACK
6
CONTINUOUS
10
5.45049
20
-5.26069
11
5.45799
21
-5.26444
0
LINE
8
BLACK
6
CONTINUOUS
10
5.45799
20
-5.26444
11
5.46174
21
-5.27193
0
LINE
8
BLACK
6
CONTINUOUS
10
5.46174
20
-5.27193
11
5.46174
21
-5.27943
0
LINE
8
BLACK
6
CONTINUOUS
10
5.46174
20
-5.27943
11
5.42424
21
-5.28693
0
LINE
8
BLACK
6
CONTINUOUS
10
5.49173
20
-5.30943
11
5.49923
21
-5.31318
0
LINE
8
BLACK
6
CONTINUOUS
10
5.49923
20
-5.31318
11
5.51423
21
-5.31318
0
LINE
8
BLACK
6
CONTINUOUS
10
5.51423
20
-5.31318
11
5.52173
21
-5.30943
0
LINE
8
BLACK
6
CONTINUOUS
10
5.52173
20
-5.30943
11
5.52548
21
-5.30193
0
LINE
8
BLACK
6
CONTINUOUS
10
5.52548
20
-5.30193
11
5.52548
21
-5.29818
0
LINE
8
BLACK
6
CONTINUOUS
10
5.52548
20
-5.29818
11
5.52173
21
-5.29068
0
LINE
8
BLACK
6
CONTINUOUS
10
5.52173
20
-5.29068
11
5.51423
21
-5.28693
0
LINE
8
BLACK
6
CONTINUOUS
10
5.51423
20
-5.28693
11
5.50298
21
-5.28693
0
LINE
8
BLACK
6
CONTINUOUS
10
5.50298
20
-5.28693
11
5.49548
21
-5.28318
0
LINE
8
BLACK
6
CONTINUOUS
10
5.49548
20
-5.28318
11
5.49173
21
-5.27568
0
LINE
8
BLACK
6
CONTINUOUS
10
5.49173
20
-5.27568
11
5.49173
21
-5.27193
0
LINE
8
BLACK
6
CONTINUOUS
10
5.49173
20
-5.27193
11
5.49548
21
-5.26444
0
LINE
8
BLACK
6
CONTINUOUS
10
5.49548
20
-5.26444
11
5.50298
21
-5.26069
0
LINE
8
BLACK
6
CONTINUOUS
10
5.50298
20
-5.26069
11
5.51423
21
-5.26069
0
LINE
8
BLACK
6
CONTINUOUS
10
5.51423
20
-5.26069
11
5.52173
21
-5.26444
0
LINE
8
BLACK
6
CONTINUOUS
10
5.55172
20
-5.34318
11
5.55547
21
-5.33943
0
LINE
8
BLACK
6
CONTINUOUS
10
5.55547
20
-5.33943
11
5.56297
21
-5.32818
0
LINE
8
BLACK
6
CONTINUOUS
10
5.56297
20
-5.32818
11
5.56672
21
-5.32068
0
LINE
8
BLACK
6
CONTINUOUS
10
5.56672
20
-5.32068
11
5.57047
21
-5.30943
0
LINE
8
BLACK
6
CONTINUOUS
10
5.57047
20
-5.30943
11
5.57422
21
-5.29068
0
LINE
8
BLACK
6
CONTINUOUS
10
5.57422
20
-5.29068
11
5.57422
21
-5.27568
0
LINE
8
BLACK
6
CONTINUOUS
10
5.57422
20
-5.27568
11
5.57047
21
-5.25694
0
LINE
8
BLACK
6
CONTINUOUS
10
5.57047
20
-5.25694
11
5.56672
21
-5.24569
0
LINE
8
BLACK
6
CONTINUOUS
10
5.56672
20
-5.24569
11
5.56297
21
-5.23819
0
LINE
8
BLACK
6
CONTINUOUS
10
5.56297
20
-5.23819
11
5.55547
21
-5.22694
0
LINE
8
BLACK
6
CONTINUOUS
10
5.55547
20
-5.22694
11
5.55172
21
-5.22319
  0
ENDSEC
  0
EOF
